<?xml version="1.0" encoding="UTF-8"?><svg id="Layer_1" xmlns="http://www.w3.org/2000/svg" viewBox="0 0 3187.94 1366.45"><defs><style>.cls-1{fill:none;stroke:#000;stroke-miterlimit:10;stroke-width:10px;}.cls-2{font-family:Ogg-Roman, Ogg;font-size:230px;}.cls-3{stroke-width:0px;}</style></defs><path class="cls-3" d="m1364.45,1031.82h-25.22c-9.61,0-6.01,9.2,3.6,9.2,34.83,0,127.32-3.07,145.34-3.07s86.48,3.07,121.32,3.07c4.8,0,7.2-2.05,7.2-5.11,0-2.05-2.4-4.09-8.41-4.09h-9.61c-57.66,0-75.67-16.36-194.59-255.63l-218.61-443.78c-1.2-2.05-4.8-3.07-12.01-3.07h-12.01c-6.01,0-7.2,1.02-8.41,3.07l-231.83,492.86c-19.22,42.95-49.25,101.23-79.28,145.2-25.22,39.88-52.85,61.35-86.48,61.35h-4.81c-3.6,0-7.2,2.05-7.2,4.09,0,3.07,2.4,5.11,7.2,5.11,30.03,0,84.08-2.05,99.7-2.05,20.42,0,115.31,2.05,136.93,2.05,12.01,0,14.41-3.07,14.41-6.13s-2.4-5.11-8.41-5.11c-4.8,0-24.02,3.07-33.63,3.07-43.24,0-67.27-17.38-67.27-50.1,0-44.99,22.82-109.41,43.24-152.36l20.42-42.95c36.04,1.02,156.15,3.07,215.01,3.07l140.54-3.07c114.11,227,104.5,244.39,52.85,244.39Zm-58.86-254.61h-141.74l-204.2,1.02,166.96-358.91,178.98,356.87v1.02Z"/><path class="cls-3" d="m1632.32,817.47l-43.63-59.59c0-2.57.28-7.24.28-34.33h-2.57c0,25.66.28,29.49-.57,30.34l-59.59-81.55c24.24-1.43,43.63-22.24,43.63-47.05s-20.53-45.91-45.91-46.76c-30.79,0-48.76,24.81-48.76,49.9-.28,3.42,0,6.84.57,10.26.86,5.99,2.85,13.97,8.27,21.67l11.12,15.97c-30.8,9.98-49.62,35.93-49.62,69,0,39.63,32.22,74.71,74.42,74.71,25.38-.57,43.91-10.84,56.17-30.8l21.1,28.23m-74.14-236.95c25.09-.86,44.48,20.24,44.48,44.77s-18.82,43.91-42.77,44.77l-15.68-21.67c-15.68-17.68-11.69-67.86,13.97-67.86Zm-3.71,236.67c-47.9,0-39.06-114.06-18.82-133.45l73.85,102.94c-11.69,19.39-30.8,30.51-55.03,30.51Z"/><path class="cls-3" d="m2438.3,1040.86c8.27,0,8.27-9.2,0-9.2h-15.51c-50.68,0-55.85-4.08-55.85-255.51v-178.86c0-251.42,5.17-255.51,55.85-255.51h15.51c8.27,0,8.27-9.2,0-9.2-17.58,0-104.46-7.15-119.97-7.15-19.65,0-34.13,34.75-81.7,109.36l-209.95,322.97-249.25-362.83c-14.48-20.44-34.13-50.08-41.37-63.37-2.07-4.09-5.17-6.13-10.34-6.13-7.24,0-24.82,7.15-132.38,7.15-7.24,0-7.24,8.18,0,8.18h5.17c25.86,0,49.64,19.42,67.23,38.84,8.27,9.2,13.44,24.53,13.44,43.95,0,58.26-1.03,236.09-1.03,352.6-1.03,242.22-29.99,254.49-76.53,255.51h-6.2c-9.31,0-8.28,9.2-1.04,9.2,28.96,0,68.26-3.07,83.77-3.07s106.52,4.09,136.52,3.07c7.24,0,7.24-9.2,0-9.2h-14.48c-50.68,0-109.63-4.08-108.59-255.51l1.03-367.93,284.42,409.84c3.1,5.11,5.17,7.16,8.27,7.16h9.31c4.14,0,6.21-2.05,9.31-7.16l244.08-377.13c29.99-44.97,40.33-66.43,40.33-26.57v361.8c0,251.43-5.17,255.51-55.85,255.51h-20.68c-8.27,0-8.27,9.2,0,9.2,28.96,0,100.32-3.07,115.83-3.07,14.48,0,81.7,3.07,110.67,3.07Z"/><rect class="cls-1" x="241.62" y="96.72" width="2739.83" height="1173" rx="586.5" ry="586.5"/><text class="cls-2" transform="translate(362.46 762.24)"><tspan x="0" y="0">20</tspan></text><text class="cls-2" transform="translate(2661.4 762.24)"><tspan x="0" y="0">24</tspan></text><path class="cls-3" d="m1604.83,801.62c-1.42,14.84-4.71,15.22-12.22,15.22h-4.91c-1.96,0-1.96,2.18,0,2.18,6.87,0,23.79-.73,27.47-.73,3.43,0,19.38.73,26.24.73,1.96,0,1.96-2.18,0-2.18h-3.68c-3.84,0-6.58-.1-8.53-2.18"/><path class="cls-3" d="m1596.51,723.55h1.89c.75,0,.75-1.92,0-1.92-2.64,0-9.15.64-10.56.64-1.32,0-7.45-.64-10.09-.64-.75,0-.75,1.92,0,1.92h1.41"/></svg>