<?xml version="1.0" encoding="UTF-8"?><svg id="Layer_1" xmlns="http://www.w3.org/2000/svg" viewBox="0 0 1219.87 2001.75"><defs><style>.cls-1{stroke-width:0px;}</style></defs><path class="cls-1" d="m534.83,1892.18c-6.55-1.11-11.57-.15-17.1.52-.69-.05-.89.75-.99,1.36-.29,1.69-.27,9.82-1.55,17.45-.1.61.5.71.61.1,2.8-16.61,7.53-20.75,17.86-19,7.29,1.23,9.84,6.31,8.77,12.66-1.29,7.63-6.21,12.15-16.61,19-4.76,3.09-9.5,6.1-16.82,10.36-.38.21-.57,2.55-.57,2.55.81.14,7.33,1.03,11.78,1.78,3.17.53,16.05,2.84,17.8,3.14,2.16.37,2.86.34,3.02.23.49-.47,2.4-6.4,4.19-12.07l1.46-4.54c.15-.46-.6-.59-.73-.19l-1.45,4.48c-1.9,5.93-5.44,7.56-10.79,6.72-5.22-.74-15.62-2.5-20.48-3.32,4.5-3.2,8.79-6.02,12.91-8.59,11.33-7.05,20.79-12.12,21.91-18.74,1.21-7.16-3.83-12.31-13.21-13.89Z"/><path class="cls-1" d="m589.14,1898.22c-4.1-.19-10.04,2.14-12.72,3.93-4.95,3.33-9.2,9.31-9.7,19.84-.76,16.48,5.87,24.33,18.65,24.92,4.58.21,9.2-1.7,11.88-3.43,4.45-2.81,10.01-10.37,10.48-20.42.72-15.46-4.64-24.2-18.59-24.85Zm13.65,25.03c-.43,9.23-1.7,16.03-5.79,19.88-1.82.81-5.68,1.38-8.97,1.23-11.83-.55-16.91-9.35-16.29-22.76.5-10.81,2.2-16.35,5-19.17,2.73-1.31,6.53-1.96,10.29-1.79,11.56.53,16.4,8.57,15.75,22.6Z"/><path class="cls-1" d="m661.42,1926.92l-.36,4.69c-.45,6.21-3.51,8.62-8.9,9.07-5.25.51-15.77,1.25-20.68,1.59,3.62-4.17,7.13-7.91,10.52-11.38,9.35-9.51,17.36-16.66,16.89-23.35-.51-7.24-6.61-11.07-16.1-10.4-6.62.47-11.28,2.58-16.49,4.52-.68.12-.69.94-.65,1.56.12,1.71,2.05,9.6,2.59,17.32.04.62.66.57.62-.04-1.18-16.8,2.44-21.93,12.89-22.66,7.37-.52,11.04,3.82,11.5,10.24.54,7.72-3.19,13.26-11.67,22.37-3.9,4.12-7.8,8.17-13.9,14.02-.33.3.04,2.61.04,2.61.82-.06,7.36-.72,11.87-1.04,3.21-.23,16.27-1.01,18.04-1.13,2.18-.15,2.86-.34,2.99-.48.37-.58.82-6.78,1.23-12.72l.35-4.76c.04-.48-.71-.43-.75-.02Z"/><path class="cls-1" d="m715.81,1906.08c-.02-.48-.69-.36-.68.06l.07,2.63c.16,5.4-2.55,8.41-7.65,9.43l-5.25.98-4.02-21.61c-.53-2.83.95-4.63,1.49-6.61.49-1.83-.7-2.24-3.06-1.1-.83.37-1.15.91-1.53,1.89-5.65,14.21-7.79,19.55-14.39,31.64-2.02,3.72-1.92,4.26-.6,3.87,1.46-.41,2.72-.72,3.8-.92l14.41-2.67,1.11,5.99c1.46,7.88,1.14,8.01-6.23,9.58-.4.07-.29.68.12.61,1.95-.36,9.06-1.82,10.07-2.01,1.01-.19,6.89-1.14,8.84-1.5.41-.07.29-.68-.11-.6-6.62,1.09-6.65.95-8.11-6.92l-1.11-5.99,9.29-1.73c2.15-.4,3.68-.82,3.78-1.05.12-.44.03-5.85-.14-11.26l-.08-2.7Zm-33.98,16.9c5.3-9.69,8.15-14.61,12.31-22.2l3.58,19.25-15.89,2.95Z"/><path class="cls-1" d="m736.29,763.12h-16c-6.1,0-3.81,5.84,2.28,5.84,22.09,0,80.74-1.94,92.17-1.94s54.84,1.94,76.93,1.94c3.05,0,4.57-1.3,4.57-3.24,0-1.3-1.52-2.59-5.33-2.59h-6.09c-36.56,0-47.99-10.37-123.4-162.11l-138.63-281.42c-.76-1.3-3.05-1.95-7.62-1.95h-7.62c-3.81,0-4.57.65-5.33,1.95l-147.01,312.54c-12.19,27.23-31.23,64.19-50.27,92.08-16,25.29-33.52,38.91-54.84,38.91h-3.05c-2.28,0-4.57,1.3-4.57,2.59,0,1.94,1.52,3.24,4.57,3.24,19.04,0,53.32-1.3,63.22-1.3,12.95,0,73.12,1.3,86.83,1.3,7.62,0,9.14-1.94,9.14-3.89s-1.52-3.24-5.33-3.24c-3.05,0-15.23,1.95-21.33,1.95-27.42,0-42.66-11.02-42.66-31.77,0-28.53,14.47-69.38,27.42-96.62l12.95-27.23c22.85.65,99.02,1.95,136.35,1.95l89.12-1.95c72.36,143.95,66.27,154.97,33.52,154.97Zm-37.32-161.46h-89.88l-129.49.65,105.88-227.6,113.49,226.3v.65Z"/><path class="cls-1" d="m878.26,1604.16c5.25,0,5.25-5.83,0-5.83h-9.84c-32.14,0-35.41-2.59-35.41-162.03v-113.42c0-159.44,3.28-162.03,35.41-162.03h9.84c5.25,0,5.25-5.83,0-5.83-11.15,0-66.24-4.54-76.08-4.54-12.46,0-21.64,22.04-51.81,69.35l-133.14,204.8-158.06-230.08c-9.18-12.96-21.64-31.76-26.23-40.18-1.31-2.59-3.28-3.89-6.56-3.89-4.59,0-15.74,4.54-83.95,4.54-4.59,0-4.59,5.19,0,5.19h3.28c16.4,0,31.48,12.31,42.63,24.63,5.25,5.83,8.52,15.55,8.52,27.87,0,36.94-.66,149.71-.66,223.6-.66,153.6-19.02,161.38-48.53,162.03h-3.93c-5.9,0-5.25,5.83-.66,5.83,18.36,0,43.29-1.95,53.12-1.95s67.55,2.59,86.57,1.95c4.59,0,4.59-5.83,0-5.83h-9.18c-32.14,0-69.52-2.59-68.86-162.03l.66-233.32,180.36,259.89c1.97,3.24,3.28,4.54,5.25,4.54h5.9c2.62,0,3.94-1.3,5.9-4.54l154.78-239.15c19.02-28.52,25.58-42.13,25.58-16.85v229.43c0,159.44-3.28,162.03-35.41,162.03h-13.12c-5.25,0-5.25,5.83,0,5.83,18.36,0,63.62-1.95,73.45-1.95,9.18,0,51.81,1.95,70.18,1.95Z"/><path class="cls-1" d="m609.63,54.84c-265.7,0-481.86,216.16-481.86,481.86v909.13c0,207.3,131.93,390.9,328.3,456.87l2.91-8.65c-192.64-64.72-322.08-244.85-322.08-448.22v-909.13c0-260.66,212.07-472.73,472.73-472.73s472.73,212.06,472.73,472.73v909.13c0,203.37-129.43,383.49-322.08,448.22l2.91,8.65c196.37-65.97,328.3-249.57,328.3-456.87v-909.13c0-265.7-216.16-481.86-481.86-481.86Z"/><path class="cls-1" d="m668.13,1086.82h41.95v-2.8h-5.08l-38.9-53.14c0-2.29.25-4.58.25-28.73h4.83v-2.8h-11.7v2.8h4.58c0,22.88.25,24.41-.51,25.17l-53.14-72.72c21.61-1.27,38.9-19.83,38.9-41.95s-18.31-40.94-40.94-41.7c-27.46,0-43.48,22.12-43.48,44.5-.25,3.05,0,6.1.51,9.15.76,5.34,2.54,12.46,7.37,19.32l9.92,14.24c-27.46,8.9-44.24,32.04-44.24,61.53,0,35.34,28.73,66.62,66.36,66.62,22.63-.51,39.16-9.66,50.09-27.46l18.82,25.17h-5.59v2.8Zm-60.51-214.09c22.38-.76,39.67,18.05,39.67,39.92s-16.78,39.16-38.14,39.92l-13.98-19.32c-13.98-15.76-10.42-60.51,12.46-60.51Zm-3.31,211.03c-42.72,0-34.83-101.7-16.78-118.99l65.85,91.79c-10.42,17.29-27.46,27.21-49.07,27.21Z"/></svg>