<?xml version="1.0" encoding="UTF-8"?><svg id="Layer_2" xmlns="http://www.w3.org/2000/svg" viewBox="0 0 1160.35 1984.52"><defs><style>.cls-1{fill:#404040;stroke-width:0px;}</style></defs><path class="cls-1" d="m591.92,1864.36v-25.44h-24.8v25.44h-6.64v-53.36h6.64v22.08h24.8v-22.08h6.64v53.36h-6.64Z"/><path class="cls-1" d="m634.16,1864.36c-.4-1.92-.4-2.64-.72-7.12-3.2,5.84-7.12,8.16-13.84,8.16-8.16,0-13.76-4.88-13.76-11.92,0-4.48,2.56-8.72,6.64-10.8,3.6-1.92,8.96-2.88,15.84-2.88,1.44,0,2.64,0,5.12.16v-1.28c0-7.44-2.8-10.16-10.32-10.16-5.92,0-9.52,2.48-10.56,7.2l-5.68-.96c.56-2.96,1.28-4.48,2.96-6.16,3.12-3.2,8.08-4.8,14.64-4.8,5.92,0,9.92,1.52,12.24,4.64,1.92,2.64,2.64,5.76,2.64,11.52v16.72c0,2.88.24,5.28.88,7.68h-6.08Zm-5.92-19.92c-10.24,0-15.84,3.2-15.84,9.2,0,4.24,3.28,7.04,8.4,7.04,7.2,0,12.72-5.92,12.72-13.52,0-.72,0-1.52-.08-2.56-2.16-.08-4.24-.16-5.2-.16Z"/><path class="cls-1" d="m656.4,1817.8h-6.64v-6.8h6.64v6.8Zm-.24,46.56h-6.16v-39.44h6.16v39.44Z"/><path class="cls-1" d="m666.8,1864.36v-53.36h6.16v53.36h-6.16Z"/><path class="cls-1" d="m715.28,1853.8c-2.56,7.28-8.72,11.6-16.72,11.6-10.8,0-18.08-8.24-18.08-20.56s7.52-20.96,18.32-20.96c6.64,0,12.08,3.36,14.88,9.12,1.6,3.44,2.24,6.72,2.32,12.16h-28.72c0,4.64.4,6.72,1.6,9.2,1.76,3.6,5.84,6,10.08,6,3.2,0,6.24-1.28,8.24-3.6.88-.96,1.52-2.08,2.4-4.16l5.68,1.2Zm-6-13.2c-.08-3.68-.64-5.52-2.24-7.84-2-2.8-4.64-4.16-8.16-4.16s-6.32,1.44-8.48,4.08c-1.76,2.24-2.4,4.16-2.8,7.92h21.68Z"/><path class="cls-1" d="m733.44,1869c-1.36,3.76-3.04,6.24-5.44,7.92-1.44,1.04-3.36,1.52-6.16,1.52-1.6,0-2.56-.16-4.64-.64v-4.88c1.92.4,2.88.56,4.08.56,2.8,0,4.8-1.04,6.24-3.36.8-1.28,1.52-2.96,2.64-6.48l-13.68-38.72h6.24l10.56,29.68,10.8-29.68h5.2l-15.84,44.08Z"/><path class="cls-1" d="m612.5,1403.65v-47.52h-15.28v-5.84h37.2v5.84h-15.28v47.52h-6.64Z"/><path class="cls-1" d="m664.26,1403.65v-23.92c0-4.08-.16-5.52-.8-7.12-1.04-2.64-3.84-4.4-6.88-4.4-2.72,0-5.68,1.44-7.68,3.76-2.32,2.64-3.28,5.76-3.28,10.4v21.28h-6.16v-53.36h6.16v21.2c3.2-6,6.64-8.4,12.08-8.4,4.32,0,8.08,1.84,10.32,5.2,2,2.88,2.4,4.88,2.4,11.44v23.92h-6.16Z"/><path class="cls-1" d="m712.74,1393.09c-2.56,7.28-8.72,11.6-16.72,11.6-10.8,0-18.08-8.24-18.08-20.56s7.52-20.96,18.32-20.96c6.64,0,12.08,3.36,14.88,9.12,1.6,3.44,2.24,6.72,2.32,12.16h-28.72c0,4.64.4,6.72,1.6,9.2,1.76,3.6,5.84,6,10.08,6,3.2,0,6.24-1.28,8.24-3.6.88-.96,1.52-2.08,2.4-4.16l5.68,1.2Zm-6-13.2c-.08-3.68-.64-5.52-2.24-7.84-2-2.8-4.64-4.16-8.16-4.16s-6.32,1.44-8.48,4.08c-1.76,2.24-2.4,4.16-2.8,7.92h21.68Z"/><path class="cls-1" d="m757.94,1403.65h-6.4l-18-53.36h6.96l14.88,44,14.72-44h5.84l-18,53.36Z"/><path class="cls-1" d="m802.98,1403.65c-.4-1.92-.4-2.64-.72-7.12-3.2,5.84-7.12,8.16-13.84,8.16-8.16,0-13.76-4.88-13.76-11.92,0-4.48,2.56-8.72,6.64-10.8,3.6-1.92,8.96-2.88,15.84-2.88,1.44,0,2.64,0,5.12.16v-1.28c0-7.44-2.8-10.16-10.32-10.16-5.92,0-9.52,2.48-10.56,7.2l-5.68-.96c.56-2.96,1.28-4.48,2.96-6.16,3.12-3.2,8.08-4.8,14.64-4.8,5.92,0,9.92,1.52,12.24,4.64,1.92,2.64,2.64,5.76,2.64,11.52v16.72c0,2.88.24,5.28.88,7.68h-6.08Zm-5.92-19.92c-10.24,0-15.84,3.2-15.84,9.2,0,4.24,3.28,7.04,8.4,7.04,7.2,0,12.72-5.92,12.72-13.52,0-.72,0-1.52-.08-2.56-2.16-.08-4.24-.16-5.2-.16Z"/><path class="cls-1" d="m818.9,1403.65v-53.36h6.16v53.36h-6.16Z"/><path class="cls-1" d="m835.7,1403.65v-53.36h6.16v53.36h-6.16Z"/><path class="cls-1" d="m884.18,1393.09c-2.56,7.28-8.72,11.6-16.72,11.6-10.8,0-18.08-8.24-18.08-20.56s7.52-20.96,18.32-20.96c6.64,0,12.08,3.36,14.88,9.12,1.6,3.44,2.24,6.72,2.32,12.16h-28.72c0,4.64.4,6.72,1.6,9.2,1.76,3.6,5.84,6,10.08,6,3.2,0,6.24-1.28,8.24-3.6.88-.96,1.52-2.08,2.4-4.16l5.68,1.2Zm-6-13.2c-.08-3.68-.64-5.52-2.24-7.84-2-2.8-4.64-4.16-8.16-4.16s-6.32,1.44-8.48,4.08c-1.76,2.24-2.4,4.16-2.8,7.92h21.68Z"/><path class="cls-1" d="m902.34,1408.29c-1.36,3.76-3.04,6.24-5.44,7.92-1.44,1.04-3.36,1.52-6.16,1.52-1.6,0-2.56-.16-4.64-.64v-4.88c1.92.4,2.88.56,4.08.56,2.8,0,4.8-1.04,6.24-3.36.8-1.28,1.52-2.96,2.64-6.48l-13.68-38.72h6.24l10.56,29.68,10.8-29.68h5.2l-15.84,44.08Z"/><path class="cls-1" d="m979.7,1387.09c-1.44,5.52-2.72,8.24-5.36,11.36-3.44,4.08-8.32,6.24-14.32,6.24s-11.04-2.24-14.64-6.48c-4.56-5.44-7.04-13.12-7.04-21.76,0-16.48,8.72-27.2,22.16-27.2,10,0,16.4,5.68,19.2,17.12l-6.24,1.2c-2.64-8.88-6.48-12.64-13.04-12.64-9.28,0-14.8,8.32-14.8,22.24s5.68,21.84,14.56,21.84c3.84,0,7.68-1.92,9.84-4.88,1.6-2.24,2.4-4.08,3.6-8.4l6.08,1.36Z"/><path class="cls-1" d="m985.86,1403.65v-53.36h6.16v53.36h-6.16Z"/><path class="cls-1" d="m1028.18,1403.65v-7.52c-2.8,5.6-7.04,8.56-12.56,8.56-8,0-12.96-5.76-12.96-15.28v-25.2h6.16v25.2c0,3.6.64,5.92,2,7.52,1.44,1.76,3.6,2.72,5.76,2.72,6.08,0,10.96-5.92,10.96-13.2v-22.24h6.16v39.44h-5.52Z"/><path class="cls-1" d="m1044.33,1403.65v-53.36h6.16v20.48c3.2-5.44,6.48-7.6,11.6-7.6,9.52,0,16,8.32,16,20.56s-6.72,20.96-16.24,20.96c-5.36,0-9.2-2.4-12.32-7.6l-2.24,6.56h-2.96Zm6.16-15.44c.4,3.68.96,5.36,2.4,7.36,1.92,2.48,5.2,4.08,8.32,4.08,6.32,0,10.4-5.92,10.4-15.12,0-4.88-1.2-9.68-3.2-12.64-1.52-2.24-4.32-3.68-7.2-3.68s-5.44,1.28-7.6,3.68c-1.84,2.16-2.56,3.92-3.12,7.44v8.88Z"/><path class="cls-1" d="m267.16,360.8l-15.92-29.44-12.24,15.2v14.24h-6.64v-53.36h6.64v30.96l24.16-30.96h7.2l-14.48,18.72,18.64,34.64h-7.36Z"/><path class="cls-1" d="m309.88,350.24c-2.56,7.28-8.72,11.6-16.72,11.6-10.8,0-18.08-8.24-18.08-20.56s7.52-20.96,18.32-20.96c6.64,0,12.08,3.36,14.88,9.12,1.6,3.44,2.24,6.72,2.32,12.16h-28.72c0,4.64.4,6.72,1.6,9.2,1.76,3.6,5.84,6,10.08,6,3.2,0,6.24-1.28,8.24-3.6.88-.96,1.52-2.08,2.4-4.16l5.68,1.2Zm-6-13.2c-.08-3.68-.64-5.52-2.24-7.84-2-2.8-4.64-4.16-8.16-4.16s-6.32,1.44-8.48,4.08c-1.76,2.24-2.4,4.16-2.8,7.92h21.68Z"/><path class="cls-1" d="m335.48,361.44c-2.72.4-4,.48-5.84.48-7.44,0-11.28-4.08-11.28-12v-23.76h-6.96v-4.8h6.96l.24-9.92,5.76-.48v10.4h8.88v4.8h-8.88v24.72c0,4.08,2.16,6.16,6.4,6.16,1.44,0,2.56-.08,4.72-.48v4.88Z"/><path class="cls-1" d="m368.28,347.92c-.96,4.8-2.08,7.12-4.64,9.68-2.8,2.88-6.24,4.24-10.64,4.24-10.08,0-16.64-8.16-16.64-20.72s6.72-20.8,16.96-20.8c8.08,0,13.36,4.8,14.96,13.76l-5.52,1.04c-.48-3.04-1.04-4.48-2.08-6-1.76-2.4-4.4-3.76-7.44-3.76-6.48,0-10.48,6-10.48,15.6s3.84,15.84,10.4,15.84c4.96,0,8.32-3.36,9.6-9.84l5.52.96Z"/><path class="cls-1" d="m399.32,360.8v-23.92c0-4.08-.16-5.52-.8-7.12-1.04-2.64-3.84-4.4-6.88-4.4-2.72,0-5.68,1.44-7.68,3.76-2.32,2.64-3.28,5.76-3.28,10.4v21.28h-6.16v-53.36h6.16v21.2c3.2-6,6.64-8.4,12.08-8.4,4.32,0,8.08,1.84,10.32,5.2,2,2.88,2.4,4.88,2.4,11.44v23.92h-6.16Z"/><path class="cls-1" d="m441.64,360.8v-7.52c-2.8,5.6-7.04,8.56-12.56,8.56-8,0-12.96-5.76-12.96-15.28v-25.2h6.16v25.2c0,3.6.64,5.92,2,7.52,1.44,1.76,3.6,2.72,5.76,2.72,6.08,0,10.96-5.92,10.96-13.2v-22.24h6.16v39.44h-5.52Z"/><path class="cls-1" d="m504.68,360.8v-24.48c0-4.32-.24-5.44-1.28-7.2-1.28-2.16-3.84-3.52-6.32-3.52s-5.04,1.28-7.04,3.44c-2.24,2.56-3.04,5.12-3.04,9.52v22.24h-5.92v-25.92c0-3.12-.56-5.04-1.84-6.64-1.52-1.84-3.68-2.88-5.92-2.88-5.44,0-9.68,5.2-9.68,11.84v23.6h-5.84v-39.44h5.28v7.6c2.8-5.68,6.96-8.64,12.16-8.64,5.52,0,9.52,3.44,11.04,9.44,2.64-6.16,7.04-9.44,12.48-9.44,4.16,0,8,2.16,10.08,5.6,1.44,2.32,1.84,4.72,1.84,10.4v24.48h-6Z"/><path class="cls-1" d="m322.16,150.3c2.48,7.36,7.6,10.88,15.76,10.88s12.8-3.68,12.8-9.76c0-4.08-2.96-7.12-8.16-8.4l-10.64-2.72c-4.4-1.04-6.72-2.16-8.8-4-2.8-2.64-4.32-6.16-4.32-10.32,0-8.72,7.2-14.56,18-14.56,9.52,0,16.08,4.48,19.04,13.12l-6,1.68c-.72-2.8-1.6-4.24-3.36-5.76-2.64-2.32-6.24-3.6-9.92-3.6-6.48,0-11.28,3.68-11.28,8.72,0,4.24,2.48,6.56,8.72,8.08l9.92,2.4c9.12,2.16,13.76,7.12,13.76,14.72,0,9.76-7.76,16.08-19.76,16.08-6.72,0-11.6-1.68-15.6-5.28-2.8-2.64-4.24-4.96-6.16-10l6-1.28Z"/><path class="cls-1" d="m390.96,165.82v-7.52c-2.8,5.6-7.04,8.56-12.56,8.56-8,0-12.96-5.76-12.96-15.28v-25.2h6.16v25.2c0,3.6.64,5.92,2,7.52,1.44,1.76,3.6,2.72,5.76,2.72,6.08,0,10.96-5.92,10.96-13.2v-22.24h6.16v39.44h-5.52Z"/><path class="cls-1" d="m432.48,165.82v-25.36c0-6.4-2.88-9.84-8.16-9.84-6.4,0-11.04,5.76-11.04,13.52v21.68h-6.16v-39.44h5.68v7.28c4.08-6.24,7.2-8.32,12.64-8.32,4.96,0,9.12,2.56,11.36,6.88,1.04,2,1.44,4.96,1.44,10.8v22.8h-5.76Z"/><path class="cls-1" d="m485.76,165.82h-6.4l-18-53.36h6.96l14.88,44,14.72-44h5.84l-18,53.36Z"/><path class="cls-1" d="m530.8,165.82c-.4-1.92-.4-2.64-.72-7.12-3.2,5.84-7.12,8.16-13.84,8.16-8.16,0-13.76-4.88-13.76-11.92,0-4.48,2.56-8.72,6.64-10.8,3.6-1.92,8.96-2.88,15.84-2.88,1.44,0,2.64,0,5.12.16v-1.28c0-7.44-2.8-10.16-10.32-10.16-5.92,0-9.52,2.48-10.56,7.2l-5.68-.96c.56-2.96,1.28-4.48,2.96-6.16,3.12-3.2,8.08-4.8,14.64-4.8,5.92,0,9.92,1.52,12.24,4.64,1.92,2.64,2.64,5.76,2.64,11.52v16.72c0,2.88.24,5.28.88,7.68h-6.08Zm-5.92-19.92c-10.24,0-15.84,3.2-15.84,9.2,0,4.24,3.28,7.04,8.4,7.04,7.2,0,12.72-5.92,12.72-13.52,0-.72,0-1.52-.08-2.56-2.16-.08-4.24-.16-5.2-.16Z"/><path class="cls-1" d="m546.72,165.82v-53.36h6.16v53.36h-6.16Z"/><path class="cls-1" d="m563.52,165.82v-53.36h6.16v53.36h-6.16Z"/><path class="cls-1" d="m612,155.26c-2.56,7.28-8.72,11.6-16.72,11.6-10.8,0-18.08-8.24-18.08-20.56s7.52-20.96,18.32-20.96c6.64,0,12.08,3.36,14.88,9.12,1.6,3.44,2.24,6.72,2.32,12.16h-28.72c0,4.64.4,6.72,1.6,9.2,1.76,3.6,5.84,6,10.08,6,3.2,0,6.24-1.28,8.24-3.6.88-.96,1.52-2.08,2.4-4.16l5.68,1.2Zm-6-13.2c-.08-3.68-.64-5.52-2.24-7.84-2-2.8-4.64-4.16-8.16-4.16s-6.32,1.44-8.48,4.08c-1.76,2.24-2.4,4.16-2.8,7.92h21.68Z"/><path class="cls-1" d="m630.16,170.46c-1.36,3.76-3.04,6.24-5.44,7.92-1.44,1.04-3.36,1.52-6.16,1.52-1.6,0-2.56-.16-4.64-.64v-4.88c1.92.4,2.88.56,4.08.56,2.8,0,4.8-1.04,6.24-3.36.8-1.28,1.52-2.96,2.64-6.48l-13.68-38.72h6.24l10.56,29.68,10.8-29.68h5.2l-15.84,44.08Z"/><path class="cls-1" d="m225.72,721.83c-3.82,4.36-6.54,8.8-9.97,16.12-2.73,5.92-4.75,15.58-4.75,22.74,0,.86.08,2.18.16,3.82h-13.94c-.47-13.24,7.24-31.39,17.6-41.2h-26.32l.93-10.75h36.29v9.27Z"/><path class="cls-1" d="m239.97,723.24l-.78,11.53c3.19-3.19,6.31-4.44,11.06-4.44,9.74,0,16.82,7.01,16.82,16.59,0,11.29-7.87,18.38-20.25,18.38-6.07,0-10.83-1.56-14.64-4.83-3.04-2.65-4.52-5.06-5.76-9.89l11.37-1.71c1.25,4.67,3.97,6.85,8.72,6.85s8.33-3.35,8.33-7.94-3.66-8.18-8.18-8.18c-3.19,0-5.84,1.4-7.48,4.05l-9.97-1.64,2.02-29.44h32.71l-1.32,10.67h-22.66Z"/><path class="cls-1" d="m537.18,1339.65c-20.95,0-38,17.05-38,38,0,8.3,2.68,15.99,7.22,22.25-.75.12-1.49.18-2.21.18-7.96-.15-15.56-8.34-24.36-17.83-12.44-13.42-27.93-30.11-52.27-30.11-38.1,0-66.56,17.85-79.11,27.46-13.13-49.22-33.46-101.81-54.48-156.19-33.15-85.73-67.42-174.38-73.71-254-4.76-60.24-5.47-115.95-2.5-164.02h63.81c14.87,0,26.97-12.1,26.97-26.97v-75.55c0-14.87-12.1-26.96-26.97-26.96h-39.9c3.68-8.99,7.74-16.73,12.16-23.06,15.58-22.26,20.07-58.26,12.32-98.76-7.79-40.7-26.75-78.54-52-103.8-27.3-27.32-33.25-56.84-37.42-81.1,12.9-6.08,21.86-19.21,21.86-34.39,0-11.14-4.82-21.17-12.48-28.13,9.39-18.52,17.26-42.38,17.26-70.49,0-36.79,7.91-43.88,21-55.62,1.82-1.63,3.72-3.34,5.68-5.19,4.17,1.58,8.69,2.45,13.41,2.45,20.95,0,38-17.05,38-38,0-10.73-4.48-20.44-11.66-27.35,7.24-12.41,13.17-18.75,19.34-25.33,6.42-6.85,13.06-13.93,21.21-27.6,1.7-2.85.77-6.53-2.08-8.23-2.85-1.7-6.53-.77-8.23,2.08-7.49,12.56-13.4,18.87-19.66,25.54-6.28,6.7-12.72,13.58-20.44,26.66-4.99-2.41-10.58-3.76-16.48-3.76-20.95,0-38,17.05-38,38,0,11.74,5.36,22.26,13.75,29.23-.96.88-1.91,1.73-2.85,2.57-13.96,12.52-24.99,22.41-24.99,64.55,0,25.31-6.94,46.94-15.37,63.9-4.72-2.1-9.93-3.28-15.42-3.28-2.24,0-4.42.21-6.55.58-.34-6.88-1.18-15.45-2.84-26.18-6.38-41.39-22.58-101.28-48.16-178.01-1.05-3.14-4.45-4.84-7.59-3.79-3.14,1.05-4.84,4.45-3.79,7.59,23.46,70.38,49.44,158.24,50.43,204.65-11.62,6.51-19.5,18.94-19.5,33.18,0,20.95,17.05,38,38,38,1.54,0,3.05-.1,4.54-.28,4.28,24.62,11.15,56.85,40.54,86.25,23.6,23.61,41.35,59.18,48.7,97.58,7.05,36.79,3.17,70.29-10.36,89.62-5.57,7.96-10.64,18.01-15.16,29.94h-55.58c-14.87,0-26.97,12.1-26.97,26.96v75.55c0,14.87,12.1,26.97,26.97,26.97h32.43c-2.98,48.83-2.13,104.97,2.6,164.97,6.42,81.36,41.02,170.84,74.48,257.38,35.18,91,68.42,176.95,68.42,248.84s24.9,163.34,45.79,224.61c20.86,61.18,42,107.98,45.28,115.13-4.45,6.22-7.08,13.83-7.08,22.04,0,20.95,17.05,38,38,38s38-17.05,38-38-17.05-38-38-38c-8.12,0-15.65,2.57-21.83,6.93-13.9-31.1-88.16-203.24-88.16-330.71,0-26.53-4.32-54.71-11.48-84.17,7.55-6.38,36.33-28.27,75.85-28.27,19.1,0,31.49,13.36,43.48,26.27,10.22,11.01,19.87,21.42,32.93,21.66.15,0,.3,0,.46,0,3.87,0,7.75-.95,11.7-2.81,6.03,4.03,13.27,6.39,21.06,6.39,20.95,0,38-17.05,38-38s-17.05-38-38-38ZM217.47,139.82c0-14.34,11.66-26,26-26s26,11.66,26,26-11.66,26-26,26-26-11.66-26-26Zm-56.88,220.98c-14.34,0-26-11.66-26-26s11.66-26,26-26,26,11.66,26,26-11.66,26-26,26Zm12.67,432.6c-8.25,0-14.97-6.71-14.97-14.97v-75.55c0-8.25,6.71-14.96,14.97-14.96h108.31c8.25,0,14.97,6.71,14.97,14.96v75.55c0,8.25-6.71,14.97-14.97,14.97h-108.31Zm299.92,1018.97c14.34,0,26,11.66,26,26s-11.66,26-26,26-26-11.66-26-26,11.66-26,26-26Zm64-408.71c-14.34,0-26-11.66-26-26s11.66-26,26-26,26,11.66,26,26-11.66,26-26,26Z"/></svg>