<?xml version="1.0" encoding="UTF-8"?><svg id="Layer_2" xmlns="http://www.w3.org/2000/svg" viewBox="0 0 1167.42 1359.76"><defs><style>.cls-1{stroke-width:0px;}</style></defs><g id="Layer_4"><path class="cls-1" d="m364.43,965.98c-5.64,0-28.2,4.23-39.49,4.23-50.77,0-78.97-23.97-78.97-69.1,0-49.48,17.04-115.98,36.1-170.93l-13.29-18.12c-22.17,54.92-52.1,120.64-82.03,172.13-29.61,55-62.05,84.61-101.53,84.61h-5.64c-4.23,0-8.46,2.82-8.46,5.64,0,4.23,2.82,7.05,8.46,7.05,35.26,0,98.71-2.82,117.05-2.82,23.97,0,135.38,2.82,160.76,2.82,14.1,0,16.92-4.23,16.92-8.46s-2.82-7.05-9.87-7.05Z"/><path class="cls-1" d="m932.93,812.99c-22.89-48.83-50.72-112.84-86.22-196.73L590.06,4.23c-1.41-2.82-5.64-4.23-14.1-4.23h-14.1c-7.05,0-8.46,1.41-9.87,4.23l-211.72,528.75,12.05,16.97,168.64-425.85,210.12,492.16v1.41h-166.4l-163.57.96,10.88,15.32c55.53,1.08,120.67,2.05,161.15,2.05l164.99-4.23c133.97,313.06,122.69,337.04,62.05,337.04h-29.61c-11.28,0-7.05,12.69,4.23,12.69,35.53,0,122.15-3.19,158.14-4.03v-164.48Z"/><path class="cls-1" d="m141.3,1011.25c-1.41,346.74,78.93,335.59,148,335.59h19.73c9.87,0,9.87,12.69,0,12.69-40.88,1.41-164.91-4.23-186.05-4.23s-74.7,4.23-114.17,4.23c-9.87,0-11.28-12.69,1.41-12.69h8.46c63.43-1.41,102.89-1.54,104.3-335.59v-10.18s17.16-.28,17.99-.29c1.02-.01.33,10.47.33,10.47Zm425.67,41.01c-4.23,7.05-7.05,9.87-12.69,9.87h-12.69c-4.23,0-7.05-2.82-11.28-9.87L142.71,487.05l-1.24,428.64s-.16,5-5.18,9.13c-3.42,2.81-13.28,9.75-13.28,9.75.2-158.59,1.38-352.79,1.38-426.38,0-26.78-7.05-47.92-18.32-60.61-23.96-26.78-56.38-53.56-91.62-53.56h-7.05c-9.87,0-9.87-11.28,0-11.28,146.59,0,170.55-9.87,180.42-9.87,7.05,0,11.28,2.82,14.09,8.46,9.87,18.32,36.65,59.2,56.38,87.39l339.69,500.37,154.99-238.92,8.66,19.99m90.62-174.29l31.87-52.18c64.84-102.89,84.57-150.82,111.35-150.82,21.14,0,139.54,9.87,163.5,9.87,11.28,0,11.28,12.69,0,12.69h-21.14c-69.07,0-76.11,5.64-76.11,352.38v246.66c0,346.74,7.05,352.38,76.11,352.38h21.14c11.28,0,11.28,12.69,0,12.69-39.47,0-131.08-4.23-150.82-4.23-21.14,0-118.4,4.23-157.87,4.23-11.28,0-11.28-12.69,0-12.69h28.19c69.07,0,76.11-5.64,76.11-352.38v-498.96c0-54.97-14.09-25.37-54.97,36.65l-38.43,62.74-8.94-19.01Z"/></g></svg>