<?xml version="1.0" encoding="UTF-8"?><svg id="Layer_2" xmlns="http://www.w3.org/2000/svg" viewBox="0 0 1174.8 882.55"><defs><style>.cls-1{fill:none;}.cls-1,.cls-2{stroke-width:0px;}</style></defs><g id="Layer_7"><polygon class="cls-1" points="140.83 343.46 273.83 342.68 366.15 342.68 366.15 341.9 249.58 68.85 140.83 343.46"/><path class="cls-2" d="m1170.11,875.39h-11.73c-38.32,0-42.23-3.13-42.23-195.5v-136.85c0-192.37,3.91-195.5,42.23-195.5h11.73c6.26,0,6.26-7.04,0-7.04-13.29,0-78.98-5.47-90.71-5.47-14.86,0-25.81,26.59-61.78,83.67l-158.75,247.11-188.46-277.61c-10.95-15.64-25.81-38.32-31.28-48.48-1.56-3.13-3.91-4.69-7.82-4.69-2.27,0-5.91.95-15.2,2.05-19.15.84-38.36,1.43-57.58,1.98-42.75,1.16-85.52,2.01-128.29,2.7L287.92,2.35c-.78-1.56-3.13-2.35-7.82-2.35h-7.82c-3.91,0-4.69.78-5.48,2.35L115.79,379.45c-12.52,32.86-32.08,77.46-51.64,111.1-16.43,30.51-34.42,46.94-56.33,46.94h-3.13c-2.35,0-4.69,1.56-4.69,3.13,0,2.35,1.56,3.91,4.69,3.91,19.56,0,54.77-1.56,64.94-1.56,13.3,0,75.11,1.56,89.19,1.56,7.82,0,9.39-2.35,9.39-4.69s-1.56-3.91-5.48-3.91c-3.13,0-15.65,2.35-21.91,2.35-28.17,0-43.81-13.3-43.81-38.34,0-34.42,14.87-83.71,28.17-116.57l13.3-32.86c23.47.78,101.71,2.35,140.05,2.35l91.54-2.35c74.33,173.69,68.07,186.99,34.43,186.99h-16.43c-6.26,0-3.91,7.04,2.35,7.04,22.69,0,82.93-2.35,94.67-2.35s56.33,2.35,79.02,2.35c3.13,0,4.69-1.56,4.69-3.91,0-1.56-1.56-3.13-5.48-3.13h-6.26c-36.88,0-48.86-12.08-122.65-185.93,40.91.59,81.8,1.06,122.72,1.11,10.88,5.69,20.73,14.74,28.84,23.8,6.26,7.04,10.17,18.77,10.17,33.63,0,44.57-.78,180.64-.78,269.79-.78,185.33-22.68,194.72-57.87,195.5h-4.69c-7.04,0-6.26,7.04-.78,7.04,21.9,0,51.61-2.35,63.34-2.35s80.55,3.13,103.22,2.35c5.47,0,5.47-7.04,0-7.04h-10.95c-38.32,0-82.89-3.13-82.11-195.5l.78-281.52,215.05,313.58c2.35,3.91,3.91,5.47,6.26,5.47h7.04c3.13,0,4.69-1.56,7.04-5.47l184.55-288.56c22.68-34.41,30.5-50.83,30.5-20.33v276.83c0,192.37-3.91,195.5-42.23,195.5h-15.64c-6.26,0-6.26,7.04,0,7.04,21.9,0,75.85-2.35,87.58-2.35,10.95,0,61.78,2.35,83.67,2.35,6.26,0,6.26-7.04,0-7.04ZM366.15,342.68h-92.32l-133,.78L249.58,68.85l116.58,273.05v.78Z"/></g></svg>