<?xml version="1.0" encoding="UTF-8"?><svg id="Layer_2" xmlns="http://www.w3.org/2000/svg" viewBox="0 0 1572.1 1066"><defs><style>.cls-1{stroke-width:0px;}</style></defs><g id="Layer_6"><path class="cls-1" d="m327.19,600.17c-45.03,0-136.94-1.57-164.51-2.35l-15.62,32.86c-15.62,32.86-33.09,82.15-33.09,116.57,0,25.04,18.38,38.34,51.47,38.34,7.35,0,22.06-2.35,25.73-2.35,4.6,0,6.43,1.57,6.43,3.91s-1.84,4.69-11.03,4.69c-16.54,0-89.15-1.56-104.77-1.56-11.95,0-53.31,1.56-76.28,1.56-3.68,0-5.51-1.56-5.51-3.91,0-1.56,2.76-3.13,5.51-3.13h3.68c25.73,0,46.87-16.43,66.17-46.94,22.98-33.64,45.95-78.24,60.66-111.1l177.38-377.11c.92-1.57,1.84-2.35,6.43-2.35h9.19c5.51,0,8.27.78,9.19,2.35l167.27,339.55c90.99,183.08,104.77,195.59,148.89,195.59h7.35c4.6,0,6.43,1.56,6.43,3.13,0,2.35-1.84,3.91-5.52,3.91-26.65,0-79.04-2.35-92.83-2.35s-84.55,2.35-111.21,2.35c-7.35,0-10.11-7.04-2.76-7.04h19.3c39.52,0,46.87-13.3-40.44-186.99l-107.53,2.35Zm-34-284l-127.75,274.62,156.24-.78h108.45v-.78l-136.94-273.05Z"/><path class="cls-1" d="m1224.89,626.85c-2.35,0-3.91-1.56-6.26-5.47l-215.05-313.58-.78,281.52c-.78,192.37,43.79,195.5,82.11,195.5h10.95c5.47,0,5.47,7.04,0,7.04-22.68.78-91.49-2.35-103.22-2.35s-41.45,2.35-63.34,2.35c-5.47,0-6.26-7.04.78-7.04h4.69c35.19-.78,57.09-10.17,57.87-195.5,0-89.15.78-225.22.78-269.79,0-14.86-3.91-26.59-10.17-33.63-13.29-14.86-31.28-29.72-50.83-29.72h-3.91c-5.47,0-5.47-6.26,0-6.26,81.33,0,94.62-5.47,100.1-5.47,3.91,0,6.26,1.56,7.82,4.69,5.47,10.17,20.33,32.84,31.28,48.48l188.46,277.61,158.75-247.11c35.97-57.09,46.92-83.67,61.78-83.67,11.73,0,77.42,5.47,90.71,5.47,6.26,0,6.26,7.04,0,7.04h-11.73c-38.32,0-42.23,3.13-42.23,195.5v136.85c0,192.37,3.91,195.5,42.23,195.5h11.73c6.26,0,6.26,7.04,0,7.04-21.9,0-72.73-2.35-83.67-2.35-11.73,0-65.69,2.35-87.58,2.35-6.26,0-6.26-7.04,0-7.04h15.64c38.32,0,42.23-3.13,42.23-195.5v-276.83c0-30.5-7.82-14.08-30.5,20.33l-184.55,288.56c-2.35,3.91-3.91,5.47-7.04,5.47h-7.04Z"/><path class="cls-1" d="m783.64,1066c-2.76,0-5-2.24-5-5V5c0-2.76,2.24-5,5-5s5,2.24,5,5v1056c0,2.76-2.24,5-5,5Z"/></g></svg>