<?xml version="1.0" standalone="no"?>
<!DOCTYPE svg PUBLIC "-//W3C//DTD SVG 1.1//EN" "http://www.w3.org/Graphics/SVG/1.1/DTD/svg11.dtd" >
<svg xmlns="http://www.w3.org/2000/svg" xmlns:xlink="http://www.w3.org/1999/xlink" version="1.1">
<metadata>
Created by FontForge 20170731 at Sat Aug 19 23:10:35 2023
 By Aleksey,,,
Copyright (c) 2013 by Lucas Sharp. All rights reserved.
</metadata>
<defs>
<font id="Ogg-Roman" horiz-adv-x="1142" >
  <font-face 
    font-family="Ogg"
    font-weight="400"
    font-stretch="normal"
    units-per-em="2048"
    panose-1="0 0 0 0 0 0 0 0 0 0"
    ascent="1536"
    descent="-512"
    x-height="1024"
    cap-height="1419"
    bbox="-348.155 -721 2764 2097"
    underline-thickness="102"
    underline-position="-307"
    unicode-range="U+0020-FA48"
  />
<missing-glyph horiz-adv-x="1740" 
d="M164 0v1413h1413v-1413h-1413zM193 29h1355v1355h-1355v-1355zM1380 1196l-489 -489l489 -490l-20 -20l-490 489l-489 -489l-21 20l490 490l-490 489l21 21l489 -490l490 490z" />
    <glyph glyph-name="f_b" unicode="fb" horiz-adv-x="1853" 
d="M778 16v1391q0 13 -37 30t-98 30.5t-119 13.5q-108 0 -162.5 -112t-54.5 -351h203q72 0 72 -2q0 -5 -13.5 -20.5t-41.5 -44.5t-42 -44q-28 0 -85.5 1t-92.5 1l2 -684q0 -54 1 -85.5t8 -57t13.5 -36.5t25.5 -18.5t36.5 -8.5t52.5 -1q12 0 12 -9t-12 -9q-33 0 -115.5 2
t-94.5 2t-92 -2t-113 -2q-12 0 -12 9t12 9q24 0 40 1t30.5 6t22.5 10t14.5 18.5t9.5 25.5t5 37.5t2.5 47t0.5 61.5q0 43 -0.5 113t-0.5 218.5t-0.5 246t-0.5 94.5v14h-84q-29 0 -29 11l72 96h51q33 186 147.5 332.5t261.5 205.5q67 27 132 27q25 0 65.5 -12t42.5 -12
q27 11 55 40.5t43 57.5q3 5 12 3t9 -9v-828q72 103 181.5 162t227.5 59q116 0 215 -60.5t158.5 -171.5t59.5 -249q0 -123 -50 -233t-132 -186t-188 -120t-216 -44q-180 0 -311 122q-48 -66 -64.5 -85t-24.5 -19q-10 0 -10 18zM1274 25q167 0 257.5 119.5t90.5 344.5
q0 92 -24.5 178t-70.5 156t-120 112t-166 42q-87 0 -172 -47.5t-137 -128.5v-584q178 -192 342 -192z" />
    <glyph glyph-name="f_h" unicode="fh" horiz-adv-x="1777" 
d="M932 801v-783h125q12 0 12 -9t-12 -9q-6 0 -89 2t-102 2q-18 0 -98.5 -2t-112.5 -2q-12 0 -12 9t12 9q25 0 38 0.5t28.5 4.5t22.5 8.5t15 17.5t10.5 27t5 40.5t3 54.5t0.5 73v1163q0 13 -37 30t-98 30.5t-119 13.5q-108 0 -162.5 -112t-54.5 -351h203q72 0 72 -2
q0 -5 -13.5 -20.5t-41.5 -44.5t-42 -44q-28 0 -85.5 1t-92.5 1l2 -684q0 -54 1 -85.5t8 -57t13.5 -36.5t25.5 -18.5t36.5 -8.5t52.5 -1q12 0 12 -9t-12 -9q-33 0 -115.5 2t-94.5 2t-92 -2t-113 -2q-12 0 -12 9t12 9q24 0 40 1t30.5 6t22.5 10t14.5 18.5t9.5 25.5t5 37.5
t2.5 47t0.5 61.5q0 43 -0.5 113t-0.5 218.5t-0.5 246t-0.5 94.5v14h-84q-29 0 -29 11l72 96h51q33 186 147.5 332.5t261.5 205.5q67 27 132 27q25 0 65.5 -12t42.5 -12q27 11 55 40.5t43 57.5q3 5 12 3t9 -9v-826q163 219 375 219q333 0 333 -415v-527q0 -55 23.5 -70.5
t81.5 -13.5q12 0 12 -9t-12 -9q-6 0 -88 2t-101 2q-12 0 -79.5 -2t-100.5 -2q-12 0 -12 9t12 9q27 0 40.5 1t28.5 8.5t20.5 20t11 39t7 61.5t1.5 92v409q0 176 -70 255t-176 79q-94 0 -164.5 -42.5t-142.5 -139.5z" />
    <glyph glyph-name="f_j" unicode="fj" horiz-adv-x="1091" 
d="M307 1018h203q72 0 72 -2q0 -5 -13.5 -20.5t-41.5 -44.5t-42 -44q-28 0 -85.5 1t-92.5 1l2 -684q0 -54 1 -85.5t8 -57t13.5 -36.5t25.5 -18.5t36.5 -8.5t52.5 -1q12 0 12 -9t-12 -9q-33 0 -115.5 2t-94.5 2t-92 -2t-113 -2q-12 0 -12 9t12 9q24 0 40 1t30.5 6t22.5 10
t14.5 18.5t9.5 25.5t5 37.5t2.5 47t0.5 61.5q-2 658 -2 666v20h-84q-29 0 -29 11l72 96h55q33 145 135 266t226.5 185.5t238.5 64.5q80 0 144.5 -16t64.5 -37q0 -31 -33 -68t-78 -37q-27 0 -127 19.5t-168 19.5q-57 0 -101 -17.5t-82.5 -59.5t-59 -123t-21.5 -197zM938 1030
l2 -930q-4 -123 -57 -226.5t-160 -235.5q-69 -84 -121 -128.5t-98 -44.5q-12 0 -37 5q-45 10 -45 36q0 28 26 63t58 44q12 4 33 4q24 0 59 -1t39 -1q17 0 36.5 7.5t28.5 17.5q1 1 8 9t9.5 11.5t10.5 15.5t12 21.5t10.5 29t10.5 39t9 49t7.5 62t4.5 76t2 92.5v727
q0 78 -12.5 110.5t-42.5 37t-80 -8.5q-13 -3 -15 6q-2 8 9 11q130 29 256 116q5 3 21 -2t16 -12z" />
    <glyph glyph-name="f_k" unicode="fk" horiz-adv-x="1765" 
d="M1782 0h-193q-47 0 -78 20q-37 24 -82.5 86.5t-117.5 186.5l-168 280l-211 -215v-340h125q12 0 12 -9t-12 -9q-6 0 -89 2t-102 2q-18 0 -98.5 -2t-112.5 -2q-12 0 -12 9t12 9q25 0 38 0.5t28.5 4.5t22.5 8.5t15 17.5t10.5 27t5 40.5t3 54.5t0.5 73v1163q0 13 -37 30
t-98 30.5t-119 13.5q-108 0 -162.5 -112t-54.5 -351h203q72 0 72 -2q0 -5 -13.5 -20.5t-41.5 -44.5t-42 -44q-28 0 -85.5 1t-92.5 1l2 -684q0 -54 1 -85.5t8 -57t13.5 -36.5t25.5 -18.5t36.5 -8.5t52.5 -1q12 0 12 -9t-12 -9q-33 0 -115.5 2t-94.5 2t-92 -2t-113 -2
q-12 0 -12 9t12 9q24 0 40 1t30.5 6t22.5 10t14.5 18.5t9.5 25.5t5 37.5t2.5 47t0.5 61.5q0 43 -0.5 113t-0.5 218.5t-0.5 246t-0.5 94.5v14h-84q-29 0 -29 11l72 96h51q33 186 147.5 332.5t261.5 205.5q67 27 132 27q25 0 65.5 -12t42.5 -12q27 11 55 40.5t43 57.5
q3 5 12 3t9 -9v-1268l321 332q149 154 137 236q-8 53 -85 53q-7 0 -9.5 4.5t0 9t9.5 4.5q31 0 112.5 -2t91.5 -2q16 0 117.5 2t106.5 2q7 0 9.5 -4.5t0 -9t-9.5 -4.5q-95 0 -205 -73t-260 -229l-27 -26l199 -316q117 -188 197.5 -265t144.5 -77q8 0 11.5 -4.5t0 -9
t-11.5 -4.5z" />
    <glyph glyph-name="fi" unicode="fi" horiz-adv-x="1097" 
d="M307 1018h203q72 0 72 -2q0 -5 -13.5 -20.5t-41.5 -44.5t-42 -44q-28 0 -85.5 1t-92.5 1l2 -684q0 -54 1 -85.5t8 -57t13.5 -36.5t25.5 -18.5t36.5 -8.5t52.5 -1q12 0 12 -9t-12 -9q-33 0 -115.5 2t-94.5 2t-92 -2t-113 -2q-12 0 -12 9t12 9q24 0 40 1t30.5 6t22.5 10
t14.5 18.5t9.5 25.5t5 37.5t2.5 47t0.5 61.5q-2 658 -2 666v20h-84q-29 0 -29 11l72 96h55q33 145 135 266t226.5 185.5t238.5 64.5q80 0 144.5 -16t64.5 -37q0 -31 -33 -68t-78 -37q-27 0 -127 19.5t-168 19.5q-57 0 -101 -17.5t-82.5 -59.5t-59 -123t-21.5 -197zM782 225
v547q0 78 -11.5 110.5t-40.5 37.5t-79 -9q-13 -3 -15 6q-2 8 9 11q130 29 256 116q5 3 21 -2t16 -12v-805q0 -49 1 -77t5.5 -54.5t12.5 -38.5t23 -22t35 -12.5t52 -2.5q12 0 12 -9t-12 -9q-33 0 -112 2t-91 2t-96 -2t-117 -2q-12 0 -12 9t12 9q89 0 110 35.5t21 171.5z" />
    <glyph glyph-name="fl" unicode="fl" horiz-adv-x="1079" 
d="M307 1018h203q72 0 72 -2q0 -5 -13.5 -20.5t-41.5 -44.5t-42 -44q-28 0 -85.5 1t-92.5 1l2 -684q0 -54 1 -85.5t8 -57t13.5 -36.5t25.5 -18.5t36.5 -8.5t52.5 -1q12 0 12 -9t-12 -9q-33 0 -115.5 2t-94.5 2t-92 -2t-113 -2q-12 0 -12 9t12 9q24 0 40 1t30.5 6t22.5 10
t14.5 18.5t9.5 25.5t5 37.5t2.5 47t0.5 61.5q0 43 -0.5 113t-0.5 218.5t-0.5 246t-0.5 94.5v14h-84q-29 0 -29 11l72 96h51q33 186 147.5 332.5t261.5 205.5q67 27 132 27q25 0 65.5 -12t42.5 -12q27 11 55 40.5t43 57.5q3 5 12 3t9 -9v-1407q0 -60 2 -92t8.5 -62.5
t21 -43.5t37.5 -20.5t60 -7.5q12 0 12 -9t-12 -9q-31 0 -103 2t-92 2q-18 0 -98.5 -2t-112.5 -2q-12 0 -12 9t12 9q25 0 38 0.5t28.5 4.5t22.5 8.5t15 17.5t10.5 27t5 40.5t3 54.5t0.5 73v1163q0 13 -37 30t-98 30.5t-119 13.5q-108 0 -162.5 -112t-54.5 -351z" />
    <glyph glyph-name="g_g" unicode="gg" horiz-adv-x="2017" 
d="M952 991q-20 0 -168 18.5t-231 18.5v-4q156 -21 244 -115.5t88 -234.5q0 -160 -121.5 -256t-310.5 -96h-37q-102 -7 -172 -35t-70 -76q0 -29 16.5 -46.5t54 -26.5t82.5 -12t119 -3h183q160 0 244.5 -68.5t84.5 -167.5q0 -121 -96 -239t-245 -190.5t-298 -71.5
q-176 -1 -255.5 67t-79.5 185q0 111 103.5 209t238.5 145q-130 5 -195 36t-65 103q0 67 82.5 123.5t207.5 75.5q-134 24 -211 110.5t-77 229.5q0 156 124 263t304 107q88 0 199 19.5t192.5 39t97.5 19.5q21 0 40 -7t19 -24q0 -30 -27 -63t-65 -33zM1942 991
q-20 0 -168.5 18.5t-231.5 18.5v-4q156 -21 244 -115.5t88 -234.5q0 -160 -121.5 -256t-310.5 -96h-37q-102 -7 -172 -35t-70 -76q0 -29 16.5 -46.5t54.5 -26.5t83 -12t119 -3h217q97 0 169 -20t112 -54.5t58.5 -74t18.5 -85.5q0 -99 -60.5 -193.5t-154 -161t-209 -107
t-223.5 -39.5q-148 -1 -230.5 66t-82.5 186q0 111 103.5 208t240.5 144h-11q-159 0 -244 31t-85 108q0 67 83 123.5t208 75.5q-135 24 -212 111t-77 229q0 156 124 263t304 107q88 0 199 19.5t192.5 39t97.5 19.5q21 0 40.5 -7t19.5 -24q0 -30 -27 -63t-65 -33zM442 -502h9
q205 0 326.5 87.5t121.5 213.5q0 99 -82.5 146t-259.5 47h-186q-133 -40 -215 -115t-82 -160q0 -107 97.5 -163t270.5 -56zM1485 -500h10q124 0 227.5 36t166.5 106t63 159q0 100 -88 145.5t-295 45.5h-129q-135 -39 -217 -113t-82 -160q0 -107 90 -163t254 -56zM475 342
q125 0 191.5 85.5t66.5 246.5q0 140 -67.5 243t-182.5 103q-262 0 -262 -328q0 -156 65.5 -253t188.5 -97zM1464 342q125 0 191.5 85.5t66.5 246.5q0 140 -67 243t-182 103q-263 0 -263 -328q0 -156 65.5 -253t188.5 -97z" />
    <glyph glyph-name=".notdef" horiz-adv-x="1740" 
d="M164 0v1413h1413v-1413h-1413zM193 29h1355v1355h-1355v-1355zM1380 1196l-489 -489l489 -490l-20 -20l-490 489l-489 -489l-21 20l490 490l-490 489l21 21l489 -490l490 490z" />
    <glyph glyph-name=".null" horiz-adv-x="0" 
 />
    <glyph glyph-name="nonmarkingreturn" horiz-adv-x="682" 
 />
    <glyph glyph-name="space" unicode=" " horiz-adv-x="632" 
 />
    <glyph glyph-name="exclam" unicode="!" horiz-adv-x="516" 
d="M139 111q0 48 34.5 83t84.5 35q47 0 83 -35.5t36 -82.5q0 -50 -35.5 -84.5t-83.5 -34.5q-51 0 -85 34t-34 85zM193 1245v10q0 32 46 95t64 63q22 0 35.5 -19t13.5 -53v-8q0 -88 -42 -449.5t-42 -549.5q0 -5 -3 -7t-6 0t-3 7q0 194 -31.5 523t-31.5 388z" />
    <glyph glyph-name="quotedbl" unicode="&#x22;" horiz-adv-x="575" 
d="M168 1452q24 0 41.5 -17.5t17.5 -41.5q0 -11 -12.5 -99.5t-25.5 -211t-13 -216.5q0 -8 -5 -12t-10 0t-5 12q0 94 -11 216.5t-22.5 211t-11.5 99.5q0 25 17 42t40 17zM406 1452q24 0 41.5 -17.5t17.5 -41.5q0 -11 -12.5 -99.5t-25.5 -211t-13 -216.5q0 -8 -5 -12t-10.5 0
t-5.5 12q0 94 -11.5 216.5t-22.5 211t-11 99.5q0 25 17 42t41 17z" />
    <glyph glyph-name="numbersign" unicode="#" horiz-adv-x="1656" 
d="M1100 719v-254q140 2 416 10q13 -18 14.5 -26t-2.5 -29q-236 19 -428 24q0 -139 8 -415q-6 -4 -11.5 -9t-8 -7t-6 -4t-6.5 -2.5t-7.5 -0.5t-11.5 2q4 116 11 248t9 190q-108 3 -248 3q-59 0 -147 -1.5t-121 -1.5q0 -141 8 -417q-6 -4 -11.5 -9t-8 -7t-6 -4t-6.5 -2.5
t-7.5 -0.5t-11.5 2q4 116 11.5 248t9.5 188q-76 -1 -206 -5.5t-194 -6.5q-4 6 -10 13t-7.5 9t-3.5 7t-1.5 9.5t2.5 12.5q262 -16 420 -18q4 136 4 252q0 190 -2 262q-77 -1 -207 -5.5t-195 -6.5q-4 6 -10 13t-7.5 9t-3.5 7t-1.5 9.5t2.5 12.5q288 -17 422 -19l-6 396
q18 13 26 14.5t29 -2.5q-24 -375 -25 -408q74 -2 262 -2h252l-6 398q18 13 26 14.5t29 -2.5q-22 -343 -24 -410q78 1 412 11q13 -18 14.5 -26.5t-2.5 -29.5q-254 21 -426 25q-2 -68 -2 -258zM829 981q-59 0 -146 -1t-120 -1q-2 -70 -2 -260v-254h516q4 136 4 252
q0 190 -2 262q-72 2 -250 2z" />
    <glyph glyph-name="dollar" unicode="$" horiz-adv-x="1148" 
d="M109 1051q0 175 126.5 280.5t319.5 108.5q-2 53 -2 159q19 14 23 15t26 -2q-4 -56 -8 -172q45 0 88 -3t69.5 -5.5t68 -10t54.5 -10t59.5 -13t53.5 -12.5t9.5 -3t6 -3.5t5 -6t2.5 -9.5q2 -17 -1.5 -96t-7.5 -177.5t-4 -146.5q0 -12 -5 -17t-10 0t-5 17q0 222 -92.5 341
t-290.5 134q-10 -332 -10 -608q180 -81 242 -117q171 -100 209 -231q12 -43 12 -90q0 -181 -125.5 -298.5t-333.5 -117.5h-2q0 -56 4 -174q-16 -28 -49 -21l6 195q-48 1 -90 4t-70.5 6.5t-64.5 10.5t-53.5 11t-58 14.5t-58.5 14.5q-15 5 -20.5 9.5t-6.5 17.5q-3 20 0 103
t7.5 191.5t4.5 164.5q0 11 5.5 15.5t10.5 0t5 -15.5q0 -232 96 -369.5t295 -154.5q10 397 10 682q-19 8 -56 25q-44 19 -66.5 29.5t-62.5 30t-62 32.5t-54.5 33.5t-50.5 38t-39.5 41.5t-32.5 47.5t-18.5 52t-7.5 59.5zM586 -23h18q150 0 235 84t85 215q0 70 -26.5 127.5
t-79 103t-105.5 76.5t-131 68q0 -445 4 -674zM238 1147q0 -48 18 -89.5t44.5 -72.5t72 -62t86 -52t100.5 -48q0 222 -4 598h-4q-149 0 -231 -76.5t-82 -197.5z" />
    <glyph glyph-name="percent" unicode="%" horiz-adv-x="1591" 
d="M786 696q-102 -121 -561 -698q-61 -12 -84 0q261 286 621 702q207 251 579 717q42 8 72 -4q-284 -304 -627 -717zM969 608q37 27 110.5 58.5t124.5 31.5q153 0 226 -79t73 -244q0 -96 -47.5 -172.5t-105.5 -116.5q-45 -33 -113.5 -66.5t-124.5 -33.5q-293 0 -293 315
q0 103 44.5 182t105.5 125zM979 594q-21 -31 -31 -83.5t-10 -160.5q0 -145 64 -216t180 -71q86 0 155 33q43 46 43 246q0 149 -55 217t-182 68q-111 0 -164 -33zM231 1341q37 27 111 59t125 32q153 0 226 -79.5t73 -244.5q0 -95 -48 -172t-106 -117q-45 -33 -113 -66.5
t-124 -33.5q-293 0 -293 315q0 103 44.5 182.5t104.5 124.5zM242 1327q-21 -31 -31 -83.5t-10 -160.5q0 -145 63.5 -215.5t179.5 -70.5q89 0 156 32q43 46 43 246q0 149 -55 217t-182 68q-111 0 -164 -33z" />
    <glyph glyph-name="ampersand" unicode="&#x26;" horiz-adv-x="1718" 
d="M1225 -4q-118 0 -398 280q-20 -36 -62.5 -83t-96.5 -93.5t-120 -78t-122 -31.5q-69 0 -139 47.5t-114 121.5t-44 146q0 113 111.5 224t238.5 126l6 -4q-213 263 -213 375q0 180 108 287t275 110q75 1 198.5 -26.5t154.5 -50.5q-21 -185 -21 -353q0 -16 -5.5 -22t-11 0
t-5.5 22q-9 120 -43.5 210t-103 147t-165.5 57q-127 0 -197.5 -66t-70.5 -182q0 -57 30 -126t94.5 -155.5t120 -152t150.5 -170.5q212 -236 367.5 -357.5t236.5 -121.5q54 0 78.5 90t24.5 219q0 98 -18.5 181.5t-47.5 123.5l-229 2q-176 0 -221 -6q-8 -2 -10.5 0.5t2.5 9.5
q12 15 36.5 48.5t40 52t23.5 18.5h283q109 0 184 12q12 2 15 -0.5t-7 -11.5q-27 -21 -56 -66t-40 -57q40 -30 69 -58t58 -67.5t44 -88t15 -105.5q0 -80 -64 -169.5t-159 -148.5t-180 -59zM641 473q-86 93 -147 170q-130 -33 -183 -83.5t-59 -153.5q6 -118 104 -214t183 -96
q79 0 150 52.5t122 142.5q-65 65 -170 182z" />
    <glyph glyph-name="quotesingle" unicode="'" horiz-adv-x="335" 
d="M168 1452q24 0 41.5 -17.5t17.5 -41.5q0 -11 -12.5 -99.5t-25.5 -211t-13 -216.5q0 -8 -5 -12t-10 0t-5 12q0 94 -11 216.5t-22.5 211t-11.5 99.5q0 25 17 42t40 17z" />
    <glyph glyph-name="parenleft" unicode="(" horiz-adv-x="819" 
d="M209 537q0 321 148.5 619.5t383.5 459.5q14 10 24 0q8 -9 -3 -19q-222 -158 -356 -451t-134 -609q0 -210 56.5 -415.5t166 -380t255.5 -278.5q14 -11 2 -19q-10 -5 -21 1q-154 105 -273.5 280t-184 386.5t-64.5 425.5z" />
    <glyph glyph-name="parenright" unicode=")" horiz-adv-x="819" 
d="M610 537q0 -214 -64.5 -425.5t-184 -386.5t-273.5 -280q-15 -9 -23 1q-6 8 5 17q219 156 348 454.5t129 619.5q0 316 -134 609t-356 451q-13 11 -2 20q10 7 23 -1q235 -161 383.5 -459.5t148.5 -619.5z" />
    <glyph glyph-name="asterisk" unicode="*" horiz-adv-x="718" 
d="M297 881q0 1 12.5 43.5t25.5 98t15 87.5q-27 -16 -69 -55t-73 -72t-32 -33q-39 -19 -68 -16t-40 18q-7 17 6 47t47 50q1 1 44.5 11t97 26.5t81.5 31.5q-28 15 -81.5 31.5t-97 27t-44.5 11.5q-34 20 -47.5 49.5t-5.5 44.5q11 16 40.5 19.5t67.5 -15.5q2 -1 33 -33.5
t72.5 -72t68.5 -56.5q-2 33 -15 89t-25.5 98.5t-12.5 44.5q0 39 19.5 65.5t37.5 26.5t38 -26.5t20 -65.5q0 -3 -13 -45.5t-26.5 -98t-14.5 -88.5q26 17 68 56.5t73.5 72t32.5 33.5q38 19 68 15.5t41 -19.5q8 -15 -5.5 -44.5t-47.5 -49.5q-1 -1 -44 -11.5t-98 -27t-84 -31.5
q29 -15 84 -31.5t98 -26.5t44 -11q34 -20 47 -50t6 -47q-11 -15 -40.5 -18t-68.5 16q-2 1 -33 32.5t-73 71.5t-68 56q1 -32 14.5 -87.5t26.5 -98t13 -43.5q0 -39 -20 -66t-38 -27t-37.5 27t-19.5 66z" />
    <glyph glyph-name="plus" unicode="+" 
d="M549 852q7 10 25 10t24 -10q-14 -191 -14 -338q138 0 334 12q10 -7 10 -25t-10 -24q-204 15 -334 15q0 -150 14 -336q-6 -10 -24 -10t-25 10q6 98 6 336q-135 0 -334 -15q-11 6 -11 23.5t11 25.5q192 -12 334 -12q0 240 -6 338z" />
    <glyph glyph-name="comma" unicode="," horiz-adv-x="550" 
d="M238 -252q-11 -7 -13 0q0 4 6 8q52 30 88.5 86t36.5 140q0 37 -12 67q-25 -49 -88 -49q-44 0 -75 31t-31 75q0 50 33 84.5t89 34.5q68 0 107 -56t39 -153q0 -45 -20 -90t-50 -80t-58 -59.5t-52 -38.5z" />
    <glyph glyph-name="hyphen" unicode="-" horiz-adv-x="1101" 
d="M557 514q210 0 406 12q13 -8 12.5 -25t-10.5 -24q-212 15 -408 15q-208 0 -412 -15q-11 7 -10.5 24t8.5 25q204 -12 414 -12z" />
    <glyph glyph-name="period" unicode="." horiz-adv-x="516" 
d="M139 111q0 48 34.5 83t84.5 35q47 0 83 -35.5t36 -82.5q0 -50 -35.5 -84.5t-83.5 -34.5q-51 0 -85 34t-34 85z" />
    <glyph glyph-name="slash" unicode="/" horiz-adv-x="729" 
d="M385 506q-303 -741 -426 -1061q-5 -2 -11 -3.5t-9 -2.5t-6.5 -2t-6 -1t-5 0.5t-5.5 2t-6 3.5t-8 5q129 280 456 1067q374 935 435 1088q28 4 31 3.5t26 -12.5q-166 -344 -465 -1087z" />
    <glyph glyph-name="zero" unicode="0" horiz-adv-x="1445" 
d="M705 -20q-592 0 -592 718q0 413 262 607q66 48 178 91.5t197 43.5q307 0 448 -180.5t141 -536.5q0 -142 -45.5 -274t-107.5 -217.5t-131 -133.5q-68 -48 -162 -83t-188 -35zM780 59q72 0 149.5 14.5t117.5 35.5q83 85 114 230.5t31 371.5q0 653 -502 653q-178 0 -305 -68
q-62 -68 -92.5 -205.5t-30.5 -373.5q0 -152 31.5 -272t94.5 -207t162 -133t230 -46z" />
    <glyph glyph-name="one" unicode="1" horiz-adv-x="526" 
d="M61 18q31 0 51.5 5t35 22.5t22.5 36t12 60t5 80t1 108.5v809q0 49 -4.5 74t-20 40.5t-46 12.5t-82.5 -21q-8 -3 -13 1t-4 10.5t9 9.5q62 21 123.5 56.5t83.5 52.5t69 55q5 5 21 -1.5t16 -13.5v-1085q0 -84 2 -127t8.5 -86t21 -60.5t38.5 -28t63 -10.5h35q9 0 9 -9t-9 -9
q-33 0 -126.5 4t-105.5 4t-112 -4t-133 -4q-9 0 -9 9t9 9h30z" />
    <glyph glyph-name="two" unicode="2" horiz-adv-x="1232" 
d="M449 -2q-59 0 -142.5 -1.5t-145.5 -3t-69 -1.5q-6 70 4 78q229 190 445 389q146 136 226 230.5t124.5 196.5t44.5 216q0 151 -81 240.5t-241 89.5q-161 0 -252.5 -57.5t-135.5 -198.5t-44 -394q0 -8 -4.5 -12t-9 0t-4.5 12q0 138 -20.5 329t-20.5 194q0 43 22 45
q19 6 77 23.5t82 24t75.5 19.5t86.5 18.5t84 10t97 4.5q215 0 337 -91t122 -253q0 -30 -8 -61t-20 -59t-35.5 -62t-44 -61t-57.5 -65t-63.5 -64.5t-74 -69t-77.5 -69t-85.5 -75t-87.5 -76.5q-176 -155 -338 -317q463 0 621 4q126 2 195 60t89 192l21 139q1 6 7 8t11 -0.5
t4 -9.5l-20 -141q-51 -360 -64 -377q-8 -8 -90 -8q-21 0 -254 2t-286 2z" />
    <glyph glyph-name="three" unicode="3" horiz-adv-x="1157" 
d="M154 4q-19 4 -20 12q0 9 16 7q135 -21 243 -21q137 0 237 32t159 92t86.5 138t27.5 178q0 126 -84 216t-198 90q-45 0 -93.5 -25t-81.5 -55t-65 -55t-47 -25q-17 0 -24.5 12t-6 28t3.5 27.5t4 14.5q231 74 369.5 199t138.5 274q0 131 -71 209t-218 78q-171 0 -274.5 -132
t-103.5 -401q0 -9 -5 -12t-9.5 0t-4.5 12q0 107 -4 202.5t-8 149.5t-4 60q0 43 22 45q286 98 457 98q174 0 282.5 -76.5t110.5 -199.5q1 -46 -24.5 -93t-63 -86t-103 -86.5t-121.5 -82t-142 -83.5q113 37 174 37q161 0 261.5 -97.5t100.5 -260.5q0 -90 -32 -170t-96 -144.5
t-172 -102.5t-247 -38q-78 0 -188 10t-182 25z" />
    <glyph glyph-name="four" unicode="4" horiz-adv-x="1234" 
d="M741 561h160q241 3 277 236l12 77q1 6 6.5 8t10 -0.5t3.5 -9.5l-12 -79q-50 -317 -57 -332q-7 -10 -117 -10h-283v-183v-66t2 -51t3 -42t8 -30.5t11.5 -23.5t19 -14.5t25 -11t34.5 -4.5t43 -4t55 -1q9 0 9 -9t-9 -9q-33 0 -144.5 2t-123.5 2t-143 -2t-164 -2q-9 0 -9 9
t9 9q42 1 62 1.5t48.5 3.5t40 5.5t29 10.5t22.5 15t14.5 23t11 30.5t4.5 41.5t3 51.5v65.5v183h-438q-38 0 -117 -7q-27 -3 -27 11q1 20 66 100q181 222 285.5 373.5t310.5 478.5q13 22 24.5 32.5t30.5 14.5q57 15 80 2t4 -51q-7 -15 -30.5 -49.5t-36.5 -66t-13 -70.5v-658z
M119 561h483v586q-77 -95 -225.5 -273.5t-257.5 -312.5z" />
    <glyph glyph-name="five" unicode="5" horiz-adv-x="1144" 
d="M1042 422q0 -95 -34.5 -177t-100 -144t-169 -97t-232.5 -35q-154 0 -326 35q-19 4 -20 12q0 9 16 7q135 -21 260 -21q93 0 168.5 23.5t126 63.5t84.5 95t49 115.5t15 128.5q0 149 -103.5 253.5t-269.5 104.5q-97 0 -175.5 -41t-183.5 -127q-7 -4 -18.5 3t-11.5 16l6 672
q0 11 67.5 58.5t79.5 47.5q14 0 147 -2t187 -2h320q88 0 88 -8q-1 -9 -17.5 -129t-21.5 -189l-10 -145q0 -7 -4.5 -9.5t-9.5 -0.5t-5 8l10 147q8 125 -38 166.5t-199 42.5h-455l-37 -598q188 150 357 150q219 0 339.5 -117.5t120.5 -306.5z" />
    <glyph glyph-name="six" unicode="6" horiz-adv-x="1169" 
d="M82 549q0 108 45 233t128 248t217.5 231t297.5 169q11 5 14 -4q2 -6 -6 -9q-118 -47 -212 -124t-152 -164t-97 -187.5t-54 -190.5t-15 -178q0 -145 56.5 -273.5t145.5 -202.5t183 -74q126 0 201 45q54 77 76 153t22 189q0 94 -32 169.5t-85 122t-116.5 71t-129.5 24.5
q-50 0 -122 -27.5t-119 -69.5q-6 -3 -9.5 -2t-4 4.5t2.5 6.5q64 64 161.5 112.5t170.5 48.5q72 0 136 -15.5t119 -48.5t94.5 -82.5t62 -121t22.5 -158.5q0 -63 -16.5 -120t-46 -102.5t-51.5 -72t-51 -55.5q-99 -56 -192 -88.5t-155 -32.5q-74 0 -144.5 22t-133 68.5
t-109.5 113.5t-74.5 162.5t-27.5 209.5z" />
    <glyph glyph-name="seven" unicode="7" horiz-adv-x="1110" 
d="M459 2q-12 0 -124 -2t-140 -2q-10 0 -11 8q1 9 13 10h57q74 0 151 90t181 318l143 313q191 426 225 510h-559q-62 -1 -97.5 -3t-69 -9.5t-49 -19.5t-29 -36t-18 -54t-7.5 -78l-12 -205q0 -14 -10 -15q-11 -1 -11 15v2l14 203q5 70 9 209.5t4 140.5q0 8 84 8h274
q50 0 284 2t247 2q7 0 13.5 -68.5t0.5 -76.5q-161 -299 -272 -535l-144 -315q-69 -153 -69 -283q0 -59 35 -88t98 -29q20 0 41 3t22 3q12 0 12 -12q0 -10 -24 -10q-18 0 -132.5 2t-129.5 2z" />
    <glyph glyph-name="eight" unicode="8" horiz-adv-x="1175" 
d="M168 1079q0 99 43 168t125 119q51 28 135 57t139 29q180 0 275.5 -85.5t95.5 -215.5q0 -34 -11 -68t-25.5 -61t-42.5 -59t-47.5 -51.5t-56.5 -49.5t-53.5 -42t-52.5 -38q61 -33 104 -59.5t91.5 -63.5t78 -72t49 -80.5t19.5 -94.5q0 -112 -47.5 -191t-144.5 -139
q-49 -28 -149 -65t-163 -37q-110 0 -196.5 31t-138.5 82.5t-78.5 113.5t-26.5 129q0 68 31.5 134.5t84 119.5t104 91.5t108.5 70.5q-120 70 -185 145t-65 182zM623 55q132 0 213 35q52 59 68 98t16 101q0 44 -12.5 83.5t-33 71t-53 62.5t-64.5 53.5t-77 49t-81 45t-86 44.5
t-83 45q-91 -59 -145 -147t-54 -197q0 -153 106.5 -248.5t285.5 -95.5zM840 1130q0 128 -77.5 194.5t-232.5 66.5q-47 0 -105.5 -10t-82.5 -23q-35 -55 -49 -97t-14 -102q0 -44 20.5 -85.5t51.5 -73.5t81 -67t95 -61t107 -60q32 -17 48 -26q77 75 117.5 156.5t40.5 187.5z
" />
    <glyph glyph-name="nine" unicode="9" horiz-adv-x="1183" 
d="M1083 848q0 -77 -25.5 -170t-82 -197.5t-136 -200t-197 -181.5t-255.5 -138q-13 -5 -14 4q-1 6 6 8q92 36 168 90t129.5 114t94.5 131.5t66 139.5t41.5 142t23 134t7.5 120q2 148 -46.5 271.5t-138 196t-200.5 72.5q-119 0 -194 -45q-57 -81 -83 -157t-26 -185
q0 -94 29.5 -170t78.5 -122.5t109.5 -71.5t126.5 -25q58 0 125.5 26.5t116.5 70.5q6 3 9.5 2t3.5 -4.5t-3 -6.5q-65 -65 -162.5 -115.5t-173.5 -50.5q-187 0 -298 105.5t-111 320.5q0 193 164 357q99 56 193 88.5t157 32.5q100 0 188.5 -37.5t158 -108.5t110 -184.5
t40.5 -255.5z" />
    <glyph glyph-name="colon" unicode=":" horiz-adv-x="516" 
d="M139 111q0 48 34.5 83t84.5 35q47 0 83 -35.5t36 -82.5q0 -50 -35.5 -84.5t-83.5 -34.5q-51 0 -85 34t-34 85zM139 737q0 48 34.5 83.5t84.5 35.5q47 0 83 -36t36 -83q0 -50 -35.5 -84.5t-83.5 -34.5q-51 0 -85 34t-34 85z" />
    <glyph glyph-name="semicolon" unicode=";" horiz-adv-x="550" 
d="M238 -252q-11 -7 -13 0q0 4 6 8q52 30 88.5 86t36.5 140q0 37 -12 67q-25 -49 -88 -49q-44 0 -75 31t-31 75q0 50 33 84.5t89 34.5q68 0 107 -56t39 -153q0 -45 -20 -90t-50 -80t-58 -59.5t-52 -38.5zM139 737q0 48 34.5 83.5t84.5 35.5q47 0 83 -36t36 -83
q0 -50 -35.5 -84.5t-83.5 -34.5q-51 0 -85 34t-34 85z" />
    <glyph glyph-name="less" unicode="&#x3c;" 
d="M569 371q196 -84 308 -121q3 -12 -1.5 -24t-13.5 -17q-63 33 -307 139l-303 137q-3 0 -3 12.5t3 12.5q282 127 307 139q189 82 293 139q22 -15 16 -40q-45 -15 -82 -30t-102 -43.5t-115 -49.5q-80 -34 -278 -127q40 -20 77.5 -37t92.5 -41.5t108 -48.5z" />
    <glyph glyph-name="equal" unicode="=" 
d="M573 649q-57 0 -130 1.5t-119 1t-103 -4.5q-18 15 -10 45q131 -14 360 -14q218 0 351 8q17 -20 6 -49q-40 6 -83.5 9t-69 3.5t-97 0t-105.5 -0.5zM573 332q-57 0 -130 1.5t-119 1t-103 -4.5q-10 3 -13 18t3 27q140 -15 360 -15q201 0 351 9q10 -7 11.5 -22.5t-5.5 -27.5
q-32 5 -61 8t-66 4t-61 1.5t-79.5 0t-87.5 -0.5z" />
    <glyph glyph-name="greater" unicode="&#x3e;" 
d="M582 629q-29 12 -76 32.5t-66 28.5t-49 20.5t-54.5 21t-53.5 18.5q-3 12 1 24.5t13 16.5q114 -59 299 -140l303 -137q3 0 3 -12.5t-3 -12.5q-282 -127 -307 -139q-182 -79 -299 -143q-23 16 -17 41q45 15 84.5 31t104 45t117.5 51q169 74 276 125q-6 3 -276 129z" />
    <glyph glyph-name="question" unicode="?" horiz-adv-x="808" 
d="M246 111q0 48 35.5 83t85.5 35q47 0 81.5 -35.5t34.5 -82.5q0 -50 -35 -84.5t-83 -34.5q-51 0 -85 34t-34 85zM268 698q0 17 17 23q166 81 238 158t71 186q-2 116 -109 181t-309 65q-12 0 -12 12q1 11 30.5 115t36.5 137q3 7 8 6.5t5 -8.5q-4 -24 -9.5 -54t-8 -44.5
t-1.5 -18.5q0 -2 1.5 -3.5t3.5 -2.5t4.5 -1.5t6 -0.5h6.5h7.5h7.5q102 0 185 -26t134.5 -68.5t79 -95.5t27.5 -109q0 -119 -88 -227.5t-199 -161.5q0 -17 10.5 -151.5t8.5 -145.5q-1 -5 -38 -28t-74 -42t-38 -14q-2 12 -2 319z" />
    <glyph glyph-name="at" unicode="@" horiz-adv-x="2000" 
d="M1618 -170l6 -4q-119 -117 -288 -197t-353 -80t-343 53.5t-278 152.5t-187.5 252t-68.5 341q0 150 44 288.5t120 248t178 200t217 150.5t237.5 92.5t240.5 32.5q133 0 248 -31.5t195.5 -84.5t142.5 -119t98.5 -140t54.5 -143t19 -131q0 -194 -88 -357.5t-238 -257.5
t-326 -94q-16 0 -68 15t-59 22q-24 27 -38.5 70t-16.5 75q-3 42 22.5 111.5t51.5 118.5t69 125q-107 -126 -246.5 -266.5t-252.5 -235.5q-11 -10 -44 -8.5t-40 8.5q-65 47 -71.5 180t48.5 262q41 100 116 188.5t157 145t162.5 89t140.5 32.5q65 0 105.5 -24.5t119.5 -112.5
q62 57 123 125q10 8 14.5 7.5t5.5 -5.5l2 -4q-98 -123 -225.5 -378t-120.5 -356q2 -24 40 -81t63 -64q103 0 202 47t175.5 129.5t123.5 205t47 263.5q0 75 -24.5 158t-82.5 170t-140 156.5t-210 114t-280 44.5q-137 0 -276 -43.5t-262 -126.5t-219 -194t-152.5 -258
t-56.5 -306q0 -161 44 -294.5t122 -228t186.5 -159.5t237.5 -96t276 -31q155 0 322.5 72.5t277.5 165.5zM737 123q63 19 254 214.5t320 373.5q-92 108 -134 141t-92 33q-94 0 -197.5 -112t-154.5 -271q-39 -132 -36.5 -233.5t40.5 -145.5z" />
    <glyph glyph-name="A" unicode="A" horiz-adv-x="1456" 
d="M952 508l-239 -6q-184 0 -367 6l-35 -86q-73 -179 -73 -305q0 -101 114 -101q9 0 32 3.5t26 3.5q14 0 14 -11q0 -12 -25 -12q-19 0 -117.5 2t-115.5 2q-10 0 -76 -2t-94 -2q-12 0 -12 10q0 8 12 8h8q82 0 148 123q69 119 135 291l395 987q3 6 14 6h21q17 0 20 -6
l373 -889q53 -126 88 -205t66.5 -140t51 -91t42 -49t40 -23t44.5 -4h16q15 0 15 -8q0 -10 -13 -10q-33 0 -114 3t-93 3t-113 -3t-134 -3q-14 0 -16 10q1 7 9 8h43q49 0 59 25q19 48 -65 262q-32 82 -84 203zM942 530l-305 715l-285 -719l348 2h242v2z" />
    <glyph glyph-name="B" unicode="B" horiz-adv-x="1239" 
d="M39 0q-12 0 -12 9t12 9h37q51 0 68 15q30 28 37 160q5 92 5 337v359q0 357 -16 436q-11 60 -44 71q-15 5 -50 5h-37q-12 0 -12 9t12 9q32 0 123.5 -3t103.5 -3q14 0 167 3t173 3q271 0 405 -76t134 -258q0 -147 -112 -231t-306 -109q208 -18 336.5 -109t128.5 -249
q0 -387 -533 -387q-19 0 -199 3t-194 3q-12 0 -103.5 -3t-123.5 -3zM455 18h174q202 0 295.5 90.5t93.5 278.5q0 174 -96.5 258t-313.5 84h-260v-199q0 -356 14 -433q11 -62 43 -74q14 -5 50 -5zM348 889v-137h234q197 0 293 78t96 257q0 91 -24 151.5t-76.5 95t-122.5 48
t-173 13.5h-147q-62 0 -72.5 -37t-8.5 -257q1 -128 1 -212z" />
    <glyph glyph-name="C" unicode="C" horiz-adv-x="1548" 
d="M272 709q0 -320 156.5 -514.5t431.5 -194.5q247 0 378 144t157 403h16l-25 -477q-89 -39 -226.5 -64.5t-295.5 -25.5q-163 0 -306.5 55.5t-246.5 151.5t-163 231.5t-60 290.5q0 157 63.5 294.5t170 232.5t250 149.5t300.5 54.5q128 0 277 -26.5t233 -63.5l25 -447h-18
q-25 250 -152 383t-360 133q-275 0 -440 -196t-165 -514z" />
    <glyph glyph-name="D" unicode="D" horiz-adv-x="1501" 
d="M1231 709q0 316 -164.5 504t-439.5 188h-135q-70 0 -92 -16q-34 -24 -43 -127q-7 -80 -7 -369v-559q0 -231 -16 -301q19 0 138.5 -4.5t170.5 -4.5q276 0 432 185.5t156 503.5zM1413 709q0 -206 -101.5 -368.5t-278 -251.5t-394.5 -89l-317 6l-289 -6q-15 0 -15 7t15 7
q29 0 45.5 2t34 7t26 17.5t17.5 30t13.5 49.5t8.5 70t8 97q4 63 4.5 165t-1 219t-1.5 134q0 45 -3 197.5t-3 211.5v61t-3 45t-5 34t-11 22t-15.5 15t-24.5 6.5t-32.5 3.5h-43.5q-12 0 -12 9t12 9q6 0 119.5 -2t130.5 -2q12 0 156.5 2t177.5 2q158 0 300.5 -51.5t249 -142.5
t169.5 -225t63 -291z" />
    <glyph glyph-name="E" unicode="E" horiz-adv-x="1273" 
d="M350 889v-141h170q93 0 156 16t96 49t46 73t13 97v43q0 12 10.5 12t10.5 -12q0 -33 -5 -156t-5 -135q0 -14 5 -139t5 -141q0 -12 -10.5 -12t-10.5 12v30q0 57 -13 97.5t-46 74t-96 50t-156 16.5h-170v-393q0 -231 -16 -301q29 0 192 -3t195 -3q114 0 210 60t152 153
t70 200l12 109q1 6 7 8t11.5 -0.5t4.5 -9.5l-12 -111q-27 -244 -40 -329.5t-24 -94.5q-8 -8 -272 -8l-518 6l-289 -6q-15 0 -15 7t15 7q29 0 45.5 2t34 7t26 17.5t17.5 30t13.5 49.5t8.5 70t8 97q9 127 9 602q0 131 -1.5 213.5t-8 143t-12 89t-22.5 45t-31 19t-44 2.5h-37
q-12 0 -12 9t12 9q32 0 123.5 -3t103.5 -3q9 0 343.5 3t377.5 3q80 0 96 -8q2 -1 4 -7t4.5 -18t5 -26t5.5 -36.5t6 -43t7.5 -52.5t8.5 -57.5t9.5 -66t9.5 -70.5l8 -73q3 -10 -7 -10q-10 1 -14 10l-10 73q-29 171 -142.5 265t-289.5 96h-260q-29 0 -40 -2.5t-22.5 -19
t-13 -47.5t-2.5 -94t-1 -153q1 -117 1 -190z" />
    <glyph glyph-name="F" unicode="F" horiz-adv-x="1273" 
d="M274 6q-12 0 -98.5 -3t-118.5 -3q-12 0 -12 9t12 9h27q51 0 68 15q30 28 38 161q5 93 5 336v359q0 131 -1.5 213.5t-8 143t-12 89t-22.5 45t-31 19t-44 2.5h-37q-12 0 -12 9t12 9q17 0 107 -1t173 -1q224 0 385.5 1.5t235 3t84.5 1.5q74 0 109 -6q3 -4 7 -44t16.5 -161.5
t29.5 -261.5l16 -135q1 -7 -4 -9.5t-11 -0.5t-7 8l-17 133q-28 207 -136.5 328.5t-278.5 120.5h-320q-29 0 -40 -2.5t-22.5 -19t-13 -47.5t-2.5 -94t-1 -153q1 -117 1 -190v-180h164q93 0 156 18.5t96 56t46 83t13 110.5v29q0 12 10.5 12t10.5 -12q0 -33 -5 -166t-5 -144
q0 -16 5 -156t5 -155q0 -12 -10.5 -12t-10.5 12v33q0 64 -13 109.5t-46 82.5t-95.5 55.5t-156.5 18.5h-164v-154q0 -201 2.5 -294t16.5 -148t30.5 -62.5t59.5 -7.5h76q12 0 12 -9t-12 -9q-32 0 -141 3t-120 3z" />
    <glyph glyph-name="G" unicode="G" horiz-adv-x="1576" 
d="M877 1419q-279 0 -442 -193.5t-163 -516.5q0 -320 156.5 -514.5t431.5 -194.5q124 0 219 29.5t193 85.5q6 12 6 266q0 189 -4 229q-51 14 -160 17q-184 8 -444 8q-9 0 -9 6q2 6 11 8q450 0 749 23q5 0 9 -5t4 -12q-2 -195 -2 -659q0 -16 -17 -2q-27 22 -66 41.5t-61 19.5
q-32 0 -99.5 -18.5t-155.5 -37.5t-169 -19q-163 0 -306.5 55.5t-246.5 151.5t-163 231.5t-60 290.5q0 157 63.5 294.5t170 232.5t250 149.5t300.5 54.5q128 0 277 -26.5t233 -63.5l25 -437q1 -8 -3 -12t-9 -1t-6 11q-50 508 -512 508z" />
    <glyph glyph-name="H" unicode="H" horiz-adv-x="1425" 
d="M186 530v359q0 357 -16 436q-11 60 -44 71q-15 5 -50 5h-27q-12 0 -12 9t12 9q32 0 118.5 -3t98.5 -3q11 0 103.5 3t124.5 3q12 0 12 -9t-12 -9h-41q-51 0 -68 -15q-30 -28 -38 -161q-5 -95 -5 -336v-164l377 4l364 -6v166q0 357 -16 436q-11 60 -44 71q-15 5 -50 5h-43
q-12 0 -12 9t12 9q33 0 125 -3t104 -3t100 3t121 3q12 0 12 -9t-12 -9h-32q-50 0 -67 -15q-30 -28 -37 -163q-5 -94 -5 -334v-359q0 -358 16 -438q12 -59 45 -69q14 -5 48 -5h32q12 0 12 -9t-12 -9q-33 0 -121 3t-100 3t-104 -3t-125 -3q-12 0 -12 9t12 9h43q51 0 68 15
q30 28 37 160q5 92 5 337v172l-362 -2q-184 0 -379 5v-175q0 -357 16 -437q12 -59 46 -70q14 -5 49 -5h41q12 0 12 -9t-12 -9q-32 0 -124.5 3t-103.5 3q-12 0 -98.5 -3t-118.5 -3q-12 0 -12 9t12 9h27q51 0 68 15q30 28 37 160q5 92 5 337z" />
    <glyph glyph-name="I" unicode="I" horiz-adv-x="575" 
d="M209 530v359q0 357 -16 437q-12 59 -46 70q-14 5 -49 5h-43q-12 0 -12 9t12 9q32 0 127.5 -3t106.5 -3q12 0 105.5 3t125.5 3q12 0 12 -9t-12 -9h-43q-51 0 -68 -15q-30 -28 -37 -160q-5 -92 -5 -337v-359q0 -357 16 -436q11 -60 44 -71q16 -5 50 -5h43q12 0 12 -9
t-12 -9q-32 0 -125.5 3t-105.5 3q-11 0 -106.5 -3t-127.5 -3q-12 0 -12 9t12 9h43q51 0 68 15q30 28 38 161q5 93 5 336z" />
    <glyph glyph-name="J" unicode="J" horiz-adv-x="583" 
d="M385 889v-236q0 -26 1 -107t1 -110q0 -79 -4 -142.5t-15.5 -119.5t-22.5 -97.5t-35.5 -86t-44.5 -75t-59.5 -74.5t-69 -73.5t-83.5 -82.5q-39 -37 -96 -78t-78 -41q-23 0 -47 4q-25 6 -40 19t-15 28q0 37 20.5 71.5t59.5 45.5q16 4 41 4q30 0 76 -1t51 -1q21 0 45 9
t36 22q46 49 70 121.5t36.5 223.5t12.5 418v359q0 357 -12 431q-10 64 -40 75q-15 6 -58 6h-54q-12 0 -12 9t12 9q32 0 133.5 -3t112.5 -3q12 0 107 3t127 3q12 0 12 -9t-12 -9h-41q-56 0 -73 -13q-29 -22 -37 -130q-5 -79 -5 -369z" />
    <glyph glyph-name="K" unicode="K" horiz-adv-x="1368" 
d="M498 0q-6 0 -104 2t-115 2t-122.5 -2t-111.5 -2q-12 0 -12 9t12 9q64 0 94 5q21 21 29.5 60t11.5 124q6 169 6 409v273q0 357 -16 436q-11 60 -44 71q-15 5 -50 5h-37q-12 0 -12 9t12 9q32 0 125.5 -3t105.5 -3q11 0 100.5 3t121.5 3q12 0 12 -9t-12 -9h-37
q-44 0 -61 -7.5t-32 -61.5t-17.5 -148.5t-2.5 -294.5v-287l369 397q116 125 176.5 216.5t60.5 136.5q-3 51 -80 51q-9 0 -26.5 -4t-20.5 -4q-18 0 -18 12t22 12q18 0 113 -2t111 -2q11 0 100 2t117 2q7 0 9 -4.5t-0.5 -9t-8.5 -4.5h-4q-87 0 -162 -51q-73 -50 -239 -224
q-37 -39 -132 -139l-197 -211q67 43 144 43q48 0 73.5 -5.5t53.5 -20.5q31 -16 56.5 -39.5t42.5 -46t36 -60.5t30.5 -66t32.5 -80t35 -85q67 -169 111 -251.5t83.5 -114.5t94.5 -32h25q20 0 19 -9t-23 -9h-70q-41 0 -89.5 -4t-58.5 -4q-34 0 -56.5 10.5t-45.5 38.5
q-52 66 -141 309q-71 202 -110 278q-78 150 -165 150q-35 0 -61 -9.5t-68 -45.5l-139 -150v-43q0 -357 16 -437q12 -59 46 -70q14 -5 49 -5h45q12 0 12 -9t-12 -9z" />
    <glyph glyph-name="L" unicode="L" horiz-adv-x="1247" 
d="M350 889v-559q0 -231 -16 -301q29 0 194 -3t197 -3q85 0 162 43.5t130 113t87.5 151t44.5 161.5l20 186q1 6 7 8t11.5 -0.5t4.5 -9.5l-21 -189q-28 -263 -42.5 -364.5t-24.5 -110.5q-12 -12 -273 -12l-509 6l-289 -6q-15 0 -15 7t15 7q29 0 45.5 2t34 7t26 17.5t17.5 30
t13.5 49.5t8.5 70t8 97q4 63 4.5 165t-1 219t-1.5 134q0 45 -3 197.5t-3 211.5v61t-3 45t-5 34t-11 22t-15.5 15t-24.5 6.5t-32.5 3.5h-43.5q-12 0 -12 9t12 9q6 0 119.5 -2t130.5 -2q12 0 115.5 2t136.5 2q12 0 12 -9t-12 -9h-57q-70 0 -92 -16q-34 -24 -43 -127
q-7 -80 -7 -369z" />
    <glyph glyph-name="M" unicode="M" horiz-adv-x="1751" 
d="M825 432h-18q-8 0 -16 14l-564 822l-2 -738q0 -82 4 -150t10.5 -118t18.5 -89t23 -64t28 -43t30 -27t33.5 -14t33.5 -6t34 -1h29q7 0 9.5 -4.5t0 -9t-9.5 -4.5q-35 -1 -150.5 2.5t-119.5 3.5q-12 0 -73 -3t-93 -3q-11 0 -11 9t13 9h12q27 1 43.5 5.5t36 20.5t30.5 49.5
t21.5 88.5t15.5 142t5 206q0 131 1 397t1 310q0 58 -27 88q-70 78 -133 78h-10q-7 0 -9.5 4t0 8t9.5 4q94 0 155.5 3.5t83.5 7.5l23 4q13 0 20 -13q22 -41 82 -127l494 -727l416 647q22 35 48.5 79t38.5 64.5t27 41t25.5 28t21.5 7.5q15 0 117.5 -7.5t120.5 -7.5q12 0 12 -9
t-12 -9h-31q-51 0 -68 -15q-30 -28 -37 -160q-5 -92 -5 -337v-359q0 -357 16 -436q11 -60 44 -71q16 -5 50 -5h31q12 0 12 -9t-12 -9q-32 0 -120 3t-99 3q-12 0 -105 -3t-125 -3q-12 0 -12 9t12 9h41q51 0 68 15q30 28 38 161q5 93 5 336v725q0 42 -9 42.5t-47 -59.5
q-19 -28 -24 -36l-483 -756q-8 -14 -19 -14z" />
    <glyph glyph-name="N" unicode="N" horiz-adv-x="1466" 
d="M6 1403h-8q-7 0 -9.5 4t0 8t9.5 4q94 0 166 2t106 4l33 2q15 0 21 -12q20 -38 79 -108l852 -1059v641q0 105 -8.5 187t-20.5 135t-32.5 91t-38 56.5t-45 29t-44.5 12t-44 1.5h-29q-12 0 -12 9t12 9q33 0 148 -3t127 -3q11 0 68.5 3t90.5 3q12 0 12 -9t-12 -9h-14
q-30 0 -45 -3t-33 -18t-25.5 -45.5t-15.5 -88.5t-10 -143.5t-2 -213.5v-875q0 -20 -16 -20q-9 0 -24.5 13.5t-27.5 31.5l-987 1231l-2 -740q0 -105 7 -187t17.5 -135t29 -90.5t34.5 -56.5t41.5 -29.5t41.5 -12t44 -1.5h29q7 0 9.5 -4.5t0 -9t-9.5 -4.5q-35 -1 -150.5 2.5
t-119.5 3.5q-12 0 -73 -3t-93 -3q-11 0 -11 9t13 9h12q27 1 43.5 5.5t36 20.5t30.5 49.5t21.5 88.5t15.5 142t5 206l2 736q0 30 -33 63q-38 38 -75 56t-87 18z" />
    <glyph glyph-name="O" unicode="O" horiz-adv-x="1626" 
d="M88 709q0 156 59.5 294t159.5 233t232.5 149.5t275.5 54.5t275 -55.5t230 -151t157 -232.5t59 -292q0 -204 -103 -373t-270.5 -262.5t-359.5 -93.5q-143 0 -274 55.5t-228 151t-155 232t-58 290.5zM272 709q0 -321 138.5 -515t384.5 -194q165 0 292.5 89t197 250.5
t69.5 369.5q0 321 -142 515.5t-389 194.5q-250 0 -400.5 -196t-150.5 -514z" />
    <glyph glyph-name="P" unicode="P" horiz-adv-x="1255" 
d="M295 4q-17 0 -130.5 -2t-119.5 -2q-12 0 -12 9t12 9q108 0 106 5q0 1 -12 0q21 21 29.5 60t11.5 124q6 169 6 409v273q0 357 -16 436q-11 60 -44 71q-15 5 -50 5h-37q-12 0 -12 9t12 9q32 0 123.5 -3t103.5 -3q14 0 181 3t186 3q252 0 396.5 -102.5t144.5 -290.5
t-147.5 -305t-381.5 -117q-102 2 -303 2v-74q0 -152 3.5 -247t9 -150.5t19 -80.5t26 -30.5t38.5 -5.5h105q12 0 12 -9t-12 -9q-33 0 -134.5 2t-113.5 2zM342 1092v-465h258q189 0 293 107.5t104 293.5q0 371 -395 371h-180q-58 0 -69 -41.5t-11 -265.5z" />
    <glyph glyph-name="Q" unicode="Q" horiz-adv-x="1626" 
d="M88 719q0 205 101.5 372t267 258t356.5 91t356 -92.5t265 -259t100 -369.5q0 -141 -52.5 -268t-141.5 -219t-207 -152.5t-248 -75.5q0 -69 4.5 -119t17 -95t34 -72.5t57 -43.5t85.5 -16q85 0 168 166q4 8 12 8.5t13 -6t0 -14.5q-52 -91 -132.5 -151t-174.5 -60
q-133 0 -194.5 96.5t-61.5 308.5q-129 16 -243.5 76.5t-199 153t-133.5 218t-49 265.5zM272 719q0 -208 60.5 -366t179.5 -247.5t283 -89.5q248 0 402.5 196t154.5 507q0 316 -142 508t-389 192q-249 0 -399 -193t-150 -507z" />
    <glyph glyph-name="R" unicode="R" horiz-adv-x="1314" 
d="M270 4q-17 0 -118 -2t-107 -2q-12 0 -12 9t12 9q64 0 94 5q21 21 29.5 60t11.5 124q6 169 6 409v273q0 357 -16 436q-11 60 -44 71q-15 5 -50 5h-37q-12 0 -12 9t12 9q32 0 123.5 -3t103.5 -3q14 0 124 3t128 3q261 0 392.5 -86t131.5 -250q0 -83 -64 -153.5t-160.5 -114
t-211.5 -63.5q90 -2 148 -31t110 -98t121 -207q88 -186 137 -266t89.5 -106t107.5 -26h14q9 0 12.5 -4.5t0 -9t-12.5 -4.5h-73q-41 0 -86.5 -4t-55.5 -4q-34 0 -56.5 10.5t-47.5 38.5q-74 85 -170 309q-40 91 -70 151.5t-62 105t-57.5 68.5t-63.5 38.5t-73 18.5t-92 5h-84
v-207q0 -357 16 -437q12 -59 46 -70q14 -5 49 -5h41q12 0 12 -9t-12 -9q-32 0 -122.5 2t-101.5 2zM342 1092v-334q39 2 172 2q62 0 121 18.5t110.5 55.5t83 101.5t31.5 147.5q0 163 -84.5 240.5t-273.5 77.5h-80q-57 0 -68.5 -42.5t-11.5 -266.5z" />
    <glyph glyph-name="S" unicode="S" horiz-adv-x="1148" 
d="M567 1440q96 0 183.5 -9t138.5 -18.5t125 -26.5q12 -3 16.5 -7t5.5 -15q1 -15 -1.5 -69t-6.5 -173t-4 -258q0 -13 -5 -18t-10 0t-5 18q1 103 -7 179.5t-35 151t-74.5 121t-128 75t-192.5 28.5q-179 0 -264.5 -74t-85.5 -198q0 -68 29 -122t101 -101t119.5 -70.5
t154.5 -69.5q12 -5 18 -8q50 -20 80.5 -33.5t75.5 -35t73.5 -39.5t63.5 -43t56.5 -51t41 -57t28.5 -67t9 -77q0 -174 -129 -283.5t-317 -109.5q-155 0 -256 14t-222 47q-13 3 -16.5 7t-3.5 13q0 46 -1 260t-1 265q0 14 5.5 19.5t11 0t5.5 -19.5q0 -293 114 -439.5
t364 -146.5q162 0 242.5 74.5t80.5 201.5q0 57 -23 105.5t-58.5 83t-91.5 68t-107 57t-121 52.5q-9 3 -13 5q-59 24 -94.5 39.5t-88 41.5t-84.5 47.5t-69 53t-57.5 63.5t-34.5 73t-14 86q0 177 138.5 283t340.5 106z" />
    <glyph glyph-name="T" unicode="T" horiz-adv-x="1347" 
d="M754 1421v-891q0 -357 16 -436q11 -60 44 -71q15 -5 50 -5h37q12 0 12 -9t-12 -9q-32 0 -123 3t-102 3q-12 0 -103.5 -3t-123.5 -3q-12 0 -12 9t12 9h36q51 0 68 15q30 28 38 161q5 93 5 336v891q-57 -2 -168 -2q-156 0 -230.5 -102t-107.5 -316l-16 -116q-4 -11 -16 -10
q-7 1 -5 10l17 116q12 95 15 202t2.5 163.5t4.5 58.5q10 5 81.5 10t168.5 5q21 0 151.5 -2t180.5 -2q30 0 121 2t209 2h2q97 0 168 -5t81 -10q5 -2 4.5 -58.5t3.5 -163.5t17 -202l14 -116q3 -10 -6 -9.5t-12 9.5l-19 116q-13 84 -30 146t-43.5 115.5t-62.5 87t-87 52
t-116 19.5h-164z" />
    <glyph glyph-name="U" unicode="U" horiz-adv-x="1361" 
d="M1161 500v389q0 105 -8 187t-19.5 135t-31.5 90.5t-37 56.5t-44 29.5t-44 12t-45 1.5h-19q-12 0 -12 9t12 9q33 0 141 -3t120 -3t71.5 3t91.5 3q12 0 12 -9t-12 -9h-14q-30 0 -44.5 -3t-33 -18t-26.5 -46t-16 -88.5t-10.5 -143.5t-2.5 -213v-389q0 -139 -60 -256
t-180.5 -190.5t-279.5 -73.5q-225 0 -357.5 143t-132.5 393v373q0 358 -16 437q-11 60 -44 70q-14 5 -48 5h-29q-12 0 -12 9t12 9q32 0 118.5 -3t98.5 -3q11 0 102 3t123 3q12 0 12 -9t-12 -9h-36q-51 0 -68 -15q-30 -28 -38 -161q-6 -95 -7 -336l-2 -318
q0 -247 117.5 -386.5t320.5 -139.5q164 0 276.5 132t112.5 323z" />
    <glyph glyph-name="V" unicode="V" horiz-adv-x="1417" 
d="M788 197q8 0 11 10l303 790q74 182 74 306q0 45 -31 72.5t-84 27.5q-9 0 -31.5 -4t-25.5 -4q-15 0 -15 12t25 12q19 0 117.5 -2t115.5 -2q11 0 76 2t94 2q10 0 10 -8q-3 -9 -14 -10h-4q-84 0 -147 -123q-66 -113 -138 -291l-376 -987q-3 -6 -15 -6h-20q-14 0 -17 6
l-391 989q-47 110 -73.5 170.5t-54.5 113.5t-42 73.5t-36 36t-37.5 17t-45.5 1.5h-16q-14 0 -14 8q0 10 12 10q33 0 112 -3t91 -3t113.5 3t134.5 3q14 0 15 -10q-1 -7 -9 -8h-43q-56 0 -68 -24q-18 -39 48 -203q29 -74 85 -199l301 -768q3 -10 10 -10z" />
    <glyph glyph-name="W" unicode="W" horiz-adv-x="2011" 
d="M760 197l235 520l-159 375q-37 83 -57.5 128.5t-43 85.5t-34 55t-32 26.5t-35 12.5t-44.5 1h-17q-14 0 -14 8q0 10 12 10q33 0 112 -3t91 -3t103 3t124 3q12 0 12 -9t-12 -9h-16q-34 0 -52 -10.5t-18 -40.5q0 -74 84 -281l88 -205l84 205q27 63 44.5 130.5t17.5 105.5
q0 48 -19.5 73t-52.5 25q-9 0 -27.5 -3t-21.5 -3q-12 0 -12 10q0 12 22 12q19 0 97 -2t94 -2q11 0 96.5 2t112.5 2q8 0 10.5 -4.5t-0.5 -9t-10 -4.5h-54q-76 0 -137.5 -78t-134.5 -262l-96 -227l278 -648q3 -10 11 -10q5 0 8 10l311 811q72 188 72 303q0 103 -105 103
q-9 0 -31.5 -4t-25.5 -4q-14 0 -14 12t24 12q19 0 116 -2t114 -2q10 0 78 2t96 2q7 0 10 -4.5t0 -9t-10 -4.5h-7q-73 0 -139.5 -97t-150.5 -317l-383 -989q-3 -6 -15 -6h-20q-11 0 -14 6l-295 686l-308 -684q-3 -6 -12 -6h-16q-14 0 -17 6l-376 993q-31 78 -52 130.5
t-42 98.5t-34.5 73t-30 49t-27.5 32t-28.5 16.5t-31 7.5t-37.5 1h-4q-12 0 -12 8q0 10 10 10q33 0 105.5 -3t84.5 -3t133 3t154 3q12 0 13 -9q-3 -7 -11 -9h-53q-87 0 -90 -58q0 -72 151 -454l264 -692q4 -11 11 -11q4 0 8 11z" />
    <glyph glyph-name="X" unicode="X" horiz-adv-x="1398" 
d="M618 1028l134 -211l141 195q164 224 164 329q0 60 -86 60q-9 0 -35.5 -3t-28.5 -3q-13 0 -10 10q4 12 29 12q18 0 128 -2t128 -2q12 0 78 2t94 2q13 0 12 -9t-12 -9h-4q-46 0 -99 -27.5t-98 -81.5q-105 -110 -238 -289l-151 -204l233 -371q93 -149 150 -231.5t99 -122.5
t66 -48t64 -8h19q16 0 16 -8q0 -10 -12 -10q-35 0 -118 3t-95 3q-13 0 -119.5 -3t-140.5 -3q-15 0 -19 10q0 7 8 8h46q59 0 67 23q12 37 -79 187q-46 77 -136 214l-156 248l-198 -274q-65 -89 -109.5 -175t-44.5 -126q0 -41 28 -70t68 -29q21 0 57.5 5.5t37.5 5.5
q15 0 10 -15q-4 -12 -31 -12q-20 0 -153 2t-150 2q-11 0 -78 -2t-98 -2q-10 0 -11 8q1 9 13 10h14q35 0 69.5 15.5t70 46.5t75 77.5t86 107.5t103.5 138q6 8 10 13.5t8 11.5l209 285l-172 276q-70 111 -108 170.5t-77 112.5t-57.5 73.5t-44.5 36.5t-42 17.5t-48 1.5h-16
q-19 0 -19 8q0 10 15 10q34 0 116 -3t95 -3q11 0 118 3t142 3q14 0 17 -10q-1 -7 -9 -8h-45q-53 0 -62 -20q-18 -38 87 -215q35 -57 85 -136z" />
    <glyph glyph-name="Y" unicode="Y" horiz-adv-x="1259" 
d="M940 1042l-225 -393v-119q0 -357 16 -436q11 -60 44 -71q15 -5 50 -5h37q12 0 12 -9t-12 -9q-32 0 -121.5 3t-101.5 3q-11 0 -102 -3t-123 -3q-12 0 -12 9t12 9h37q51 0 68 15q30 28 37 160q5 92 5 337v113l-221 399q-123 222 -181 290.5t-134 68.5h-17q-14 0 -14 8
q0 10 12 10q33 0 112 -3t91 -3t113.5 3t134.5 3q14 0 15 -10q-1 -7 -9 -8h-43q-39 0 -52.5 -16.5t0 -64t45 -111t93.5 -177.5l194 -358l218 375q14 24 28.5 54.5t30.5 72.5t21 80.5t0.5 72t-31.5 54t-74 20.5q-9 0 -31.5 -4t-25.5 -4q-15 0 -15 12t25 12q19 0 108.5 -2
t106.5 -2q11 0 103 2t120 2q10 0 10 -8q-3 -9 -14 -10h-4q-41 0 -94.5 -43.5t-103 -109.5t-82.5 -116t-56 -90z" />
    <glyph glyph-name="Z" unicode="Z" horiz-adv-x="1280" 
d="M170 1034l-20 -217q-2 -10 -13.5 -9.5t-11.5 11.5l22 215q30 367 46 377q19 8 98 8q43 0 353 -3t319 -3q12 0 83 3t103 3q11 0 15.5 -0.5t9.5 -5t-3 -14.5l-907 -1370q35 0 232.5 -3t228.5 -3q86 0 162 35t129 93t86 132t41 153l14 203q1 7 6.5 9t10.5 -1t4 -10l-13 -205
q-20 -245 -30 -330t-19 -94q-8 -8 -272 -8l-565 6l-201 -12q-21 0 0 33l903 1368h-379q-179 -2 -295.5 -96.5t-136.5 -264.5z" />
    <glyph glyph-name="bracketleft" unicode="[" horiz-adv-x="819" 
d="M227 -553l6 1057l-6 1075q0 16 15 16q46 0 147 -1t154 -1q47 0 140 1t140 1q7 0 9.5 -5t0 -10t-9.5 -5q-53 -1 -154.5 0.5t-131.5 1.5h-236q-14 0 -14 -6l2 -1067l-2 -1049q0 -6 14 -6h236q30 0 131.5 1.5t154.5 0.5q7 0 9.5 -5t0 -10t-9.5 -5q-47 0 -140 1t-140 1
q-53 0 -154 -1t-147 -1q-15 0 -15 16z" />
    <glyph glyph-name="backslash" unicode="\" horiz-adv-x="729" 
d="M367 506q-299 743 -465 1087q23 12 26 12.5t31 -3.5q131 -332 434 -1088q318 -763 457 -1067q-7 -4 -11 -6l-7 -3.5t-7 -1t-6.5 1t-11 3t-14.5 4.5q-123 320 -426 1061z" />
    <glyph glyph-name="bracketright" unicode="]" horiz-adv-x="819" 
d="M586 504l6 -1057q0 -16 -14 -16q-46 0 -147.5 1t-154.5 1q-47 0 -140 -1t-140 -1q-7 0 -9.5 5t0 10t9.5 5q53 1 155 -0.5t132 -1.5h235q14 0 14 6l-2 1049l2 1067q0 6 -14 6h-235q-30 0 -132 -1.5t-155 -0.5q-7 0 -9.5 5t0 10t9.5 5q47 0 140 -1t140 -1q53 0 154.5 1
t147.5 1q14 0 14 -16z" />
    <glyph glyph-name="asciicircum" unicode="^" horiz-adv-x="1656" 
d="M860 907q-8 8 -14 0l-168 -250q-27 -39 -70 -39q-19 0 -30 9.5t-11 19.5q0 21 37 60q113 117 240 219q3 3 9 3t9 -3q155 -118 248 -199q41 -36 41 -59q0 -14 -13.5 -28.5t-33.5 -14.5q-42 0 -72 43q-19 27 -80.5 111.5t-91.5 127.5z" />
    <glyph glyph-name="underscore" unicode="_" horiz-adv-x="1388" 
d="M690 -41q355 0 555 12q11 -7 11 -25t-11 -24q-208 15 -553 15t-553 -15q-11 6 -11 24t11 25q200 -12 551 -12z" />
    <glyph glyph-name="grave" unicode="`" horiz-adv-x="1656" 
d="M981 1100q-45 48 -113.5 104t-125.5 98t-64 48q-25 21 -25 34q0 33 6 39q7 7 37 7q36 0 49 -13q7 -7 47.5 -63.5t96 -127t102.5 -114.5q6 -6 6 -8q0 -8 -8 -8q-4 0 -8 4z" />
    <glyph glyph-name="a" unicode="a" horiz-adv-x="1052" 
d="M319 -23q-118 0 -185.5 66t-67.5 164q0 108 119.5 211t392.5 209l170 65q-6 187 -57 260.5t-163 73.5q-51 0 -91.5 -16.5t-67 -45.5t-44 -55.5t-35 -61.5t-26.5 -48q-14 -21 -33 -29t-59 -8q-37 0 -59.5 12.5t-22.5 34.5q0 49 72 96q80 51 191 95t208 44q160 0 253 -90
t93 -282q0 -76 -8 -246t-8 -203q0 -91 13 -132.5t44 -41.5q25 0 56.5 36.5t54.5 76.5q5 8 13 6.5t11.5 -8.5t-0.5 -15q-32 -46 -109.5 -105.5t-131.5 -59.5q-58 0 -87.5 37.5t-29.5 107.5q0 82 8 168q-22 -37 -68.5 -89t-104.5 -103.5t-124.5 -87.5t-116.5 -36zM209 266
q0 -80 67.5 -139t145.5 -59q53 0 126.5 54.5t126.5 118t62 99.5q13 176 13 295v43l-168 -72q-228 -96 -300.5 -161.5t-72.5 -178.5z" />
    <glyph glyph-name="b" unicode="b" horiz-adv-x="1212" 
d="M137 16v1379q0 87 -11.5 118.5t-40.5 31.5t-79 -11q-10 -1 -12 6q-2 9 10 12h2q36 6 74 21t60 26.5t62 35t52 30.5q5 3 21 -2t16 -12v-828q72 103 181.5 162t227.5 59q116 0 215 -60.5t158.5 -171.5t59.5 -249q0 -123 -50 -233t-132 -186t-188 -120t-216 -44
q-180 0 -311 122q-48 -66 -64.5 -85t-24.5 -19q-10 0 -10 18zM633 25q167 0 257.5 119.5t90.5 344.5q0 92 -24.5 178t-70.5 156t-120 112t-166 42q-87 0 -172 -47.5t-137 -128.5v-584q178 -192 342 -192z" />
    <glyph glyph-name="c" unicode="c" horiz-adv-x="1110" 
d="M209 563q0 -204 131.5 -336.5t337.5 -132.5q143 0 246.5 69.5t181.5 211.5q6 12 14 8t2 -14q-90 -168 -241 -278.5t-314 -110.5q-217 0 -354 137t-137 354q0 108 49.5 213.5t129.5 184t187 127t217 48.5q144 0 243 -48t99 -105q0 -30 -27 -57t-73 -27q-23 0 -47 20
t-49 48t-54.5 56t-76 48t-101.5 20q-158 0 -261 -116.5t-103 -319.5z" />
    <glyph glyph-name="d" unicode="d" horiz-adv-x="1226" 
d="M924 948v447q0 87 -12.5 123t-43 40.5t-80.5 -6.5q-11 -1 -12 7q-1 9 10 12h2q116 20 248 94q5 3 23 -2t18 -12v-1407v-68t2 -52t4.5 -40.5t8 -27.5t12.5 -20t19 -10.5t25.5 -6.5t33.5 -1q12 0 12 -9t-12 -9q-151 0 -248 -20q-25 -6 -25 18q0 3 3.5 31.5t7 78t4.5 101.5
q-73 -107 -186 -168t-234 -61q-178 0 -304 136.5t-126 344.5q0 123 50.5 233t133 186t188.5 120t216 44q139 0 262 -96zM575 999q-169 0 -263.5 -117t-94.5 -339q0 -92 26 -179t73.5 -158.5t123.5 -115t168 -43.5t177.5 53.5t138.5 141.5v555q-36 38 -66.5 66t-77.5 63
t-99.5 54t-105.5 19z" />
    <glyph glyph-name="e" unicode="e" horiz-adv-x="1056" 
d="M584 -20q-232 0 -373 138t-141 353q0 112 49.5 218.5t128.5 183.5t183 124t208 47t180.5 -29.5t113.5 -74t52 -89t10 -83.5q-7 -63 -86 -63h-700q-16 -75 -16 -158q0 -93 39 -176.5t105 -143t157.5 -94.5t193.5 -35q179 0 301.5 101.5t212.5 296.5q8 20 16 16
q6 -4 -1 -20q-43 -100 -102.5 -187t-138 -162.5t-180 -119t-212.5 -43.5zM717 729q20 0 48.5 7t33.5 12q18 21 18 65q0 67 -63 126.5t-172 59.5q-135 0 -232.5 -71.5t-136.5 -206.5q128 0 289 4t215 4z" />
    <glyph glyph-name="f" unicode="f" horiz-adv-x="606" 
d="M510 1024h20q72 0 72 -4q0 -3 -5.5 -11t-16.5 -20t-21.5 -23.5t-26.5 -28.5t-26 -28q-27 0 -94.5 1t-104.5 1l2 -686q1 -56 1.5 -85.5t6.5 -56.5t12 -37t24 -18t35 -9t52 -1q12 0 12 -9t-12 -9q-33 0 -112.5 2t-91.5 2t-89 -2t-110 -2q-12 0 -12 9t12 9q23 0 38.5 1
t29 6.5t21.5 9.5t14.5 18.5t9 25.5t4.5 37.5t2 47v61.5q-2 658 -2 666v20h-84q-29 0 -29 13l72 98h53q23 115 83 222.5t137.5 184.5t168 123.5t172.5 46.5q80 0 144.5 -16t64.5 -37q0 -31 -33 -67.5t-78 -36.5q-27 0 -127 19.5t-168 19.5q-220 0 -223 -459q30 0 97.5 1
t105.5 1z" />
    <glyph glyph-name="g" unicode="g" horiz-adv-x="1028" 
d="M952 991q-20 0 -168 18.5t-231 18.5v-4q156 -21 244 -115.5t88 -234.5q0 -160 -121.5 -256t-310.5 -96h-37q-102 -7 -172 -35t-70 -76q0 -29 16.5 -46.5t54 -26.5t82.5 -12t119 -3h275q164 0 242.5 -63t78.5 -158q0 -76 -42.5 -155t-114.5 -144t-162 -117t-192 -81
t-197 -28q-156 -1 -247 73.5t-91 187.5q0 111 102.5 209t239.5 147q-132 5 -202 36t-70 101q0 67 82.5 123.5t207.5 75.5q-134 24 -211 110.5t-77 229.5q0 156 124 263t304 107q88 0 199 19.5t192.5 39t97.5 19.5q21 0 40 -7t19 -24q0 -30 -27 -63t-65 -33zM457 -510h8
q129 0 248 42t194.5 117.5t75.5 164.5q0 97 -79 137.5t-255 40.5h-266q-133 -40 -215 -115t-82 -160q0 -108 98 -167.5t273 -59.5zM475 342q125 0 191.5 85.5t66.5 246.5q0 140 -67.5 243t-182.5 103q-262 0 -262 -328q0 -156 65.5 -253t188.5 -97z" />
    <glyph glyph-name="h" unicode="h" 
d="M248 4q-12 0 -88 -2t-109 -2q-12 0 -12 9t12 9q24 0 38 2t25 12.5t16 22.5t8.5 42t4 59.5t0.5 87.5v1151q0 88 -11.5 123.5t-40.5 41.5t-79 -6q-11 -1 -12 7q-1 9 10 12h2q121 21 248 92q5 3 21 -2t16 -12v-826q163 219 375 219q334 0 334 -415v-527q0 -55 20.5 -70.5
t77.5 -13.5q12 0 12 -9t-12 -9q-6 0 -84.5 2t-97.5 2q-12 0 -80 -2t-101 -2q-12 0 -12 9t12 9q27 0 40.5 1t28.5 8.5t20.5 20t11 39t7 61.5t1.5 92v409q0 176 -70 255t-176 79q-94 0 -164.5 -42.5t-142.5 -139.5v-783h125q12 0 12 -9t-12 -9q-6 0 -80.5 2t-93.5 2z" />
    <glyph glyph-name="i" unicode="i" horiz-adv-x="462" 
d="M154 225v547q0 78 -11.5 110.5t-40.5 37.5t-79 -9q-13 -3 -16 6q-2 8 9 11q130 29 256 116q5 3 21 -2t16 -12v-805q0 -136 19.5 -171.5t103.5 -35.5q12 0 12 -9t-12 -9q-33 0 -108.5 2t-87.5 2t-93 -2t-114 -2q-12 0 -12 9t12 9q37 0 58.5 5.5t36 16t20.5 37.5t8 58t2 90
zM117 1327q0 45 31 77t75 32t76.5 -32.5t32.5 -76.5t-32 -75t-77 -31q-44 0 -75 31t-31 75z" />
    <glyph glyph-name="j" unicode="j" horiz-adv-x="456" 
d="M303 1030l2 -930q-4 -123 -57 -226.5t-160 -235.5q-69 -84 -121 -128.5t-98 -44.5q-12 0 -37 5q-45 10 -45 36q0 28 26 63t58 44q12 4 33 4q24 0 59 -1t39 -1q18 0 37.5 7.5t28.5 17.5q1 1 8 9t9.5 11.5t10.5 15.5t12 21.5t10.5 29t10.5 39t9 49t7.5 62t4.5 76t2 92.5
v727q0 77 -12.5 110.5t-43 37.5t-80.5 -9q-13 -3 -15 6q-2 8 9 11q130 29 256 116q5 3 21 -2t16 -12zM111 1327q0 45 31 77t75 32t76.5 -32.5t32.5 -76.5t-32 -75t-77 -31q-44 0 -75 31t-31 75z" />
    <glyph glyph-name="k" unicode="k" horiz-adv-x="1130" 
d="M1147 0h-193q-46 0 -77 20q-38 24 -83.5 87t-117.5 186l-168 280l-211 -215v-340h125q12 0 12 -9t-12 -9q-6 0 -80.5 2t-93.5 2q-12 0 -88 -2t-109 -2q-12 0 -12 9t12 9q24 0 38 2t25 12.5t16 22.5t8.5 42t4 59.5t0.5 87.5v1151q0 88 -11.5 123.5t-40.5 41.5t-79 -6
q-11 -1 -12 7q-1 9 10 12h2q121 21 248 92q5 3 21 -2t16 -12v-1268l321 332q149 154 137 236q-8 53 -85 53q-7 0 -9.5 4.5t0 9t9.5 4.5q31 0 112.5 -2t91.5 -2q16 0 117.5 2t106.5 2q7 0 9.5 -4.5t0 -9t-9.5 -4.5q-95 0 -205 -73t-260 -229l-27 -26l199 -316
q117 -188 197.5 -265t144.5 -77q8 0 11.5 -4.5t0 -9t-11.5 -4.5z" />
    <glyph glyph-name="l" unicode="l" horiz-adv-x="444" 
d="M248 4q-12 0 -88 -2t-109 -2q-12 0 -12 9t12 9q24 0 38 2t25 12.5t16 22.5t8.5 42t4 59.5t0.5 87.5v1151q0 88 -11.5 123.5t-40.5 41.5t-79 -6q-11 -1 -12 7q-1 9 10 12h2q121 21 248 92q5 3 21 -2t16 -12v-1407q0 -44 0.5 -71t3 -54t5 -40.5t10 -27t14.5 -18.5
t21.5 -9.5t28.5 -5t38 -0.5q12 0 12 -9t-12 -9q-33 0 -95.5 2t-74.5 2z" />
    <glyph glyph-name="m" unicode="m" horiz-adv-x="1824" 
d="M53 0q-12 0 -12 9t12 9q20 0 31 0.5t23 4.5t17.5 8.5t11.5 18t8 26.5t4 40.5t2 54.5v73v528q0 69 -95 156q-8 8 0 12q103 39 150 86q5 5 12 -2q31 -31 56 -88t26 -117q80 112 166 168.5t199 56.5q49 0 93.5 -11t87 -36.5t76.5 -72t54 -111.5q84 115 170.5 173t200.5 58
q56 0 104 -12t93 -41.5t76.5 -76t50 -119t18.5 -166.5v-527q0 -60 15 -72.5t89 -11.5q12 0 12 -9t-12 -9q-6 0 -87.5 2t-100.5 2q-12 0 -95 -2t-116 -2q-12 0 -12 9t12 9h46.5t34 4.5t25.5 7.5t16 18t11 26t5 40.5t3 53v72.5v409q0 91 -22 158.5t-59.5 104.5t-81 54
t-93.5 17q-55 0 -98 -13.5t-79.5 -44t-59 -57t-58.5 -75.5v-691q0 -57 23 -71.5t100 -12.5q12 0 12 -9t-12 -9q-6 0 -92 2t-105 2q-12 0 -91.5 -2t-112.5 -2q-12 0 -12 9t12 9q92 0 108 27t16 180v15v409q0 178 -64.5 256t-168.5 78q-94 0 -158.5 -42.5t-136.5 -143.5v-779
h121q12 0 12 -9t-12 -9q-6 0 -77.5 2t-90.5 2q-12 0 -90 -2t-111 -2z" />
    <glyph glyph-name="n" unicode="n" horiz-adv-x="1150" 
d="M1014 629v-428q0 -54 4 -88.5t10 -54t20 -28.5t26.5 -11t37.5 -1q12 0 12 -9t-12 -9q-6 0 -84.5 2t-97.5 2q-12 0 -76.5 -2t-97.5 -2q-12 0 -12 9t12 9q46 0 66 11.5t30 52t10 131.5l-2 436q-1 92 -21.5 159t-56.5 104t-78 54t-92 17q-95 0 -165 -43.5t-144 -142.5v-779
h107q12 0 12 -9t-12 -9q-6 0 -71.5 2t-84.5 2q-12 0 -88 -2t-109 -2q-12 0 -12 9t12 9q28 0 43.5 5t27 15.5t15.5 40.5t5.5 63.5t1.5 101.5v528q0 69 -95 156q-8 8 0 12q103 39 150 86q5 5 12 -2q31 -31 56 -87.5t28 -115.5q82 110 173.5 166.5t205.5 56.5q334 0 334 -415z
" />
    <glyph glyph-name="o" unicode="o" horiz-adv-x="1189" 
d="M582 -20q-144 0 -259.5 63t-182 180.5t-66.5 268.5q0 147 68.5 273t193.5 202.5t278 76.5q220 0 362 -142.5t142 -375.5q0 -99 -41 -197t-110.5 -175t-171 -125.5t-213.5 -48.5zM616 2q161 0 248.5 131t87.5 361q0 131 -42.5 250.5t-127 199.5t-192.5 80
q-174 0 -260 -132.5t-86 -365.5q0 -96 25 -188.5t71 -168t118 -121.5t158 -46z" />
    <glyph glyph-name="p" unicode="p" horiz-adv-x="1220" 
d="M303 1038v-209q72 100 180.5 157.5t225.5 57.5q178 0 305 -136.5t127 -344.5q0 -123 -50 -233t-132 -186t-188 -120t-216 -44q-139 0 -254 75v-594h145q12 0 12 -9t-12 -9q-6 0 -98.5 2t-111.5 2q-12 0 -107.5 -2t-128.5 -2q-12 0 -12 9t12 9q39 0 60 2t40.5 11.5
t28 22.5t15 43t7.5 65t1 96v1081q0 85 -14.5 118.5t-46.5 32.5t-83 -11q-10 -1 -12 6q-2 9 10 12h2q36 4 76.5 18.5t63 26.5t65.5 37t53 31q5 3 21 -2.5t16 -12.5zM301 213q35 -36 66 -63.5t76 -59t96 -48.5t102 -17q167 0 257.5 119.5t90.5 344.5q0 92 -24.5 178t-70.5 156
t-120 112t-166 42q-86 0 -169.5 -46.5t-135.5 -125.5q0 -77 -1 -271t-1 -321z" />
    <glyph glyph-name="q" unicode="q" horiz-adv-x="1206" 
d="M1065 1018v-1280q0 -87 11.5 -118t40.5 -30.5t79 11.5q11 1 12 -7q1 -9 -10 -12h-2q-36 -6 -73.5 -20.5t-59.5 -26t-61.5 -35t-51.5 -30.5q-5 -3 -22 2t-17 12v711q-73 -101 -182 -158t-227 -57q-190 0 -310 133t-120 348q0 123 49.5 233t131 186t187 120t215.5 44
q95 0 174 -35t134 -85q49 68 65.5 88t24.5 20t10 -2.5t2 -11.5zM569 999q-168 0 -261 -116.5t-93 -339.5q0 -88 27 -175.5t75.5 -159.5t123.5 -116.5t163 -44.5q87 0 171 47.5t136 128.5v584q-182 192 -342 192z" />
    <glyph glyph-name="r" unicode="r" horiz-adv-x="669" 
d="M440 1010q52 34 117 34q92 0 92 -36q0 -33 -27 -70t-75 -37h-76q-40 0 -63.5 -2t-43.5 -10t-29.5 -19.5t-16 -36t-8 -52.5t-1.5 -76v-687h125q12 0 12 -9t-12 -9q-6 0 -84.5 2t-97.5 2q-12 0 -94 -2t-115 -2q-12 0 -12 9t12 9q55 0 76 13t30 58t9 155v528q0 69 -95 156
q-8 8 0 12q32 12 75 37t67 49q5 5 12 -2q30 -28 56 -80t32 -108q17 61 51 100.5t84 73.5z" />
    <glyph glyph-name="s" unicode="s" horiz-adv-x="909" 
d="M80 739q0 76 35 136.5t91.5 96t121.5 54t131 18.5q60 0 111.5 -3.5t74 -6t80 -12t76.5 -12.5q14 -2 14 -17q0 -32 -5 -176.5t-5 -181.5q0 -12 -8.5 -12t-8.5 12q0 195 -76 294t-251 99q-126 0 -204.5 -49.5t-78.5 -128.5q0 -29 10.5 -55t24 -45t42.5 -39t49.5 -32
t62.5 -29t64 -25t71 -25q47 -16 74.5 -26t69.5 -28t67 -33.5t54.5 -39.5t46 -48.5t27.5 -58t11 -71.5q0 -136 -105.5 -225.5t-261.5 -89.5q-74 0 -141.5 9t-102 18t-87 26t-64.5 20q-14 3 -14 29q0 6 3 38.5t6 115t3 210.5q0 8 4 12t8 0t4 -12q0 -230 85.5 -339t295.5 -109
q140 0 203.5 56t63.5 149q0 34 -11.5 63t-37.5 53t-50.5 41t-69.5 35.5t-74 29t-83 28.5q-52 17 -86 30t-79 32.5t-73.5 40.5t-55 48t-39.5 61t-13 74z" />
    <glyph glyph-name="t" unicode="t" horiz-adv-x="667" 
d="M295 1221v-199q208 0 276 2q72 2 72 -4q0 -21 -100 -111q-1 0 -105.5 1t-146.5 1v-643q0 -110 34 -167.5t99 -57.5q62 0 118 56t91 157q3 8 11 8t13.5 -6t1.5 -14q-55 -111 -140.5 -187.5t-184.5 -76.5q-103 0 -150 67t-47 215v649h-112q-1 0 -2 2t-0.5 4.5t2.5 4.5
l262 301q8 8 8 -2z" />
    <glyph glyph-name="u" unicode="u" horiz-adv-x="1144" 
d="M137 395v377q0 87 -11.5 122t-40.5 39.5t-79 -7.5q-10 -1 -12 6q-2 9 10 12h2q124 22 250 92q5 3 21 -2t16 -12v-647q0 -92 20 -159t55 -104t76 -54t91 -17q95 0 165.5 43t145.5 143v545q0 87 -11.5 122t-40.5 39.5t-79 -7.5q-12 -1 -12 8t12 10q121 21 248 92
q5 3 20.5 -2t15.5 -12v-778q0 -57 1 -89.5t5.5 -61t10.5 -41t19.5 -21.5t29.5 -11t43 -2q9 0 9 -9t-9 -9q-44 0 -88.5 -2.5t-69.5 -5t-61.5 -7t-46.5 -5.5q-11 -1 -14 3t-3 15q0 2 5 30t10 76t6 99q-167 -223 -379 -223q-73 0 -130 20t-103.5 66t-71.5 129t-25 200z" />
    <glyph glyph-name="v" unicode="v" horiz-adv-x="1087" 
d="M868 705l-299 -709q-2 -4 -8 -4h-33q-6 0 -8 4l-327 752q-50 115 -86 170.5t-65.5 72t-76.5 15.5q-7 0 -9.5 4.5t0 9t9.5 4.5q5 0 97 -2t108 -2q12 0 96.5 1t112.5 1q12 0 12 -8t-12 -8q-38 0 -58.5 -4.5t-33 -15.5t-9.5 -35t14 -57t36 -89l284 -655l238 567
q59 152 35.5 220.5t-123.5 66.5q-12 0 -12 9t12 9q30 0 101 -1t81 -1q16 0 92.5 2t81.5 2q7 0 9.5 -4.5t0 -9t-9.5 -4.5q-69 1 -127 -72t-123 -229z" />
    <glyph glyph-name="w" unicode="w" horiz-adv-x="1697" 
d="M1149 -4l-313 795l-334 -795q-2 -4 -6 -4h-23q-6 0 -8 4l-275 747q-42 120 -73.5 175t-62.5 71.5t-87 16.5q-7 0 -7 9t7 9q3 0 87 -2t98 -2q11 0 112 2t127 2q7 0 9.5 -4.5t0 -9t-9.5 -4.5q-33 0 -49 -1t-32.5 -8t-19.5 -18.5t-1.5 -35t11.5 -55.5t28 -83l227 -619
l256 596q5 21 2 68q-4 41 -20 74q-42 82 -131 82q-10 0 -12 9t9 9q27 0 105 -2t88 -2q11 0 86 2t100 2q12 0 13 -9q-3 -7 -11 -9q-33 0 -48.5 -1t-31 -8t-17.5 -18.5t0.5 -35t14 -55.5t31.5 -83l248 -631l219 545q31 76 34.5 133.5t-17.5 90t-55 48t-81 15.5q-11 0 -11 9
q1 8 9 9q27 0 114 -2t97 -2q14 0 97.5 2t89.5 2t8.5 -4.5t1 -9t-7.5 -4.5q-87 0 -138 -62.5t-122 -238.5l-285 -709q-2 -4 -12 -4h-21q-6 0 -8 4z" />
    <glyph glyph-name="x" unicode="x" horiz-adv-x="1087" 
d="M606 575l199 -294q47 -69 74.5 -109t54.5 -73t41.5 -47t35 -23t35 -10.5t41.5 -0.5q12 0 13 -10q1 -8 -8 -8q-5 0 -90.5 2t-100.5 2q-12 0 -114 -2t-130 -2q-12 0 -14 9q1 8 10 9q36 0 53.5 1.5t34.5 7.5t18 18t-5 35t-26 56.5t-54 82.5l-178 262l-138 -174
q-98 -127 -98 -203q0 -42 27.5 -64t77.5 -22q12 0 12 -9t-12 -9q-29 0 -107.5 2t-87.5 2q-16 0 -85.5 -2t-74.5 -2q-7 0 -9.5 4.5t0 9t9.5 4.5q52 -2 130.5 68.5t205.5 235.5l139 178l-163 243q-66 100 -103 150t-69.5 77.5t-53.5 32t-61 3.5q-10 0 -11 10q-1 8 7 8
q4 0 93.5 -2t106.5 -2q12 0 101 2t117 2q12 0 14 -9q-1 -8 -10 -9q-76 0 -89 -13q-19 -18 25 -92q20 -34 62 -96l143 -213l92 123q114 151 111 225q-3 64 -111 64q-7 0 -9.5 4.5t0 9t9.5 4.5q31 0 104.5 -2t83.5 -2q16 0 95 2t84 2q7 0 9.5 -4.5t0 -9t-9.5 -4.5
q-70 1 -152 -72t-199 -230z" />
    <glyph glyph-name="y" unicode="y" horiz-adv-x="1099" 
d="M240 -279q42 0 73.5 8.5t66.5 33t68.5 74.5t67.5 128l23 51l-326 721q-59 129 -93.5 183.5t-64 70.5t-82.5 15q-7 0 -9.5 4.5t0 9t9.5 4.5q6 0 96 -2t107 -2q11 0 99.5 2t119.5 2q12 0 12 -9t-12 -9q-63 0 -85.5 -14.5t-15.5 -57t50 -135.5l272 -604l230 516
q61 148 34.5 221.5t-128.5 73.5q-12 0 -12 9t12 9q32 0 106.5 -2t85.5 -2q17 0 97.5 2t86.5 2q7 0 9.5 -4.5t0 -9t-9.5 -4.5q-69 1 -132.5 -76t-131.5 -232l-327 -737q-79 -183 -180 -268.5t-248 -85.5q-78 0 -124 24.5t-46 55.5q0 29 33.5 61.5t78.5 32.5q37 0 94 -30
t95 -30z" />
    <glyph glyph-name="z" unicode="z" horiz-adv-x="1034" 
d="M111 629l-7 -127q0 -7 -4.5 -9.5t-9 0t-4.5 9.5l6 127q16 384 23 387q16 8 96 8q42 0 300.5 -2t268.5 -2q16 0 78 3t76 3q13 0 12.5 -14t-12.5 -29l-713 -958q225 -5 299 -5q192 0 294 104t116 292l10 141q0 6 5 8t9.5 -0.5t3.5 -9.5l-10 -141q-10 -110 -22 -250
q-14 -151 -19 -156q-6 -6 -35 -7t-143 -1l-489 4l-172 -4q-14 0 -24.5 5t-6.5 13l733 983h-266q-201 -1 -292.5 -91t-100.5 -281z" />
    <glyph glyph-name="braceleft" unicode="{" horiz-adv-x="911" 
d="M487 766q0 -93 -52.5 -157t-131.5 -97q79 -33 131.5 -97t52.5 -155q0 -57 -21 -133t-46.5 -139.5t-46.5 -145.5t-21 -151q0 -58 18 -103t59.5 -81.5t116 -56t179.5 -19.5q16 0 24.5 -9.5t2 -19.5t-28.5 -10q-210 0 -315 94t-105 248q0 74 22.5 156t49 142t49 130.5
t22.5 124.5q0 95 -58.5 153t-137.5 58q-17 0 -17 14q0 10 3 13t14 3q79 0 137.5 58t58.5 153q0 54 -22.5 124.5t-49 130.5t-49 142t-22.5 156q0 142 124 240t316 98q20 0 26 -9t-2 -17.5t-22 -8.5q-193 0 -293 -72t-100 -188q0 -69 21 -151t46.5 -145.5t46.5 -139.5t21 -133
z" />
    <glyph glyph-name="bar" unicode="|" horiz-adv-x="546" 
d="M291 506q0 -553 12 -1051q-29 -21 -39 -22q-8 -1 -20 2q20 489 20 1069q0 244 -12 1081q17 12 30 14t33 -2q-24 -399 -24 -1091z" />
    <glyph glyph-name="braceright" unicode="}" horiz-adv-x="911" 
d="M424 260q0 92 52 156t132 96q-80 33 -132 97t-52 157q0 57 21 133t46.5 139.5t46.5 145.5t21 151q0 116 -100 188t-293 72q-14 0 -22 8.5t-2 17.5t26 9q203 0 321.5 -92t118.5 -246q0 -74 -22.5 -156t-49 -142t-49 -130.5t-22.5 -124.5q0 -95 59 -153t138 -58q6 0 9 -0.5
t5 -3t2 -4.5v-8q0 -9 -3.5 -11.5t-12.5 -2.5q-79 0 -138 -58t-59 -153q0 -54 22.5 -124.5t49 -130.5t49 -142t22.5 -156q0 -156 -106 -249t-314 -93q-22 0 -28.5 10t2 19.5t24.5 9.5q105 0 179.5 19.5t116 56t59.5 81.5t18 103q0 69 -21 151t-46.5 145.5t-46.5 139.5
t-21 133z" />
    <glyph glyph-name="asciitilde" unicode="~" horiz-adv-x="1705" 
d="M541 659q50 65 70 90t47.5 54.5t44 38t34.5 8.5q46 0 159 -60.5t148 -60.5q29 0 46.5 16t74.5 97q9 11 16.5 6.5t-1.5 -17.5q-74 -109 -120.5 -156.5t-92.5 -47.5q-43 0 -153 64.5t-150 64.5q-17 0 -32 -15.5t-77 -91.5q-12 -13 -17 -8.5t3 18.5z" />
    <glyph glyph-name="nbspace" unicode="&#xa0;" horiz-adv-x="632" 
 />
    <glyph glyph-name="exclamdown" unicode="&#xa1;" horiz-adv-x="516" 
d="M377 938q0 -48 -34.5 -83.5t-84.5 -35.5q-47 0 -83 36t-36 83q0 50 35.5 84.5t83.5 34.5q51 0 85 -34t34 -85zM324 -197v-10q0 -32 -46 -95t-65 -63q-22 0 -35.5 19t-13.5 53v8q0 88 42 450t42 550q0 5 3 7t6 0t3 -7q0 -193 32 -523t32 -389z" />
    <glyph glyph-name="cent" unicode="&#xa2;" horiz-adv-x="1071" 
d="M602 512q-2 -143 -2 -410q50 -4 78 -4q143 0 246.5 69t181.5 210q6 12 14 8t2 -14q-85 -160 -226 -268.5t-296 -120.5q4 -264 8 -406q-3 -2 -10 -7.5t-8.5 -6.5t-6.5 -4t-7 -3t-6.5 -1t-8.5 0t-10 2q13 312 16 424q-217 0 -354 137t-137 354q0 102 40.5 199.5t109 172
t159.5 126t190 67.5q0 119 -4 357q18 13 27.5 14.5t30.5 -2.5q-16 -334 -17 -363q8 0 23.5 1t23.5 1q144 0 243 -48t99 -105q0 -30 -27 -57t-73 -27q-22 0 -44.5 17.5t-45 43t-49 52.5t-66 49t-86.5 28q-8 -312 -8 -485zM199 547q0 -164 103 -285t269 -153q9 308 9 401
q0 335 -2 489h-5q-161 0 -267.5 -118t-106.5 -334z" />
    <glyph glyph-name="sterling" unicode="&#xa3;" horiz-adv-x="1357" 
d="M504 500q232 0 432 12q10 -8 10 -25.5t-10 -23.5q-194 14 -430 14h-68q-81 -408 -176 -596q19 -3 116.5 -19t148.5 -23.5t136.5 -19t157.5 -16.5t135 -6q51 0 91.5 27.5t64.5 62.5q68 97 105 250l20 90q4 11 17 8q8 -1 6 -10l-21 -92q-55 -242 -90 -375
q-11 -35 -53.5 -71.5t-94.5 -36.5q-98 0 -238.5 40.5t-299.5 100.5t-209 74q-52 -97 -102 -125q-53 -29 -113 -29q-33 0 -62.5 22.5t-29.5 59.5q0 51 40.5 79t112.5 28q39 0 146 -17q32 102 67 592q-98 -2 -270 -12q-11 6 -11 19.5t11 21.5q61 -4 272 -4q12 175 31 338
q42 408 346 594q109 67 213 67q81 0 135 -41t54 -100q0 -48 -25 -74.5t-65 -26.5q-24 0 -41 8t-26.5 24.5t-13.5 30.5t-8 36q-17 94 -110 94q-23 0 -54.5 -10.5t-50.5 -24.5q-73 -58 -120 -178t-80 -377q-13 -100 -58 -360h62z" />
    <glyph glyph-name="yen" unicode="&#xa5;" horiz-adv-x="1259" 
d="M940 1042l-219 -364q164 3 326 18q14 -17 2 -49q-99 15 -334 15v-287q209 3 327 20q10 -7 11.5 -22t-4.5 -27q-95 8 -334 12q1 -86 2.5 -141t7.5 -94.5t12 -59.5t21 -30.5t28 -12.5t39 -2h37q12 0 12 -9t-12 -9q-32 0 -121.5 3t-101.5 3q-11 0 -102 -3t-123 -3
q-12 0 -12 9t12 9h37q31 0 45 4t29 19.5t21 54t10 99.5t5 163q-179 -3 -325 -14q-9 4 -11 18.5t4 26.5q130 -14 332 -14v282l-2 5q-180 -3 -323 -19q-19 16 -7 45q132 -10 320 -10l-209 364q-129 226 -185 292.5t-130 66.5h-17q-14 0 -14 8q0 10 12 10q33 0 112 -3t91 -3
t113.5 3t134.5 3q14 0 15 -10q-1 -7 -9 -8h-43q-60 0 -60 -49q0 -67 134 -298l12 -22l196 -340l216 357q14 24 28.5 54.5t30.5 72.5t21 80.5t0.5 72t-31.5 54t-74 20.5q-9 0 -31.5 -4t-25.5 -4q-15 0 -15 12t25 12q19 0 108.5 -2t106.5 -2q11 0 103 2t120 2q12 0 12.5 -9
t-10.5 -9h-14q-19 0 -38.5 -7t-40 -22.5t-38 -30.5t-39.5 -42t-37 -46t-37.5 -53t-34.5 -52.5t-35 -55t-32 -50.5z" />
    <glyph glyph-name="brokenbar" unicode="&#xa6;" horiz-adv-x="546" 
d="M258 600q0 36 3 250t3 248l-12 487q8 19 24 21t27 -9q0 -36 -6 -250.5t-6 -248.5q0 -35 6 -243.5t6 -242.5q-15 -13 -24 -15.5t-21 3.5zM250 -582q0 36 7 250.5t7 247.5l-6 487q6 13 20.5 16.5t24.5 -3.5q0 -36 -6 -251t-6 -249q0 -35 5 -243t5 -242q-28 -25 -51 -13z
" />
    <glyph glyph-name="section" unicode="&#xa7;" horiz-adv-x="1198" 
d="M1081 176q0 -96 -53.5 -168t-150.5 -139q-15 -108 -111.5 -186t-210.5 -78q-113 0 -191.5 44.5t-78.5 104.5q0 48 27.5 75.5t68.5 27.5q40 0 65.5 -22t39.5 -53.5t29 -62.5t46 -53t80 -22q68 0 108 45.5t37 103.5q0 59 -36.5 129t-94.5 138t-128.5 140.5t-141.5 147.5
t-129 148t-94.5 152.5t-36.5 150.5q0 67 30.5 126.5t73 100.5t109.5 88q23 101 110.5 167.5t200.5 66.5q106 0 180 -44t74 -100q0 -43 -23.5 -65.5t-60.5 -22.5t-61 20t-37.5 49t-29 57.5t-47 48.5t-79.5 20q-66 0 -105 -46t-36 -104q0 -58 36 -128t94 -139t128 -142
t140.5 -147.5t128.5 -145.5t94 -145t36 -138zM332 1053q0 33 4 47q-113 -83 -113 -207q0 -66 36 -140.5t94 -145t128 -144t140 -146t128 -141.5t94 -140.5t36 -133.5q0 -13 -2 -19q61 48 82.5 92t21.5 109q0 80 -67 183t-162 203.5t-190.5 200.5t-162.5 202t-67 180z" />
    <glyph glyph-name="dieresis" unicode="&#xa8;" horiz-adv-x="1656" 
d="M922 1327q0 42 29.5 72.5t70.5 30.5t71.5 -31t30.5 -72t-30.5 -70.5t-71.5 -29.5t-70.5 29.5t-29.5 70.5zM516 1327q0 42 29.5 72.5t70.5 30.5t72 -31t31 -72t-30.5 -70.5t-72.5 -29.5q-41 0 -70.5 29.5t-29.5 70.5z" />
    <glyph glyph-name="copyright" unicode="&#xa9;" horiz-adv-x="1671" 
d="M834 2q189 0 347.5 88t252.5 248t94 358q0 99 -25.5 192.5t-70.5 172t-109 144t-139 111t-163 70.5t-179 25q-139 0 -267.5 -52.5t-224 -143t-152.5 -221t-57 -279.5q0 -148 56.5 -281t151 -227t221.5 -149.5t264 -55.5zM813 -33q-147 0 -279 55t-228.5 150.5t-153 232
t-56.5 293.5q0 122 46.5 239t124.5 207t176 158.5t206.5 105t210.5 36.5q147 0 278.5 -55t227 -150.5t151.5 -232t56 -293.5q0 -123 -45.5 -239t-122.5 -206.5t-174 -159t-205.5 -105t-212.5 -36.5zM1229 504q-24 -30 -44 -52t-62 -59t-82.5 -61t-98.5 -41.5t-117 -16.5
q-178 0 -292.5 114t-114.5 296q0 127 66 230.5t170 158.5t220 55q164 0 285 -53l19 -317q0 -5 -4 -7.5t-8.5 -1t-4.5 6.5q-6 74 -24 135t-51.5 111.5t-88 79t-125.5 28.5q-162 0 -252 -92t-90 -285q0 -164 104.5 -275.5t272.5 -111.5q47 0 89.5 11.5t69 24t59.5 40.5t44 40
t39 44q2 2 3 3.5t3 3t3 3.5q3 3 7 1.5t5.5 -5.5t-0.5 -8z" />
    <glyph glyph-name="ordfeminine" unicode="&#xaa;" horiz-adv-x="770" 
d="M248 813q-68 0 -108 37.5t-40 93.5q0 61 69 120.5t226 121.5l101 39q-4 107 -33.5 147.5t-93.5 40.5q-30 0 -51.5 -9t-34.5 -26.5t-21 -33t-16.5 -38.5t-14.5 -34q-15 -29 -65 -29q-53 0 -53 33q0 32 49 67q117 84 225 84q211 0 211 -198q0 -44 -3 -141t-3 -115
q0 -51 7.5 -70.5t27.5 -19.5q13 0 32.5 20.5t32.5 42.5q5 10 17 3q8 -6 2 -15l-13 -14q-12 -14 -19.5 -21.5t-22 -22.5t-26.5 -24t-26 -19t-27.5 -15t-25.5 -5q-68 0 -68 84q0 69 2 94q-32 -48 -113 -113t-124 -65zM205 995q0 -47 33 -81.5t77 -34.5q41 0 102 59.5t70 93.5
q9 63 9 160v16l-97 -39q-85 -36 -127 -63t-54.5 -50.5t-12.5 -60.5z" />
    <glyph glyph-name="guillemotleft" unicode="&#xab;" horiz-adv-x="1355" 
d="M135 510v-2q50 -46 260 -208t232 -183q15 -15 20.5 -21.5t12.5 -21.5t6 -31q-5 -45 -43 -45q-28 0 -78 47q-50 46 -217 231.5t-215 231.5q-5 3 -5 10t5 10q37 36 220.5 231.5t241.5 246.5q53 47 74 47q19 0 33 -11.5t14 -33.5q0 -23 -9.5 -38.5t-33.5 -37.5
q-17 -14 -132 -100t-230 -175.5t-156 -130.5q-8 -8 0 -16zM573 510v-2q54 -44 304.5 -205.5t275.5 -183.5q41 -36 41 -76q0 -45 -39 -45q-31 0 -84 47q-56 47 -264.5 234t-257.5 229q-5 3 -5 10t5 10q61 53 268 245.5t252 232.5q53 47 76 47q19 0 33 -11.5t14 -33.5
q0 -24 -9 -40.5t-32 -37.5q-17 -14 -268.5 -183t-309.5 -221q-10 -6 0 -16z" />
    <glyph glyph-name="uni00AD" unicode="&#xad;" horiz-adv-x="1101" 
d="M555 514q212 0 408 12q11 -7 11 -25t-9 -24q-212 15 -410 15q-206 0 -410 -15q-11 6 -11 23.5t9 25.5q204 -12 412 -12z" />
    <glyph glyph-name="registered" unicode="&#xae;" horiz-adv-x="1646" 
d="M1190 90q-183 -123 -402 -123q-196 0 -354 93t-248 260.5t-90 377.5q0 123 44 239t119.5 206.5t170.5 159t201.5 105t208.5 36.5q195 0 356 -89.5t256.5 -255t95.5 -374.5q0 -53 -11 -117t-36.5 -133t-60.5 -125t-88.5 -92.5t-116.5 -36.5q-50 0 -88 17t-69.5 56.5
t-53.5 80.5t-53 112q-30 69 -50 108t-39.5 68t-42 41t-46.5 17t-64 6h-51v-125q0 -222 10 -265.5t57 -43.5h25q6 0 6 -7t-6 -7q-20 0 -74.5 1t-60.5 1q-10 0 -90.5 -1t-83.5 -1q-5 0 -7 3.5t0 7t7 3.5q57 0 69 8q22 14 25 107q4 68 4 247v164q0 223 -9.5 266t-55.5 43h-23
q-7 0 -7 8.5t7 8.5q20 0 87.5 -2t74.5 -2t77 2t81 2q173 0 252 -49t79 -156q0 -79 -77 -134t-195 -69q75 -5 125 -46.5t112 -155.5q12 -23 31.5 -62t31.5 -63.5t31.5 -55.5t37.5 -48t43 -29.5t53 -12.5q46 0 84 48.5t60 120.5t34 146t12 134q0 149 -55 280t-148 222
t-218.5 143.5t-262.5 52.5q-139 0 -264 -52t-216.5 -143t-145.5 -221.5t-54 -279.5q0 -198 89.5 -362t243 -257.5t335.5 -93.5q230 0 375 96q8 6 11 2t-5 -10zM678 942v-199q25 2 104 2q37 0 72.5 10.5t67 32.5t50.5 61t19 89q0 97 -51 143.5t-166 46.5h-47q-35 0 -42 -25
t-7 -161z" />
    <glyph glyph-name="macron" unicode="&#xaf;" horiz-adv-x="1656" 
d="M819 1384h2q117 0 185 2q71 2 71 -2q0 -13 -94 -104q-1 0 -59.5 1t-100.5 1q-19 0 -155 -4q-72 -2 -72 4q0 13 94 104q1 0 44 -1t85 -1z" />
    <glyph glyph-name="degree" unicode="&#xb0;" horiz-adv-x="770" 
d="M119 1182q0 110 78 188t188 78t188 -78t78 -188t-78 -188.5t-188 -78.5t-188 78.5t-78 188.5zM150 1182q0 -97 69.5 -167.5t165.5 -70.5q97 0 166.5 70.5t69.5 167.5t-69.5 167t-166.5 70t-166 -70t-69 -167z" />
    <glyph glyph-name="plusminus" unicode="&#xb1;" 
d="M549 1077q7 11 25 11t24 -11q-14 -191 -14 -317q121 0 313 12q11 -8 11 -25.5t-11 -23.5q-191 14 -313 14q0 -129 14 -315q-6 -10 -24 -10t-25 10q6 96 6 315q-127 0 -313 -14q-10 6 -10 23.5t10 25.5q192 -12 313 -12q0 219 -6 317zM567 258q126 0 326 12
q11 -8 11 -25.5t-11 -23.5q-208 15 -324 15q-59 0 -108 -1.5t-70.5 -2.5t-73.5 -5.5t-71 -5.5q-10 6 -10 23.5t10 25.5q200 -12 321 -12z" />
    <glyph glyph-name="twosuperior" unicode="&#xb2;" horiz-adv-x="759" 
d="M276 713q-30 0 -73 -0.5t-75.5 -1t-35.5 -0.5q-2 30 2 34q36 30 76 60t64 50t51 46q123 117 171 199.5t48 179.5q0 70 -38.5 105.5t-105.5 35.5q-63 0 -112 -55t-72.5 -133.5t-23.5 -161.5q0 -7 -9.5 -7t-9.5 7q0 69 -15.5 181.5t-15.5 113.5q0 23 11 23q163 51 252 51
q134 0 210 -45.5t76 -141.5q0 -38 -17.5 -72.5t-54 -69.5t-74 -63.5t-98 -74.5t-104.5 -84q-51 -41 -72 -60q193 0 269 2q35 0 50 0.5t35 4t28.5 11.5t16 22t11.5 36l12 86q1 14 11 16q7 1 8 -8q1 -4 0 -8l-13 -88q-25 -181 -30 -188q-4 -4 -54 -4q-11 0 -141.5 1t-157.5 1z
" />
    <glyph glyph-name="threesuperior" unicode="&#xb3;" horiz-adv-x="716" 
d="M262 727q123 0 184.5 57t61.5 142q0 75 -39 113t-111 38q-36 0 -66 -20t-49 -40t-28 -20q-11 0 -14 13t-0.5 25t4.5 14q117 38 186.5 105t69.5 155q0 111 -125 114q-69 0 -118 -47t-69 -113t-20 -141q0 -5 -4.5 -7.5t-9 -1t-4.5 6.5q0 69 -9.5 157t-9.5 89q0 23 10 23
q11 3 38.5 12t40 13t38 10.5t44.5 9.5t45.5 5.5t53.5 2.5q114 0 175 -36.5t61 -102.5q0 -29 -12 -54t-28.5 -41.5t-49 -35t-58 -30t-70.5 -31t-73 -32.5q82 23 119 23q215 0 215 -178q0 -104 -77 -165t-224 -61q-110 0 -246 43q-9 3 -11 8.5t2 9t13 1.5q7 -2 34.5 -10
t42.5 -11.5t40.5 -7.5t46.5 -4z" />
    <glyph glyph-name="acute" unicode="&#xb4;" horiz-adv-x="1656" 
d="M649 1100q-4 -4 -8 -4q-8 0 -8 8q0 2 6 8q47 44 102.5 114.5t96 127t47.5 63.5q13 13 49 13q30 0 37 -7q6 -6 6 -39q0 -13 -25 -34q-7 -6 -64 -48t-125.5 -98t-113.5 -104z" />
    <glyph glyph-name="paragraph" unicode="&#xb6;" horiz-adv-x="1318" 
d="M684 -305v1028h-166q-187 0 -295 88.5t-108 241.5q0 154 99 238.5t296 84.5q14 0 226 -1t227 -1q12 0 103.5 2t123.5 2q12 0 12 -9t-12 -9h-37q-51 0 -68 -15q-30 -28 -38 -161q-5 -93 -5 -336v-1153q0 -11 -5.5 -15.5t-11 0t-5.5 15.5v1153q0 371 -12 441q-8 54 -34 62
q-10 3 -34 3h-231v-1659q0 -11 -6.5 -15.5t-12.5 0t-6 15.5z" />
    <glyph glyph-name="periodcentered" unicode="&#xb7;" horiz-adv-x="516" 
d="M139 506q0 48 34.5 83.5t84.5 35.5q47 0 83 -36t36 -83q0 -50 -35.5 -84.5t-83.5 -34.5q-51 0 -85 34t-34 85z" />
    <glyph glyph-name="cedilla" unicode="&#xb8;" horiz-adv-x="1656" 
d="M1022 -334q0 -58 -31.5 -123t-91 -113t-127.5 -48q-71 0 -121.5 22t-50.5 55q0 35 22.5 60.5t55.5 25.5q30 0 61 -23t65 -46t73 -23q40 0 67 35t27 78q0 41 -28 71.5t-104.5 51.5t-197.5 20q-22 0 -8 21q168 226 198 270q9 11 17 5q5 -3 0 -9q-25 -35 -67 -96.5
t-54 -79.5q3 -6 10 -6q139 0 212 -45t73 -103z" />
    <glyph glyph-name="onesuperior" unicode="&#xb9;" horiz-adv-x="436" 
d="M106 733q42 0 53 31t11 127v369q0 55 -16.5 62.5t-73.5 -15.5q-6 -2 -9 4.5t3 9.5q87 32 190 119q2 2 10.5 1t8.5 -5v-545q0 -99 10 -128.5t55 -29.5h39q5 0 5 -9t-5 -9q-16 0 -81.5 1t-78.5 1t-77 -1t-80 -1q-4 0 -4 9t4 9h36z" />
    <glyph glyph-name="ordmasculine" unicode="&#xba;" horiz-adv-x="770" 
d="M377 813q-128 0 -210.5 81.5t-82.5 213.5t88.5 225.5t222.5 93.5q127 0 209 -82.5t82 -216.5q0 -119 -90 -217t-219 -98zM391 831q88 0 132 73t44 206q0 78 -18 144t-60.5 111.5t-103.5 45.5q-180 0 -180 -283q0 -78 17 -142t60.5 -109.5t108.5 -45.5z" />
    <glyph glyph-name="guillemotright" unicode="&#xbb;" horiz-adv-x="1355" 
d="M1198 539v2q-50 46 -259 208t-232 183q-15 15 -20.5 21.5t-12.5 21.5t-6 31q5 45 43 45q27 0 77 -47q50 -46 217.5 -231.5t215.5 -231.5q5 -3 5 -10.5t-5 -10.5q-41 -41 -216.5 -233t-232.5 -242q-53 -47 -74 -47q-19 0 -33 11.5t-14 33.5q0 23 9.5 38.5t33.5 37.5
q15 12 128 98.5t223.5 174.5t152.5 130q8 8 0 17zM760 539v2q-54 44 -300 205.5t-272 183.5q-41 36 -41 76q0 45 39 45q31 0 84 -47q55 -46 259 -232.5t255 -230.5q4 -3 4 -10.5t-4 -10.5q-62 -54 -273 -246t-253 -229q-53 -47 -76 -47q-19 0 -33 11.5t-14 33.5q0 24 9 40.5
t32 37.5q17 14 271.5 181.5t312.5 219.5q10 7 0 17z" />
    <glyph glyph-name="onequarter" unicode="&#xbc;" horiz-adv-x="1302" 
d="M739 96h70q75 0 101 18t36 83l8 49q2 11 12 10q8 0 7 -10l-6 -41q-4 -29 -11.5 -81.5t-11.5 -81.5t-6 -32q-4 -4 -68 -4h-131v-43q0 -90 16.5 -111t90.5 -22q8 0 8 -9t-8 -9q-17 0 -87.5 1t-76.5 1q-5 0 -75.5 -1t-88.5 -1q-8 0 -8 9t8 9q79 1 97 22t18 111v43h-230
q-52 0 -98 -4q-13 -1 -12 7q1 12 61 87v1l1 1l1 1l1 1v1l1 1l1 1l1 1q29 36 79 96.5t77 94t71.5 92.5t92.5 127q13 18 37 25q28 7 39 0.5t2 -25.5q-19 -46 -19 -94v-324zM522 897q42 0 53 31t11 127v368q0 55 -16.5 62.5t-73.5 -15.5q-6 -2 -9.5 5t2.5 10q88 33 191 119
q2 2 10 0.5t8 -5.5v-544q0 -98 10.5 -128t55.5 -30h39q5 0 5 -9t-5 -9q-16 0 -81.5 1t-78.5 1t-77.5 -1t-80.5 -1q-5 0 -5 9t5 9h37zM375 96h258v293q-38 -45 -121 -136.5t-137 -156.5zM649 713q335 0 535 12q10 -7 10 -25t-10 -24q-75 5 -259.5 9.5t-273.5 4.5t-273 -4.5
t-259 -9.5q-11 6 -11 24t11 25q200 -12 530 -12z" />
    <glyph glyph-name="onehalf" unicode="&#xbd;" horiz-adv-x="1302" 
d="M539 -197q-30 0 -73.5 -0.5t-76 -1t-35.5 -0.5q-2 31 2 35q36 30 76 60t64 50t51 46q123 117 171 199.5t48 179.5q0 70 -38 105.5t-105 35.5q-63 0 -112.5 -55t-73 -133.5t-23.5 -161.5q0 -8 -9.5 -8t-9.5 8q0 69 -15 181.5t-15 113.5q0 22 10 22q163 51 252 51
q134 0 210 -45t76 -141q0 -38 -17.5 -72.5t-54 -69.5t-74 -63.5t-98 -74.5t-104.5 -84q-42 -34 -71 -60q192 0 268 2q35 0 50 0.5t35 4t28.5 11.5t16 22t11.5 36l12 86q1 14 11 16q7 1 8 -8q1 -4 0 -8l-12 -88q-25 -180 -31 -189q-4 -4 -53 -4q-11 0 -141.5 1t-157.5 1z
M522 897q42 0 53 31t11 127v368q0 55 -16.5 62.5t-73.5 -15.5q-6 -2 -9.5 5t2.5 10q88 33 191 119q2 2 10 0.5t8 -5.5v-544q0 -98 10.5 -128t55.5 -30h39q5 0 5 -9t-5 -9q-16 0 -81.5 1t-78.5 1t-77.5 -1t-80.5 -1q-5 0 -5 9t5 9h37zM649 713q335 0 535 12q10 -7 10 -25
t-10 -24q-75 5 -259.5 9.5t-273.5 4.5t-273 -4.5t-259 -9.5q-11 6 -11 24t11 25q200 -12 530 -12z" />
    <glyph glyph-name="threequarters" unicode="&#xbe;" horiz-adv-x="1302" 
d="M739 96h70q75 0 101 18t36 83l8 49q2 11 12 10q8 0 7 -10l-6 -41q-4 -29 -11.5 -81.5t-11.5 -81.5t-6 -32q-4 -4 -68 -4h-131v-43q0 -90 16.5 -111t90.5 -22q8 0 8 -9t-8 -9q-17 0 -87.5 1t-76.5 1q-5 0 -75.5 -1t-88.5 -1q-8 0 -8 9t8 9q79 1 97 22t18 111v43h-230
q-52 0 -98 -4q-13 -1 -12 7q1 12 61 87v1l1 1l1 1l1 1v1l1 1l1 1l1 1q29 36 79 96.5t77 94t71.5 92.5t92.5 127q13 18 37 25q28 7 39 0.5t2 -25.5q-19 -46 -19 -94v-324zM555 891q123 0 184.5 57t61.5 142q0 75 -39 113t-111 38q-36 0 -66 -20t-49 -40t-28 -20
q-11 0 -14 12.5t-0.5 24.5t4.5 14q117 38 186.5 105.5t69.5 155.5q0 111 -125 114q-69 0 -118 -47t-69 -113t-20 -141q0 -5 -5 -7.5t-9.5 -1t-4.5 6.5q0 69 -9 157t-9 89q0 22 10 22q10 3 45 14.5t50.5 16t45.5 11.5t58.5 9.5t60.5 2.5q113 0 174.5 -37t61.5 -103
q0 -29 -12 -53.5t-29 -41.5t-48.5 -35t-57.5 -29.5t-70.5 -30.5t-73.5 -33q82 23 119 23q215 0 215 -179q0 -104 -77 -164.5t-224 -60.5q-110 0 -246 43q-9 3 -11 8.5t2 9t13 1.5q7 -2 34.5 -10t42.5 -11.5t40.5 -7.5t46.5 -4zM375 96h258v293q-38 -45 -121 -136.5
t-137 -156.5zM649 713q335 0 535 12q10 -7 10 -25t-10 -24q-75 5 -259.5 9.5t-273.5 4.5t-273 -4.5t-259 -9.5q-11 6 -11 24t11 25q200 -12 530 -12z" />
    <glyph glyph-name="questiondown" unicode="&#xbf;" horiz-adv-x="808" 
d="M557 938q0 -48 -35.5 -83.5t-85.5 -35.5q-47 0 -82 36t-35 83q0 50 35.5 84.5t83.5 34.5q51 0 85 -34t34 -85zM535 350q0 -16 -17 -22q-166 -81 -238 -158t-71 -186q2 -116 109 -181t309 -65q12 0 12 -12q-1 -11 -31 -114.5t-37 -137.5q-3 -7 -7.5 -6.5t-4.5 8.5
q4 24 9.5 53.5t8 44t1.5 18.5q-2 9 -37 9q-102 0 -185 26t-134.5 68.5t-79 95.5t-27.5 109q0 119 87.5 228t198.5 161q0 16 -10 151t-8 146q1 5 37.5 28t73.5 42t38 14q3 -18 3 -320z" />
    <glyph glyph-name="Agrave" unicode="&#xc0;" horiz-adv-x="1456" 
d="M952 508l-239 -6q-184 0 -367 6l-35 -86q-73 -179 -73 -305q0 -101 114 -101q9 0 32 3.5t26 3.5q14 0 14 -11q0 -12 -25 -12q-19 0 -117.5 2t-115.5 2q-10 0 -76 -2t-94 -2q-12 0 -12 10q0 8 12 8h8q82 0 148 123q69 119 135 291l395 987q3 6 14 6h21q17 0 20 -6
l373 -889q53 -126 88 -205t66.5 -140t51 -91t42 -49t40 -23t44.5 -4h16q15 0 15 -8q0 -10 -13 -10q-33 0 -114 3t-93 3t-113 -3t-134 -3q-14 0 -16 10q1 7 9 8h43q49 0 59 25q19 48 -65 262q-32 82 -84 203zM942 530l-305 715l-285 -719l348 2h242v2zM711 1573
q-45 48 -113.5 104t-125.5 98t-64 48q-25 21 -25 35q0 32 6 38q7 7 37 7q36 0 49 -13q7 -7 47.5 -63.5t96 -127t102.5 -114.5q6 -6 6 -8q0 -8 -8 -8q-4 0 -8 4z" />
    <glyph glyph-name="Aacute" unicode="&#xc1;" horiz-adv-x="1456" 
d="M952 508l-239 -6q-184 0 -367 6l-35 -86q-73 -179 -73 -305q0 -101 114 -101q9 0 32 3.5t26 3.5q14 0 14 -11q0 -12 -25 -12q-19 0 -117.5 2t-115.5 2q-10 0 -76 -2t-94 -2q-12 0 -12 10q0 8 12 8h8q82 0 148 123q69 119 135 291l395 987q3 6 14 6h21q17 0 20 -6
l373 -889q53 -126 88 -205t66.5 -140t51 -91t42 -49t40 -23t44.5 -4h16q15 0 15 -8q0 -10 -13 -10q-33 0 -114 3t-93 3t-113 -3t-134 -3q-14 0 -16 10q1 7 9 8h43q49 0 59 25q19 48 -65 262q-32 82 -84 203zM942 530l-305 715l-285 -719l348 2h242v2zM711 1573q-4 -4 -9 -4
q-8 0 -8 8q0 2 6 8q47 44 102.5 114.5t96 127t47.5 63.5q13 13 49 13q30 0 37 -7q6 -6 6 -38q0 -15 -24 -35q-7 -6 -64 -48t-125.5 -98t-113.5 -104z" />
    <glyph glyph-name="Acircumflex" unicode="&#xc2;" horiz-adv-x="1456" 
d="M952 508l-239 -6q-184 0 -367 6l-35 -86q-73 -179 -73 -305q0 -101 114 -101q9 0 32 3.5t26 3.5q14 0 14 -11q0 -12 -25 -12q-19 0 -117.5 2t-115.5 2q-10 0 -76 -2t-94 -2q-12 0 -12 10q0 8 12 8h8q82 0 148 123q69 119 135 291l395 987q3 6 14 6h21q17 0 20 -6
l373 -889q53 -126 88 -205t66.5 -140t51 -91t42 -49t40 -23t44.5 -4h16q15 0 15 -8q0 -10 -13 -10q-33 0 -114 3t-93 3t-113 -3t-134 -3q-14 0 -16 10q1 7 9 8h43q49 0 59 25q19 48 -65 262q-32 82 -84 203zM942 530l-305 715l-285 -719l348 2h242v2zM715 1847q-9 9 -15 0
l-168 -250q-26 -38 -69 -38q-19 0 -30 9t-11 19q0 21 37 60q116 121 239 219q3 3 9.5 3t9.5 -3q155 -118 248 -199q41 -36 41 -59q0 -14 -14 -28.5t-34 -14.5q-41 0 -71 43q-19 27 -80.5 111.5t-91.5 127.5z" />
    <glyph glyph-name="Atilde" unicode="&#xc3;" horiz-adv-x="1456" 
d="M952 508l-239 -6q-184 0 -367 6l-35 -86q-73 -179 -73 -305q0 -101 114 -101q9 0 32 3.5t26 3.5q14 0 14 -11q0 -12 -25 -12q-19 0 -117.5 2t-115.5 2q-10 0 -76 -2t-94 -2q-12 0 -12 10q0 8 12 8h8q82 0 148 123q69 119 135 291l395 987q3 6 14 6h21q17 0 20 -6
l373 -889q53 -126 88 -205t66.5 -140t51 -91t42 -49t40 -23t44.5 -4h16q15 0 15 -8q0 -10 -13 -10q-33 0 -114 3t-93 3t-113 -3t-134 -3q-14 0 -16 10q1 7 9 8h43q49 0 59 25q19 48 -65 262q-32 82 -84 203zM942 530l-305 715l-285 -719l348 2h242v2zM395 1622
q89 115 126 152.5t71 37.5q46 0 159 -60t148 -60q29 0 47 16t74 96q9 11 16 7t-2 -17q-75 -109 -121 -157t-92 -48q-43 0 -153 64.5t-150 64.5q-17 0 -31.5 -15t-76.5 -91q-12 -13 -17.5 -8.5t2.5 18.5z" />
    <glyph glyph-name="Adieresis" unicode="&#xc4;" horiz-adv-x="1456" 
d="M952 508l-239 -6q-184 0 -367 6l-35 -86q-73 -179 -73 -305q0 -101 114 -101q9 0 32 3.5t26 3.5q14 0 14 -11q0 -12 -25 -12q-19 0 -117.5 2t-115.5 2q-10 0 -76 -2t-94 -2q-12 0 -12 10q0 8 12 8h8q82 0 148 123q69 119 135 291l395 987q3 6 14 6h21q17 0 20 -6
l373 -889q53 -126 88 -205t66.5 -140t51 -91t42 -49t40 -23t44.5 -4h16q15 0 15 -8q0 -10 -13 -10q-33 0 -114 3t-93 3t-113 -3t-134 -3q-14 0 -16 10q1 7 9 8h43q49 0 59 25q19 48 -65 262q-32 82 -84 203zM942 530l-305 715l-285 -719l348 2h242v2zM408 1690
q0 41 29.5 71.5t70.5 30.5t71.5 -30.5t30.5 -71.5t-30.5 -71t-71.5 -30t-70.5 30t-29.5 71zM813 1690q0 41 29.5 71.5t70.5 30.5t72 -30.5t31 -71.5t-31 -71t-72 -30t-70.5 30t-29.5 71z" />
    <glyph glyph-name="Aring" unicode="&#xc5;" horiz-adv-x="1456" 
d="M952 508l-239 -6q-184 0 -367 6l-35 -86q-73 -179 -73 -305q0 -101 114 -101q9 0 32 3.5t26 3.5q14 0 14 -11q0 -12 -25 -12q-19 0 -117.5 2t-115.5 2q-10 0 -76 -2t-94 -2q-12 0 -12 10q0 8 12 8h8q82 0 148 123q69 119 135 291l391 979q-53 11 -88 52.5t-35 97.5
q0 63 44.5 107t107.5 44t107 -44t44 -107q0 -55 -33.5 -96.5t-85.5 -53.5l371 -881q53 -126 88 -205t66.5 -140t51 -91t42 -49t40 -23t44.5 -4h16q15 0 15 -8q0 -10 -13 -10q-33 0 -114 3t-93 3t-113 -3t-134 -3q-14 0 -16 10q1 7 9 8h43q49 0 59 25q19 48 -65 262
q-32 82 -84 203zM942 530l-305 715l-285 -719l348 2h242v2zM580 1561q0 -53 37 -90t90 -37t90 37t37 90t-37 90t-90 37t-90 -37t-37 -90z" />
    <glyph glyph-name="AE" unicode="&#xc6;" horiz-adv-x="2062" 
d="M723 502q-140 0 -350 6l-39 -86q-85 -187 -90 -305q-2 -50 24.5 -75.5t81.5 -25.5q9 0 32 3.5t26 3.5q14 0 14 -11q-4 -12 -25 -12q-19 0 -117.5 2t-115.5 2q-11 0 -75.5 -2t-90.5 -2q-6 0 -9.5 3t-2.5 7q0 8 12 8h8q77 0 152 123q70 111 153 291l412 889
q-20 51 -44 65.5t-83 14.5q-12 0 -12 9t12 9q33 0 127 -2t106 -2h494q93 0 288.5 2t221.5 2l17 -1l-1 -1q-7 -3 -2 -6q2 -1 4 -7t4.5 -18t5 -26t5.5 -36.5t6 -43t7.5 -52.5t8.5 -57.5t9.5 -66t9.5 -70.5l8 -73q3 -10 -7 -10q-10 1 -14 10l-10 73q-29 171 -142.5 264
t-289.5 95h-563q-12 0 -8 -13l172 -598h213q93 0 155.5 16.5t95.5 49.5t45.5 73t12.5 97v43q0 12 10 12t10 -12q0 -33 -5 -156t-5 -135q0 -14 5 -139.5t5 -141.5q0 -12 -10 -12t-10 12v31q0 57 -13 97.5t-46 74t-96 50t-156 16.5h-203l65 -228q36 -125 60.5 -204.5
t47.5 -139.5t38.5 -89.5t36 -47.5t36.5 -22t44 -4h141q86 0 160.5 35t125.5 93.5t83.5 131.5t42.5 153l12 109q1 6 7 8t11 -0.5t4 -9.5l-12 -111q-28 -248 -40 -331.5t-23 -92.5q-8 -8 -273 -8h-223q-33 0 -114 3t-93 3t-115.5 -3t-136.5 -3q-12 0 -12 9t12 9h43q50 0 64 28
q24 52 -37 282q-20 76 -51 180zM958 530l-219 740l-6 16l-352 -760l336 2h241v2z" />
    <glyph glyph-name="Ccedilla" unicode="&#xc7;" horiz-adv-x="1548" 
d="M272 709q0 -320 156.5 -514.5t431.5 -194.5q247 0 378 144t157 403h16l-25 -477q-89 -39 -226.5 -64.5t-295.5 -25.5q-4 0 -11.5 1t-10.5 1l-84 -127q-3 -6 -1 -6.5t11 -0.5q140 0 212.5 -44.5t72.5 -102.5t-31.5 -123.5t-91 -113.5t-127.5 -48q-70 0 -121 22.5t-51 55.5
q0 35 22.5 60.5t55.5 25.5q24 0 49 -14.5t43 -31.5t46.5 -31.5t59.5 -14.5q40 0 67 35t27 78q0 41 -28 71.5t-104 51.5t-197 20q-21 0 -8 20q117 154 161 218q-209 8 -377 103.5t-264 259t-96 364.5q0 157 63.5 294.5t170 232.5t250 149.5t300.5 54.5q128 0 277 -26.5
t233 -63.5l25 -447h-18q-25 250 -152 383t-360 133q-275 0 -440 -196t-165 -514z" />
    <glyph glyph-name="Egrave" unicode="&#xc8;" horiz-adv-x="1273" 
d="M350 889v-141h170q93 0 156 16t96 49t46 73t13 97v43q0 12 10.5 12t10.5 -12q0 -33 -5 -156t-5 -135q0 -14 5 -139t5 -141q0 -12 -10.5 -12t-10.5 12v30q0 57 -13 97.5t-46 74t-96 50t-156 16.5h-170v-393q0 -231 -16 -301q29 0 192 -3t195 -3q114 0 210 60t152 153
t70 200l12 109q1 6 7 8t11.5 -0.5t4.5 -9.5l-12 -111q-27 -244 -40 -329.5t-24 -94.5q-8 -8 -272 -8l-518 6l-289 -6q-15 0 -15 7t15 7q29 0 45.5 2t34 7t26 17.5t17.5 30t13.5 49.5t8.5 70t8 97q9 127 9 602q0 131 -1.5 213.5t-8 143t-12 89t-22.5 45t-31 19t-44 2.5h-37
q-12 0 -12 9t12 9q32 0 123.5 -3t103.5 -3q9 0 343.5 3t377.5 3q80 0 96 -8q2 -1 4 -7t4.5 -18t5 -26t5.5 -36.5t6 -43t7.5 -52.5t8.5 -57.5t9.5 -66t9.5 -70.5l8 -73q3 -10 -7 -10q-10 1 -14 10l-10 73q-29 171 -142.5 265t-289.5 96h-260q-29 0 -40 -2.5t-22.5 -19
t-13 -47.5t-2.5 -94t-1 -153q1 -117 1 -190zM711 1573q-45 48 -113.5 104t-125.5 98t-64 48q-25 21 -25 35q0 32 6 38q7 7 37 7q36 0 49 -13q7 -7 47.5 -63.5t96 -127t102.5 -114.5q6 -6 6 -8q0 -8 -8 -8q-4 0 -8 4z" />
    <glyph glyph-name="Eacute" unicode="&#xc9;" horiz-adv-x="1273" 
d="M350 889v-141h170q93 0 156 16t96 49t46 73t13 97v43q0 12 10.5 12t10.5 -12q0 -33 -5 -156t-5 -135q0 -14 5 -139t5 -141q0 -12 -10.5 -12t-10.5 12v30q0 57 -13 97.5t-46 74t-96 50t-156 16.5h-170v-393q0 -231 -16 -301q29 0 192 -3t195 -3q114 0 210 60t152 153
t70 200l12 109q1 6 7 8t11.5 -0.5t4.5 -9.5l-12 -111q-27 -244 -40 -329.5t-24 -94.5q-8 -8 -272 -8l-518 6l-289 -6q-15 0 -15 7t15 7q29 0 45.5 2t34 7t26 17.5t17.5 30t13.5 49.5t8.5 70t8 97q9 127 9 602q0 131 -1.5 213.5t-8 143t-12 89t-22.5 45t-31 19t-44 2.5h-37
q-12 0 -12 9t12 9q32 0 123.5 -3t103.5 -3q9 0 343.5 3t377.5 3q80 0 96 -8q2 -1 4 -7t4.5 -18t5 -26t5.5 -36.5t6 -43t7.5 -52.5t8.5 -57.5t9.5 -66t9.5 -70.5l8 -73q3 -10 -7 -10q-10 1 -14 10l-10 73q-29 171 -142.5 265t-289.5 96h-260q-29 0 -40 -2.5t-22.5 -19
t-13 -47.5t-2.5 -94t-1 -153q1 -117 1 -190zM590 1573q-4 -4 -8 -4q-9 0 -9 8q0 1 7 8q47 44 102.5 114.5t95.5 127t47 63.5q13 13 49 13q30 0 37 -7t7 -38q0 -14 -25 -35q-7 -6 -64 -48t-125.5 -98t-113.5 -104z" />
    <glyph glyph-name="Ecircumflex" unicode="&#xca;" horiz-adv-x="1273" 
d="M350 889v-141h170q93 0 156 16t96 49t46 73t13 97v43q0 12 10.5 12t10.5 -12q0 -33 -5 -156t-5 -135q0 -14 5 -139t5 -141q0 -12 -10.5 -12t-10.5 12v30q0 57 -13 97.5t-46 74t-96 50t-156 16.5h-170v-393q0 -231 -16 -301q29 0 192 -3t195 -3q114 0 210 60t152 153
t70 200l12 109q1 6 7 8t11.5 -0.5t4.5 -9.5l-12 -111q-27 -244 -40 -329.5t-24 -94.5q-8 -8 -272 -8l-518 6l-289 -6q-15 0 -15 7t15 7q29 0 45.5 2t34 7t26 17.5t17.5 30t13.5 49.5t8.5 70t8 97q9 127 9 602q0 131 -1.5 213.5t-8 143t-12 89t-22.5 45t-31 19t-44 2.5h-37
q-12 0 -12 9t12 9q32 0 123.5 -3t103.5 -3q9 0 343.5 3t377.5 3q80 0 96 -8q2 -1 4 -7t4.5 -18t5 -26t5.5 -36.5t6 -43t7.5 -52.5t8.5 -57.5t9.5 -66t9.5 -70.5l8 -73q3 -10 -7 -10q-10 1 -14 10l-10 73q-29 171 -142.5 265t-289.5 96h-260q-29 0 -40 -2.5t-22.5 -19
t-13 -47.5t-2.5 -94t-1 -153q1 -117 1 -190zM635 1868q-8 8 -14 0l-168 -250q-27 -39 -70 -39q-19 0 -30 9.5t-11 19.5q0 20 37 59q116 121 239 219q3 3 9.5 3t9.5 -3q164 -124 248 -198q41 -36 41 -60q0 -14 -13.5 -28.5t-33.5 -14.5q-42 0 -72 43q-19 28 -81 113.5
t-91 126.5z" />
    <glyph glyph-name="Edieresis" unicode="&#xcb;" horiz-adv-x="1273" 
d="M350 889v-141h170q93 0 156 16t96 49t46 73t13 97v43q0 12 10.5 12t10.5 -12q0 -33 -5 -156t-5 -135q0 -14 5 -139t5 -141q0 -12 -10.5 -12t-10.5 12v30q0 57 -13 97.5t-46 74t-96 50t-156 16.5h-170v-393q0 -231 -16 -301q29 0 192 -3t195 -3q114 0 210 60t152 153
t70 200l12 109q1 6 7 8t11.5 -0.5t4.5 -9.5l-12 -111q-27 -244 -40 -329.5t-24 -94.5q-8 -8 -272 -8l-518 6l-289 -6q-15 0 -15 7t15 7q29 0 45.5 2t34 7t26 17.5t17.5 30t13.5 49.5t8.5 70t8 97q9 127 9 602q0 131 -1.5 213.5t-8 143t-12 89t-22.5 45t-31 19t-44 2.5h-37
q-12 0 -12 9t12 9q32 0 123.5 -3t103.5 -3q9 0 343.5 3t377.5 3q80 0 96 -8q2 -1 4 -7t4.5 -18t5 -26t5.5 -36.5t6 -43t7.5 -52.5t8.5 -57.5t9.5 -66t9.5 -70.5l8 -73q3 -10 -7 -10q-10 1 -14 10l-10 73q-29 171 -142.5 265t-289.5 96h-260q-29 0 -40 -2.5t-22.5 -19
t-13 -47.5t-2.5 -94t-1 -153q1 -117 1 -190zM344 1700q0 41 29.5 71.5t70.5 30.5t72 -30.5t31 -71.5t-31 -71t-72 -30t-70.5 30t-29.5 71zM750 1700q0 41 29.5 71.5t70.5 30.5t71.5 -30.5t30.5 -71.5t-30.5 -71t-71.5 -30t-70.5 30t-29.5 71z" />
    <glyph glyph-name="Igrave" unicode="&#xcc;" horiz-adv-x="575" 
d="M209 530v359q0 357 -16 437q-12 59 -46 70q-14 5 -49 5h-43q-12 0 -12 9t12 9q32 0 127.5 -3t106.5 -3q12 0 105.5 3t125.5 3q12 0 12 -9t-12 -9h-43q-51 0 -68 -15q-30 -28 -37 -160q-5 -92 -5 -337v-359q0 -357 16 -436q11 -60 44 -71q16 -5 50 -5h43q12 0 12 -9
t-12 -9q-32 0 -125.5 3t-105.5 3q-11 0 -106.5 -3t-127.5 -3q-12 0 -12 9t12 9h43q51 0 68 15q30 28 38 161q5 93 5 336zM301 1573q-45 48 -113.5 104t-125.5 98t-64 48q-25 21 -25 35q0 31 7 38t36 7q37 0 50 -13q7 -7 47 -63.5t95.5 -127t102.5 -114.5q6 -6 6 -8
q0 -8 -8 -8q-4 0 -8 4z" />
    <glyph glyph-name="Iacute" unicode="&#xcd;" horiz-adv-x="575" 
d="M209 530v359q0 357 -16 437q-12 59 -46 70q-14 5 -49 5h-43q-12 0 -12 9t12 9q32 0 127.5 -3t106.5 -3q12 0 105.5 3t125.5 3q12 0 12 -9t-12 -9h-43q-51 0 -68 -15q-30 -28 -37 -160q-5 -92 -5 -337v-359q0 -357 16 -436q11 -60 44 -71q16 -5 50 -5h43q12 0 12 -9
t-12 -9q-32 0 -125.5 3t-105.5 3q-11 0 -106.5 -3t-127.5 -3q-12 0 -12 9t12 9h43q51 0 68 15q30 28 38 161q5 93 5 336zM256 1573q-4 -4 -8 -4q-8 0 -8 8q0 2 6 8q47 44 102.5 114.5t96 127t47.5 63.5q13 13 49 13q30 0 37 -7q6 -6 6 -38q0 -14 -25 -35q-7 -6 -64 -48
t-125.5 -98t-113.5 -104z" />
    <glyph glyph-name="Icircumflex" unicode="&#xce;" horiz-adv-x="575" 
d="M209 530v359q0 357 -16 437q-12 59 -46 70q-14 5 -49 5h-43q-12 0 -12 9t12 9q32 0 127.5 -3t106.5 -3q12 0 105.5 3t125.5 3q12 0 12 -9t-12 -9h-43q-51 0 -68 -15q-30 -28 -37 -160q-5 -92 -5 -337v-359q0 -357 16 -436q11 -60 44 -71q16 -5 50 -5h43q12 0 12 -9
t-12 -9q-32 0 -125.5 3t-105.5 3q-11 0 -106.5 -3t-127.5 -3q-12 0 -12 9t12 9h43q51 0 68 15q30 28 38 161q5 93 5 336zM289 1868q-9 9 -15 0l-168 -250q-27 -39 -69 -39q-19 0 -30 9.5t-11 19.5q0 20 37 59q116 121 239 219q3 3 9.5 3t9.5 -3q164 -124 248 -198
q41 -36 41 -60q0 -14 -14 -28.5t-34 -14.5q-41 0 -71 43q-19 28 -81 113.5t-91 126.5z" />
    <glyph glyph-name="Idieresis" unicode="&#xcf;" horiz-adv-x="575" 
d="M209 530v359q0 357 -16 437q-12 59 -46 70q-14 5 -49 5h-43q-12 0 -12 9t12 9q32 0 127.5 -3t106.5 -3q12 0 105.5 3t125.5 3q12 0 12 -9t-12 -9h-43q-51 0 -68 -15q-30 -28 -37 -160q-5 -92 -5 -337v-359q0 -357 16 -436q11 -60 44 -71q16 -5 50 -5h43q12 0 12 -9
t-12 -9q-32 0 -125.5 3t-105.5 3q-11 0 -106.5 -3t-127.5 -3q-12 0 -12 9t12 9h43q51 0 68 15q30 28 38 161q5 93 5 336zM393 1700q0 41 30 71.5t71 30.5t71.5 -30.5t30.5 -71.5t-30.5 -71t-71.5 -30t-71 30t-30 71zM-12 1700q0 41 29.5 71.5t70.5 30.5t71.5 -30.5
t30.5 -71.5t-30.5 -71t-71.5 -30t-70.5 30t-29.5 71z" />
    <glyph glyph-name="Eth" unicode="&#xd0;" horiz-adv-x="1501" 
d="M1413 709q0 -206 -101.5 -368.5t-278 -251.5t-394.5 -89l-317 6l-289 -6q-15 0 -15 7t15 7q29 0 45.5 2t34 7t26 17.5t17.5 30t13.5 49.5t8.5 70t8 97t4 346q-14 0 -43.5 -1t-46.5 -1q-71 -2 -71 4q0 13 94 104q5 0 27 -1t38 -1v68q0 45 -3 197.5t-3 211.5v61t-3 45
t-5 34t-11 22t-15.5 15t-24.5 6.5t-32.5 3.5h-43.5q-12 0 -12 9t12 9q6 0 119.5 -2t130.5 -2q12 0 156.5 2t177.5 2q158 0 300.5 -51.5t249 -142.5t169.5 -225t63 -291zM1231 709q0 316 -164.5 504t-439.5 188h-135q-70 0 -92 -16q-34 -24 -43 -127q-7 -80 -7 -369v-152
q168 0 252 2q72 2 72 -2q0 -13 -94 -104q-11 0 -95 1t-135 1v-305q0 -231 -16 -301q19 0 138.5 -4.5t170.5 -4.5q276 0 432 185.5t156 503.5z" />
    <glyph glyph-name="Ntilde" unicode="&#xd1;" horiz-adv-x="1466" 
d="M6 1403h-8q-7 0 -9.5 4t0 8t9.5 4q94 0 166 2t106 4l33 2q15 0 21 -12q20 -38 79 -108l852 -1059v641q0 105 -8.5 187t-20.5 135t-32.5 91t-38 56.5t-45 29t-44.5 12t-44 1.5h-29q-12 0 -12 9t12 9q33 0 148 -3t127 -3q11 0 68.5 3t90.5 3q12 0 12 -9t-12 -9h-14
q-30 0 -45 -3t-33 -18t-25.5 -45.5t-15.5 -88.5t-10 -143.5t-2 -213.5v-875q0 -20 -16 -20q-9 0 -24.5 13.5t-27.5 31.5l-987 1231l-2 -740q0 -105 7 -187t17.5 -135t29 -90.5t34.5 -56.5t41.5 -29.5t41.5 -12t44 -1.5h29q7 0 9.5 -4.5t0 -9t-9.5 -4.5q-35 -1 -150.5 2.5
t-119.5 3.5q-12 0 -73 -3t-93 -3q-11 0 -11 9t13 9h12q27 1 43.5 5.5t36 20.5t30.5 49.5t21.5 88.5t15.5 142t5 206l2 736q0 30 -33 63q-38 38 -75 56t-87 18zM424 1612q89 115 126 152.5t71 37.5q46 0 159 -60.5t148 -60.5q29 0 46.5 16t74.5 97q9 11 16 7t-2 -17
q-75 -109 -121 -157t-92 -48q-35 0 -94 32.5t-117.5 64.5t-91.5 32q-17 0 -32.5 -15.5t-76.5 -90.5q-12 -13 -17 -8.5t3 18.5z" />
    <glyph glyph-name="Ograve" unicode="&#xd2;" horiz-adv-x="1626" 
d="M88 709q0 156 59.5 294t159.5 233t232.5 149.5t275.5 54.5t275 -55.5t230 -151t157 -232.5t59 -292q0 -204 -103 -373t-270.5 -262.5t-359.5 -93.5q-143 0 -274 55.5t-228 151t-155 232t-58 290.5zM272 709q0 -321 138.5 -515t384.5 -194q165 0 292.5 89t197 250.5
t69.5 369.5q0 321 -142 515.5t-389 194.5q-250 0 -400.5 -196t-150.5 -514zM907 1552q-45 48 -113.5 104t-125.5 98t-64 48q-24 20 -24 35q0 33 6 39t37 6q37 0 49 -12q7 -7 47.5 -63.5t96 -127t102.5 -114.5q6 -6 6 -9q0 -8 -9 -8q-4 0 -8 4z" />
    <glyph glyph-name="Oacute" unicode="&#xd3;" horiz-adv-x="1626" 
d="M88 709q0 156 59.5 294t159.5 233t232.5 149.5t275.5 54.5t275 -55.5t230 -151t157 -232.5t59 -292q0 -204 -103 -373t-270.5 -262.5t-359.5 -93.5q-143 0 -274 55.5t-228 151t-155 232t-58 290.5zM272 709q0 -321 138.5 -515t384.5 -194q165 0 292.5 89t197 250.5
t69.5 369.5q0 321 -142 515.5t-389 194.5q-250 0 -400.5 -196t-150.5 -514zM698 1552q-4 -4 -8 -4q-8 0 -8 8q0 3 6 9q47 44 102.5 114.5t96 127t47.5 63.5q12 12 49 12q31 0 37 -6t6 -39q0 -14 -25 -35q-7 -6 -64 -48t-125.5 -98t-113.5 -104z" />
    <glyph glyph-name="Ocircumflex" unicode="&#xd4;" horiz-adv-x="1626" 
d="M88 709q0 156 59.5 294t159.5 233t232.5 149.5t275.5 54.5t275 -55.5t230 -151t157 -232.5t59 -292q0 -204 -103 -373t-270.5 -262.5t-359.5 -93.5q-143 0 -274 55.5t-228 151t-155 232t-58 290.5zM272 709q0 -321 138.5 -515t384.5 -194q165 0 292.5 89t197 250.5
t69.5 369.5q0 321 -142 515.5t-389 194.5q-250 0 -400.5 -196t-150.5 -514zM829 1868q-8 8 -14 0l-168 -250q-27 -39 -69 -39q-19 0 -30 9.5t-11 19.5q0 21 36 59q113 117 240 219q3 3 9 3t9 -3q164 -124 248 -198q41 -36 41 -60q0 -14 -13.5 -28.5t-33.5 -14.5
q-42 0 -72 43q-19 28 -81 113.5t-91 126.5z" />
    <glyph glyph-name="Otilde" unicode="&#xd5;" horiz-adv-x="1626" 
d="M88 709q0 156 59.5 294t159.5 233t232.5 149.5t275.5 54.5t275 -55.5t230 -151t157 -232.5t59 -292q0 -204 -103 -373t-270.5 -262.5t-359.5 -93.5q-143 0 -274 55.5t-228 151t-155 232t-58 290.5zM272 709q0 -321 138.5 -515t384.5 -194q165 0 292.5 89t197 250.5
t69.5 369.5q0 321 -142 515.5t-389 194.5q-250 0 -400.5 -196t-150.5 -514zM518 1622q89 115 126 152.5t71 37.5q46 0 159 -60t148 -60q29 0 47 16t74 96q9 11 16 7t-2 -17q-75 -109 -121 -157t-92 -48q-35 0 -94 32.5t-117.5 64.5t-91.5 32q-17 0 -32.5 -15.5t-76.5 -90.5
q-12 -13 -17 -8.5t3 18.5z" />
    <glyph glyph-name="Odieresis" unicode="&#xd6;" horiz-adv-x="1626" 
d="M88 709q0 156 59.5 294t159.5 233t232.5 149.5t275.5 54.5t275 -55.5t230 -151t157 -232.5t59 -292q0 -204 -103 -373t-270.5 -262.5t-359.5 -93.5q-143 0 -274 55.5t-228 151t-155 232t-58 290.5zM272 709q0 -321 138.5 -515t384.5 -194q165 0 292.5 89t197 250.5
t69.5 369.5q0 321 -142 515.5t-389 194.5q-250 0 -400.5 -196t-150.5 -514zM930 1700q0 41 29.5 71.5t70.5 30.5t72 -30.5t31 -71.5t-31 -71t-72 -30t-70.5 30t-29.5 71zM524 1700q0 41 30 71.5t71 30.5t71.5 -30.5t30.5 -71.5t-30.5 -71t-71.5 -30t-71 30t-30 71z" />
    <glyph glyph-name="multiply" unicode="&#xd7;" 
d="M285 190q-23 2 -47 39q127 101 311 285q-88 88 -295 268q-1 9 10 22t23 21q22 -29 45.5 -56t56.5 -61.5t50.5 -52l64 -64l61.5 -61.5l2 2q53 53 103.5 107.5t107.5 117.5t70 77q23 0 41 -31q-32 -23 -72 -58.5t-67 -62t-82.5 -83.5t-81.5 -83l-2 -2q163 -163 299 -270
q0 -20 -37 -41q-23 32 -57 69.5t-61.5 65.5t-78.5 78.5t-82 81.5q-197 -197 -282 -308z" />
    <glyph glyph-name="Oslash" unicode="&#xd8;" horiz-adv-x="1626" 
d="M88 709q0 156 59.5 294t159.5 233t232.5 149.5t275.5 54.5q196 0 369 -103l215 355q9 1 15 0.5t9.5 -0.5t7.5 -2l6 -3t8 -6t9 -8q-107 -149 -240 -356q147 -98 234.5 -257.5t87.5 -350.5q0 -204 -103 -373t-270.5 -262.5t-359.5 -93.5q-195 0 -363 100
q-67 -106 -225 -375q-27 -4 -34 -3t-23 15q100 147 252 381q-148 98 -235 257.5t-87 353.5zM272 709q0 -367 172 -557q66 103 183.5 288.5t160.5 251.5l365 598q-135 129 -330 129q-250 0 -400.5 -196t-150.5 -514zM813 680q-48 -76 -105.5 -168t-128 -206t-110.5 -179
q130 -127 326 -127q165 0 292.5 89t197 250.5t69.5 369.5q0 177 -44.5 319t-129.5 236q-144 -222 -367 -584z" />
    <glyph glyph-name="Ugrave" unicode="&#xd9;" horiz-adv-x="1361" 
d="M1161 500v389q0 105 -8 187t-19.5 135t-31.5 90.5t-37 56.5t-44 29.5t-44 12t-45 1.5h-19q-12 0 -12 9t12 9q33 0 141 -3t120 -3t71.5 3t91.5 3q12 0 12 -9t-12 -9h-14q-30 0 -44.5 -3t-33 -18t-26.5 -46t-16 -88.5t-10.5 -143.5t-2.5 -213v-389q0 -139 -60 -256
t-180.5 -190.5t-279.5 -73.5q-225 0 -357.5 143t-132.5 393v373q0 358 -16 437q-11 60 -44 70q-14 5 -48 5h-29q-12 0 -12 9t12 9q32 0 118.5 -3t98.5 -3q11 0 102 3t123 3q12 0 12 -9t-12 -9h-36q-51 0 -68 -15q-30 -28 -38 -161q-6 -95 -7 -336l-2 -318
q0 -247 117.5 -386.5t320.5 -139.5q164 0 276.5 132t112.5 323zM797 1544q-45 48 -113.5 104t-125.5 98t-64 48q-25 21 -25 35q0 33 6 39t37 6q37 0 49 -12q7 -7 47.5 -63.5t96 -127.5t102.5 -115q6 -6 6 -8q0 -8 -8 -8q-4 0 -8 4z" />
    <glyph glyph-name="Uacute" unicode="&#xda;" horiz-adv-x="1361" 
d="M1161 500v389q0 105 -8 187t-19.5 135t-31.5 90.5t-37 56.5t-44 29.5t-44 12t-45 1.5h-19q-12 0 -12 9t12 9q33 0 141 -3t120 -3t71.5 3t91.5 3q12 0 12 -9t-12 -9h-14q-30 0 -44.5 -3t-33 -18t-26.5 -46t-16 -88.5t-10.5 -143.5t-2.5 -213v-389q0 -139 -60 -256
t-180.5 -190.5t-279.5 -73.5q-225 0 -357.5 143t-132.5 393v373q0 358 -16 437q-11 60 -44 70q-14 5 -48 5h-29q-12 0 -12 9t12 9q32 0 118.5 -3t98.5 -3q11 0 102 3t123 3q12 0 12 -9t-12 -9h-36q-51 0 -68 -15q-30 -28 -38 -161q-6 -95 -7 -336l-2 -318
q0 -247 117.5 -386.5t320.5 -139.5q164 0 276.5 132t112.5 323zM590 1542q-4 -4 -8 -4q-9 0 -9 8q0 1 7 8q47 44 102.5 115t95.5 127.5t47 63.5q12 12 49 12q31 0 37 -6q7 -7 7 -39q0 -14 -25 -35q-7 -6 -64 -48t-125.5 -98t-113.5 -104z" />
    <glyph glyph-name="Ucircumflex" unicode="&#xdb;" horiz-adv-x="1361" 
d="M1161 500v389q0 105 -8 187t-19.5 135t-31.5 90.5t-37 56.5t-44 29.5t-44 12t-45 1.5h-19q-12 0 -12 9t12 9q33 0 141 -3t120 -3t71.5 3t91.5 3q12 0 12 -9t-12 -9h-14q-30 0 -44.5 -3t-33 -18t-26.5 -46t-16 -88.5t-10.5 -143.5t-2.5 -213v-389q0 -139 -60 -256
t-180.5 -190.5t-279.5 -73.5q-225 0 -357.5 143t-132.5 393v373q0 358 -16 437q-11 60 -44 70q-14 5 -48 5h-29q-12 0 -12 9t12 9q32 0 118.5 -3t98.5 -3q11 0 102 3t123 3q12 0 12 -9t-12 -9h-36q-51 0 -68 -15q-30 -28 -38 -161q-6 -95 -7 -336l-2 -318
q0 -247 117.5 -386.5t320.5 -139.5q164 0 276.5 132t112.5 323zM717 1847q-9 9 -15 0l-167 -250q-26 -38 -70 -38q-19 0 -30 9t-11 19q0 21 37 60q116 121 239 219q3 3 9.5 3t9.5 -3q155 -118 248 -199q41 -36 41 -59q0 -14 -13.5 -28.5t-33.5 -14.5q-42 0 -72 43
q-19 27 -80.5 111.5t-91.5 127.5z" />
    <glyph glyph-name="Udieresis" unicode="&#xdc;" horiz-adv-x="1361" 
d="M1161 500v389q0 105 -8 187t-19.5 135t-31.5 90.5t-37 56.5t-44 29.5t-44 12t-45 1.5h-19q-12 0 -12 9t12 9q33 0 141 -3t120 -3t71.5 3t91.5 3q12 0 12 -9t-12 -9h-14q-30 0 -44.5 -3t-33 -18t-26.5 -46t-16 -88.5t-10.5 -143.5t-2.5 -213v-389q0 -139 -60 -256
t-180.5 -190.5t-279.5 -73.5q-225 0 -357.5 143t-132.5 393v373q0 358 -16 437q-11 60 -44 70q-14 5 -48 5h-29q-12 0 -12 9t12 9q32 0 118.5 -3t98.5 -3q11 0 102 3t123 3q12 0 12 -9t-12 -9h-36q-51 0 -68 -15q-30 -28 -38 -161q-6 -95 -7 -336l-2 -318
q0 -247 117.5 -386.5t320.5 -139.5q164 0 276.5 132t112.5 323zM401 1659q0 41 30 71.5t71 30.5t71.5 -30.5t30.5 -71.5t-30.5 -70.5t-71.5 -29.5t-71 29.5t-30 70.5zM807 1659q0 41 29.5 71.5t70.5 30.5t72 -30.5t31 -71.5t-30.5 -70.5t-72.5 -29.5q-41 0 -70.5 29.5
t-29.5 70.5z" />
    <glyph glyph-name="Yacute" unicode="&#xdd;" horiz-adv-x="1259" 
d="M940 1042l-225 -393v-119q0 -357 16 -436q11 -60 44 -71q15 -5 50 -5h37q12 0 12 -9t-12 -9q-32 0 -121.5 3t-101.5 3q-11 0 -102 -3t-123 -3q-12 0 -12 9t12 9h37q51 0 68 15q30 28 37 160q5 92 5 337v113l-221 399q-123 222 -181 290.5t-134 68.5h-17q-14 0 -14 8
q0 10 12 10q33 0 112 -3t91 -3t113.5 3t134.5 3q14 0 15 -10q-1 -7 -9 -8h-43q-39 0 -52.5 -16.5t0 -64t45 -111t93.5 -177.5l194 -358l218 375q14 24 28.5 54.5t30.5 72.5t21 80.5t0.5 72t-31.5 54t-74 20.5q-9 0 -31.5 -4t-25.5 -4q-15 0 -15 12t25 12q19 0 108.5 -2
t106.5 -2q11 0 103 2t120 2q10 0 10 -8q-3 -9 -14 -10h-4q-41 0 -94.5 -43.5t-103 -109.5t-82.5 -116t-56 -90zM553 1532q-4 -4 -8 -4q-8 0 -8 8q0 2 6 8q47 44 102.5 114.5t95.5 127t47 63.5q13 13 50 13q29 0 36 -7t7 -38q0 -14 -25 -35q-7 -6 -64 -48t-125.5 -98
t-113.5 -104z" />
    <glyph glyph-name="Thorn" unicode="&#xde;" horiz-adv-x="1241" 
d="M195 530v359q0 357 -16 437q-12 59 -46 70q-14 5 -49 5h-43q-12 0 -12 9t12 9q32 0 127 -3t106 -3q12 0 106 3t126 3q12 0 12 -9t-12 -9h-43q-29 0 -43 -3t-29 -16.5t-21.5 -45t-11 -83.5t-6.5 -137h291q252 0 396.5 -103.5t144.5 -291.5t-147.5 -304t-381.5 -116
q-44 1 -95 1t-113 -0.5t-95 -0.5q2 -84 6.5 -135.5t11 -83t21.5 -45t29 -16.5t43 -3h43q12 0 12 -9t-12 -9q-32 0 -126 3t-106 3q-11 0 -106 -3t-127 -3q-12 0 -12 9t12 9h43q51 0 68 15q30 28 38 161q5 93 5 336zM352 322h258q189 0 293.5 107.5t104.5 293.5
q0 373 -396 373h-260v-774z" />
    <glyph glyph-name="germandbls" unicode="&#xdf;" horiz-adv-x="1134" 
d="M37 0q-12 0 -12 9t12 9q23 0 38.5 1t29 6.5t21.5 9.5t14.5 18.5t9 25.5t4.5 37.5t2 47v61.5q-2 658 -2 666v20h-119q-29 0 -29 13l74 100h90q27 112 97.5 220t154.5 182.5t172 120.5t154 46q101 0 162 -57t61 -141q0 -41 -21.5 -86.5t-54.5 -84.5t-70.5 -85t-70.5 -88
t-54.5 -95.5t-21.5 -105.5q0 -58 22.5 -106.5t58.5 -82t79.5 -63.5t86.5 -60.5t79 -64.5t58.5 -83t22.5 -109q0 -114 -86 -200.5t-192 -86.5q-148 0 -217.5 46t-69.5 116q0 41 27 65.5t59 24.5q74 0 80 -105q8 -133 123 -133q79 0 124.5 49.5t45.5 137.5q0 53 -22 97t-57 75
t-77.5 59.5t-84.5 58t-77 62.5t-57 82t-22 108q0 57 27.5 120t66.5 119t78 111t66.5 114.5t27.5 111.5q0 76 -59.5 122t-159.5 46q-153 0 -237.5 -115.5t-84.5 -355.5l2 -785q1 -56 1.5 -85.5t6.5 -56.5t12 -37t24 -18t35 -9t52 -1q12 0 12 -9t-12 -9q-33 0 -112.5 2
t-91.5 2t-89 -2t-110 -2z" />
    <glyph glyph-name="agrave" unicode="&#xe0;" horiz-adv-x="1052" 
d="M319 -23q-118 0 -185.5 66t-67.5 164q0 108 119.5 211t392.5 209l170 65q-6 187 -57 260.5t-163 73.5q-51 0 -91.5 -16.5t-67 -45.5t-44 -55.5t-35 -61.5t-26.5 -48q-14 -21 -33 -29t-59 -8q-37 0 -59.5 12.5t-22.5 34.5q0 49 72 96q80 51 191 95t208 44q160 0 253 -90
t93 -282q0 -76 -8 -246t-8 -203q0 -91 13 -132.5t44 -41.5q25 0 56.5 36.5t54.5 76.5q5 8 13 6.5t11.5 -8.5t-0.5 -15q-32 -46 -109.5 -105.5t-131.5 -59.5q-58 0 -87.5 37.5t-29.5 107.5q0 82 8 168q-22 -37 -68.5 -89t-104.5 -103.5t-124.5 -87.5t-116.5 -36zM209 266
q0 -80 67.5 -139t145.5 -59q53 0 126.5 54.5t126.5 118t62 99.5q13 176 13 295v43l-168 -72q-228 -96 -300.5 -161.5t-72.5 -178.5zM696 1145q-45 48 -113.5 104t-125.5 98t-64 48q-24 20 -24 35q0 32 6 38q7 7 37 7q36 0 49 -13q7 -7 47.5 -63.5t96 -127t102.5 -114.5
q6 -6 6 -8q0 -8 -8 -8q-5 0 -9 4z" />
    <glyph glyph-name="aacute" unicode="&#xe1;" horiz-adv-x="1052" 
d="M319 -23q-118 0 -185.5 66t-67.5 164q0 108 119.5 211t392.5 209l170 65q-6 187 -57 260.5t-163 73.5q-51 0 -91.5 -16.5t-67 -45.5t-44 -55.5t-35 -61.5t-26.5 -48q-14 -21 -33 -29t-59 -8q-37 0 -59.5 12.5t-22.5 34.5q0 49 72 96q80 51 191 95t208 44q160 0 253 -90
t93 -282q0 -76 -8 -246t-8 -203q0 -91 13 -132.5t44 -41.5q25 0 56.5 36.5t54.5 76.5q5 8 13 6.5t11.5 -8.5t-0.5 -15q-32 -46 -109.5 -105.5t-131.5 -59.5q-58 0 -87.5 37.5t-29.5 107.5q0 82 8 168q-22 -37 -68.5 -89t-104.5 -103.5t-124.5 -87.5t-116.5 -36zM209 266
q0 -80 67.5 -139t145.5 -59q53 0 126.5 54.5t126.5 118t62 99.5q13 176 13 295v43l-168 -72q-228 -96 -300.5 -161.5t-72.5 -178.5zM463 1145q-4 -4 -8 -4q-9 0 -9 8q0 1 7 8q47 44 102.5 114.5t95.5 127t47 63.5q13 13 50 13q29 0 36 -7t7 -38q0 -14 -25 -35q-7 -6 -64 -48
t-125.5 -98t-113.5 -104z" />
    <glyph glyph-name="acircumflex" unicode="&#xe2;" horiz-adv-x="1052" 
d="M319 -23q-118 0 -185.5 66t-67.5 164q0 108 119.5 211t392.5 209l170 65q-6 187 -57 260.5t-163 73.5q-51 0 -91.5 -16.5t-67 -45.5t-44 -55.5t-35 -61.5t-26.5 -48q-14 -21 -33 -29t-59 -8q-37 0 -59.5 12.5t-22.5 34.5q0 49 72 96q80 51 191 95t208 44q160 0 253 -90
t93 -282q0 -76 -8 -246t-8 -203q0 -91 13 -132.5t44 -41.5q25 0 56.5 36.5t54.5 76.5q5 8 13 6.5t11.5 -8.5t-0.5 -15q-32 -46 -109.5 -105.5t-131.5 -59.5q-58 0 -87.5 37.5t-29.5 107.5q0 82 8 168q-22 -37 -68.5 -89t-104.5 -103.5t-124.5 -87.5t-116.5 -36zM209 266
q0 -80 67.5 -139t145.5 -59q53 0 126.5 54.5t126.5 118t62 99.5q13 176 13 295v43l-168 -72q-228 -96 -300.5 -161.5t-72.5 -178.5zM545 1470q-9 9 -15 0l-168 -249q-27 -39 -69 -39q-19 0 -30 9t-11 19q0 21 37 60q116 121 239 219q3 3 9.5 3t9.5 -3q155 -118 248 -199
q41 -36 41 -59q0 -14 -14 -28.5t-34 -14.5q-41 0 -71 43q-19 27 -80.5 111.5t-91.5 127.5z" />
    <glyph glyph-name="atilde" unicode="&#xe3;" horiz-adv-x="1052" 
d="M319 -23q-118 0 -185.5 66t-67.5 164q0 108 119.5 211t392.5 209l170 65q-6 187 -57 260.5t-163 73.5q-51 0 -91.5 -16.5t-67 -45.5t-44 -55.5t-35 -61.5t-26.5 -48q-14 -21 -33 -29t-59 -8q-37 0 -59.5 12.5t-22.5 34.5q0 49 72 96q80 51 191 95t208 44q160 0 253 -90
t93 -282q0 -76 -8 -246t-8 -203q0 -91 13 -132.5t44 -41.5q25 0 56.5 36.5t54.5 76.5q5 8 13 6.5t11.5 -8.5t-0.5 -15q-32 -46 -109.5 -105.5t-131.5 -59.5q-58 0 -87.5 37.5t-29.5 107.5q0 82 8 168q-22 -37 -68.5 -89t-104.5 -103.5t-124.5 -87.5t-116.5 -36zM209 266
q0 -80 67.5 -139t145.5 -59q53 0 126.5 54.5t126.5 118t62 99.5q13 176 13 295v43l-168 -72q-228 -96 -300.5 -161.5t-72.5 -178.5zM238 1214q50 65 70 90t47.5 54.5t44 38t34.5 8.5q46 0 159 -60.5t148 -60.5q29 0 46.5 16t74.5 97q9 11 16.5 6.5t-1.5 -17.5
q-74 -109 -120.5 -156.5t-92.5 -47.5q-42 0 -153 64.5t-151 64.5q-16 0 -30.5 -14.5t-77.5 -92.5q-12 -13 -17 -8.5t3 18.5z" />
    <glyph glyph-name="adieresis" unicode="&#xe4;" horiz-adv-x="1052" 
d="M319 -23q-118 0 -185.5 66t-67.5 164q0 108 119.5 211t392.5 209l170 65q-6 187 -57 260.5t-163 73.5q-51 0 -91.5 -16.5t-67 -45.5t-44 -55.5t-35 -61.5t-26.5 -48q-14 -21 -33 -29t-59 -8q-37 0 -59.5 12.5t-22.5 34.5q0 49 72 96q80 51 191 95t208 44q160 0 253 -90
t93 -282q0 -76 -8 -246t-8 -203q0 -91 13 -132.5t44 -41.5q25 0 56.5 36.5t54.5 76.5q5 8 13 6.5t11.5 -8.5t-0.5 -15q-32 -46 -109.5 -105.5t-131.5 -59.5q-58 0 -87.5 37.5t-29.5 107.5q0 82 8 168q-22 -37 -68.5 -89t-104.5 -103.5t-124.5 -87.5t-116.5 -36zM209 266
q0 -80 67.5 -139t145.5 -59q53 0 126.5 54.5t126.5 118t62 99.5q13 176 13 295v43l-168 -72q-228 -96 -300.5 -161.5t-72.5 -178.5zM643 1303q0 41 29.5 71.5t70.5 30.5t72 -30.5t31 -71.5t-31 -71t-72 -30t-70.5 30t-29.5 71zM238 1303q0 41 29.5 71.5t70.5 30.5
t71.5 -30.5t30.5 -71.5t-30.5 -71t-71.5 -30t-70.5 30t-29.5 71z" />
    <glyph glyph-name="aring" unicode="&#xe5;" horiz-adv-x="1052" 
d="M319 -23q-118 0 -185.5 66t-67.5 164q0 108 119.5 211t392.5 209l170 65q-6 187 -57 260.5t-163 73.5q-51 0 -91.5 -16.5t-67 -45.5t-44 -55.5t-35 -61.5t-26.5 -48q-14 -21 -33 -29t-59 -8q-37 0 -59.5 12.5t-22.5 34.5q0 49 72 96q80 51 191 95t208 44q160 0 253 -90
t93 -282q0 -76 -8 -246t-8 -203q0 -91 13 -132.5t44 -41.5q25 0 56.5 36.5t54.5 76.5q5 8 13 6.5t11.5 -8.5t-0.5 -15q-32 -46 -109.5 -105.5t-131.5 -59.5q-58 0 -87.5 37.5t-29.5 107.5q0 82 8 168q-22 -37 -68.5 -89t-104.5 -103.5t-124.5 -87.5t-116.5 -36zM209 266
q0 -80 67.5 -139t145.5 -59q53 0 126.5 54.5t126.5 118t62 99.5q13 176 13 295v43l-168 -72q-228 -96 -300.5 -161.5t-72.5 -178.5zM399 1329q0 63 44.5 107.5t107.5 44.5t107 -44.5t44 -107.5t-44 -107t-107 -44t-107.5 44t-44.5 107zM424 1329q0 -53 37 -90t90 -37t90 37
t37 90t-37 90t-90 37t-90 -37t-37 -90z" />
    <glyph glyph-name="ae" unicode="&#xe6;" horiz-adv-x="1769" 
d="M528 1026q-51 0 -91.5 -16.5t-67 -45.5t-44 -55.5t-35 -61.5t-26.5 -48q-14 -21 -33 -29t-59 -8q-37 0 -59.5 12.5t-22.5 34.5q0 49 72 96q80 51 191 95t208 44q127 0 213 -57.5t117 -177.5q89 107 213 171t248 64q104 0 180.5 -29.5t113.5 -74t52 -89t10 -83.5
q-7 -63 -86 -63h-700q-17 -80 -17 -158q0 -124 66 -227.5t180 -162.5t250 -59q92 0 168.5 27t138.5 81t110.5 124.5t92.5 165.5q6 15 13 16q9 1 2 -16q0 -2 -1 -4q-34 -79 -77.5 -150t-102.5 -138.5t-125.5 -116t-150 -78t-173.5 -29.5q-191 0 -327.5 100.5t-192.5 265.5
q-20 -39 -69 -99.5t-113 -121.5t-139.5 -104.5t-135.5 -43.5q-118 0 -185.5 66t-67.5 164q0 107 120 210.5t392 209.5l190 73q-9 180 -68 253t-172 73zM770 375v260q0 33 -2 49l-186 -78q-228 -96 -300.5 -161.5t-72.5 -178.5q0 -80 67.5 -139t145.5 -59q45 0 103.5 36
t107 87t86.5 101.5t51 82.5zM1430 729q20 0 48 7t33 12q19 22 19 65q0 67 -63.5 126.5t-172.5 59.5q-135 0 -232 -71.5t-136 -206.5q128 0 289 4t215 4z" />
    <glyph glyph-name="ccedilla" unicode="&#xe7;" horiz-adv-x="1110" 
d="M795 -299q0 -58 -31.5 -123.5t-91 -113.5t-127.5 -48q-70 0 -121 22.5t-51 55.5q0 35 22.5 60.5t55.5 25.5q24 0 49 -14.5t43 -31.5t46.5 -31.5t59.5 -14.5q40 0 67 35t27 78q0 41 -28 71.5t-104 51.5t-197 20q-21 0 -8 20q20 28 77 104.5t82 111.5q-217 2 -353 138
t-136 353q0 108 49.5 213.5t129.5 184t187 127t217 48.5q144 0 243 -48t99 -105q0 -30 -27 -57t-73 -27q-23 0 -47 20t-49 48t-54.5 56t-76 48t-101.5 20q-158 0 -261 -116.5t-103 -319.5q0 -204 131.5 -336.5t337.5 -132.5q143 0 246.5 69.5t181.5 211.5q6 12 14 8t2 -14
q-88 -163 -233.5 -272.5t-304.5 -116.5l-84 -125q-3 -6 -1 -6.5t11 -0.5q140 0 212.5 -44.5t72.5 -102.5z" />
    <glyph glyph-name="egrave" unicode="&#xe8;" horiz-adv-x="1056" 
d="M584 -20q-232 0 -373 138t-141 353q0 112 49.5 218.5t128.5 183.5t183 124t208 47t180.5 -29.5t113.5 -74t52 -89t10 -83.5q-7 -63 -86 -63h-700q-16 -75 -16 -158q0 -93 39 -176.5t105 -143t157.5 -94.5t193.5 -35q179 0 301.5 101.5t212.5 296.5q8 20 16 16
q6 -4 -1 -20q-43 -100 -102.5 -187t-138 -162.5t-180 -119t-212.5 -43.5zM717 729q20 0 48.5 7t33.5 12q18 21 18 65q0 67 -63 126.5t-172 59.5q-135 0 -232.5 -71.5t-136.5 -206.5q128 0 289 4t215 4zM776 1145q-45 48 -113.5 104t-125.5 98t-64 48q-24 20 -24 35
q0 32 6 38q7 7 37 7q36 0 49 -13q7 -7 47 -63.5t95.5 -127t102.5 -114.5q7 -7 7 -8q0 -8 -9 -8q-4 0 -8 4z" />
    <glyph glyph-name="eacute" unicode="&#xe9;" horiz-adv-x="1056" 
d="M584 -20q-232 0 -373 138t-141 353q0 112 49.5 218.5t128.5 183.5t183 124t208 47t180.5 -29.5t113.5 -74t52 -89t10 -83.5q-7 -63 -86 -63h-700q-16 -75 -16 -158q0 -93 39 -176.5t105 -143t157.5 -94.5t193.5 -35q179 0 301.5 101.5t212.5 296.5q8 20 16 16
q6 -4 -1 -20q-43 -100 -102.5 -187t-138 -162.5t-180 -119t-212.5 -43.5zM717 729q20 0 48.5 7t33.5 12q18 21 18 65q0 67 -63 126.5t-172 59.5q-135 0 -232.5 -71.5t-136.5 -206.5q128 0 289 4t215 4zM502 1145q-4 -4 -8 -4q-9 0 -9 8q0 1 7 8q47 44 102.5 114.5t95.5 127
t47 63.5q13 13 49 13q30 0 37 -7q6 -6 6 -38q0 -15 -24 -35q-7 -6 -64 -48t-125.5 -98t-113.5 -104z" />
    <glyph glyph-name="ecircumflex" unicode="&#xea;" horiz-adv-x="1056" 
d="M584 -20q-232 0 -373 138t-141 353q0 112 49.5 218.5t128.5 183.5t183 124t208 47t180.5 -29.5t113.5 -74t52 -89t10 -83.5q-7 -63 -86 -63h-700q-16 -75 -16 -158q0 -93 39 -176.5t105 -143t157.5 -94.5t193.5 -35q179 0 301.5 101.5t212.5 296.5q8 20 16 16
q6 -4 -1 -20q-43 -100 -102.5 -187t-138 -162.5t-180 -119t-212.5 -43.5zM717 729q20 0 48.5 7t33.5 12q18 21 18 65q0 67 -63 126.5t-172 59.5q-135 0 -232.5 -71.5t-136.5 -206.5q128 0 289 4t215 4zM608 1470q-8 8 -14 0l-168 -249q-27 -39 -70 -39q-19 0 -30 9t-11 19
q0 21 37 60q113 117 240 219q3 3 9 3t9 -3q155 -118 248 -199q41 -36 41 -59q0 -14 -13.5 -28.5t-33.5 -14.5q-42 0 -72 43q-19 27 -80.5 111.5t-91.5 127.5z" />
    <glyph glyph-name="edieresis" unicode="&#xeb;" horiz-adv-x="1056" 
d="M584 -20q-232 0 -373 138t-141 353q0 112 49.5 218.5t128.5 183.5t183 124t208 47t180.5 -29.5t113.5 -74t52 -89t10 -83.5q-7 -63 -86 -63h-700q-16 -75 -16 -158q0 -93 39 -176.5t105 -143t157.5 -94.5t193.5 -35q179 0 301.5 101.5t212.5 296.5q8 20 16 16
q6 -4 -1 -20q-43 -100 -102.5 -187t-138 -162.5t-180 -119t-212.5 -43.5zM717 729q20 0 48.5 7t33.5 12q18 21 18 65q0 67 -63 126.5t-172 59.5q-135 0 -232.5 -71.5t-136.5 -206.5q128 0 289 4t215 4zM713 1303q0 41 29.5 71.5t70.5 30.5t71.5 -30.5t30.5 -71.5t-30.5 -71
t-71.5 -30t-70.5 30t-29.5 71zM307 1303q0 41 30 71.5t71 30.5t71.5 -30.5t30.5 -71.5t-30.5 -71t-71.5 -30t-71 30t-30 71z" />
    <glyph glyph-name="igrave" unicode="&#xec;" horiz-adv-x="462" 
d="M160 225v547q0 78 -11.5 110.5t-40.5 37.5t-79 -9q-13 -3 -15 6q-2 8 9 11q130 29 256 116q5 3 20.5 -2t15.5 -12v-805q0 -136 19.5 -171.5t103.5 -35.5q12 0 12 -9t-12 -9q-33 0 -108.5 2t-87.5 2t-93 -2t-114 -2q-12 0 -12 9t12 9q37 0 58.5 5.5t36 16t20.5 37.5t8 58
t2 90zM287 1145q-45 48 -113.5 104t-125.5 98t-64 48q-25 21 -25 35q0 32 6 38q7 7 37 7q36 0 49 -13q7 -7 47.5 -63.5t96 -127t102.5 -114.5q6 -6 6 -8q0 -8 -8 -8q-4 0 -8 4z" />
    <glyph glyph-name="iacute" unicode="&#xed;" horiz-adv-x="462" 
d="M160 225v547q0 78 -11.5 110.5t-40.5 37.5t-79 -9q-13 -3 -15 6q-2 8 9 11q130 29 256 116q5 3 20.5 -2t15.5 -12v-805q0 -136 19.5 -171.5t103.5 -35.5q12 0 12 -9t-12 -9q-33 0 -108.5 2t-87.5 2t-93 -2t-114 -2q-12 0 -12 9t12 9q37 0 58.5 5.5t36 16t20.5 37.5t8 58
t2 90zM182 1145q-4 -4 -8 -4q-8 0 -8 8q0 2 6 8q47 44 102.5 114.5t96 127t47.5 63.5q13 13 49 13q30 0 37 -7q6 -6 6 -38q0 -14 -25 -35q-7 -6 -64 -48t-125.5 -98t-113.5 -104z" />
    <glyph glyph-name="icircumflex" unicode="&#xee;" horiz-adv-x="462" 
d="M160 225v547q0 78 -11.5 110.5t-40.5 37.5t-79 -9q-13 -3 -15 6q-2 8 9 11q130 29 256 116q5 3 20.5 -2t15.5 -12v-805q0 -136 19.5 -171.5t103.5 -35.5q12 0 12 -9t-12 -9q-33 0 -108.5 2t-87.5 2t-93 -2t-114 -2q-12 0 -12 9t12 9q37 0 58.5 5.5t36 16t20.5 37.5t8 58
t2 90zM250 1470q-8 8 -14 0l-168 -249q-27 -39 -70 -39q-19 0 -30 9t-11 19q0 21 37 60q116 121 239 219q3 3 9.5 3t9.5 -3q155 -118 248 -199q41 -36 41 -59q0 -14 -13.5 -28.5t-33.5 -14.5q-42 0 -72 43q-19 27 -80.5 111.5t-91.5 127.5z" />
    <glyph glyph-name="idieresis" unicode="&#xef;" horiz-adv-x="462" 
d="M160 225v547q0 78 -11.5 110.5t-40.5 37.5t-79 -9q-13 -3 -15 6q-2 8 9 11q130 29 256 116q5 3 20.5 -2t15.5 -12v-805q0 -136 19.5 -171.5t103.5 -35.5q12 0 12 -9t-12 -9q-33 0 -108.5 2t-87.5 2t-93 -2t-114 -2q-12 0 -12 9t12 9q37 0 58.5 5.5t36 16t20.5 37.5t8 58
t2 90zM-92 1303q0 41 29.5 71.5t70.5 30.5t72 -30.5t31 -71.5t-31 -71t-72 -30t-70.5 30t-29.5 71zM313 1303q0 41 30 71.5t71 30.5t71.5 -30.5t30.5 -71.5t-30.5 -71t-71.5 -30t-71 30t-30 71z" />
    <glyph glyph-name="eth" unicode="&#xf0;" horiz-adv-x="1196" 
d="M1118 526q0 -99 -41 -197t-110.5 -175t-171 -125.5t-213.5 -48.5q-144 0 -259.5 63t-182 180.5t-66.5 268.5q0 126 49 233t126 175t167.5 106t177.5 38q172 0 268 -124q-62 245 -211 419q-174 -77 -313 -151q-12 0 -19.5 17t-1.5 28q234 88 320 123q-118 134 -303 243
q-6 4 -6.5 9.5t4 7t12.5 -1.5q204 -107 354 -232q60 25 120.5 54t122 59.5t85.5 42.5q13 -3 21.5 -19t-0.5 -26q-282 -107 -330 -127q401 -346 401 -840zM616 2q161 0 248.5 131t87.5 361q0 108 -19 199.5t-60 167.5t-113 119.5t-170 43.5q-174 0 -260 -132.5t-86 -365.5
q0 -96 25 -188.5t71 -168t118 -121.5t158 -46z" />
    <glyph glyph-name="ntilde" unicode="&#xf1;" horiz-adv-x="1150" 
d="M1014 629v-428q0 -54 4 -88.5t10 -54t20 -28.5t26.5 -11t37.5 -1q12 0 12 -9t-12 -9q-6 0 -84.5 2t-97.5 2q-12 0 -76.5 -2t-97.5 -2q-12 0 -12 9t12 9q46 0 66 11.5t30 52t10 131.5l-2 436q-1 92 -21.5 159t-56.5 104t-78 54t-92 17q-95 0 -165 -43.5t-144 -142.5v-779
h107q12 0 12 -9t-12 -9q-6 0 -71.5 2t-84.5 2q-12 0 -88 -2t-109 -2q-12 0 -12 9t12 9q28 0 43.5 5t27 15.5t15.5 40.5t5.5 63.5t1.5 101.5v528q0 69 -95 156q-8 8 0 12q103 39 150 86q5 5 12 -2q31 -31 56 -87.5t28 -115.5q82 110 173.5 166.5t205.5 56.5q334 0 334 -415z
M293 1223q90 116 126 153t70 37q46 0 159.5 -60.5t148.5 -60.5q29 0 46.5 16t74.5 97q9 11 16 7t-2 -17q-75 -109 -121 -157t-92 -48q-43 0 -153 64.5t-150 64.5q-17 0 -32 -15.5t-77 -91.5q-12 -13 -17 -8t3 19z" />
    <glyph glyph-name="ograve" unicode="&#xf2;" horiz-adv-x="1189" 
d="M582 -20q-144 0 -259.5 63t-182 180.5t-66.5 268.5q0 147 68.5 273t193.5 202.5t278 76.5q220 0 362 -142.5t142 -375.5q0 -99 -41 -197t-110.5 -175t-171 -125.5t-213.5 -48.5zM616 2q161 0 248.5 131t87.5 361q0 131 -42.5 250.5t-127 199.5t-192.5 80
q-174 0 -260 -132.5t-86 -365.5q0 -96 25 -188.5t71 -168t118 -121.5t158 -46zM774 1145q-45 48 -113.5 104t-125.5 98t-64 48q-25 21 -25 35q0 31 7 38t36 7q37 0 50 -13q7 -7 47 -63.5t95.5 -127t102.5 -114.5q7 -7 7 -8q0 -8 -9 -8q-4 0 -8 4z" />
    <glyph glyph-name="oacute" unicode="&#xf3;" horiz-adv-x="1189" 
d="M582 -20q-144 0 -259.5 63t-182 180.5t-66.5 268.5q0 147 68.5 273t193.5 202.5t278 76.5q220 0 362 -142.5t142 -375.5q0 -99 -41 -197t-110.5 -175t-171 -125.5t-213.5 -48.5zM616 2q161 0 248.5 131t87.5 361q0 131 -42.5 250.5t-127 199.5t-192.5 80
q-174 0 -260 -132.5t-86 -365.5q0 -96 25 -188.5t71 -168t118 -121.5t158 -46zM471 1145q-4 -4 -8 -4q-8 0 -8 8q0 2 6 8q47 44 102.5 114.5t96 127t47.5 63.5q13 13 49 13q30 0 37 -7q6 -6 6 -38q0 -14 -25 -35q-7 -6 -64 -48t-125.5 -98t-113.5 -104z" />
    <glyph glyph-name="ocircumflex" unicode="&#xf4;" horiz-adv-x="1189" 
d="M582 -20q-144 0 -259.5 63t-182 180.5t-66.5 268.5q0 147 68.5 273t193.5 202.5t278 76.5q220 0 362 -142.5t142 -375.5q0 -99 -41 -197t-110.5 -175t-171 -125.5t-213.5 -48.5zM616 2q161 0 248.5 131t87.5 361q0 131 -42.5 250.5t-127 199.5t-192.5 80
q-174 0 -260 -132.5t-86 -365.5q0 -96 25 -188.5t71 -168t118 -121.5t158 -46zM606 1470q-8 8 -14 0l-168 -249q-27 -39 -70 -39q-19 0 -30 9t-11 19q0 21 37 60q113 117 240 219q3 3 9 3t9 -3q155 -118 248 -199q41 -36 41 -59q0 -14 -13.5 -28.5t-33.5 -14.5q-42 0 -72 43
q-19 27 -80.5 111.5t-91.5 127.5z" />
    <glyph glyph-name="otilde" unicode="&#xf5;" horiz-adv-x="1189" 
d="M582 -20q-144 0 -259.5 63t-182 180.5t-66.5 268.5q0 147 68.5 273t193.5 202.5t278 76.5q220 0 362 -142.5t142 -375.5q0 -99 -41 -197t-110.5 -175t-171 -125.5t-213.5 -48.5zM616 2q161 0 248.5 131t87.5 361q0 131 -42.5 250.5t-127 199.5t-192.5 80
q-174 0 -260 -132.5t-86 -365.5q0 -96 25 -188.5t71 -168t118 -121.5t158 -46zM289 1214q50 65 70 90t47.5 54.5t44 38t34.5 8.5q46 0 159.5 -60.5t148.5 -60.5q28 0 45.5 16t74.5 97q9 11 16.5 6.5t-1.5 -17.5q-74 -109 -120.5 -156.5t-92.5 -47.5q-43 0 -153 64.5
t-150 64.5q-17 0 -32 -15.5t-77 -91.5q-12 -13 -17 -8.5t3 18.5z" />
    <glyph glyph-name="odieresis" unicode="&#xf6;" horiz-adv-x="1189" 
d="M582 -20q-144 0 -259.5 63t-182 180.5t-66.5 268.5q0 147 68.5 273t193.5 202.5t278 76.5q220 0 362 -142.5t142 -375.5q0 -99 -41 -197t-110.5 -175t-171 -125.5t-213.5 -48.5zM616 2q161 0 248.5 131t87.5 361q0 131 -42.5 250.5t-127 199.5t-192.5 80
q-174 0 -260 -132.5t-86 -365.5q0 -96 25 -188.5t71 -168t118 -121.5t158 -46zM684 1303q0 41 29.5 71.5t70.5 30.5t72 -30.5t31 -71.5t-31 -71t-72 -30t-70.5 30t-29.5 71zM279 1303q0 41 29.5 71.5t70.5 30.5t71.5 -30.5t30.5 -71.5t-30.5 -71t-71.5 -30t-70.5 30
t-29.5 71z" />
    <glyph glyph-name="divide" unicode="&#xf7;" 
d="M567 514q151 0 351 12q10 -7 10 -25t-10 -24q-208 15 -349 15q-140 0 -348 -15q-11 6 -11 23.5t11 25.5q200 -12 346 -12zM496 223q0 33 22 55.5t55 22.5q31 0 54.5 -23t23.5 -55t-23.5 -55t-54.5 -23q-33 0 -55 22.5t-22 55.5zM496 784q0 33 22 55.5t55 22.5
q31 0 54.5 -23t23.5 -55t-23.5 -54.5t-54.5 -22.5q-33 0 -55 22t-22 55z" />
    <glyph glyph-name="oslash" unicode="&#xf8;" horiz-adv-x="1189" 
d="M582 -20q-123 0 -234 49q-6 -12 -135 -267q-25 -5 -33 -4.5t-24 13.5l161 274q-114 64 -178.5 180t-64.5 267q0 147 68.5 273t193.5 202.5t278 76.5q115 0 213 -43q57 116 142 277q27 2 30.5 0.5t24.5 -14.5q-110 -177 -164 -277q120 -63 189 -183t69 -278
q0 -99 -41 -197t-110.5 -175t-171 -125.5t-213.5 -48.5zM616 2q161 0 248.5 131t87.5 361q0 116 -35.5 227t-99.5 188q-93 -167 -215 -403q-146 -267 -213 -400q97 -104 227 -104zM575 518q146 275 218 416q-90 90 -203 90q-174 0 -260 -132.5t-86 -365.5q0 -108 32 -213
t91 -180q34 61 102.5 189t105.5 196z" />
    <glyph glyph-name="ugrave" unicode="&#xf9;" horiz-adv-x="1144" 
d="M137 395v377q0 87 -11.5 122t-40.5 39.5t-79 -7.5q-10 -1 -12 6q-2 9 10 12h2q124 22 250 92q5 3 21 -2t16 -12v-647q0 -92 20 -159t55 -104t76 -54t91 -17q95 0 165.5 43t145.5 143v545q0 87 -11.5 122t-40.5 39.5t-79 -7.5q-12 -1 -12 8t12 10q121 21 248 92
q5 3 20.5 -2t15.5 -12v-778q0 -57 1 -89.5t5.5 -61t10.5 -41t19.5 -21.5t29.5 -11t43 -2q9 0 9 -9t-9 -9q-44 0 -88.5 -2.5t-69.5 -5t-61.5 -7t-46.5 -5.5q-11 -1 -14 3t-3 15q0 2 5 30t10 76t6 99q-167 -223 -379 -223q-73 0 -130 20t-103.5 66t-71.5 129t-25 200z
M629 1110q-45 48 -113.5 104t-125.5 98t-64 48q-25 21 -25 35q0 33 6 39t37 6q36 0 49 -13q7 -7 47.5 -63.5t96 -127t102.5 -114.5q6 -6 6 -8q0 -8 -8 -8q-4 0 -8 4z" />
    <glyph glyph-name="uacute" unicode="&#xfa;" horiz-adv-x="1144" 
d="M137 395v377q0 87 -11.5 122t-40.5 39.5t-79 -7.5q-10 -1 -12 6q-2 9 10 12h2q124 22 250 92q5 3 21 -2t16 -12v-647q0 -92 20 -159t55 -104t76 -54t91 -17q95 0 165.5 43t145.5 143v545q0 87 -11.5 122t-40.5 39.5t-79 -7.5q-12 -1 -12 8t12 10q121 21 248 92
q5 3 20.5 -2t15.5 -12v-778q0 -57 1 -89.5t5.5 -61t10.5 -41t19.5 -21.5t29.5 -11t43 -2q9 0 9 -9t-9 -9q-44 0 -88.5 -2.5t-69.5 -5t-61.5 -7t-46.5 -5.5q-11 -1 -14 3t-3 15q0 2 5 30t10 76t6 99q-167 -223 -379 -223q-73 0 -130 20t-103.5 66t-71.5 129t-25 200z
M504 1106q-4 -4 -8 -4q-9 0 -9 8q0 1 7 8q47 44 102.5 114.5t95.5 127t47 63.5q13 13 49 13q31 0 37 -6t6 -39q0 -15 -24 -35q-7 -6 -64 -48t-125.5 -98t-113.5 -104z" />
    <glyph glyph-name="ucircumflex" unicode="&#xfb;" horiz-adv-x="1144" 
d="M137 395v377q0 87 -11.5 122t-40.5 39.5t-79 -7.5q-10 -1 -12 6q-2 9 10 12h2q124 22 250 92q5 3 21 -2t16 -12v-647q0 -92 20 -159t55 -104t76 -54t91 -17q95 0 165.5 43t145.5 143v545q0 87 -11.5 122t-40.5 39.5t-79 -7.5q-12 -1 -12 8t12 10q121 21 248 92
q5 3 20.5 -2t15.5 -12v-778q0 -57 1 -89.5t5.5 -61t10.5 -41t19.5 -21.5t29.5 -11t43 -2q9 0 9 -9t-9 -9q-44 0 -88.5 -2.5t-69.5 -5t-61.5 -7t-46.5 -5.5q-11 -1 -14 3t-3 15q0 2 5 30t10 76t6 99q-167 -223 -379 -223q-73 0 -130 20t-103.5 66t-71.5 129t-25 200z
M573 1468q-8 8 -14 0l-168 -249q-27 -39 -69 -39q-19 0 -30 9t-11 19q0 22 36 60q113 117 240 219q3 3 9 3t9 -3q155 -118 248 -199q41 -36 41 -59q0 -14 -13.5 -28.5t-33.5 -14.5q-42 0 -72 43q-19 27 -80.5 111.5t-91.5 127.5z" />
    <glyph glyph-name="udieresis" unicode="&#xfc;" horiz-adv-x="1144" 
d="M137 395v377q0 87 -11.5 122t-40.5 39.5t-79 -7.5q-10 -1 -12 6q-2 9 10 12h2q124 22 250 92q5 3 21 -2t16 -12v-647q0 -92 20 -159t55 -104t76 -54t91 -17q95 0 165.5 43t145.5 143v545q0 87 -11.5 122t-40.5 39.5t-79 -7.5q-12 -1 -12 8t12 10q121 21 248 92
q5 3 20.5 -2t15.5 -12v-778q0 -57 1 -89.5t5.5 -61t10.5 -41t19.5 -21.5t29.5 -11t43 -2q9 0 9 -9t-9 -9q-44 0 -88.5 -2.5t-69.5 -5t-61.5 -7t-46.5 -5.5q-11 -1 -14 3t-3 15q0 2 5 30t10 76t6 99q-167 -223 -379 -223q-73 0 -130 20t-103.5 66t-71.5 129t-25 200z
M264 1292q0 41 30 72t71 31t71.5 -31t30.5 -72t-30.5 -70.5t-71.5 -29.5t-71 29.5t-30 70.5zM670 1292q0 42 29.5 72.5t70.5 30.5t71.5 -31t30.5 -72t-30.5 -70.5t-71.5 -29.5t-70.5 29.5t-29.5 70.5z" />
    <glyph glyph-name="yacute" unicode="&#xfd;" horiz-adv-x="1099" 
d="M240 -279q42 0 73.5 8.5t66.5 33t68.5 74.5t67.5 128l23 51l-326 721q-59 129 -93.5 183.5t-64 70.5t-82.5 15q-7 0 -9.5 4.5t0 9t9.5 4.5q6 0 96 -2t107 -2q11 0 99.5 2t119.5 2q12 0 12 -9t-12 -9q-63 0 -85.5 -14.5t-15.5 -57t50 -135.5l272 -604l230 516
q61 148 34.5 221.5t-128.5 73.5q-12 0 -12 9t12 9q32 0 106.5 -2t85.5 -2q17 0 97.5 2t86.5 2q7 0 9.5 -4.5t0 -9t-9.5 -4.5q-69 1 -132.5 -76t-131.5 -232l-327 -737q-79 -183 -180 -268.5t-248 -85.5q-78 0 -124 24.5t-46 55.5q0 29 33.5 61.5t78.5 32.5q37 0 94 -30
t95 -30zM492 1110q-4 -4 -9 -4q-8 0 -8 8q0 2 6 8q47 44 102.5 114.5t96 127t47.5 63.5q13 13 49 13q31 0 37 -6t6 -39q0 -15 -24 -35q-7 -6 -64 -48t-125.5 -98t-113.5 -104z" />
    <glyph glyph-name="thorn" unicode="&#xfe;" horiz-adv-x="1220" 
d="M301 1524v-699q72 102 181 160.5t227 58.5q178 0 305 -136.5t127 -344.5q0 -123 -50 -233t-132 -186t-188 -120t-216 -44q-143 0 -256 77v-596h145q12 0 12 -9t-12 -9q-6 0 -97.5 2t-110.5 2q-12 0 -107.5 -2t-128.5 -2q-12 0 -12 9t12 9q39 0 60 2t40.5 11.5t28 22.5
t15 43t7.5 65t1 96v1567q0 85 -14.5 118t-46.5 32t-83 -11q-10 -1 -12 6q-2 9 10 12h2q36 4 76 18.5t63 26.5t64 36.5t53 31.5q5 3 21 -2t16 -12zM641 25q167 0 257.5 119.5t90.5 344.5q0 92 -24.5 178t-70.5 156t-120 112t-166 42q-88 0 -171.5 -46.5t-135.5 -127.5
q0 -97 -1 -293.5t-1 -294.5q176 -190 342 -190z" />
    <glyph glyph-name="ydieresis" unicode="&#xff;" horiz-adv-x="1099" 
d="M240 -279q42 0 73.5 8.5t66.5 33t68.5 74.5t67.5 128l23 51l-326 721q-59 129 -93.5 183.5t-64 70.5t-82.5 15q-7 0 -9.5 4.5t0 9t9.5 4.5q6 0 96 -2t107 -2q11 0 99.5 2t119.5 2q12 0 12 -9t-12 -9q-63 0 -85.5 -14.5t-15.5 -57t50 -135.5l272 -604l230 516
q61 148 34.5 221.5t-128.5 73.5q-12 0 -12 9t12 9q32 0 106.5 -2t85.5 -2q17 0 97.5 2t86.5 2q7 0 9.5 -4.5t0 -9t-9.5 -4.5q-69 1 -132.5 -76t-131.5 -232l-327 -737q-79 -183 -180 -268.5t-248 -85.5q-78 0 -124 24.5t-46 55.5q0 29 33.5 61.5t78.5 32.5q37 0 94 -30
t95 -30zM285 1292q0 42 29.5 72.5t70.5 30.5t71.5 -31t30.5 -72t-30.5 -70.5t-71.5 -29.5t-70.5 29.5t-29.5 70.5zM690 1292q0 41 30 72t71 31t71.5 -31t30.5 -72t-30.5 -70.5t-71.5 -29.5t-71 29.5t-30 70.5z" />
    <glyph glyph-name="Amacron" unicode="&#x100;" horiz-adv-x="1456" 
d="M952 508l-239 -6q-184 0 -367 6l-35 -86q-73 -179 -73 -305q0 -101 114 -101q9 0 32 3.5t26 3.5q14 0 14 -11q0 -12 -25 -12q-19 0 -117.5 2t-115.5 2q-10 0 -76 -2t-94 -2q-12 0 -12 10q0 8 12 8h8q82 0 148 123q69 119 135 291l395 987q3 6 14 6h21q17 0 20 -6
l373 -889q53 -126 88 -205t66.5 -140t51 -91t42 -49t40 -23t44.5 -4h16q15 0 15 -8q0 -10 -13 -10q-33 0 -114 3t-93 3t-113 -3t-134 -3q-14 0 -16 10q1 7 9 8h43q49 0 59 25q19 48 -65 262q-32 82 -84 203zM942 530l-305 715l-285 -719l348 2h242v2zM713 1724h2
q116 0 184 2q72 2 72 -2q0 -13 -94 -104q-1 0 -59.5 1t-100.5 1q-20 0 -156 -4q-72 -2 -72 4q0 12 95 104q1 0 44 -1t85 -1z" />
    <glyph glyph-name="amacron" unicode="&#x101;" horiz-adv-x="1052" 
d="M319 -23q-118 0 -185.5 66t-67.5 164q0 108 119.5 211t392.5 209l170 65q-6 187 -57 260.5t-163 73.5q-51 0 -91.5 -16.5t-67 -45.5t-44 -55.5t-35 -61.5t-26.5 -48q-14 -21 -33 -29t-59 -8q-37 0 -59.5 12.5t-22.5 34.5q0 49 72 96q80 51 191 95t208 44q160 0 253 -90
t93 -282q0 -76 -8 -246t-8 -203q0 -91 13 -132.5t44 -41.5q25 0 56.5 36.5t54.5 76.5q5 8 13 6.5t11.5 -8.5t-0.5 -15q-32 -46 -109.5 -105.5t-131.5 -59.5q-58 0 -87.5 37.5t-29.5 107.5q0 82 8 168q-22 -37 -68.5 -89t-104.5 -103.5t-124.5 -87.5t-116.5 -36zM209 266
q0 -80 67.5 -139t145.5 -59q53 0 126.5 54.5t126.5 118t62 99.5q13 176 13 295v43l-168 -72q-228 -96 -300.5 -161.5t-72.5 -178.5zM545 1303h2q116 0 184 2q72 2 72 -2q0 -14 -94 -105q-1 0 -59.5 1t-100.5 1q-20 0 -156 -4q-71 -2 -71 4q0 14 94 105q1 0 44 -1t85 -1z" />
    <glyph glyph-name="Abreve" unicode="&#x102;" horiz-adv-x="1456" 
d="M952 508l-239 -6q-184 0 -367 6l-35 -86q-73 -179 -73 -305q0 -101 114 -101q9 0 32 3.5t26 3.5q14 0 14 -11q0 -12 -25 -12q-19 0 -117.5 2t-115.5 2q-10 0 -76 -2t-94 -2q-12 0 -12 10q0 8 12 8h8q82 0 148 123q69 119 135 291l395 987q3 6 14 6h21q17 0 20 -6
l373 -889q53 -126 88 -205t66.5 -140t51 -91t42 -49t40 -23t44.5 -4h16q15 0 15 -8q0 -10 -13 -10q-33 0 -114 3t-93 3t-113 -3t-134 -3q-14 0 -16 10q1 7 9 8h43q49 0 59 25q19 48 -65 262q-32 82 -84 203zM942 530l-305 715l-285 -719l348 2h242v2zM707 1599
q-130 0 -244 148q-12 15 -12 25q0 15 47 28q31 9 43 8t22 -14q63 -80 108 -116t101 -36q40 0 81 40t73 114q6 14 22 14q10 0 16.5 -7.5t0.5 -14.5q-44 -75 -116 -130.5t-142 -58.5z" />
    <glyph glyph-name="abreve" unicode="&#x103;" horiz-adv-x="1052" 
d="M319 -23q-118 0 -185.5 66t-67.5 164q0 108 119.5 211t392.5 209l170 65q-6 187 -57 260.5t-163 73.5q-51 0 -91.5 -16.5t-67 -45.5t-44 -55.5t-35 -61.5t-26.5 -48q-14 -21 -33 -29t-59 -8q-37 0 -59.5 12.5t-22.5 34.5q0 49 72 96q80 51 191 95t208 44q160 0 253 -90
t93 -282q0 -76 -8 -246t-8 -203q0 -91 13 -132.5t44 -41.5q25 0 56.5 36.5t54.5 76.5q5 8 13 6.5t11.5 -8.5t-0.5 -15q-32 -46 -109.5 -105.5t-131.5 -59.5q-58 0 -87.5 37.5t-29.5 107.5q0 82 8 168q-22 -37 -68.5 -89t-104.5 -103.5t-124.5 -87.5t-116.5 -36zM209 266
q0 -80 67.5 -139t145.5 -59q53 0 126.5 54.5t126.5 118t62 99.5q13 176 13 295v43l-168 -72q-228 -96 -300.5 -161.5t-72.5 -178.5zM539 1202q-130 0 -244 148q-12 15 -12 24q0 3 4 7.5t15.5 10.5t27.5 11q31 9 43 8t22 -14q63 -80 108 -116t101 -36q40 0 81 40t73 114
q6 14 22 14q10 0 16.5 -7.5t0.5 -14.5q-44 -75 -116 -130.5t-142 -58.5z" />
    <glyph glyph-name="Aogonek" unicode="&#x104;" horiz-adv-x="1456" 
d="M952 508l-239 -6q-184 0 -367 6l-35 -86q-73 -179 -73 -305q0 -101 114 -101q9 0 32 3.5t26 3.5q14 0 14 -11q0 -12 -25 -12q-19 0 -117.5 2t-115.5 2q-10 0 -76 -2t-94 -2q-12 0 -12 10q0 8 12 8h8q82 0 148 123q69 119 135 291l395 987q3 6 14 6h21q17 0 20 -6
l373 -889q53 -126 88 -205t66.5 -140t51 -91t42 -49t40 -23t44.5 -4h16q15 0 15 -8q0 -3 -5 -8q-102 -126 -108 -184q-5 -40 22.5 -65t83.5 -25q65 0 154 43q4 2 -10.5 -31.5t-35 -71.5t-30.5 -45q-65 -26 -139 -26q-67 0 -102.5 39.5t-26.5 109.5q6 44 43.5 99.5
t122.5 154.5q-35 0 -107.5 3t-81.5 3q-12 0 -113 -3t-134 -3q-14 0 -16 10q1 7 9 8h43q49 0 59 25q19 48 -65 262q-32 82 -84 203zM942 530l-305 715l-285 -719l348 2h242v2z" />
    <glyph glyph-name="aogonek" unicode="&#x105;" horiz-adv-x="1052" 
d="M954 -272q65 0 154 43q4 2 -10.5 -31.5t-35 -71.5t-30.5 -45q-65 -26 -139 -26q-67 0 -102.5 39.5t-26.5 109.5q6 47 49 109.5t137 167.5q-67 -43 -108 -43q-58 0 -87.5 37.5t-29.5 107.5q0 82 8 168q-22 -37 -68.5 -89t-104.5 -103.5t-124.5 -87.5t-116.5 -36
q-118 0 -185.5 66t-67.5 164q0 108 119.5 211t392.5 209l170 65q-6 187 -57 260.5t-163 73.5q-51 0 -91.5 -16.5t-67 -45.5t-44 -55.5t-35 -61.5t-26.5 -48q-14 -21 -33 -29t-59 -8q-37 0 -59.5 12.5t-22.5 34.5q0 49 72 96q80 51 191 95t208 44q160 0 253 -90t93 -282
q0 -76 -8 -246t-8 -203q0 -91 13 -132.5t44 -41.5q20 0 53 33l13 12q25 32 45 68q5 8 13 6.5t11.5 -8.5t-0.5 -15q-20 -30 -67 -71q-96 -112 -129.5 -165.5t-38.5 -90.5q-5 -40 22.5 -65t83.5 -25zM209 266q0 -80 67.5 -139t145.5 -59q53 0 126.5 54.5t126.5 118t62 99.5
q13 176 13 295v43l-168 -72q-228 -96 -300.5 -161.5t-72.5 -178.5z" />
    <glyph glyph-name="Cacute" unicode="&#x106;" horiz-adv-x="1548" 
d="M272 709q0 -320 156.5 -514.5t431.5 -194.5q247 0 378 144t157 403h16l-25 -477q-89 -39 -226.5 -64.5t-295.5 -25.5q-163 0 -306.5 55.5t-246.5 151.5t-163 231.5t-60 290.5q0 157 63.5 294.5t170 232.5t250 149.5t300.5 54.5q128 0 277 -26.5t233 -63.5l25 -447h-18
q-25 250 -152 383t-360 133q-275 0 -440 -196t-165 -514zM762 1573q-4 -4 -8 -4q-9 0 -9 8q0 1 7 8q47 44 102.5 114.5t95.5 127t47 63.5q13 13 50 13q29 0 36 -7t7 -38q0 -14 -25 -35q-7 -6 -64 -48t-125.5 -98t-113.5 -104z" />
    <glyph glyph-name="cacute" unicode="&#x107;" horiz-adv-x="1110" 
d="M209 563q0 -204 131.5 -336.5t337.5 -132.5q143 0 246.5 69.5t181.5 211.5q6 12 14 8t2 -14q-90 -168 -241 -278.5t-314 -110.5q-217 0 -354 137t-137 354q0 108 49.5 213.5t129.5 184t187 127t217 48.5q144 0 243 -48t99 -105q0 -30 -27 -57t-73 -27q-23 0 -47 20
t-49 48t-54.5 56t-76 48t-101.5 20q-158 0 -261 -116.5t-103 -319.5zM487 1145q-4 -4 -8 -4q-8 0 -8 8q0 2 6 8q47 44 102.5 114.5t96 127t47.5 63.5q13 13 49 13q30 0 37 -7q6 -6 6 -38q0 -15 -24 -35q-7 -6 -64 -48t-126 -98t-114 -104z" />
    <glyph glyph-name="Ccircumflex" unicode="&#x108;" horiz-adv-x="1548" 
d="M272 709q0 -320 156.5 -514.5t431.5 -194.5q247 0 378 144t157 403h16l-25 -477q-89 -39 -226.5 -64.5t-295.5 -25.5q-163 0 -306.5 55.5t-246.5 151.5t-163 231.5t-60 290.5q0 157 63.5 294.5t170 232.5t250 149.5t300.5 54.5q128 0 277 -26.5t233 -63.5l25 -447h-18
q-25 250 -152 383t-360 133q-275 0 -440 -196t-165 -514zM874 1868q-8 8 -14 0l-168 -250q-27 -39 -69 -39q-19 0 -30 9.5t-11 19.5q0 21 36 59q113 117 240 219q3 3 9.5 3t9.5 -3q156 -119 247 -198q41 -36 41 -60q0 -14 -13.5 -28.5t-33.5 -14.5q-41 0 -71 43
q-19 27 -81 112t-92 128z" />
    <glyph glyph-name="ccircumflex" unicode="&#x109;" horiz-adv-x="1110" 
d="M209 563q0 -204 131.5 -336.5t337.5 -132.5q143 0 246.5 69.5t181.5 211.5q6 12 14 8t2 -14q-90 -168 -241 -278.5t-314 -110.5q-217 0 -354 137t-137 354q0 108 49.5 213.5t129.5 184t187 127t217 48.5q144 0 243 -48t99 -105q0 -30 -27 -57t-73 -27q-23 0 -47 20
t-49 48t-54.5 56t-76 48t-101.5 20q-158 0 -261 -116.5t-103 -319.5zM635 1470q-8 8 -14 0l-168 -249q-27 -39 -70 -39q-19 0 -30 9t-11 19q0 21 37 60q116 121 239 219q3 3 9.5 3t9.5 -3q155 -118 248 -199q41 -36 41 -59q0 -14 -13.5 -28.5t-33.5 -14.5q-42 0 -72 43
q-19 27 -80.5 111.5t-91.5 127.5z" />
    <glyph glyph-name="Cdotaccent" unicode="&#x10a;" horiz-adv-x="1548" 
d="M272 709q0 -320 156.5 -514.5t431.5 -194.5q247 0 378 144t157 403h16l-25 -477q-89 -39 -226.5 -64.5t-295.5 -25.5q-163 0 -306.5 55.5t-246.5 151.5t-163 231.5t-60 290.5q0 157 63.5 294.5t170 232.5t250 149.5t300.5 54.5q128 0 277 -26.5t233 -63.5l25 -447h-18
q-25 250 -152 383t-360 133q-275 0 -440 -196t-165 -514zM778 1696q0 44 31.5 76t75.5 32t76 -32t32 -76t-32 -75.5t-76 -31.5t-75.5 31.5t-31.5 75.5z" />
    <glyph glyph-name="cdotaccent" unicode="&#x10b;" horiz-adv-x="1110" 
d="M209 563q0 -204 131.5 -336.5t337.5 -132.5q143 0 246.5 69.5t181.5 211.5q6 12 14 8t2 -14q-90 -168 -241 -278.5t-314 -110.5q-217 0 -354 137t-137 354q0 108 49.5 213.5t129.5 184t187 127t217 48.5q144 0 243 -48t99 -105q0 -30 -27 -57t-73 -27q-23 0 -47 20
t-49 48t-54.5 56t-76 48t-101.5 20q-158 0 -261 -116.5t-103 -319.5zM539 1309q0 44 31 76t75 32t76.5 -32t32.5 -76t-32.5 -75.5t-76.5 -31.5t-75 31.5t-31 75.5z" />
    <glyph glyph-name="Ccaron" unicode="&#x10c;" horiz-adv-x="1548" 
d="M272 709q0 -320 156.5 -514.5t431.5 -194.5q247 0 378 144t157 403h16l-25 -477q-89 -39 -226.5 -64.5t-295.5 -25.5q-163 0 -306.5 55.5t-246.5 151.5t-163 231.5t-60 290.5q0 157 63.5 294.5t170 232.5t250 149.5t300.5 54.5q128 0 277 -26.5t233 -63.5l25 -447h-18
q-25 250 -152 383t-360 133q-275 0 -440 -196t-165 -514zM862 1602q9 -9 15 0l167 249q27 39 70 39q19 0 30 -9t11 -19q0 -21 -37 -60q-116 -121 -239 -219q-3 -3 -9.5 -3t-9.5 3q-155 118 -248 199q-41 36 -41 59q0 14 13.5 28.5t33.5 14.5q42 0 72 -43q19 -27 80.5 -111.5
t91.5 -127.5z" />
    <glyph glyph-name="ccaron" unicode="&#x10d;" horiz-adv-x="1110" 
d="M209 563q0 -204 131.5 -336.5t337.5 -132.5q143 0 246.5 69.5t181.5 211.5q6 12 14 8t2 -14q-90 -168 -241 -278.5t-314 -110.5q-217 0 -354 137t-137 354q0 108 49.5 213.5t129.5 184t187 127t217 48.5q144 0 243 -48t99 -105q0 -30 -27 -57t-73 -27q-23 0 -47 20
t-49 48t-54.5 56t-76 48t-101.5 20q-158 0 -261 -116.5t-103 -319.5zM631 1204q8 -8 14 0l168 250q27 39 70 39q19 0 30 -9.5t11 -19.5q0 -20 -37 -59q-113 -117 -240 -219q-3 -3 -9 -3t-9 3q-164 124 -248 198q-41 36 -41 60q0 14 13.5 28.5t33.5 14.5q42 0 72 -43
q19 -28 81 -113.5t91 -126.5z" />
    <glyph glyph-name="Dcaron" unicode="&#x10e;" horiz-adv-x="1501" 
d="M1413 709q0 -206 -101.5 -368.5t-278 -251.5t-394.5 -89l-317 6l-289 -6q-15 0 -15 7t15 7q29 0 45.5 2t34 7t26 17.5t17.5 30t13.5 49.5t8.5 70t8 97q4 63 4.5 165t-1 219t-1.5 134q0 45 -3 197.5t-3 211.5v61t-3 45t-5 34t-11 22t-15.5 15t-24.5 6.5t-32.5 3.5h-43.5
q-12 0 -12 9t12 9q6 0 119.5 -2t130.5 -2q12 0 156.5 2t177.5 2q158 0 300.5 -51.5t249 -142.5t169.5 -225t63 -291zM1231 709q0 316 -164.5 504t-439.5 188h-135q-70 0 -92 -16q-34 -24 -43 -127q-7 -80 -7 -369v-559q0 -231 -16 -301q19 0 138.5 -4.5t170.5 -4.5
q276 0 432 185.5t156 503.5zM668 1602q8 -8 14 0l168 249q27 39 70 39q19 0 30 -9t11 -19q0 -21 -37 -60q-113 -117 -240 -219q-3 -3 -9 -3t-9 3q-155 118 -248 199q-41 36 -41 59q0 14 13.5 28.5t33.5 14.5q42 0 72 -43q19 -27 80.5 -111.5t91.5 -127.5z" />
    <glyph glyph-name="dcaron" unicode="&#x10f;" horiz-adv-x="1452" 
d="M924 948v447q0 87 -12.5 123t-43 40.5t-80.5 -6.5q-11 -1 -12 7q-1 9 10 12h2q116 20 248 94q5 3 23 -2t18 -12v-1407v-68t2 -52t4.5 -40.5t8 -27.5t12.5 -20t19 -10.5t25.5 -6.5t33.5 -1q12 0 12 -9t-12 -9q-151 0 -248 -20q-25 -6 -25 18q0 3 3.5 31.5t7 78t4.5 101.5
q-73 -107 -186 -168t-234 -61q-178 0 -304 136.5t-126 344.5q0 123 50.5 233t133 186t188.5 120t216 44q139 0 262 -96zM575 999q-169 0 -263.5 -117t-94.5 -339q0 -92 26 -179t73.5 -158.5t123.5 -115t168 -43.5t177.5 53.5t138.5 141.5v555q-36 38 -66.5 66t-77.5 63
t-99.5 54t-105.5 19zM1245 1270q-8 -3 -10.5 -0.5t4.5 8.5q102 59 102 184q0 29 -10 56q-23 -41 -71 -41q-37 0 -63 25.5t-26 62.5q0 40 27.5 68t73.5 28q55 0 87 -46t32 -124q0 -69 -49 -130.5t-97 -90.5z" />
    <glyph glyph-name="Dcroat" unicode="&#x110;" horiz-adv-x="1501" 
d="M1413 709q0 -206 -101.5 -368.5t-278 -251.5t-394.5 -89l-317 6l-289 -6q-15 0 -15 7t15 7q29 0 45.5 2t34 7t26 17.5t17.5 30t13.5 49.5t8.5 70t8 97t4 346q-14 0 -43.5 -1t-46.5 -1q-71 -2 -71 4q0 13 94 104q5 0 27 -1t38 -1v68q0 45 -3 197.5t-3 211.5v61t-3 45
t-5 34t-11 22t-15.5 15t-24.5 6.5t-32.5 3.5h-43.5q-12 0 -12 9t12 9q6 0 119.5 -2t130.5 -2q12 0 156.5 2t177.5 2q158 0 300.5 -51.5t249 -142.5t169.5 -225t63 -291zM1231 709q0 316 -164.5 504t-439.5 188h-135q-70 0 -92 -16q-34 -24 -43 -127q-7 -80 -7 -369v-152
q168 0 252 2q72 2 72 -2q0 -13 -94 -104q-11 0 -95 1t-135 1v-305q0 -231 -16 -301q19 0 138.5 -4.5t170.5 -4.5q276 0 432 185.5t156 503.5z" />
    <glyph glyph-name="dcroat" unicode="&#x111;" horiz-adv-x="1226" 
d="M907 1354h17v41q0 87 -12.5 123t-43 40.5t-80.5 -6.5q-11 -1 -12 7q-1 9 10 12h2q116 20 248 94q5 3 23 -2t18 -12v-297q66 0 99 2q71 2 71 -2q0 -14 -94 -105h-76v-1005v-68t2 -52t4.5 -40.5t8 -27.5t12.5 -20t19 -10.5t25.5 -6.5t33.5 -1q12 0 12 -9t-12 -9
q-151 0 -248 -20q-25 -6 -25 18q0 3 3.5 31.5t7 78t4.5 101.5q-73 -107 -186 -168t-234 -61q-178 0 -304 136.5t-126 344.5q0 123 50.5 233t133 186t188.5 120t216 44q139 0 262 -96v303h-13q-61 0 -237 -4q-72 -2 -72 4q0 14 94 105q12 0 85.5 -1t125.5 -1zM575 999
q-169 0 -263.5 -117t-94.5 -339q0 -92 26 -179t73.5 -158.5t123.5 -115t168 -43.5t177.5 53.5t138.5 141.5v555q-36 38 -66.5 66t-77.5 63t-99.5 54t-105.5 19z" />
    <glyph glyph-name="Emacron" unicode="&#x112;" horiz-adv-x="1273" 
d="M350 889v-141h170q93 0 156 16t96 49t46 73t13 97v43q0 12 10.5 12t10.5 -12q0 -33 -5 -156t-5 -135q0 -14 5 -139t5 -141q0 -12 -10.5 -12t-10.5 12v30q0 57 -13 97.5t-46 74t-96 50t-156 16.5h-170v-393q0 -231 -16 -301q29 0 192 -3t195 -3q114 0 210 60t152 153
t70 200l12 109q1 6 7 8t11.5 -0.5t4.5 -9.5l-12 -111q-27 -244 -40 -329.5t-24 -94.5q-8 -8 -272 -8l-518 6l-289 -6q-15 0 -15 7t15 7q29 0 45.5 2t34 7t26 17.5t17.5 30t13.5 49.5t8.5 70t8 97q9 127 9 602q0 131 -1.5 213.5t-8 143t-12 89t-22.5 45t-31 19t-44 2.5h-37
q-12 0 -12 9t12 9q32 0 123.5 -3t103.5 -3q9 0 343.5 3t377.5 3q80 0 96 -8q2 -1 4 -7t4.5 -18t5 -26t5.5 -36.5t6 -43t7.5 -52.5t8.5 -57.5t9.5 -66t9.5 -70.5l8 -73q3 -10 -7 -10q-10 1 -14 10l-10 73q-29 171 -142.5 265t-289.5 96h-260q-29 0 -40 -2.5t-22.5 -19
t-13 -47.5t-2.5 -94t-1 -153q1 -117 1 -190zM633 1724h2q116 0 184 2q72 2 72 -2q0 -13 -94 -104q-1 0 -59.5 1t-100.5 1q-20 0 -156 -4q-71 -2 -71 4q0 13 94 104q1 0 44 -1t85 -1z" />
    <glyph glyph-name="emacron" unicode="&#x113;" horiz-adv-x="1056" 
d="M584 -20q-232 0 -373 138t-141 353q0 112 49.5 218.5t128.5 183.5t183 124t208 47t180.5 -29.5t113.5 -74t52 -89t10 -83.5q-7 -63 -86 -63h-700q-16 -75 -16 -158q0 -93 39 -176.5t105 -143t157.5 -94.5t193.5 -35q179 0 301.5 101.5t212.5 296.5q8 20 16 16
q6 -4 -1 -20q-43 -100 -102.5 -187t-138 -162.5t-180 -119t-212.5 -43.5zM717 729q20 0 48.5 7t33.5 12q18 21 18 65q0 67 -63 126.5t-172 59.5q-135 0 -232.5 -71.5t-136.5 -206.5q128 0 289 4t215 4zM627 1303h2q116 0 184 2q72 2 72 -2q0 -14 -94 -105q-1 0 -59.5 1
t-100.5 1q-20 0 -156 -4q-72 -2 -72 4q0 13 95 105q1 0 44 -1t85 -1z" />
    <glyph glyph-name="Ebreve" unicode="&#x114;" horiz-adv-x="1273" 
d="M350 889v-141h170q93 0 156 16t96 49t46 73t13 97v43q0 12 10.5 12t10.5 -12q0 -33 -5 -156t-5 -135q0 -14 5 -139t5 -141q0 -12 -10.5 -12t-10.5 12v30q0 57 -13 97.5t-46 74t-96 50t-156 16.5h-170v-393q0 -231 -16 -301q29 0 192 -3t195 -3q114 0 210 60t152 153
t70 200l12 109q1 6 7 8t11.5 -0.5t4.5 -9.5l-12 -111q-27 -244 -40 -329.5t-24 -94.5q-8 -8 -272 -8l-518 6l-289 -6q-15 0 -15 7t15 7q29 0 45.5 2t34 7t26 17.5t17.5 30t13.5 49.5t8.5 70t8 97q9 127 9 602q0 131 -1.5 213.5t-8 143t-12 89t-22.5 45t-31 19t-44 2.5h-37
q-12 0 -12 9t12 9q32 0 123.5 -3t103.5 -3q9 0 343.5 3t377.5 3q80 0 96 -8q2 -1 4 -7t4.5 -18t5 -26t5.5 -36.5t6 -43t7.5 -52.5t8.5 -57.5t9.5 -66t9.5 -70.5l8 -73q3 -10 -7 -10q-10 1 -14 10l-10 73q-29 171 -142.5 265t-289.5 96h-260q-29 0 -40 -2.5t-22.5 -19
t-13 -47.5t-2.5 -94t-1 -153q1 -117 1 -190zM637 1589q-130 0 -244 148q-12 15 -12 24q0 3 4 7.5t15.5 10.5t27.5 11q31 9 43.5 8t22.5 -14q63 -80 108 -116t100 -36q40 0 81 40t73 114q6 14 23 14q10 0 16 -7.5t0 -14.5q-44 -75 -116 -130.5t-142 -58.5z" />
    <glyph glyph-name="ebreve" unicode="&#x115;" horiz-adv-x="1056" 
d="M584 -20q-232 0 -373 138t-141 353q0 112 49.5 218.5t128.5 183.5t183 124t208 47t180.5 -29.5t113.5 -74t52 -89t10 -83.5q-7 -63 -86 -63h-700q-16 -75 -16 -158q0 -93 39 -176.5t105 -143t157.5 -94.5t193.5 -35q179 0 301.5 101.5t212.5 296.5q8 20 16 16
q6 -4 -1 -20q-43 -100 -102.5 -187t-138 -162.5t-180 -119t-212.5 -43.5zM717 729q20 0 48.5 7t33.5 12q18 21 18 65q0 67 -63 126.5t-172 59.5q-135 0 -232.5 -71.5t-136.5 -206.5q128 0 289 4t215 4zM608 1202q-129 0 -243 148q-13 16 -13 24q0 3 4 7.5t15.5 10.5t27.5 11
q31 9 43.5 8t22.5 -14q63 -80 108 -116t101 -36q40 0 80.5 40t72.5 114q6 14 23 14q10 0 16 -7.5t0 -14.5q-44 -75 -116 -130.5t-142 -58.5z" />
    <glyph glyph-name="Edotaccent" unicode="&#x116;" horiz-adv-x="1273" 
d="M350 889v-141h170q93 0 156 16t96 49t46 73t13 97v43q0 12 10.5 12t10.5 -12q0 -33 -5 -156t-5 -135q0 -14 5 -139t5 -141q0 -12 -10.5 -12t-10.5 12v30q0 57 -13 97.5t-46 74t-96 50t-156 16.5h-170v-393q0 -231 -16 -301q29 0 192 -3t195 -3q114 0 210 60t152 153
t70 200l12 109q1 6 7 8t11.5 -0.5t4.5 -9.5l-12 -111q-27 -244 -40 -329.5t-24 -94.5q-8 -8 -272 -8l-518 6l-289 -6q-15 0 -15 7t15 7q29 0 45.5 2t34 7t26 17.5t17.5 30t13.5 49.5t8.5 70t8 97q9 127 9 602q0 131 -1.5 213.5t-8 143t-12 89t-22.5 45t-31 19t-44 2.5h-37
q-12 0 -12 9t12 9q32 0 123.5 -3t103.5 -3q9 0 343.5 3t377.5 3q80 0 96 -8q2 -1 4 -7t4.5 -18t5 -26t5.5 -36.5t6 -43t7.5 -52.5t8.5 -57.5t9.5 -66t9.5 -70.5l8 -73q3 -10 -7 -10q-10 1 -14 10l-10 73q-29 171 -142.5 265t-289.5 96h-260q-29 0 -40 -2.5t-22.5 -19
t-13 -47.5t-2.5 -94t-1 -153q1 -117 1 -190zM530 1706q0 44 31.5 76.5t75.5 32.5t76 -32.5t32 -76.5t-32 -75.5t-76 -31.5t-75.5 31.5t-31.5 75.5z" />
    <glyph glyph-name="edotaccent" unicode="&#x117;" horiz-adv-x="1056" 
d="M584 -20q-232 0 -373 138t-141 353q0 112 49.5 218.5t128.5 183.5t183 124t208 47t180.5 -29.5t113.5 -74t52 -89t10 -83.5q-7 -63 -86 -63h-700q-16 -75 -16 -158q0 -93 39 -176.5t105 -143t157.5 -94.5t193.5 -35q179 0 301.5 101.5t212.5 296.5q8 20 16 16
q6 -4 -1 -20q-43 -100 -102.5 -187t-138 -162.5t-180 -119t-212.5 -43.5zM717 729q20 0 48.5 7t33.5 12q18 21 18 65q0 67 -63 126.5t-172 59.5q-135 0 -232.5 -71.5t-136.5 -206.5q128 0 289 4t215 4zM549 1309q0 44 31 76t75 32t76.5 -32t32.5 -76t-32.5 -75.5
t-76.5 -31.5t-75 31.5t-31 75.5z" />
    <glyph glyph-name="Eogonek" unicode="&#x118;" horiz-adv-x="1273" 
d="M350 889v-141h170q93 0 156 16t96 49t46 73t13 97v43q0 12 10.5 12t10.5 -12q0 -33 -5 -156t-5 -135q0 -14 5 -139t5 -141q0 -12 -10.5 -12t-10.5 12v30q0 57 -13 97.5t-46 74t-96 50t-156 16.5h-170v-393q0 -231 -16 -301q29 0 192 -3t195 -3q114 0 210 60t152 153
t70 200l12 109q1 6 7 8t11.5 -0.5t4.5 -9.5l-12 -111q-44 -394 -62 -422q-66 -82 -90 -121.5t-27 -70.5q-5 -40 22.5 -65t84.5 -25q64 0 153 43q4 2 -10 -31.5t-34.5 -71.5t-30.5 -45q-65 -26 -140 -26q-67 0 -102.5 39.5t-26.5 109.5q4 43 43.5 101t124.5 155
q-47 -2 -241 -2l-518 6l-289 -6q-15 0 -15 7t15 7q29 0 45.5 2t34 7t26 17.5t17.5 30t13.5 49.5t8.5 70t8 97q9 127 9 602q0 131 -1.5 213.5t-8 143t-12 89t-22.5 45t-31 19t-44 2.5h-37q-12 0 -12 9t12 9q32 0 123.5 -3t103.5 -3q9 0 343.5 3t377.5 3q80 0 96 -8q2 -1 4 -7
t4.5 -18t5 -26t5.5 -36.5t6 -43t7.5 -52.5t8.5 -57.5t9.5 -66t9.5 -70.5l8 -73q3 -10 -7 -10q-10 1 -14 10l-10 73q-29 171 -142.5 265t-289.5 96h-260q-29 0 -40 -2.5t-22.5 -19t-13 -47.5t-2.5 -94t-1 -153q1 -117 1 -190z" />
    <glyph glyph-name="eogonek" unicode="&#x119;" horiz-adv-x="1056" 
d="M836 -274q64 0 153 43q4 2 -10.5 -31.5t-35 -71.5t-30.5 -45q-67 -27 -139 -27q-67 0 -102.5 40t-26.5 110q6 50 53 115t164 198q-129 -77 -278 -77q-232 0 -373 138t-141 353q0 112 49.5 218.5t128.5 183.5t183 124t208 47t180.5 -29.5t113.5 -74t52 -89t10 -83.5
q-7 -63 -86 -63h-700q-16 -75 -16 -158q0 -93 39 -176.5t105 -143t157.5 -94.5t193.5 -35q179 0 301.5 101.5t212.5 296.5q8 20 16 16q6 -4 -1 -20q-118 -267 -306 -402q-105 -122 -141 -178.5t-41 -95.5q-5 -40 22.5 -65t84.5 -25zM717 729q20 0 48.5 7t33.5 12
q18 21 18 65q0 67 -63 126.5t-172 59.5q-135 0 -232.5 -71.5t-136.5 -206.5q128 0 289 4t215 4z" />
    <glyph glyph-name="Ecaron" unicode="&#x11a;" horiz-adv-x="1273" 
d="M350 889v-141h170q93 0 156 16t96 49t46 73t13 97v43q0 12 10.5 12t10.5 -12q0 -33 -5 -156t-5 -135q0 -14 5 -139t5 -141q0 -12 -10.5 -12t-10.5 12v30q0 57 -13 97.5t-46 74t-96 50t-156 16.5h-170v-393q0 -231 -16 -301q29 0 192 -3t195 -3q114 0 210 60t152 153
t70 200l12 109q1 6 7 8t11.5 -0.5t4.5 -9.5l-12 -111q-27 -244 -40 -329.5t-24 -94.5q-8 -8 -272 -8l-518 6l-289 -6q-15 0 -15 7t15 7q29 0 45.5 2t34 7t26 17.5t17.5 30t13.5 49.5t8.5 70t8 97q9 127 9 602q0 131 -1.5 213.5t-8 143t-12 89t-22.5 45t-31 19t-44 2.5h-37
q-12 0 -12 9t12 9q32 0 123.5 -3t103.5 -3q9 0 343.5 3t377.5 3q80 0 96 -8q2 -1 4 -7t4.5 -18t5 -26t5.5 -36.5t6 -43t7.5 -52.5t8.5 -57.5t9.5 -66t9.5 -70.5l8 -73q3 -10 -7 -10q-10 1 -14 10l-10 73q-29 171 -142.5 265t-289.5 96h-260q-29 0 -40 -2.5t-22.5 -19
t-13 -47.5t-2.5 -94t-1 -153q1 -117 1 -190zM629 1602q8 -8 14 0l168 249q27 39 70 39q19 0 30 -9t11 -19q0 -21 -37 -60q-113 -117 -240 -219q-3 -3 -9 -3t-9 3q-155 118 -248 199q-41 36 -41 59q0 14 13.5 28.5t33.5 14.5q42 0 72 -43q19 -27 80.5 -111.5t91.5 -127.5z
" />
    <glyph glyph-name="ecaron" unicode="&#x11b;" horiz-adv-x="1056" 
d="M584 -20q-232 0 -373 138t-141 353q0 112 49.5 218.5t128.5 183.5t183 124t208 47t180.5 -29.5t113.5 -74t52 -89t10 -83.5q-7 -63 -86 -63h-700q-16 -75 -16 -158q0 -93 39 -176.5t105 -143t157.5 -94.5t193.5 -35q179 0 301.5 101.5t212.5 296.5q8 20 16 16
q6 -4 -1 -20q-43 -100 -102.5 -187t-138 -162.5t-180 -119t-212.5 -43.5zM717 729q20 0 48.5 7t33.5 12q18 21 18 65q0 67 -63 126.5t-172 59.5q-135 0 -232.5 -71.5t-136.5 -206.5q128 0 289 4t215 4zM618 1204q9 -9 15 0l168 250q27 39 69 39q19 0 30 -9.5t11 -19.5
q0 -20 -37 -59q-116 -121 -239 -219q-3 -3 -9.5 -3t-9.5 3q-156 119 -247 198q-41 36 -41 60q0 14 13.5 28.5t33.5 14.5q41 0 71 -43q19 -28 81 -113.5t91 -126.5z" />
    <glyph glyph-name="Gcircumflex" unicode="&#x11c;" horiz-adv-x="1576" 
d="M877 1419q-279 0 -442 -193.5t-163 -516.5q0 -320 156.5 -514.5t431.5 -194.5q124 0 219 29.5t193 85.5q6 12 6 266q0 189 -4 229q-51 14 -160 17q-184 8 -444 8q-9 0 -9 6q2 6 11 8q450 0 749 23q5 0 9 -5t4 -12q-2 -195 -2 -659q0 -16 -17 -2q-27 22 -66 41.5t-61 19.5
q-32 0 -99.5 -18.5t-155.5 -37.5t-169 -19q-163 0 -306.5 55.5t-246.5 151.5t-163 231.5t-60 290.5q0 157 63.5 294.5t170 232.5t250 149.5t300.5 54.5q128 0 277 -26.5t233 -63.5l25 -437q1 -8 -3 -12t-9 -1t-6 11q-50 508 -512 508zM905 1868q-8 8 -14 0l-168 -250
q-27 -39 -70 -39q-19 0 -30 9.5t-11 19.5q0 20 37 59q113 117 240 219q3 3 9 3t9 -3q164 -124 248 -198q41 -36 41 -60q0 -14 -13.5 -28.5t-33.5 -14.5q-42 0 -72 43q-19 28 -81 113.5t-91 126.5z" />
    <glyph glyph-name="gcircumflex" unicode="&#x11d;" horiz-adv-x="1028" 
d="M952 991q-20 0 -168 18.5t-231 18.5v-4q156 -21 244 -115.5t88 -234.5q0 -160 -121.5 -256t-310.5 -96h-37q-102 -7 -172 -35t-70 -76q0 -29 16.5 -46.5t54 -26.5t82.5 -12t119 -3h275q164 0 242.5 -63t78.5 -158q0 -76 -42.5 -155t-114.5 -144t-162 -117t-192 -81
t-197 -28q-156 -1 -247 73.5t-91 187.5q0 111 102.5 209t239.5 147q-132 5 -202 36t-70 101q0 67 82.5 123.5t207.5 75.5q-134 24 -211 110.5t-77 229.5q0 156 124 263t304 107q88 0 199 19.5t192.5 39t97.5 19.5q21 0 40 -7t19 -24q0 -30 -27 -63t-65 -33zM457 -510h8
q129 0 248 42t194.5 117.5t75.5 164.5q0 97 -79 137.5t-255 40.5h-266q-133 -40 -215 -115t-82 -160q0 -108 98 -167.5t273 -59.5zM475 342q125 0 191.5 85.5t66.5 246.5q0 140 -67.5 243t-182.5 103q-262 0 -262 -328q0 -156 65.5 -253t188.5 -97zM500 1470q-9 9 -15 0
l-168 -249q-27 -39 -69 -39q-19 0 -30 9t-11 19q0 21 37 60q116 121 239 219q3 3 9.5 3t9.5 -3q155 -118 248 -199q41 -36 41 -59q0 -14 -14 -28.5t-34 -14.5q-41 0 -71 43q-19 27 -80.5 111.5t-91.5 127.5z" />
    <glyph glyph-name="Gbreve" unicode="&#x11e;" horiz-adv-x="1576" 
d="M887 1599q-130 0 -244 148q-12 15 -12 25q0 15 47 28q31 9 43 8t22 -14q63 -80 108 -116t101 -36q40 0 81 40t73 114q6 14 22 14q10 0 16.5 -7.5t0.5 -14.5q-44 -75 -116 -130.5t-142 -58.5zM877 1419q-279 0 -442 -193.5t-163 -516.5q0 -320 156.5 -514.5t431.5 -194.5
q124 0 219 29.5t193 85.5q6 12 6 266q0 189 -4 229q-51 14 -160 17q-184 8 -444 8q-9 0 -9 6q2 6 11 8q450 0 749 23q5 0 9 -5t4 -12q-2 -195 -2 -659q0 -16 -17 -2q-27 22 -66 41.5t-61 19.5q-32 0 -99.5 -18.5t-155.5 -37.5t-169 -19q-163 0 -306.5 55.5t-246.5 151.5
t-163 231.5t-60 290.5q0 157 63.5 294.5t170 232.5t250 149.5t300.5 54.5q128 0 277 -26.5t233 -63.5l25 -437q1 -8 -3 -12t-9 -1t-6 11q-50 508 -512 508z" />
    <glyph glyph-name="gbreve" unicode="&#x11f;" horiz-adv-x="1028" 
d="M952 991q-20 0 -168 18.5t-231 18.5v-4q156 -21 244 -115.5t88 -234.5q0 -160 -121.5 -256t-310.5 -96h-37q-102 -7 -172 -35t-70 -76q0 -29 16.5 -46.5t54 -26.5t82.5 -12t119 -3h275q164 0 242.5 -63t78.5 -158q0 -76 -42.5 -155t-114.5 -144t-162 -117t-192 -81
t-197 -28q-156 -1 -247 73.5t-91 187.5q0 111 102.5 209t239.5 147q-132 5 -202 36t-70 101q0 67 82.5 123.5t207.5 75.5q-134 24 -211 110.5t-77 229.5q0 156 124 263t304 107q88 0 199 19.5t192.5 39t97.5 19.5q21 0 40 -7t19 -24q0 -30 -27 -63t-65 -33zM457 -510h8
q129 0 248 42t194.5 117.5t75.5 164.5q0 97 -79 137.5t-255 40.5h-266q-133 -40 -215 -115t-82 -160q0 -108 98 -167.5t273 -59.5zM475 342q125 0 191.5 85.5t66.5 246.5q0 140 -67.5 243t-182.5 103q-262 0 -262 -328q0 -156 65.5 -253t188.5 -97zM504 1202
q-130 0 -244 148q-12 15 -12 24q0 3 4 7.5t15.5 10.5t27.5 11q31 9 43 8t22 -14q63 -80 108 -116t101 -36q40 0 81 40t73 114q6 14 22 14q10 0 16.5 -7.5t0.5 -14.5q-44 -75 -116 -130.5t-142 -58.5z" />
    <glyph glyph-name="Gdotaccent" unicode="&#x120;" horiz-adv-x="1576" 
d="M788 1706q0 44 31.5 76.5t75.5 32.5t76.5 -32.5t32.5 -76.5t-32.5 -75.5t-76.5 -31.5t-75.5 31.5t-31.5 75.5zM877 1419q-279 0 -442 -193.5t-163 -516.5q0 -320 156.5 -514.5t431.5 -194.5q124 0 219 29.5t193 85.5q6 12 6 266q0 189 -4 229q-51 14 -160 17
q-184 8 -444 8q-9 0 -9 6q2 6 11 8q450 0 749 23q5 0 9 -5t4 -12q-2 -195 -2 -659q0 -16 -17 -2q-27 22 -66 41.5t-61 19.5q-32 0 -99.5 -18.5t-155.5 -37.5t-169 -19q-163 0 -306.5 55.5t-246.5 151.5t-163 231.5t-60 290.5q0 157 63.5 294.5t170 232.5t250 149.5
t300.5 54.5q128 0 277 -26.5t233 -63.5l25 -437q1 -8 -3 -12t-9 -1t-6 11q-50 508 -512 508z" />
    <glyph glyph-name="gdotaccent" unicode="&#x121;" horiz-adv-x="1028" 
d="M952 991q-20 0 -168 18.5t-231 18.5v-4q156 -21 244 -115.5t88 -234.5q0 -160 -121.5 -256t-310.5 -96h-37q-102 -7 -172 -35t-70 -76q0 -29 16.5 -46.5t54 -26.5t82.5 -12t119 -3h275q164 0 242.5 -63t78.5 -158q0 -76 -42.5 -155t-114.5 -144t-162 -117t-192 -81
t-197 -28q-156 -1 -247 73.5t-91 187.5q0 111 102.5 209t239.5 147q-132 5 -202 36t-70 101q0 67 82.5 123.5t207.5 75.5q-134 24 -211 110.5t-77 229.5q0 156 124 263t304 107q88 0 199 19.5t192.5 39t97.5 19.5q21 0 40 -7t19 -24q0 -30 -27 -63t-65 -33zM457 -510h8
q129 0 248 42t194.5 117.5t75.5 164.5q0 97 -79 137.5t-255 40.5h-266q-133 -40 -215 -115t-82 -160q0 -108 98 -167.5t273 -59.5zM475 342q125 0 191.5 85.5t66.5 246.5q0 140 -67.5 243t-182.5 103q-262 0 -262 -328q0 -156 65.5 -253t188.5 -97zM381 1309q0 44 31 76
t75 32t76.5 -32t32.5 -76t-32.5 -75.5t-76.5 -31.5t-75 31.5t-31 75.5z" />
    <glyph glyph-name="Gcommaaccent" unicode="&#x122;" horiz-adv-x="1576" 
d="M877 1419q-279 0 -442 -193.5t-163 -516.5q0 -320 156.5 -514.5t431.5 -194.5q124 0 219 29.5t193 85.5q6 12 6 266q0 189 -4 229q-51 14 -160 17q-184 8 -444 8q-9 0 -9 6q2 6 11 8q450 0 749 23q5 0 9 -5t4 -12q-2 -195 -2 -659q0 -16 -17 -2q-27 22 -66 41.5t-61 19.5
q-32 0 -99.5 -18.5t-155.5 -37.5t-169 -19q-163 0 -306.5 55.5t-246.5 151.5t-163 231.5t-60 290.5q0 157 63.5 294.5t170 232.5t250 149.5t300.5 54.5q128 0 277 -26.5t233 -63.5l25 -437q1 -8 -3 -12t-9 -1t-6 11q-50 508 -512 508zM831 -535q-8 -3 -10.5 0t4.5 9
q43 25 73 70.5t30 113.5q0 28 -10 55q-23 -41 -72 -41q-37 0 -62.5 25.5t-25.5 62.5q0 40 27.5 68.5t72.5 28.5q55 0 87 -46t32 -124q0 -69 -49 -131t-97 -91z" />
    <glyph glyph-name="gcommaaccent" unicode="&#x123;" horiz-adv-x="1028" 
d="M952 991q-20 0 -168 18.5t-231 18.5v-4q156 -21 244 -115.5t88 -234.5q0 -160 -121.5 -256t-310.5 -96h-37q-102 -7 -172 -35t-70 -76q0 -29 16.5 -46.5t54 -26.5t82.5 -12t119 -3h275q164 0 242.5 -63t78.5 -158q0 -76 -42.5 -155t-114.5 -144t-162 -117t-192 -81
t-197 -28q-156 -1 -247 73.5t-91 187.5q0 111 102.5 209t239.5 147q-132 5 -202 36t-70 101q0 67 82.5 123.5t207.5 75.5q-134 24 -211 110.5t-77 229.5q0 156 124 263t304 107q88 0 199 19.5t192.5 39t97.5 19.5q21 0 40 -7t19 -24q0 -30 -27 -63t-65 -33zM457 -510h8
q129 0 248 42t194.5 117.5t75.5 164.5q0 97 -79 137.5t-255 40.5h-266q-133 -40 -215 -115t-82 -160q0 -108 98 -167.5t273 -59.5zM475 342q125 0 191.5 85.5t66.5 246.5q0 140 -67.5 243t-182.5 103q-262 0 -262 -328q0 -156 65.5 -253t188.5 -97zM514 1575q8 3 10.5 0.5
t-4.5 -8.5q-42 -24 -72 -70.5t-30 -114.5q0 -35 10 -55q20 41 72 41q37 0 62.5 -25.5t25.5 -62.5q0 -40 -27.5 -68t-73.5 -28q-55 0 -86.5 46t-31.5 124q0 69 48.5 130.5t96.5 90.5z" />
    <glyph glyph-name="Hcircumflex" unicode="&#x124;" horiz-adv-x="1425" 
d="M186 530v359q0 357 -16 436q-11 60 -44 71q-15 5 -50 5h-27q-12 0 -12 9t12 9q32 0 118.5 -3t98.5 -3q11 0 103.5 3t124.5 3q12 0 12 -9t-12 -9h-41q-51 0 -68 -15q-30 -28 -38 -161q-5 -95 -5 -336v-164l377 4l364 -6v166q0 357 -16 436q-11 60 -44 71q-15 5 -50 5h-43
q-12 0 -12 9t12 9q33 0 125 -3t104 -3t100 3t121 3q12 0 12 -9t-12 -9h-32q-50 0 -67 -15q-30 -28 -37 -163q-5 -94 -5 -334v-359q0 -358 16 -438q12 -59 45 -69q14 -5 48 -5h32q12 0 12 -9t-12 -9q-33 0 -121 3t-100 3t-104 -3t-125 -3q-12 0 -12 9t12 9h43q51 0 68 15
q30 28 37 160q5 92 5 337v172l-362 -2q-184 0 -379 5v-175q0 -357 16 -437q12 -59 46 -70q14 -5 49 -5h41q12 0 12 -9t-12 -9q-32 0 -124.5 3t-103.5 3q-12 0 -98.5 -3t-118.5 -3q-12 0 -12 9t12 9h27q51 0 68 15q30 28 37 160q5 92 5 337zM733 1868q-8 8 -14 0l-168 -250
q-27 -39 -70 -39q-19 0 -30 9.5t-11 19.5q0 20 37 59q113 117 240 219q3 3 9 3t9 -3q164 -124 248 -198q41 -36 41 -60q0 -14 -13.5 -28.5t-33.5 -14.5q-42 0 -72 43q-19 28 -81 113.5t-91 126.5z" />
    <glyph glyph-name="hcircumflex" unicode="&#x125;" 
d="M248 4q-12 0 -88 -2t-109 -2q-12 0 -12 9t12 9q24 0 38 2t25 12.5t16 22.5t8.5 42t4 59.5t0.5 87.5v1151q0 88 -11.5 123.5t-40.5 41.5t-79 -6q-11 -1 -12 7q-1 9 10 12h2q121 21 248 92q5 3 21 -2t16 -12v-826q163 219 375 219q334 0 334 -415v-527q0 -55 20.5 -70.5
t77.5 -13.5q12 0 12 -9t-12 -9q-6 0 -84.5 2t-97.5 2q-12 0 -80 -2t-101 -2q-12 0 -12 9t12 9q27 0 40.5 1t28.5 8.5t20.5 20t11 39t7 61.5t1.5 92v409q0 176 -70 255t-176 79q-94 0 -164.5 -42.5t-142.5 -139.5v-783h125q12 0 12 -9t-12 -9q-6 0 -80.5 2t-93.5 2zM203 2036
q-9 9 -15 0l-168 -250q-27 -39 -69 -39q-19 0 -30 9.5t-11 19.5q0 20 37 59q116 121 239 219q3 3 9.5 3t9.5 -3q155 -118 248 -199q41 -36 41 -59q0 -14 -14 -28.5t-34 -14.5q-41 0 -71 43q-19 28 -81 113.5t-91 126.5z" />
    <glyph glyph-name="Hbar" unicode="&#x126;" horiz-adv-x="1425" 
d="M186 530v359q0 154 -2 213l-129 -6q-11 6 -11 24t11 25q74 -4 129 -4q-2 78 -6.5 125t-10.5 76t-21 41t-28 15t-42 3h-27q-12 0 -12 9t12 9q32 0 118.5 -3t98.5 -3q11 0 103.5 3t124.5 3q12 0 12 -9t-12 -9h-41q-24 0 -36 -1.5t-26 -9.5t-20.5 -24t-13 -46t-9 -73.5
t-4.5 -109.5q246 -4 365 -4q245 0 372 4q-2 79 -6.5 127t-10.5 77t-21 41.5t-28 15.5t-42 3h-43q-12 0 -12 9t12 9q33 0 125 -3t104 -3t100 3t121 3q12 0 12 -9t-12 -9h-32q-23 0 -35 -1.5t-26 -9.5t-20 -23.5t-12.5 -45t-9 -72.5t-4.5 -108q51 0 125 4q10 -7 10 -25
t-10 -24q-78 4 -127 4v-570q0 -358 16 -438q12 -59 45 -69q14 -5 48 -5h32q12 0 12 -9t-12 -9q-33 0 -121 3t-100 3t-104 -3t-125 -3q-12 0 -12 9t12 9h43q51 0 68 15q30 28 37 160q5 92 5 337v172l-362 -2q-184 0 -379 5v-175q0 -357 16 -437q12 -59 46 -70q14 -5 49 -5h41
q12 0 12 -9t-12 -9q-32 0 -124.5 3t-103.5 3q-12 0 -98.5 -3t-118.5 -3q-12 0 -12 9t12 9h27q51 0 68 15q30 28 37 160q5 92 5 337zM1083 723v166q0 156 -2 215q-187 6 -370 6q-123 0 -369 -4v-381l377 4z" />
    <glyph glyph-name="hbar" unicode="&#x127;" 
d="M741 0q-12 0 -12 9t12 9q27 0 40.5 1t28.5 8.5t20.5 20t11 39t7 61.5t1.5 92v409q0 176 -70 255t-176 79q-94 0 -164.5 -42.5t-142.5 -139.5v-783h125q12 0 12 -9t-12 -9q-6 0 -80.5 2t-93.5 2q-12 0 -88 -2t-109 -2q-12 0 -12 9t12 9q24 0 38 2t25 12.5t16 22.5t8.5 42
t4 59.5t0.5 87.5v1005q-16 0 -50.5 -1t-53.5 -1q-72 -2 -72 4q0 14 94 105q6 0 34 -1t48 -1v41q0 88 -11.5 123.5t-40.5 41.5t-79 -6q-11 -1 -12 7q-1 9 10 12h2q121 21 248 92q5 3 21 -2t16 -12v-297q162 0 244 2q71 2 71 -2q0 -14 -94 -105q-11 0 -91.5 1t-129.5 1v-426
q163 219 375 219q334 0 334 -415v-527q0 -55 20.5 -70.5t77.5 -13.5q12 0 12 -9t-12 -9q-6 0 -84.5 2t-97.5 2q-12 0 -80 -2t-101 -2z" />
    <glyph glyph-name="Itilde" unicode="&#x128;" horiz-adv-x="575" 
d="M209 530v359q0 357 -16 437q-12 59 -46 70q-14 5 -49 5h-43q-12 0 -12 9t12 9q32 0 127.5 -3t106.5 -3q12 0 105.5 3t125.5 3q12 0 12 -9t-12 -9h-43q-51 0 -68 -15q-30 -28 -37 -160q-5 -92 -5 -337v-359q0 -357 16 -436q11 -60 44 -71q16 -5 50 -5h43q12 0 12 -9
t-12 -9q-32 0 -125.5 3t-105.5 3q-11 0 -106.5 -3t-127.5 -3q-12 0 -12 9t12 9h43q51 0 68 15q30 28 38 161q5 93 5 336zM-33 1622q89 115 126 152.5t71 37.5q46 0 159 -60t148 -60q29 0 47 16t74 96q9 11 16 7t-2 -17q-75 -109 -121 -157t-92 -48q-43 0 -153 64.5
t-150 64.5q-17 0 -31.5 -15t-76.5 -91q-12 -13 -17.5 -8.5t2.5 18.5z" />
    <glyph glyph-name="itilde" unicode="&#x129;" horiz-adv-x="462" 
d="M160 225v547q0 78 -11.5 110.5t-40.5 37.5t-79 -9q-13 -3 -15 6q-2 8 9 11q130 29 256 116q5 3 20.5 -2t15.5 -12v-805q0 -136 19.5 -171.5t103.5 -35.5q12 0 12 -9t-12 -9q-33 0 -108.5 2t-87.5 2t-93 -2t-114 -2q-12 0 -12 9t12 9q37 0 58.5 5.5t36 16t20.5 37.5t8 58
t2 90zM-90 1225q90 116 126 153t70 37q46 0 159.5 -60.5t148.5 -60.5q29 0 46.5 16t74.5 97q9 11 16 7t-2 -17q-75 -109 -121 -157t-92 -48q-35 0 -94 32t-117.5 64.5t-91.5 32.5q-17 0 -32 -15.5t-77 -91.5q-12 -13 -17 -8t3 19z" />
    <glyph glyph-name="Imacron" unicode="&#x12a;" horiz-adv-x="575" 
d="M209 530v359q0 357 -16 437q-12 59 -46 70q-14 5 -49 5h-43q-12 0 -12 9t12 9q32 0 127.5 -3t106.5 -3q12 0 105.5 3t125.5 3q12 0 12 -9t-12 -9h-43q-51 0 -68 -15q-30 -28 -37 -160q-5 -92 -5 -337v-359q0 -357 16 -436q11 -60 44 -71q16 -5 50 -5h43q12 0 12 -9
t-12 -9q-32 0 -125.5 3t-105.5 3q-11 0 -106.5 -3t-127.5 -3q-12 0 -12 9t12 9h43q51 0 68 15q30 28 38 161q5 93 5 336zM289 1724h2q116 0 184 2q72 2 72 -2q0 -13 -94 -104q-1 0 -59.5 1t-100.5 1q-20 0 -156 -4q-71 -2 -71 4q0 13 94 104q1 0 44 -1t85 -1z" />
    <glyph glyph-name="imacron" unicode="&#x12b;" horiz-adv-x="462" 
d="M160 225v547q0 78 -11.5 110.5t-40.5 37.5t-79 -9q-13 -3 -15 6q-2 8 9 11q130 29 256 116q5 3 20.5 -2t15.5 -12v-805q0 -136 19.5 -171.5t103.5 -35.5q12 0 12 -9t-12 -9q-33 0 -108.5 2t-87.5 2t-93 -2t-114 -2q-12 0 -12 9t12 9q37 0 58.5 5.5t36 16t20.5 37.5t8 58
t2 90zM225 1303h2q117 0 185 2q71 2 71 -2q0 -14 -94 -105q-1 0 -59.5 1t-100.5 1q-19 0 -155 -4q-72 -2 -72 4q0 14 94 105q1 0 44 -1t85 -1z" />
    <glyph glyph-name="Ibreve" unicode="&#x12c;" horiz-adv-x="575" 
d="M209 530v359q0 357 -16 437q-12 59 -46 70q-14 5 -49 5h-43q-12 0 -12 9t12 9q32 0 127.5 -3t106.5 -3q12 0 105.5 3t125.5 3q12 0 12 -9t-12 -9h-43q-51 0 -68 -15q-30 -28 -37 -160q-5 -92 -5 -337v-359q0 -357 16 -436q11 -60 44 -71q16 -5 50 -5h43q12 0 12 -9
t-12 -9q-32 0 -125.5 3t-105.5 3q-11 0 -106.5 -3t-127.5 -3q-12 0 -12 9t12 9h43q51 0 68 15q30 28 38 161q5 93 5 336zM293 1599q-130 0 -244 148q-12 15 -12 25q0 15 47 28q31 9 43.5 8t22.5 -14q63 -80 108 -116t100 -36q40 0 81 40t73 114q6 14 23 14q10 0 16 -7.5
t0 -14.5q-44 -75 -116 -130.5t-142 -58.5z" />
    <glyph glyph-name="ibreve" unicode="&#x12d;" horiz-adv-x="462" 
d="M160 225v547q0 78 -11.5 110.5t-40.5 37.5t-79 -9q-13 -3 -15 6q-2 8 9 11q130 29 256 116q5 3 20.5 -2t15.5 -12v-805q0 -136 19.5 -171.5t103.5 -35.5q12 0 12 -9t-12 -9q-33 0 -108.5 2t-87.5 2t-93 -2t-114 -2q-12 0 -12 9t12 9q37 0 58.5 5.5t36 16t20.5 37.5t8 58
t2 90zM221 1202q-130 0 -244 148q-12 15 -12 24q0 3 4 7.5t15.5 10.5t27.5 11q31 9 43.5 8t22.5 -14q63 -80 108 -116t101 -36q40 0 80.5 40t72.5 114q6 14 23 14q10 0 16 -7.5t0 -14.5q-44 -75 -116 -130.5t-142 -58.5z" />
    <glyph glyph-name="Iogonek" unicode="&#x12e;" horiz-adv-x="575" 
d="M209 530v359q0 357 -16 437q-12 59 -46 70q-14 5 -49 5h-43q-12 0 -12 9t12 9q32 0 127.5 -3t106.5 -3q12 0 105.5 3t125.5 3q12 0 12 -9t-12 -9h-43q-51 0 -68 -15q-30 -28 -37 -160q-5 -92 -5 -337v-359q0 -357 16 -436q11 -60 44 -71q16 -5 50 -5h43q8 0 10.5 -6.5
t-2.5 -9.5q-60 -76 -82.5 -115t-25.5 -69q-5 -40 22.5 -65t83.5 -25q65 0 154 43q4 2 -10.5 -31.5t-35 -71.5t-30.5 -45q-65 -26 -139 -26q-67 0 -102.5 39.5t-26.5 109.5q6 43 44 100t122 154q-36 0 -119.5 3t-93.5 3q-11 0 -106.5 -3t-127.5 -3q-12 0 -12 9t12 9h43
q51 0 68 15q30 28 38 161q5 93 5 336z" />
    <glyph glyph-name="iogonek" unicode="&#x12f;" horiz-adv-x="462" 
d="M160 225v547q0 78 -11.5 110.5t-40.5 37.5t-79 -9q-13 -3 -15 6q-2 8 9 11q130 29 256 116q5 3 20.5 -2t15.5 -12v-805q0 -136 19.5 -171.5t103.5 -35.5q12 0 12 -9t-12 -9q-96 -119 -106 -182q-5 -40 22.5 -65t83.5 -25q65 0 154 43q4 2 -10.5 -31.5t-35 -71.5
t-30.5 -45q-65 -26 -139 -26q-67 0 -102.5 39.5t-26.5 109.5q6 44 44 100t124 154q-35 0 -100 2t-74 2q-12 0 -93 -2t-114 -2q-12 0 -12 9t12 9q37 0 58.5 5.5t36 16t20.5 37.5t8 58t2 90zM123 1327q0 45 31 77t75 32t76.5 -32.5t32.5 -76.5t-32 -75t-77 -31q-44 0 -75 31
t-31 75z" />
    <glyph glyph-name="Idotaccent" unicode="&#x130;" horiz-adv-x="575" 
d="M209 530v359q0 357 -16 437q-12 59 -46 70q-14 5 -49 5h-43q-12 0 -12 9t12 9q32 0 127.5 -3t106.5 -3q12 0 105.5 3t125.5 3q12 0 12 -9t-12 -9h-43q-51 0 -68 -15q-30 -28 -37 -160q-5 -92 -5 -337v-359q0 -357 16 -436q11 -60 44 -71q16 -5 50 -5h43q12 0 12 -9
t-12 -9q-32 0 -125.5 3t-105.5 3q-11 0 -106.5 -3t-127.5 -3q-12 0 -12 9t12 9h43q51 0 68 15q30 28 38 161q5 93 5 336zM180 1706q0 44 31.5 76.5t75.5 32.5t76 -32.5t32 -76.5t-32 -75.5t-76 -31.5t-75.5 31.5t-31.5 75.5z" />
    <glyph glyph-name="dotlessi" unicode="&#x131;" horiz-adv-x="462" 
d="M154 225v547q0 78 -11.5 110.5t-40.5 37.5t-79 -9q-13 -3 -16 6q-2 8 9 11q130 29 256 116q5 3 21 -2t16 -12v-805q0 -136 19.5 -171.5t103.5 -35.5q12 0 12 -9t-12 -9q-33 0 -108.5 2t-87.5 2t-93 -2t-114 -2q-12 0 -12 9t12 9q37 0 58.5 5.5t36 16t20.5 37.5t8 58t2 90
z" />
    <glyph glyph-name="IJ" unicode="&#x132;" horiz-adv-x="1118" 
d="M209 530v359q0 357 -16 437q-12 59 -46 70q-14 5 -49 5h-43q-12 0 -12 9t12 9q32 0 127.5 -3t106.5 -3q12 0 105.5 3t125.5 3q12 0 12 -9t-12 -9h-43q-51 0 -68 -15q-30 -28 -37 -160q-5 -92 -5 -337v-359q0 -357 16 -436q11 -60 44 -71q16 -5 50 -5h43q12 0 12 -9
t-12 -9q-32 0 -125.5 3t-105.5 3q-11 0 -106.5 -3t-127.5 -3q-12 0 -12 9t12 9h43q51 0 68 15q30 28 38 161q5 93 5 336zM920 889v-236q0 -26 1 -107t1 -110q0 -79 -4 -142.5t-15.5 -119.5t-22.5 -97.5t-35.5 -86t-44.5 -75t-59.5 -74.5t-69 -73.5t-83.5 -82.5
q-39 -37 -96 -78t-78 -41q-23 0 -47 4q-25 6 -40.5 19t-15.5 28q0 37 20.5 71.5t59.5 45.5q16 4 41 4q30 0 76 -1t51 -1q21 0 45.5 9t36.5 22q46 49 70 121.5t36.5 223.5t12.5 418v359q0 357 -12 432q-11 63 -42 75q-14 5 -57 5h-53q-12 0 -12 9t12 9q32 0 133.5 -3
t112.5 -3q12 0 106.5 3t126.5 3q12 0 12 -9t-12 -9h-41q-56 0 -73 -13q-29 -22 -36 -129q-5 -77 -5 -370z" />
    <glyph glyph-name="ij" unicode="&#x133;" horiz-adv-x="878" 
d="M725 1030l2 -930q-4 -123 -57 -226.5t-160 -235.5q-69 -84 -121 -128.5t-98 -44.5q-12 0 -37 5q-45 10 -45 36q0 28 26 63t58 44q12 4 33 4q24 0 59 -1t39 -1q17 0 36.5 7.5t28.5 17.5q1 1 8 9t9.5 11.5t10.5 15.5t12 21.5t10.5 29t10.5 39t9 49t7.5 62t4.5 76t2 92.5
v727q0 78 -12.5 110.5t-42.5 37t-80 -8.5q-13 -3 -15 6q-2 8 9 11q130 29 256 116q5 3 21 -2t16 -12zM154 225v547q0 78 -11.5 110.5t-40.5 37.5t-79 -9q-13 -3 -16 6q-2 8 9 11q130 29 256 116q5 3 21 -2t16 -12v-805q0 -136 19.5 -171.5t103.5 -35.5q12 0 12 -9t-12 -9
q-33 0 -108.5 2t-87.5 2t-93 -2t-114 -2q-12 0 -12 9t12 9q37 0 58.5 5.5t36 16t20.5 37.5t8 58t2 90zM532 1327q0 44 31.5 76.5t75.5 32.5t76.5 -32.5t32.5 -76.5t-32 -75t-77 -31q-44 0 -75.5 31t-31.5 75zM117 1327q0 45 31 77t75 32t76.5 -32.5t32.5 -76.5t-32 -75
t-77 -31q-44 0 -75 31t-31 75z" />
    <glyph glyph-name="Jcircumflex" unicode="&#x134;" horiz-adv-x="583" 
d="M385 889v-236q0 -26 1 -107t1 -110q0 -79 -4 -142.5t-15.5 -119.5t-22.5 -97.5t-35.5 -86t-44.5 -75t-59.5 -74.5t-69 -73.5t-83.5 -82.5q-39 -37 -96 -78t-78 -41q-23 0 -47 4q-25 6 -40 19t-15 28q0 37 20.5 71.5t59.5 45.5q16 4 41 4q30 0 76 -1t51 -1q21 0 45 9
t36 22q46 49 70 121.5t36.5 223.5t12.5 418v359q0 357 -12 431q-10 64 -40 75q-15 6 -58 6h-54q-12 0 -12 9t12 9q32 0 133.5 -3t112.5 -3q12 0 107 3t127 3q12 0 12 -9t-12 -9h-41q-56 0 -73 -13q-29 -22 -37 -130q-5 -79 -5 -369zM309 1868q-8 8 -14 0l-168 -250
q-27 -39 -70 -39q-19 0 -30 9.5t-11 19.5q0 20 37 59q113 117 240 219q3 3 9 3t9 -3q164 -124 248 -198q41 -36 41 -60q0 -14 -13.5 -28.5t-33.5 -14.5q-42 0 -72 43q-19 28 -81 113.5t-91 126.5z" />
    <glyph glyph-name="jcircumflex" unicode="&#x135;" horiz-adv-x="456" 
d="M303 1030l2 -930q-4 -123 -57 -226.5t-160 -235.5q-69 -84 -121 -128.5t-98 -44.5q-12 0 -37 5q-45 10 -45 36q0 28 26 63t58 44q12 4 33 4q24 0 59 -1t39 -1q18 0 37.5 7.5t28.5 17.5q1 1 8 9t9.5 11.5t10.5 15.5t12 21.5t10.5 29t10.5 39t9 49t7.5 62t4.5 76t2 92.5
v727q0 77 -12.5 110.5t-43 37.5t-80.5 -9q-13 -3 -15 6q-2 8 9 11q130 29 256 116q5 3 21 -2t16 -12zM231 1481q-8 8 -14 0l-168 -250q-27 -39 -69 -39q-19 0 -30 9.5t-11 19.5q0 21 36 59q113 117 240 219q3 3 9 3t9 -3q155 -118 248 -199q41 -36 41 -59q0 -14 -13.5 -28.5
t-33.5 -14.5q-42 0 -72 43q-19 28 -81 113.5t-91 126.5z" />
    <glyph glyph-name="Kcommaaccent" unicode="&#x136;" horiz-adv-x="1368" 
d="M498 0q-6 0 -104 2t-115 2t-122.5 -2t-111.5 -2q-12 0 -12 9t12 9q64 0 94 5q21 21 29.5 60t11.5 124q6 169 6 409v273q0 357 -16 436q-11 60 -44 71q-15 5 -50 5h-37q-12 0 -12 9t12 9q32 0 125.5 -3t105.5 -3q11 0 100.5 3t121.5 3q12 0 12 -9t-12 -9h-37
q-44 0 -61 -7.5t-32 -61.5t-17.5 -148.5t-2.5 -294.5v-287l369 397q116 125 176.5 216.5t60.5 136.5q-3 51 -80 51q-9 0 -26.5 -4t-20.5 -4q-18 0 -18 12t22 12q18 0 113 -2t111 -2q11 0 100 2t117 2q7 0 9 -4.5t-0.5 -9t-8.5 -4.5h-4q-87 0 -162 -51q-73 -50 -239 -224
q-37 -39 -132 -139l-197 -211q67 43 144 43q48 0 73.5 -5.5t53.5 -20.5q31 -16 56.5 -39.5t42.5 -46t36 -60.5t30.5 -66t32.5 -80t35 -85q67 -169 111 -251.5t83.5 -114.5t94.5 -32h25q20 0 19 -9t-23 -9h-70q-41 0 -89.5 -4t-58.5 -4q-34 0 -56.5 10.5t-45.5 38.5
q-52 66 -141 309q-71 202 -110 278q-78 150 -165 150q-35 0 -61 -9.5t-68 -45.5l-139 -150v-43q0 -357 16 -437q12 -59 46 -70q14 -5 49 -5h45q12 0 12 -9t-12 -9zM698 -494q-8 -3 -10.5 0t4.5 9q43 25 73 70.5t30 113.5q0 26 -11 55q-23 -41 -71 -41q-37 0 -62.5 25.5
t-25.5 62.5q0 40 27.5 68.5t72.5 28.5q55 0 87 -46t32 -124q0 -69 -49 -131t-97 -91z" />
    <glyph glyph-name="kcommaaccent" unicode="&#x137;" horiz-adv-x="1130" 
d="M1147 0h-193q-46 0 -77 20q-38 24 -83.5 87t-117.5 186l-168 280l-211 -215v-340h125q12 0 12 -9t-12 -9q-6 0 -80.5 2t-93.5 2q-12 0 -88 -2t-109 -2q-12 0 -12 9t12 9q24 0 38 2t25 12.5t16 22.5t8.5 42t4 59.5t0.5 87.5v1151q0 88 -11.5 123.5t-40.5 41.5t-79 -6
q-11 -1 -12 7q-1 9 10 12h2q121 21 248 92q5 3 21 -2t16 -12v-1268l321 332q149 154 137 236q-8 53 -85 53q-7 0 -9.5 4.5t0 9t9.5 4.5q31 0 112.5 -2t91.5 -2q16 0 117.5 2t106.5 2q7 0 9.5 -4.5t0 -9t-9.5 -4.5q-95 0 -205 -73t-260 -229l-27 -26l199 -316
q117 -188 197.5 -265t144.5 -77q8 0 11.5 -4.5t0 -9t-11.5 -4.5zM594 -514q-8 -3 -10.5 -0.5t4.5 8.5q102 59 102 184q0 29 -10 56q-23 -41 -72 -41q-37 0 -62.5 25.5t-25.5 62.5q0 40 27.5 68t73.5 28q55 0 86.5 -46t31.5 -124q0 -69 -48.5 -130.5t-96.5 -90.5z" />
    <glyph glyph-name="kgreenlandic" unicode="&#x138;" horiz-adv-x="1130" 
d="M1147 0h-193q-46 0 -77 20q-38 24 -83.5 87t-117.5 186l-168 280l-209 -213v-135q0 -136 19.5 -171.5t103.5 -35.5q12 0 12 -9t-12 -9q-33 0 -109 2t-88 2t-93 -2t-114 -2q-12 0 -12 9t12 9q37 0 58.5 5.5t36 16t20.5 37.5t8 58t2 90v547q0 78 -11.5 110.5t-40.5 37.5
t-79 -9q-13 -3 -15 6q-2 8 9 11q130 29 256 116q5 3 21 -2t16 -12v-645l319 330q149 154 137 236q-8 53 -85 53q-7 0 -9.5 4.5t0 9t9.5 4.5q31 0 112.5 -2t91.5 -2q16 0 117.5 2t106.5 2q7 0 9.5 -4.5t0 -9t-9.5 -4.5q-95 0 -205 -73t-260 -229l-27 -26l199 -316
q117 -188 197.5 -265t144.5 -77q8 0 11.5 -4.5t0 -9t-11.5 -4.5z" />
    <glyph glyph-name="Lacute" unicode="&#x139;" horiz-adv-x="1247" 
d="M350 889v-559q0 -231 -16 -301q29 0 194 -3t197 -3q85 0 162 43.5t130 113t87.5 151t44.5 161.5l20 186q1 6 7 8t11.5 -0.5t4.5 -9.5l-21 -189q-28 -263 -42.5 -364.5t-24.5 -110.5q-12 -12 -273 -12l-509 6l-289 -6q-15 0 -15 7t15 7q29 0 45.5 2t34 7t26 17.5t17.5 30
t13.5 49.5t8.5 70t8 97q4 63 4.5 165t-1 219t-1.5 134q0 45 -3 197.5t-3 211.5v61t-3 45t-5 34t-11 22t-15.5 15t-24.5 6.5t-32.5 3.5h-43.5q-12 0 -12 9t12 9q6 0 119.5 -2t130.5 -2q12 0 115.5 2t136.5 2q12 0 12 -9t-12 -9h-57q-70 0 -92 -16q-34 -24 -43 -127
q-7 -80 -7 -369zM293 1573q-4 -4 -8 -4q-9 0 -9 8q0 1 7 8q47 44 102.5 114.5t95.5 127t47 63.5q13 13 50 13q29 0 36 -7t7 -38q0 -14 -25 -35q-7 -6 -64 -48t-125.5 -98t-113.5 -104z" />
    <glyph glyph-name="lacute" unicode="&#x13a;" horiz-adv-x="444" 
d="M248 4q-12 0 -88 -2t-109 -2q-12 0 -12 9t12 9q24 0 38 2t25 12.5t16 22.5t8.5 42t4 59.5t0.5 87.5v1151q0 88 -11.5 123.5t-40.5 41.5t-79 -6q-11 -1 -12 7q-1 9 10 12h2q121 21 248 92q5 3 21 -2t16 -12v-1407q0 -44 0.5 -71t3 -54t5 -40.5t10 -27t14.5 -18.5
t21.5 -9.5t28.5 -5t38 -0.5q12 0 12 -9t-12 -9q-33 0 -95.5 2t-74.5 2zM168 1767q-4 -4 -8 -4q-8 0 -8 9q0 2 6 8q47 44 102.5 114.5t95.5 127t47 63.5q12 12 50 12q30 0 36 -6q7 -7 7 -39q0 -14 -25 -35q-7 -6 -64 -48t-125.5 -98t-113.5 -104z" />
    <glyph glyph-name="Lcommaaccent" unicode="&#x13b;" horiz-adv-x="1247" 
d="M350 889v-559q0 -231 -16 -301q29 0 194 -3t197 -3q85 0 162 43.5t130 113t87.5 151t44.5 161.5l20 186q1 6 7 8t11.5 -0.5t4.5 -9.5l-21 -189q-28 -263 -42.5 -364.5t-24.5 -110.5q-12 -12 -273 -12l-509 6l-289 -6q-15 0 -15 7t15 7q29 0 45.5 2t34 7t26 17.5t17.5 30
t13.5 49.5t8.5 70t8 97q4 63 4.5 165t-1 219t-1.5 134q0 45 -3 197.5t-3 211.5v61t-3 45t-5 34t-11 22t-15.5 15t-24.5 6.5t-32.5 3.5h-43.5q-12 0 -12 9t12 9q6 0 119.5 -2t130.5 -2q12 0 115.5 2t136.5 2q12 0 12 -9t-12 -9h-57q-70 0 -92 -16q-34 -24 -43 -127
q-7 -80 -7 -369zM573 -535q-8 -3 -10.5 0t4.5 9q43 25 73 70.5t30 113.5q0 26 -11 55q-23 -41 -71 -41q-37 0 -62.5 25.5t-25.5 62.5q0 40 27.5 68.5t72.5 28.5q55 0 87 -46t32 -124q0 -69 -49 -131t-97 -91z" />
    <glyph glyph-name="lcommaaccent" unicode="&#x13c;" horiz-adv-x="444" 
d="M248 4q-12 0 -88 -2t-109 -2q-12 0 -12 9t12 9q24 0 38 2t25 12.5t16 22.5t8.5 42t4 59.5t0.5 87.5v1151q0 88 -11.5 123.5t-40.5 41.5t-79 -6q-11 -1 -12 7q-1 9 10 12h2q121 21 248 92q5 3 21 -2t16 -12v-1407q0 -44 0.5 -71t3 -54t5 -40.5t10 -27t14.5 -18.5
t21.5 -9.5t28.5 -5t38 -0.5q12 0 12 -9t-12 -9q-33 0 -95.5 2t-74.5 2zM195 -535q-8 -3 -11 0t4 9q43 25 73 70.5t30 113.5q0 28 -10 55q-23 -41 -72 -41q-37 0 -62.5 25.5t-25.5 62.5q0 40 27.5 68.5t72.5 28.5q55 0 87 -46t32 -124q0 -69 -49 -131.5t-96 -90.5z" />
    <glyph glyph-name="Lcaron" unicode="&#x13d;" horiz-adv-x="1247" 
d="M350 889v-559q0 -231 -16 -301q29 0 194 -3t197 -3q85 0 162 43.5t130 113t87.5 151t44.5 161.5l20 186q1 6 7 8t11.5 -0.5t4.5 -9.5l-21 -189q-28 -263 -42.5 -364.5t-24.5 -110.5q-12 -12 -273 -12l-509 6l-289 -6q-15 0 -15 7t15 7q29 0 45.5 2t34 7t26 17.5t17.5 30
t13.5 49.5t8.5 70t8 97q4 63 4.5 165t-1 219t-1.5 134q0 45 -3 197.5t-3 211.5v61t-3 45t-5 34t-11 22t-15.5 15t-24.5 6.5t-32.5 3.5h-43.5q-12 0 -12 9t12 9q6 0 119.5 -2t130.5 -2q12 0 115.5 2t136.5 2q12 0 12 -9t-12 -9h-57q-70 0 -92 -16q-34 -24 -43 -127
q-7 -80 -7 -369zM274 1602q9 -9 15 0l168 249q27 39 69 39q19 0 30 -9t11 -19q0 -21 -37 -60q-116 -121 -239 -219q-3 -3 -9.5 -3t-9.5 3q-147 112 -247 199q-41 36 -41 59q0 14 13.5 28.5t33.5 14.5q41 0 71 -43q19 -27 80.5 -111.5t91.5 -127.5z" />
    <glyph glyph-name="lcaron" unicode="&#x13e;" horiz-adv-x="671" 
d="M248 4q-12 0 -88 -2t-109 -2q-12 0 -12 9t12 9q24 0 38 2t25 12.5t16 22.5t8.5 42t4 59.5t0.5 87.5v1151q0 88 -11.5 123.5t-40.5 41.5t-79 -6q-11 -1 -12 7q-1 9 10 12h2q121 21 248 92q5 3 21 -2t16 -12v-1407q0 -44 0.5 -71t3 -54t5 -40.5t10 -27t14.5 -18.5
t21.5 -9.5t28.5 -5t38 -0.5q12 0 12 -9t-12 -9q-33 0 -95.5 2t-74.5 2zM465 1278q-8 -3 -10.5 -0.5t4.5 8.5q102 59 102 184q0 29 -10 56q-23 -41 -72 -41q-37 0 -62.5 25.5t-25.5 62.5q0 40 27.5 68t73.5 28q55 0 86.5 -46t31.5 -124q0 -69 -48.5 -130.5t-96.5 -90.5z" />
    <glyph glyph-name="Ldot" unicode="&#x13f;" horiz-adv-x="1247" 
d="M350 889v-559q0 -231 -16 -301q29 0 194 -3t197 -3q85 0 162 43.5t130 113t87.5 151t44.5 161.5l20 186q1 6 7 8t11.5 -0.5t4.5 -9.5l-21 -189q-28 -263 -42.5 -364.5t-24.5 -110.5q-12 -12 -273 -12l-509 6l-289 -6q-15 0 -15 7t15 7q29 0 45.5 2t34 7t26 17.5t17.5 30
t13.5 49.5t8.5 70t8 97q4 63 4.5 165t-1 219t-1.5 134q0 45 -3 197.5t-3 211.5v61t-3 45t-5 34t-11 22t-15.5 15t-24.5 6.5t-32.5 3.5h-43.5q-12 0 -12 9t12 9q6 0 119.5 -2t130.5 -2q12 0 115.5 2t136.5 2q12 0 12 -9t-12 -9h-57q-70 0 -92 -16q-34 -24 -43 -127
q-7 -80 -7 -369zM670 770q0 45 31 77t75 32t76.5 -32.5t32.5 -76.5t-32 -75t-77 -31q-44 0 -75 31t-31 75z" />
    <glyph glyph-name="ldot" unicode="&#x140;" horiz-adv-x="718" 
d="M248 4q-12 0 -88 -2t-109 -2q-12 0 -12 9t12 9q24 0 38 2t25 12.5t16 22.5t8.5 42t4 59.5t0.5 87.5v1151q0 88 -11.5 123.5t-40.5 41.5t-79 -6q-11 -1 -12 7q-1 9 10 12h2q121 21 248 92q5 3 21 -2t16 -12v-1407q0 -44 0.5 -71t3 -54t5 -40.5t10 -27t14.5 -18.5
t21.5 -9.5t28.5 -5t38 -0.5q12 0 12 -9t-12 -9q-33 0 -95.5 2t-74.5 2zM442 774q0 44 31.5 76.5t75.5 32.5t76 -32.5t32 -76.5t-32 -75t-76 -31t-75.5 31t-31.5 75z" />
    <glyph glyph-name="Lslash" unicode="&#x141;" horiz-adv-x="1247" 
d="M-72 690q-12 0 -19 17t-1 28q111 41 280 109q-6 306 -6 370v61t-3 45t-5 34t-11 22t-15.5 15t-24.5 6.5t-32.5 3.5h-43.5q-12 0 -12 9t12 9q6 0 119.5 -2t130.5 -2q12 0 115.5 2t136.5 2q12 0 12 -9t-12 -9h-57q-70 0 -92 -16q-34 -25 -43 -129q-7 -79 -7 -359
q54 23 109 49t110 53.5t78 38.5q13 -3 21.5 -19t-0.5 -26q-223 -84 -318 -123v-540q0 -231 -16 -301q29 0 194 -3t197 -3q85 0 162 43.5t130 113t87.5 151t44.5 161.5l20 186q1 6 7 8t11.5 -0.5t4.5 -9.5l-21 -189q-28 -263 -42.5 -364.5t-24.5 -110.5q-12 -12 -273 -12
l-509 6l-289 -6q-15 0 -15 7t15 7q29 0 45.5 2t34 7t26 17.5t17.5 30t13.5 49.5t8.5 70t8 97q4 63 4.5 165t-1 219t-1.5 134v12q-138 -61 -260 -127z" />
    <glyph glyph-name="lslash" unicode="&#x142;" horiz-adv-x="526" 
d="M289 4q-12 0 -88 -2t-109 -2q-12 0 -12 9t12 9q24 0 38 2t25 12.5t16 22.5t8.5 42t4 59.5t0.5 87.5v760q-122 -55 -264 -130q-12 0 -19 17.5t-1 28.5q25 9 77.5 29t104.5 39.5t102 39.5v367q0 88 -11.5 123.5t-40.5 41.5t-79 -6q-11 -1 -12 7q-1 9 10 12h2q121 21 248 92
q5 3 21 -2t16 -12v-572q55 23 109 48.5t114 56t78 39.5q13 -3 20.5 -18.5t-0.5 -26.5q-193 -71 -321 -123v-811q0 -44 0.5 -71t3 -54t5 -40.5t10 -27t14.5 -18.5t21.5 -9.5t28.5 -5t38 -0.5q12 0 12 -9t-12 -9q-33 0 -95.5 2t-74.5 2z" />
    <glyph glyph-name="Nacute" unicode="&#x143;" horiz-adv-x="1466" 
d="M6 1403h-8q-7 0 -9.5 4t0 8t9.5 4q94 0 166 2t106 4l33 2q15 0 21 -12q20 -38 79 -108l852 -1059v641q0 105 -8.5 187t-20.5 135t-32.5 91t-38 56.5t-45 29t-44.5 12t-44 1.5h-29q-12 0 -12 9t12 9q33 0 148 -3t127 -3q11 0 68.5 3t90.5 3q12 0 12 -9t-12 -9h-14
q-30 0 -45 -3t-33 -18t-25.5 -45.5t-15.5 -88.5t-10 -143.5t-2 -213.5v-875q0 -20 -16 -20q-9 0 -24.5 13.5t-27.5 31.5l-987 1231l-2 -740q0 -105 7 -187t17.5 -135t29 -90.5t34.5 -56.5t41.5 -29.5t41.5 -12t44 -1.5h29q7 0 9.5 -4.5t0 -9t-9.5 -4.5q-35 -1 -150.5 2.5
t-119.5 3.5q-12 0 -73 -3t-93 -3q-11 0 -11 9t13 9h12q27 1 43.5 5.5t36 20.5t30.5 49.5t21.5 88.5t15.5 142t5 206l2 736q0 30 -33 63q-38 38 -75 56t-87 18zM618 1552q-4 -4 -8 -4q-8 0 -8 8q0 3 6 9q47 44 102.5 114.5t96 127t47.5 63.5q12 12 49 12q31 0 37 -6t6 -39
q0 -15 -24 -35q-7 -6 -64 -48t-126 -98t-114 -104z" />
    <glyph glyph-name="nacute" unicode="&#x144;" horiz-adv-x="1150" 
d="M1014 629v-428q0 -54 4 -88.5t10 -54t20 -28.5t26.5 -11t37.5 -1q12 0 12 -9t-12 -9q-6 0 -84.5 2t-97.5 2q-12 0 -76.5 -2t-97.5 -2q-12 0 -12 9t12 9q46 0 66 11.5t30 52t10 131.5l-2 436q-1 92 -21.5 159t-56.5 104t-78 54t-92 17q-95 0 -165 -43.5t-144 -142.5v-779
h107q12 0 12 -9t-12 -9q-6 0 -71.5 2t-84.5 2q-12 0 -88 -2t-109 -2q-12 0 -12 9t12 9q28 0 43.5 5t27 15.5t15.5 40.5t5.5 63.5t1.5 101.5v528q0 69 -95 156q-8 8 0 12q103 39 150 86q5 5 12 -2q31 -31 56 -87.5t28 -115.5q82 110 173.5 166.5t205.5 56.5q334 0 334 -415z
M530 1120q-4 -4 -8 -4q-8 0 -8 8q0 3 6 9q47 44 102.5 114.5t96 127t47.5 63.5q12 12 49 12q31 0 37 -6t6 -39q0 -15 -24 -35q-7 -6 -64 -48t-126 -98t-114 -104z" />
    <glyph glyph-name="Ncommaaccent" unicode="&#x145;" horiz-adv-x="1466" 
d="M6 1403h-8q-7 0 -9.5 4t0 8t9.5 4q94 0 166 2t106 4l33 2q15 0 21 -12q20 -38 79 -108l852 -1059v641q0 105 -8.5 187t-20.5 135t-32.5 91t-38 56.5t-45 29t-44.5 12t-44 1.5h-29q-12 0 -12 9t12 9q33 0 148 -3t127 -3q11 0 68.5 3t90.5 3q12 0 12 -9t-12 -9h-14
q-30 0 -45 -3t-33 -18t-25.5 -45.5t-15.5 -88.5t-10 -143.5t-2 -213.5v-875q0 -20 -16 -20q-9 0 -24.5 13.5t-27.5 31.5l-987 1231l-2 -740q0 -105 7 -187t17.5 -135t29 -90.5t34.5 -56.5t41.5 -29.5t41.5 -12t44 -1.5h29q7 0 9.5 -4.5t0 -9t-9.5 -4.5q-35 -1 -150.5 2.5
t-119.5 3.5q-12 0 -73 -3t-93 -3q-11 0 -11 9t13 9h12q27 1 43.5 5.5t36 20.5t30.5 49.5t21.5 88.5t15.5 142t5 206l2 736q0 30 -33 63q-38 38 -75 56t-87 18zM739 -494q-8 -3 -10.5 0t4.5 9q43 25 73 70.5t30 113.5q0 26 -11 55q-23 -41 -71 -41q-37 0 -62.5 25.5
t-25.5 62.5q0 40 27.5 68.5t72.5 28.5q55 0 87 -46t32 -124q0 -69 -49 -131t-97 -91z" />
    <glyph glyph-name="ncommaaccent" unicode="&#x146;" horiz-adv-x="1150" 
d="M1014 629v-428q0 -54 4 -88.5t10 -54t20 -28.5t26.5 -11t37.5 -1q12 0 12 -9t-12 -9q-6 0 -84.5 2t-97.5 2q-12 0 -76.5 -2t-97.5 -2q-12 0 -12 9t12 9q46 0 66 11.5t30 52t10 131.5l-2 436q-1 92 -21.5 159t-56.5 104t-78 54t-92 17q-95 0 -165 -43.5t-144 -142.5v-779
h107q12 0 12 -9t-12 -9q-6 0 -71.5 2t-84.5 2q-12 0 -88 -2t-109 -2q-12 0 -12 9t12 9q28 0 43.5 5t27 15.5t15.5 40.5t5.5 63.5t1.5 101.5v528q0 69 -95 156q-8 8 0 12q103 39 150 86q5 5 12 -2q31 -31 56 -87.5t28 -115.5q82 110 173.5 166.5t205.5 56.5q334 0 334 -415z
M547 -514q-8 -3 -10.5 -0.5t4.5 8.5q102 59 102 184q0 29 -10 56q-23 -41 -72 -41q-37 0 -62.5 25.5t-25.5 62.5q0 40 27 68t73 28q55 0 87 -46t32 -124q0 -69 -48.5 -130.5t-96.5 -90.5z" />
    <glyph glyph-name="Ncaron" unicode="&#x147;" horiz-adv-x="1466" 
d="M6 1403h-8q-7 0 -9.5 4t0 8t9.5 4q94 0 166 2t106 4l33 2q15 0 21 -12q20 -38 79 -108l852 -1059v641q0 105 -8.5 187t-20.5 135t-32.5 91t-38 56.5t-45 29t-44.5 12t-44 1.5h-29q-12 0 -12 9t12 9q33 0 148 -3t127 -3q11 0 68.5 3t90.5 3q12 0 12 -9t-12 -9h-14
q-30 0 -45 -3t-33 -18t-25.5 -45.5t-15.5 -88.5t-10 -143.5t-2 -213.5v-875q0 -20 -16 -20q-9 0 -24.5 13.5t-27.5 31.5l-987 1231l-2 -740q0 -105 7 -187t17.5 -135t29 -90.5t34.5 -56.5t41.5 -29.5t41.5 -12t44 -1.5h29q7 0 9.5 -4.5t0 -9t-9.5 -4.5q-35 -1 -150.5 2.5
t-119.5 3.5q-12 0 -73 -3t-93 -3q-11 0 -11 9t13 9h12q27 1 43.5 5.5t36 20.5t30.5 49.5t21.5 88.5t15.5 142t5 206l2 736q0 30 -33 63q-38 38 -75 56t-87 18zM727 1602q8 -8 14 0l168 249q27 39 70 39q19 0 30 -9t11 -19q0 -21 -37 -60q-113 -117 -240 -219q-3 -3 -9 -3
t-9 3q-155 118 -248 199q-41 36 -41 59q0 14 13.5 28.5t33.5 14.5q42 0 72 -43q19 -27 80.5 -111.5t91.5 -127.5z" />
    <glyph glyph-name="ncaron" unicode="&#x148;" horiz-adv-x="1150" 
d="M1014 629v-428q0 -54 4 -88.5t10 -54t20 -28.5t26.5 -11t37.5 -1q12 0 12 -9t-12 -9q-6 0 -84.5 2t-97.5 2q-12 0 -76.5 -2t-97.5 -2q-12 0 -12 9t12 9q46 0 66 11.5t30 52t10 131.5l-2 436q-1 92 -21.5 159t-56.5 104t-78 54t-92 17q-95 0 -165 -43.5t-144 -142.5v-779
h107q12 0 12 -9t-12 -9q-6 0 -71.5 2t-84.5 2q-12 0 -88 -2t-109 -2q-12 0 -12 9t12 9q28 0 43.5 5t27 15.5t15.5 40.5t5.5 63.5t1.5 101.5v528q0 69 -95 156q-8 8 0 12q103 39 150 86q5 5 12 -2q31 -31 56 -87.5t28 -115.5q82 110 173.5 166.5t205.5 56.5q334 0 334 -415z
M604 1198q8 -8 14 0l168 250q27 39 70 39q19 0 30 -9.5t11 -19.5q0 -20 -37 -59q-116 -121 -239 -219q-3 -3 -9.5 -3t-9.5 3q-164 124 -248 198q-41 36 -41 60q0 14 13.5 28.5t33.5 14.5q42 0 72 -43q19 -28 81 -113.5t91 -126.5z" />
    <glyph glyph-name="Eng" unicode="&#x14a;" horiz-adv-x="1466" 
d="M440 18h29q7 0 9.5 -4.5t0 -9t-9.5 -4.5q-35 -1 -150.5 2.5t-119.5 3.5q-12 0 -73 -3t-93 -3q-11 0 -11 9t13 9h12q27 1 43.5 5.5t36 20.5t30.5 49.5t21.5 88.5t15.5 142t5 206l2 736q0 30 -33 63q-38 38 -75 56t-87 18h-8q-7 0 -9.5 4t0 8t9.5 4q94 0 166 2t106 4l33 2
q15 0 21 -12q20 -38 79 -108l852 -1059v641q0 105 -8.5 187t-20.5 135t-32.5 91t-38 56.5t-45 29t-44.5 12t-44 1.5h-29q-12 0 -12 9t12 9q33 0 148 -3t127 -3q11 0 68.5 3t90.5 3q12 0 12 -9t-12 -9h-14q-30 0 -45 -3t-33 -18t-25.5 -45.5t-15.5 -88.5t-10 -143.5
t-2 -213.5l-2 -236q0 -26 1 -215.5t1 -218.5q0 -166 -10 -230q-26 -159 -149 -286q-8 -9 -17 -18q-39 -37 -96 -78t-78 -41q-23 0 -47 4q-25 6 -40.5 19t-15.5 28q0 37 20.5 71.5t59.5 45.5q16 4 41 4q30 0 76 -1t51 -1q20 0 45 11.5t37 25.5q74 82 74 186q0 63 -45 119
l-961 1192l-2 -740q0 -105 7 -187t17.5 -135t29 -90.5t34.5 -56.5t41.5 -29.5t41.5 -12t44 -1.5z" />
    <glyph glyph-name="eng" unicode="&#x14b;" horiz-adv-x="1150" 
d="M860 45v604q-1 92 -21.5 159t-56.5 104t-78 54t-92 17q-95 0 -165 -43.5t-144 -142.5v-779h107q12 0 12 -9t-12 -9q-6 0 -71.5 2t-84.5 2q-12 0 -88 -2t-109 -2q-12 0 -12 9t12 9q28 0 43.5 5t27 15.5t15.5 40.5t5.5 63.5t1.5 101.5v528q0 69 -95 156q-8 8 0 12
q103 39 150 86q5 5 12 -2q31 -31 56 -87.5t28 -115.5q82 110 173.5 166.5t205.5 56.5q334 0 334 -415v-529q-4 -123 -57 -226.5t-160 -235.5q-69 -84 -121 -128.5t-98 -44.5q-12 0 -37 5q-45 10 -45 36q0 28 26 63t58 44q12 4 32 4q24 0 59.5 -1t39.5 -1q17 0 36.5 7.5
t28.5 17.5q1 1 8 9t9.5 11.5t10.5 15.5t12 21.5t10.5 29t10.5 39t9 49t7.5 62t4.5 76t2 92.5z" />
    <glyph glyph-name="Omacron" unicode="&#x14c;" horiz-adv-x="1626" 
d="M88 709q0 156 59.5 294t159.5 233t232.5 149.5t275.5 54.5t275 -55.5t230 -151t157 -232.5t59 -292q0 -204 -103 -373t-270.5 -262.5t-359.5 -93.5q-143 0 -274 55.5t-228 151t-155 232t-58 290.5zM272 709q0 -321 138.5 -515t384.5 -194q165 0 292.5 89t197 250.5
t69.5 369.5q0 321 -142 515.5t-389 194.5q-250 0 -400.5 -196t-150.5 -514zM819 1704h2q117 0 185 2q71 2 71 -2q0 -14 -94 -105q-1 0 -59.5 1.5t-100.5 1.5q-28 0 -50.5 -1t-51 -2t-53.5 -2q-72 -2 -72 5q0 13 94 104q1 0 44 -1t85 -1z" />
    <glyph glyph-name="omacron" unicode="&#x14d;" horiz-adv-x="1189" 
d="M582 -20q-144 0 -259.5 63t-182 180.5t-66.5 268.5q0 147 68.5 273t193.5 202.5t278 76.5q220 0 362 -142.5t142 -375.5q0 -99 -41 -197t-110.5 -175t-171 -125.5t-213.5 -48.5zM616 2q161 0 248.5 131t87.5 361q0 131 -42.5 250.5t-127 199.5t-192.5 80
q-174 0 -260 -132.5t-86 -365.5q0 -96 25 -188.5t71 -168t118 -121.5t158 -46zM600 1303h2q116 0 184 2q72 2 72 -2q0 -14 -94 -105q-1 0 -59.5 1t-100.5 1q-19 0 -155 -4q-72 -2 -72 4q0 14 94 105q1 0 44 -1t85 -1z" />
    <glyph glyph-name="Obreve" unicode="&#x14e;" horiz-adv-x="1626" 
d="M88 709q0 156 59.5 294t159.5 233t232.5 149.5t275.5 54.5t275 -55.5t230 -151t157 -232.5t59 -292q0 -204 -103 -373t-270.5 -262.5t-359.5 -93.5q-143 0 -274 55.5t-228 151t-155 232t-58 290.5zM272 709q0 -321 138.5 -515t384.5 -194q165 0 292.5 89t197 250.5
t69.5 369.5q0 321 -142 515.5t-389 194.5q-250 0 -400.5 -196t-150.5 -514zM840 1599q-130 0 -244 148q-12 15 -12 25q0 15 47 28q31 9 43 8t22 -14q63 -80 108 -116t101 -36q40 0 81 40t73 114q6 14 22 14q10 0 16.5 -7.5t0.5 -14.5q-44 -75 -116 -130.5t-142 -58.5z" />
    <glyph glyph-name="obreve" unicode="&#x14f;" horiz-adv-x="1189" 
d="M582 -20q-144 0 -259.5 63t-182 180.5t-66.5 268.5q0 147 68.5 273t193.5 202.5t278 76.5q220 0 362 -142.5t142 -375.5q0 -99 -41 -197t-110.5 -175t-171 -125.5t-213.5 -48.5zM616 2q161 0 248.5 131t87.5 361q0 131 -42.5 250.5t-127 199.5t-192.5 80
q-174 0 -260 -132.5t-86 -365.5q0 -96 25 -188.5t71 -168t118 -121.5t158 -46zM594 1200q-130 0 -244 148q-12 15 -12 24q0 3 4 7.5t15.5 10.5t27.5 11q31 9 43.5 8t22.5 -14q63 -80 108 -116t100 -36q40 0 81 40t73 114q6 14 23 14q10 0 16 -7.5t0 -14.5
q-44 -75 -116 -130.5t-142 -58.5z" />
    <glyph glyph-name="Ohungarumlaut" unicode="&#x150;" horiz-adv-x="1626" 
d="M88 709q0 156 59.5 294t159.5 233t232.5 149.5t275.5 54.5t275 -55.5t230 -151t157 -232.5t59 -292q0 -204 -103 -373t-270.5 -262.5t-359.5 -93.5q-143 0 -274 55.5t-228 151t-155 232t-58 290.5zM272 709q0 -321 138.5 -515t384.5 -194q165 0 292.5 89t197 250.5
t69.5 369.5q0 321 -142 515.5t-389 194.5q-250 0 -400.5 -196t-150.5 -514zM702 1554q0 -4 -6 -4q-8 0 -12 9q0 4 4 8q49 57 109.5 175t62.5 120q7 12 43 12q27 0 39 -6q6 -6 6 -37q0 -17 -18 -35q-4 -5 -48 -46.5t-95.5 -95.5t-84.5 -100zM932 1554q-4 -4 -8 -4q-6 0 -11 9
q0 1 7 8q44 42 94.5 111t85.5 123.5t41 60.5q10 12 47 12q28 0 37 -6q6 -6 6 -37q0 -16 -23 -35q-5 -4 -58 -46t-114.5 -96t-103.5 -100z" />
    <glyph glyph-name="ohungarumlaut" unicode="&#x151;" horiz-adv-x="1189" 
d="M582 -20q-144 0 -259.5 63t-182 180.5t-66.5 268.5q0 147 68.5 273t193.5 202.5t278 76.5q220 0 362 -142.5t142 -375.5q0 -99 -41 -197t-110.5 -175t-171 -125.5t-213.5 -48.5zM616 2q161 0 248.5 131t87.5 361q0 131 -42.5 250.5t-127 199.5t-192.5 80
q-174 0 -260 -132.5t-86 -365.5q0 -96 25 -188.5t71 -168t118 -121.5t158 -46zM444 1145q0 -4 -6 -4q-8 0 -12 8q0 4 4 8q49 57 109.5 175t62.5 120q7 12 43 12q27 0 39 -6q6 -6 6 -37q0 -17 -18 -35q-4 -5 -48 -46t-95.5 -95t-84.5 -100zM674 1145q-4 -4 -8 -4q-7 0 -11 8
q0 1 7 8q44 42 94.5 111t85.5 123.5t41 60.5q10 12 47 12q28 0 37 -6q6 -6 6 -37q0 -16 -23 -35q-5 -4 -57.5 -45.5t-114.5 -95.5t-104 -100z" />
    <glyph glyph-name="OE" unicode="&#x152;" horiz-adv-x="2222" 
d="M1276 889v-141h199q93 0 156 16t96 49t46 73t13 97v43q0 12 10 12t10 -12q0 -33 -5 -156t-5 -135q0 -14 5 -139t5 -141q0 -12 -10 -12t-10 12v30q0 57 -13 97.5t-46 74t-96 50t-156 16.5h-199v-393q0 -231 -16 -301q29 0 192 -3t195 -3q114 0 210 60t152 153t70 200
l12 109q1 6 7 8t11.5 -0.5t4.5 -9.5l-13 -111q-28 -248 -40 -331.5t-23 -92.5q-8 -8 -273 -8l-518 6l-356 -6q-78 -20 -160 -20q-143 0 -274 55.5t-228 151t-155 232t-58 290.5q0 156 59.5 294t159.5 233t232.5 149.5t275.5 54.5q76 0 158 -21q37 0 171 -3t145 -3q9 0 331 3
t365 3q80 0 96 -8q2 -1 4.5 -10.5t6 -29t7 -41t8.5 -57.5t9.5 -68t11 -81.5t12.5 -89.5l9 -73q3 -10 -7 -10q-11 0 -14 10l-10 73q-29 171 -142.5 265t-289.5 96h-260q-29 0 -40 -2.5t-22.5 -19t-13 -47.5t-2.5 -94t-1 -153q1 -117 1 -190zM201 709q0 -211 60 -370t179 -249
t283 -90q112 0 187.5 23.5t118 73t62 110.5t25.5 151l4 174q0 26 -1 85t-1 92q0 168 -6 269t-26.5 195.5t-60.5 142t-106.5 75.5t-166.5 28q-250 0 -400.5 -196t-150.5 -514z" />
    <glyph glyph-name="oe" unicode="&#x153;" horiz-adv-x="1992" 
d="M1499 -20q-163 0 -284.5 69t-182.5 191q-74 -116 -192 -188t-258 -72q-144 0 -259.5 63t-182 180.5t-66.5 268.5q0 147 68.5 273t193.5 202.5t278 76.5q157 0 277 -74t180 -208q80 126 211 204t268 78q84 0 151 -20t106 -50t64 -68.5t32.5 -73t3.5 -64.5q-7 -63 -86 -63
h-701q-16 -75 -16 -158q0 -188 146 -318.5t354 -130.5q344 0 530 402q6 15 13 16q9 1 2 -16q0 -2 -1 -4q-43 -99 -105 -187.5t-143.5 -164t-185.5 -120t-215 -44.5zM616 2q161 0 248.5 131t87.5 361q0 131 -42.5 250.5t-127 199.5t-192.5 80q-174 0 -260 -132.5t-86 -365.5
q0 -96 25 -188.5t71 -168t118 -121.5t158 -46zM1628 729q20 0 48.5 7t33.5 12q19 22 19 65q0 67 -63.5 126.5t-172.5 59.5q-135 0 -232.5 -71.5t-136.5 -206.5q128 0 289 4t215 4z" />
    <glyph glyph-name="Racute" unicode="&#x154;" horiz-adv-x="1314" 
d="M270 4q-17 0 -118 -2t-107 -2q-12 0 -12 9t12 9q64 0 94 5q21 21 29.5 60t11.5 124q6 169 6 409v273q0 357 -16 436q-11 60 -44 71q-15 5 -50 5h-37q-12 0 -12 9t12 9q32 0 123.5 -3t103.5 -3q14 0 124 3t128 3q261 0 392.5 -86t131.5 -250q0 -83 -64 -153.5t-160.5 -114
t-211.5 -63.5q90 -2 148 -31t110 -98t121 -207q88 -186 137 -266t89.5 -106t107.5 -26h14q9 0 12.5 -4.5t0 -9t-12.5 -4.5h-73q-41 0 -86.5 -4t-55.5 -4q-34 0 -56.5 10.5t-47.5 38.5q-74 85 -170 309q-40 91 -70 151.5t-62 105t-57.5 68.5t-63.5 38.5t-73 18.5t-92 5h-84
v-207q0 -357 16 -437q12 -59 46 -70q14 -5 49 -5h41q12 0 12 -9t-12 -9q-32 0 -122.5 2t-101.5 2zM342 1092v-334q39 2 172 2q62 0 121 18.5t110.5 55.5t83 101.5t31.5 147.5q0 163 -84.5 240.5t-273.5 77.5h-80q-57 0 -68.5 -42.5t-11.5 -266.5zM543 1552q-4 -4 -8 -4
q-9 0 -9 8q0 3 6 9q47 44 102.5 114.5t96 127t47.5 63.5q12 12 49 12q31 0 37 -6t6 -39q0 -15 -24 -35q-7 -6 -64 -48t-125.5 -98t-113.5 -104z" />
    <glyph glyph-name="racute" unicode="&#x155;" horiz-adv-x="669" 
d="M440 1010q52 34 117 34q92 0 92 -36q0 -33 -27 -70t-75 -37h-76q-40 0 -63.5 -2t-43.5 -10t-29.5 -19.5t-16 -36t-8 -52.5t-1.5 -76v-687h125q12 0 12 -9t-12 -9q-6 0 -84.5 2t-97.5 2q-12 0 -94 -2t-115 -2q-12 0 -12 9t12 9q55 0 76 13t30 58t9 155v528q0 69 -95 156
q-8 8 0 12q32 12 75 37t67 49q5 5 12 -2q30 -28 56 -80t32 -108q17 61 51 100.5t84 73.5zM346 1135q-5 -5 -8 -5q-8 0 -8 9q0 2 6 8q47 44 102.5 114.5t96 127t47.5 63.5q12 12 49 12q31 0 37 -6t6 -39q0 -14 -25 -35q-7 -6 -63.5 -47.5t-125.5 -97.5t-114 -104z" />
    <glyph glyph-name="Rcommaaccent" unicode="&#x156;" horiz-adv-x="1314" 
d="M270 4q-17 0 -118 -2t-107 -2q-12 0 -12 9t12 9q64 0 94 5q21 21 29.5 60t11.5 124q6 169 6 409v273q0 357 -16 436q-11 60 -44 71q-15 5 -50 5h-37q-12 0 -12 9t12 9q32 0 123.5 -3t103.5 -3q14 0 124 3t128 3q261 0 392.5 -86t131.5 -250q0 -83 -64 -153.5t-160.5 -114
t-211.5 -63.5q90 -2 148 -31t110 -98t121 -207q88 -186 137 -266t89.5 -106t107.5 -26h14q9 0 12.5 -4.5t0 -9t-12.5 -4.5h-73q-41 0 -86.5 -4t-55.5 -4q-34 0 -56.5 10.5t-47.5 38.5q-74 85 -170 309q-40 91 -70 151.5t-62 105t-57.5 68.5t-63.5 38.5t-73 18.5t-92 5h-84
v-207q0 -357 16 -437q12 -59 46 -70q14 -5 49 -5h41q12 0 12 -9t-12 -9q-32 0 -122.5 2t-101.5 2zM342 1092v-334q39 2 172 2q62 0 121 18.5t110.5 55.5t83 101.5t31.5 147.5q0 163 -84.5 240.5t-273.5 77.5h-80q-57 0 -68.5 -42.5t-11.5 -266.5zM698 -494q-8 -3 -10.5 0
t4.5 9q43 25 73 70.5t30 113.5q0 26 -11 55q-23 -41 -71 -41q-37 0 -62.5 25.5t-25.5 62.5q0 40 27.5 68.5t72.5 28.5q55 0 87 -46t32 -124q0 -69 -49 -131t-97 -91z" />
    <glyph glyph-name="rcommaaccent" unicode="&#x157;" horiz-adv-x="669" 
d="M440 1010q52 34 117 34q92 0 92 -36q0 -33 -27 -70t-75 -37h-76q-40 0 -63.5 -2t-43.5 -10t-29.5 -19.5t-16 -36t-8 -52.5t-1.5 -76v-687h125q12 0 12 -9t-12 -9q-6 0 -84.5 2t-97.5 2q-12 0 -94 -2t-115 -2q-12 0 -12 9t12 9q55 0 76 13t30 58t9 155v528q0 69 -95 156
q-8 8 0 12q32 12 75 37t67 49q5 5 12 -2q30 -28 56 -80t32 -108q17 61 51 100.5t84 73.5zM205 -535q-8 -3 -10.5 0t4.5 9q102 59 102 184q0 28 -10 55q-23 -41 -72 -41q-37 0 -62.5 25.5t-25.5 62.5q0 40 27.5 68.5t72.5 28.5q55 0 87 -46t32 -124q0 -69 -49 -131.5
t-96 -90.5z" />
    <glyph glyph-name="Rcaron" unicode="&#x158;" horiz-adv-x="1314" 
d="M270 4q-17 0 -118 -2t-107 -2q-12 0 -12 9t12 9q64 0 94 5q21 21 29.5 60t11.5 124q6 169 6 409v273q0 357 -16 436q-11 60 -44 71q-15 5 -50 5h-37q-12 0 -12 9t12 9q32 0 123.5 -3t103.5 -3q14 0 124 3t128 3q261 0 392.5 -86t131.5 -250q0 -83 -64 -153.5t-160.5 -114
t-211.5 -63.5q90 -2 148 -31t110 -98t121 -207q88 -186 137 -266t89.5 -106t107.5 -26h14q9 0 12.5 -4.5t0 -9t-12.5 -4.5h-73q-41 0 -86.5 -4t-55.5 -4q-34 0 -56.5 10.5t-47.5 38.5q-74 85 -170 309q-40 91 -70 151.5t-62 105t-57.5 68.5t-63.5 38.5t-73 18.5t-92 5h-84
v-207q0 -357 16 -437q12 -59 46 -70q14 -5 49 -5h41q12 0 12 -9t-12 -9q-32 0 -122.5 2t-101.5 2zM342 1092v-334q39 2 172 2q62 0 121 18.5t110.5 55.5t83 101.5t31.5 147.5q0 163 -84.5 240.5t-273.5 77.5h-80q-57 0 -68.5 -42.5t-11.5 -266.5zM555 1602q8 -8 14 0
l168 249q27 39 70 39q19 0 30 -9t11 -19q0 -21 -37 -60q-113 -117 -240 -219q-3 -3 -9 -3t-9 3q-155 118 -248 199q-41 36 -41 59q0 14 13.5 28.5t33.5 14.5q42 0 72 -43q19 -27 80.5 -111.5t91.5 -127.5z" />
    <glyph glyph-name="rcaron" unicode="&#x159;" horiz-adv-x="669" 
d="M440 1010q52 34 117 34q92 0 92 -36q0 -33 -27 -70t-75 -37h-76q-40 0 -63.5 -2t-43.5 -10t-29.5 -19.5t-16 -36t-8 -52.5t-1.5 -76v-687h125q12 0 12 -9t-12 -9q-6 0 -84.5 2t-97.5 2q-12 0 -94 -2t-115 -2q-12 0 -12 9t12 9q55 0 76 13t30 58t9 155v528q0 69 -95 156
q-8 8 0 12q32 12 75 37t67 49q5 5 12 -2q30 -28 56 -80t32 -108q17 61 51 100.5t84 73.5zM358 1198q9 -9 15 0l168 250q27 39 69 39q19 0 30 -9.5t11 -19.5q0 -20 -37 -59q-116 -121 -239 -219q-3 -3 -9.5 -3t-9.5 3q-156 119 -247 198q-41 36 -41 60q0 14 13.5 28.5
t33.5 14.5q41 0 71 -43q19 -28 81 -113.5t91 -126.5z" />
    <glyph glyph-name="Sacute" unicode="&#x15a;" horiz-adv-x="1148" 
d="M567 1440q96 0 183.5 -9t138.5 -18.5t125 -26.5q12 -3 16.5 -7t5.5 -15q1 -15 -1.5 -69t-6.5 -173t-4 -258q0 -13 -5 -18t-10 0t-5 18q1 103 -7 179.5t-35 151t-74.5 121t-128 75t-192.5 28.5q-179 0 -264.5 -74t-85.5 -198q0 -68 29 -122t101 -101t119.5 -70.5
t154.5 -69.5q12 -5 18 -8q50 -20 80.5 -33.5t75.5 -35t73.5 -39.5t63.5 -43t56.5 -51t41 -57t28.5 -67t9 -77q0 -174 -129 -283.5t-317 -109.5q-155 0 -256 14t-222 47q-13 3 -16.5 7t-3.5 13q0 46 -1 260t-1 265q0 14 5.5 19.5t11 0t5.5 -19.5q0 -293 114 -439.5
t364 -146.5q162 0 242.5 74.5t80.5 201.5q0 57 -23 105.5t-58.5 83t-91.5 68t-107 57t-121 52.5q-9 3 -13 5q-59 24 -94.5 39.5t-88 41.5t-84.5 47.5t-69 53t-57.5 63.5t-34.5 73t-14 86q0 177 138.5 283t340.5 106zM502 1552q-4 -4 -8 -4q-9 0 -9 8q0 2 7 9
q47 44 102.5 114.5t95.5 127t47 63.5q12 12 49 12q31 0 37 -6t6 -39q0 -15 -24 -35q-7 -6 -64 -48t-125.5 -98t-113.5 -104z" />
    <glyph glyph-name="sacute" unicode="&#x15b;" horiz-adv-x="909" 
d="M80 739q0 76 35 136.5t91.5 96t121.5 54t131 18.5q60 0 111.5 -3.5t74 -6t80 -12t76.5 -12.5q14 -2 14 -17q0 -32 -5 -176.5t-5 -181.5q0 -12 -8.5 -12t-8.5 12q0 195 -76 294t-251 99q-126 0 -204.5 -49.5t-78.5 -128.5q0 -29 10.5 -55t24 -45t42.5 -39t49.5 -32
t62.5 -29t64 -25t71 -25q47 -16 74.5 -26t69.5 -28t67 -33.5t54.5 -39.5t46 -48.5t27.5 -58t11 -71.5q0 -136 -105.5 -225.5t-261.5 -89.5q-74 0 -141.5 9t-102 18t-87 26t-64.5 20q-14 3 -14 29q0 6 3 38.5t6 115t3 210.5q0 8 4 12t8 0t4 -12q0 -230 85.5 -339t295.5 -109
q140 0 203.5 56t63.5 149q0 34 -11.5 63t-37.5 53t-50.5 41t-69.5 35.5t-74 29t-83 28.5q-52 17 -86 30t-79 32.5t-73.5 40.5t-55 48t-39.5 61t-13 74zM324 1145q-4 -4 -9 -4q-8 0 -8 8q0 2 6 8q47 44 102.5 114.5t96 127t47.5 63.5q13 13 49 13q30 0 37 -7q6 -6 6 -38
q0 -15 -24 -35q-7 -6 -64 -48t-125.5 -98t-113.5 -104z" />
    <glyph glyph-name="Scircumflex" unicode="&#x15c;" horiz-adv-x="1148" 
d="M567 1440q96 0 183.5 -9t138.5 -18.5t125 -26.5q12 -3 16.5 -7t5.5 -15q1 -15 -1.5 -69t-6.5 -173t-4 -258q0 -13 -5 -18t-10 0t-5 18q1 103 -7 179.5t-35 151t-74.5 121t-128 75t-192.5 28.5q-179 0 -264.5 -74t-85.5 -198q0 -68 29 -122t101 -101t119.5 -70.5
t154.5 -69.5q12 -5 18 -8q50 -20 80.5 -33.5t75.5 -35t73.5 -39.5t63.5 -43t56.5 -51t41 -57t28.5 -67t9 -77q0 -174 -129 -283.5t-317 -109.5q-155 0 -256 14t-222 47q-13 3 -16.5 7t-3.5 13q0 46 -1 260t-1 265q0 14 5.5 19.5t11 0t5.5 -19.5q0 -293 114 -439.5
t364 -146.5q162 0 242.5 74.5t80.5 201.5q0 57 -23 105.5t-58.5 83t-91.5 68t-107 57t-121 52.5q-9 3 -13 5q-59 24 -94.5 39.5t-88 41.5t-84.5 47.5t-69 53t-57.5 63.5t-34.5 73t-14 86q0 177 138.5 283t340.5 106zM612 1868q-8 8 -14 0l-168 -250q-27 -39 -70 -39
q-19 0 -30 9.5t-11 19.5q0 20 37 59q113 117 240 219q3 3 9 3t9 -3q164 -124 248 -198q41 -36 41 -60q0 -14 -13.5 -28.5t-33.5 -14.5q-42 0 -72 43q-19 28 -81 113.5t-91 126.5z" />
    <glyph glyph-name="scircumflex" unicode="&#x15d;" horiz-adv-x="909" 
d="M80 739q0 76 35 136.5t91.5 96t121.5 54t131 18.5q60 0 111.5 -3.5t74 -6t80 -12t76.5 -12.5q14 -2 14 -17q0 -32 -5 -176.5t-5 -181.5q0 -12 -8.5 -12t-8.5 12q0 195 -76 294t-251 99q-126 0 -204.5 -49.5t-78.5 -128.5q0 -29 10.5 -55t24 -45t42.5 -39t49.5 -32
t62.5 -29t64 -25t71 -25q47 -16 74.5 -26t69.5 -28t67 -33.5t54.5 -39.5t46 -48.5t27.5 -58t11 -71.5q0 -136 -105.5 -225.5t-261.5 -89.5q-74 0 -141.5 9t-102 18t-87 26t-64.5 20q-14 3 -14 29q0 6 3 38.5t6 115t3 210.5q0 8 4 12t8 0t4 -12q0 -230 85.5 -339t295.5 -109
q140 0 203.5 56t63.5 149q0 34 -11.5 63t-37.5 53t-50.5 41t-69.5 35.5t-74 29t-83 28.5q-52 17 -86 30t-79 32.5t-73.5 40.5t-55 48t-39.5 61t-13 74zM477 1470q-8 8 -14 0l-168 -249q-27 -39 -70 -39q-19 0 -30 9t-11 19q0 21 37 60q113 117 240 219q3 3 9 3t9 -3
q155 -118 248 -199q41 -36 41 -59q0 -14 -13.5 -28.5t-33.5 -14.5q-42 0 -72 43q-19 27 -80.5 111.5t-91.5 127.5z" />
    <glyph glyph-name="Scedilla" unicode="&#x15e;" horiz-adv-x="1148" 
d="M567 1440q96 0 183.5 -9t138.5 -18.5t125 -26.5q12 -3 16.5 -7t5.5 -15q1 -15 -1.5 -69t-6.5 -173t-4 -258q0 -13 -5 -18t-10 0t-5 18q1 103 -7 179.5t-35 151t-74.5 121t-128 75t-192.5 28.5q-179 0 -264.5 -74t-85.5 -198q0 -68 29 -122t101 -101t119.5 -70.5
t154.5 -69.5q12 -5 18 -8q50 -20 80.5 -33.5t75.5 -35t73.5 -39.5t63.5 -43t56.5 -51t41 -57t28.5 -67t9 -77q0 -174 -129 -283.5t-317 -109.5h-5l-84 -125q0 -7 11 -7q139 0 211.5 -44.5t72.5 -102.5t-31 -123.5t-90.5 -113.5t-127.5 -48q-70 0 -121 22.5t-51 55.5
q0 35 22 60.5t55 25.5q30 0 61 -23t65 -46t73 -23q40 0 67 35t27 78q0 41 -28 71.5t-104.5 51.5t-197.5 20q-21 0 -8 20l160 216q-147 1 -245 15.5t-210 45.5q-13 3 -16.5 7t-3.5 13q0 46 -1 260t-1 265q0 14 5.5 19.5t11 0t5.5 -19.5q0 -293 114 -439.5t364 -146.5
q162 0 242.5 74.5t80.5 201.5q0 57 -23 105.5t-58.5 83t-91.5 68t-107 57t-121 52.5q-9 3 -13 5q-59 24 -94.5 39.5t-88 41.5t-84.5 47.5t-69 53t-57.5 63.5t-34.5 73t-14 86q0 177 138.5 283t340.5 106z" />
    <glyph glyph-name="scedilla" unicode="&#x15f;" horiz-adv-x="909" 
d="M80 739q0 76 35 136.5t91.5 96t121.5 54t131 18.5q60 0 111.5 -3.5t74 -6t80 -12t76.5 -12.5q14 -2 14 -17q0 -32 -5 -176.5t-5 -181.5q0 -12 -8.5 -12t-8.5 12q0 195 -76 294t-251 99q-126 0 -204.5 -49.5t-78.5 -128.5q0 -29 10.5 -55t24 -45t42.5 -39t49.5 -32
t62.5 -29t64 -25t71 -25q47 -16 74.5 -26t69.5 -28t67 -33.5t54.5 -39.5t46 -48.5t27.5 -58t11 -71.5q0 -136 -105.5 -225.5t-261.5 -89.5h-4l-84 -125q0 -7 11 -7q139 0 211.5 -44.5t72.5 -102.5t-31.5 -123.5t-91 -113.5t-127.5 -48q-70 0 -121 22.5t-51 55.5
q0 35 22.5 60.5t55.5 25.5q30 0 61 -23t65 -46t73 -23q40 0 67 35t27 78q0 41 -28 71.5t-104.5 51.5t-197.5 20q-21 0 -8 20q20 27 77.5 104t82.5 112q-69 1 -133.5 10.5t-95 17.5t-84 25.5t-60.5 19.5q-14 3 -14 29q0 6 3 38.5t6 115t3 210.5q0 8 4 12t8 0t4 -12
q0 -230 85.5 -339t295.5 -109q140 0 203.5 56t63.5 149q0 34 -11.5 63t-37.5 53t-50.5 41t-69.5 35.5t-74 29t-83 28.5q-52 17 -86 30t-79 32.5t-73.5 40.5t-55 48t-39.5 61t-13 74z" />
    <glyph glyph-name="Scaron" unicode="&#x160;" horiz-adv-x="1148" 
d="M567 1440q96 0 183.5 -9t138.5 -18.5t125 -26.5q12 -3 16.5 -7t5.5 -15q1 -15 -1.5 -69t-6.5 -173t-4 -258q0 -13 -5 -18t-10 0t-5 18q1 103 -7 179.5t-35 151t-74.5 121t-128 75t-192.5 28.5q-179 0 -264.5 -74t-85.5 -198q0 -68 29 -122t101 -101t119.5 -70.5
t154.5 -69.5q12 -5 18 -8q50 -20 80.5 -33.5t75.5 -35t73.5 -39.5t63.5 -43t56.5 -51t41 -57t28.5 -67t9 -77q0 -174 -129 -283.5t-317 -109.5q-155 0 -256 14t-222 47q-13 3 -16.5 7t-3.5 13q0 46 -1 260t-1 265q0 14 5.5 19.5t11 0t5.5 -19.5q0 -293 114 -439.5
t364 -146.5q162 0 242.5 74.5t80.5 201.5q0 57 -23 105.5t-58.5 83t-91.5 68t-107 57t-121 52.5q-9 3 -13 5q-59 24 -94.5 39.5t-88 41.5t-84.5 47.5t-69 53t-57.5 63.5t-34.5 73t-14 86q0 177 138.5 283t340.5 106zM586 1602q8 -8 14 0l168 249q27 39 70 39q19 0 30 -9
t11 -19q0 -21 -37 -60q-113 -117 -240 -219q-3 -3 -9 -3t-9 3q-155 118 -248 199q-41 36 -41 59q0 14 13.5 28.5t33.5 14.5q42 0 72 -43q19 -27 80.5 -111.5t91.5 -127.5z" />
    <glyph glyph-name="scaron" unicode="&#x161;" horiz-adv-x="909" 
d="M80 739q0 76 35 136.5t91.5 96t121.5 54t131 18.5q60 0 111.5 -3.5t74 -6t80 -12t76.5 -12.5q14 -2 14 -17q0 -32 -5 -176.5t-5 -181.5q0 -12 -8.5 -12t-8.5 12q0 195 -76 294t-251 99q-126 0 -204.5 -49.5t-78.5 -128.5q0 -29 10.5 -55t24 -45t42.5 -39t49.5 -32
t62.5 -29t64 -25t71 -25q47 -16 74.5 -26t69.5 -28t67 -33.5t54.5 -39.5t46 -48.5t27.5 -58t11 -71.5q0 -136 -105.5 -225.5t-261.5 -89.5q-74 0 -141.5 9t-102 18t-87 26t-64.5 20q-14 3 -14 29q0 6 3 38.5t6 115t3 210.5q0 8 4 12t8 0t4 -12q0 -230 85.5 -339t295.5 -109
q140 0 203.5 56t63.5 149q0 34 -11.5 63t-37.5 53t-50.5 41t-69.5 35.5t-74 29t-83 28.5q-52 17 -86 30t-79 32.5t-73.5 40.5t-55 48t-39.5 61t-13 74zM479 1202q9 -9 15 0l168 250q27 39 69 39q19 0 30 -9.5t11 -19.5q0 -20 -37 -59q-116 -121 -239 -219q-3 -3 -9.5 -3
t-9.5 3q-164 124 -248 198q-41 36 -41 60q0 14 14 28.5t34 14.5q41 0 71 -43q19 -28 81 -113.5t91 -126.5z" />
    <glyph glyph-name="Tcommaaccent" unicode="&#x162;" horiz-adv-x="1347" 
d="M754 1421v-891q0 -357 16 -436q11 -60 44 -71q15 -5 50 -5h37q12 0 12 -9t-12 -9q-32 0 -123 3t-102 3q-12 0 -103.5 -3t-123.5 -3q-12 0 -12 9t12 9h36q51 0 68 15q30 28 38 161q5 93 5 336v891q-57 -2 -168 -2q-156 0 -230.5 -102t-107.5 -316l-16 -116q-4 -11 -16 -10
q-7 1 -5 10l17 116q12 95 15 202t2.5 163.5t4.5 58.5q10 5 81.5 10t168.5 5q21 0 151.5 -2t180.5 -2q30 0 121 2t209 2h2q97 0 168 -5t81 -10q5 -2 4.5 -58.5t3.5 -163.5t17 -202l14 -116q3 -10 -6 -9.5t-12 9.5l-19 116q-13 84 -30 146t-43.5 115.5t-62.5 87t-87 52
t-116 19.5h-164zM655 -535q-8 -3 -10.5 0t4.5 9q43 25 73 70.5t30 113.5q0 26 -11 55q-23 -41 -71 -41q-37 0 -62.5 25.5t-25.5 62.5q0 40 27.5 68.5t72.5 28.5q55 0 87 -46t32 -124q0 -69 -49 -131t-97 -91z" />
    <glyph glyph-name="tcommaaccent" unicode="&#x163;" horiz-adv-x="667" 
d="M295 1221v-199q208 0 276 2q72 2 72 -4q0 -21 -100 -111q-1 0 -105.5 1t-146.5 1v-643q0 -110 34 -167.5t99 -57.5q62 0 118 56t91 157q3 8 11 8t13.5 -6t1.5 -14q-55 -111 -140.5 -187.5t-184.5 -76.5q-103 0 -150 67t-47 215v649h-112q-1 0 -2 2t-0.5 4.5t2.5 4.5
l262 301q8 8 8 -2zM299 -535q-8 -3 -10.5 0t4.5 9q102 59 102 184q0 28 -10 55q-23 -41 -72 -41q-37 0 -62.5 25.5t-25.5 62.5q0 40 27.5 68.5t73.5 28.5q55 0 86.5 -46t31.5 -124q0 -69 -49 -131.5t-96 -90.5z" />
    <glyph glyph-name="Tcaron" unicode="&#x164;" horiz-adv-x="1347" 
d="M754 1421v-891q0 -357 16 -436q11 -60 44 -71q15 -5 50 -5h37q12 0 12 -9t-12 -9q-32 0 -123 3t-102 3q-12 0 -103.5 -3t-123.5 -3q-12 0 -12 9t12 9h36q51 0 68 15q30 28 38 161q5 93 5 336v891q-57 -2 -168 -2q-156 0 -230.5 -102t-107.5 -316l-16 -116q-4 -11 -16 -10
q-7 1 -5 10l17 116q12 95 15 202t2.5 163.5t4.5 58.5q10 5 81.5 10t168.5 5q21 0 151.5 -2t180.5 -2q30 0 121 2t209 2h2q97 0 168 -5t81 -10q5 -2 4.5 -58.5t3.5 -163.5t17 -202l14 -116q3 -10 -6 -9.5t-12 9.5l-19 116q-13 84 -30 146t-43.5 115.5t-62.5 87t-87 52
t-116 19.5h-164zM674 1602q8 -8 14 0l168 249q27 39 70 39q19 0 30 -9t11 -19q0 -21 -37 -60q-113 -117 -240 -219q-3 -3 -9 -3t-9 3q-155 118 -248 199q-41 36 -41 59q0 14 13.5 28.5t33.5 14.5q42 0 72 -43q19 -27 80.5 -111.5t91.5 -127.5z" />
    <glyph glyph-name="tcaron" unicode="&#x165;" horiz-adv-x="712" 
d="M295 1221v-199q208 0 276 2q72 2 72 -4q0 -21 -100 -111q-1 0 -105.5 1t-146.5 1v-643q0 -110 34 -167.5t99 -57.5q62 0 118 56t91 157q3 8 11 8t13.5 -6t1.5 -14q-55 -111 -140.5 -187.5t-184.5 -76.5q-103 0 -150 67t-47 215v649h-112q-1 0 -2 2t-0.5 4.5t2.5 4.5
l262 301q8 8 8 -2zM451 1137q-11 -4 -12 1q0 3 5 7q43 25 73 70.5t30 113.5q0 28 -10 55q-23 -41 -72 -41q-37 0 -62.5 26t-25.5 63q0 40 27 68t73 28q55 0 87 -46t32 -124q0 -69 -48.5 -130.5t-96.5 -90.5z" />
    <glyph glyph-name="Tbar" unicode="&#x166;" horiz-adv-x="1347" 
d="M754 709v-179q0 -357 16 -436q11 -60 44 -71q15 -5 50 -5h37q12 0 12 -9t-12 -9q-32 0 -123 3t-102 3q-12 0 -103.5 -3t-123.5 -3q-12 0 -12 9t12 9h36q51 0 68 15q30 28 38 161q5 93 5 336v179q-129 -2 -328 -15q-10 6 -10 24t10 25q125 -9 328 -12v690q-57 -2 -168 -2
q-156 0 -230.5 -102t-107.5 -316l-16 -116q-4 -11 -16 -10q-7 1 -5 10l17 116q12 95 15 202t2.5 163.5t4.5 58.5q10 5 81.5 10t168.5 5q21 0 151.5 -2t180.5 -2q30 0 121 2t209 2h2q97 0 168 -5t81 -10q5 -2 4.5 -58.5t3.5 -163.5t17 -202l14 -116q3 -10 -6 -9.5t-12 9.5
l-19 116q-13 84 -30 146t-43.5 115.5t-62.5 87t-87 52t-116 19.5h-164v-690q165 0 333 12q11 -8 11 -25.5t-11 -23.5q-204 13 -333 15z" />
    <glyph glyph-name="tbar" unicode="&#x167;" horiz-adv-x="667" 
d="M295 1221v-199q208 0 276 2q72 2 72 -4q0 -21 -100 -111q-1 0 -105.5 1t-146.5 1v-264h231q72 2 72 -2q0 -21 -90 -108h-213v-269q0 -110 34 -167.5t99 -57.5q62 0 118 56t91 157q3 8 11 8t13.5 -6t1.5 -14q-55 -111 -140.5 -187.5t-184.5 -76.5q-103 0 -150 67t-47 215
v275h-33q-53 0 -53 4q0 12 86 104v266h-112q-1 0 -2 2t-0.5 4.5t2.5 4.5l262 301q8 8 8 -2z" />
    <glyph glyph-name="Utilde" unicode="&#x168;" horiz-adv-x="1361" 
d="M1161 500v389q0 105 -8 187t-19.5 135t-31.5 90.5t-37 56.5t-44 29.5t-44 12t-45 1.5h-19q-12 0 -12 9t12 9q33 0 141 -3t120 -3t71.5 3t91.5 3q12 0 12 -9t-12 -9h-14q-30 0 -44.5 -3t-33 -18t-26.5 -46t-16 -88.5t-10.5 -143.5t-2.5 -213v-389q0 -139 -60 -256
t-180.5 -190.5t-279.5 -73.5q-225 0 -357.5 143t-132.5 393v373q0 358 -16 437q-11 60 -44 70q-14 5 -48 5h-29q-12 0 -12 9t12 9q32 0 118.5 -3t98.5 -3q11 0 102 3t123 3q12 0 12 -9t-12 -9h-36q-51 0 -68 -15q-30 -28 -38 -161q-6 -95 -7 -336l-2 -318
q0 -247 117.5 -386.5t320.5 -139.5q164 0 276.5 132t112.5 323zM391 1602q89 115 126 152.5t71 37.5q46 0 159 -60.5t148 -60.5q29 0 46.5 16t74.5 97q9 11 16 7t-2 -17q-75 -109 -121 -157t-92 -48q-43 0 -153 64.5t-150 64.5q-16 0 -30.5 -14.5t-77.5 -92.5
q-12 -13 -17.5 -8t2.5 19z" />
    <glyph glyph-name="utilde" unicode="&#x169;" horiz-adv-x="1144" 
d="M137 395v377q0 87 -11.5 122t-40.5 39.5t-79 -7.5q-10 -1 -12 6q-2 9 10 12h2q124 22 250 92q5 3 21 -2t16 -12v-647q0 -92 20 -159t55 -104t76 -54t91 -17q95 0 165.5 43t145.5 143v545q0 87 -11.5 122t-40.5 39.5t-79 -7.5q-12 -1 -12 8t12 10q121 21 248 92
q5 3 20.5 -2t15.5 -12v-778q0 -57 1 -89.5t5.5 -61t10.5 -41t19.5 -21.5t29.5 -11t43 -2q9 0 9 -9t-9 -9q-44 0 -88.5 -2.5t-69.5 -5t-61.5 -7t-46.5 -5.5q-11 -1 -14 3t-3 15q0 2 5 30t10 76t6 99q-167 -223 -379 -223q-73 0 -130 20t-103.5 66t-71.5 129t-25 200z
M254 1214q90 116 126.5 153.5t70.5 37.5q46 0 159 -60.5t148 -60.5q29 0 46.5 16t74.5 97q9 11 16 6.5t-2 -17.5q-74 -109 -120.5 -156.5t-92.5 -47.5q-35 0 -94 32t-117.5 64.5t-91.5 32.5q-17 0 -32 -15.5t-77 -91.5q-12 -13 -17 -8.5t3 18.5z" />
    <glyph glyph-name="Umacron" unicode="&#x16a;" horiz-adv-x="1361" 
d="M1161 500v389q0 105 -8 187t-19.5 135t-31.5 90.5t-37 56.5t-44 29.5t-44 12t-45 1.5h-19q-12 0 -12 9t12 9q33 0 141 -3t120 -3t71.5 3t91.5 3q12 0 12 -9t-12 -9h-14q-30 0 -44.5 -3t-33 -18t-26.5 -46t-16 -88.5t-10.5 -143.5t-2.5 -213v-389q0 -139 -60 -256
t-180.5 -190.5t-279.5 -73.5q-225 0 -357.5 143t-132.5 393v373q0 358 -16 437q-11 60 -44 70q-14 5 -48 5h-29q-12 0 -12 9t12 9q32 0 118.5 -3t98.5 -3q11 0 102 3t123 3q12 0 12 -9t-12 -9h-36q-51 0 -68 -15q-30 -28 -38 -161q-6 -95 -7 -336l-2 -318
q0 -247 117.5 -386.5t320.5 -139.5q164 0 276.5 132t112.5 323zM713 1694h2q116 0 184 2q72 2 72 -2q0 -14 -94 -105q-1 0 -59.5 1t-100.5 1q-20 0 -156 -4q-72 -2 -72 4q0 13 95 105q1 0 44 -1t85 -1z" />
    <glyph glyph-name="umacron" unicode="&#x16b;" horiz-adv-x="1144" 
d="M137 395v377q0 87 -11.5 122t-40.5 39.5t-79 -7.5q-10 -1 -12 6q-2 9 10 12h2q124 22 250 92q5 3 21 -2t16 -12v-647q0 -92 20 -159t55 -104t76 -54t91 -17q95 0 165.5 43t145.5 143v545q0 87 -11.5 122t-40.5 39.5t-79 -7.5q-12 -1 -12 8t12 10q121 21 248 92
q5 3 20.5 -2t15.5 -12v-778q0 -57 1 -89.5t5.5 -61t10.5 -41t19.5 -21.5t29.5 -11t43 -2q9 0 9 -9t-9 -9q-44 0 -88.5 -2.5t-69.5 -5t-61.5 -7t-46.5 -5.5q-11 -1 -14 3t-3 15q0 2 5 30t10 76t6 99q-167 -223 -379 -223q-73 0 -130 20t-103.5 66t-71.5 129t-25 200z
M555 1307h2q116 0 184 2q72 2 72 -2q0 -14 -94 -105q-1 0 -59.5 1t-100.5 1q-20 0 -156 -4q-71 -2 -71 4q0 14 94 105q1 0 44 -1t85 -1z" />
    </font>
</defs>
</svg>
