<?xml version="1.0" encoding="UTF-8"?><svg id="Layer_1" xmlns="http://www.w3.org/2000/svg" viewBox="0 0 2400 1484"><defs><style>.alyse-max-header{fill:var(--colorTerraCotta);}.alyse-max-header-ampersand{fill:none;opacity:.16;}</style></defs><g class="alyse-max-header-ampersand"><path class="alyse-max-header" d="m602.55,1013.64c0-154.81,136.18-232.22,384.19-280.96-78.86-83.15-117.56-147.65-117.56-227.92,0-150.52,121.85-279.53,408.53-279.53,210.74,0,334.02,93.17,334.02,206.42,0,87.44-67.39,182.05-286.71,227.92l285.25,291,41.59-47.31c30.09-32.98,44.45-65.94,44.45-93.17,0-40.14-28.69-71.68-81.72-87.45l-54.49-15.76v-22.94h354.07v22.94l-32.95,12.9c-45.88,18.63-78.86,57.33-174.9,169.15l-73.11,86.01,87.47,90.3c67.36,70.25,130.43,108.95,213.57,129.01l60.21,14.34v25.8h-518.93l-68.79-70.23c-88.87,53.03-196.38,94.6-358.36,94.6-253.73,0-445.83-78.84-445.83-245.12Zm415.71,210.71c-103.2-40.13-147.65-126.14-147.65-262.33,0-78.83,11.47-134.75,44.45-177.75l-1.43-1.43c-196.41,51.61-276.67,123.28-276.67,230.79,0,123.28,134.75,202.12,381.3,212.16v-1.44Zm-282.39-230.78c0-45.88,18.65-88.88,58.78-123.29l11.47,7.18c-25.8,37.27-35.84,74.54-35.84,110.38,0,53.03,21.51,101.77,55.89,144.77l-12.9,7.18c-50.17-38.71-77.4-91.74-77.4-146.22Zm1113.81,206.41v-1.43c-58.78-24.37-106.09-60.21-153.37-108.95l-442.97-452.98c-114.67-121.85-161.98-197.81-161.98-262.33,0-38.7,15.76-74.54,50.17-103.21l-1.43-1.43c-153.37,34.41-236.51,117.54-236.51,235.1,0,73.11,34.41,130.44,134.75,232.22l451.55,463h359.79Zm-467.31-60.19l-374.15-384.17c-74.54,31.53-103.2,83.13-103.2,206.41,0,170.58,70.25,249.43,242.26,249.43,90.3,0,166.27-30.1,235.08-71.66Zm-249.44-441.52c-81.69-84.56-151.94-179.18-151.94-255.15,0-30.1,11.47-57.35,37.27-80.27l14.33,10.02c-15.76,20.06-21.51,41.57-21.51,64.51,0,74.54,71.68,159.12,147.67,237.96l10.01,11.46-25.8,22.94-10.04-11.47Zm321.12-266.62c0-103.21-53.06-173.46-174.9-173.46-101.77,0-153.37,57.35-153.37,116.11,0,67.37,71.68,154.83,174.87,260.9l1.43,1.43c117.56-44.43,151.96-130.44,151.96-204.98Zm-255.16,309.62h80.26v80.27h-80.26v-80.27Zm106.09,133.32l24.37-24.37,273.78,280.96h-48.74l-249.41-256.59Zm272.35-442.94c0-64.51-50.17-117.54-141.93-151.95l-1.43,1.43c37.27,40.14,54.49,88.88,54.49,150.52s-20.08,116.11-65.96,164.85l1.43,1.43c103.23-43,153.39-98.91,153.39-166.28Zm153.37,382.73c35.84-47.29,61.64-74.54,88.9-94.6v-1.43h-139.07v1.43c32.98,22.94,48.74,53.04,47.31,94.6h2.86Z"/></g><path class="alyse-max-header" d="m94.85,583.02c-12.29,0-37.36-.5-44.89-.76l-4.26,10.54c-4.26,10.54-9.02,26.34-9.02,37.37,0,8.03,5.02,12.3,14.04,12.3,2.01,0,6.01-.76,7.03-.76,1.23,0,1.75.5,1.75,1.25s-.53,1.5-3.01,1.5c-4.52,0-24.34-.5-28.6-.5-3.27,0-14.56.5-20.81.5-1.02,0-1.52-.5-1.52-1.25,0-.5.76-1.01,1.52-1.01h.99c7.03,0,12.78-5.27,18.07-15.04,6.27-10.78,12.52-25.08,16.55-35.62l48.39-120.88c.26-.5.53-.76,1.78-.76h2.51c1.49,0,2.25.26,2.51.76l45.64,108.84c24.81,58.69,28.57,62.7,40.63,62.7h2.01c1.23,0,1.75.51,1.75,1.01,0,.76-.53,1.25-1.52,1.25-7.27,0-21.57-.76-25.33-.76s-23.06.76-30.35.76c-1.98,0-2.74-2.26-.73-2.26h5.25c10.8,0,12.78-4.26-11.03-59.95l-29.36.76Zm-9.28-91.04l-34.85,88.04,42.64-.25h29.59v-.26l-37.39-87.53Z"/><path class="alyse-max-header" d="m304.08,604.09c0,19.31-.99,32.6-1.98,36.86,7.27,0,40.13.76,47.89.76,29.1,0,48.65-31.86,51.92-57.44l2.51-22.82c.23-1.5,3.01-1.5,2.74.25l-2.51,23.07c-4.49,41.89-6.51,56.69-8.26,58.19-1.02,1.01-16.05,1.5-33.36,1.5s-62.46-.76-62.46-.76l-35.37.76c-2.51,0-2.51-1.75,0-1.75,14.56,0,16.81-1.77,18.82-33.36,1.25-17.31.23-51.92.23-63.46s-.73-36.36-.73-50.15c0-22.57-.53-22.82-16.58-22.82-1.98,0-1.98-2.26,0-2.26s26.85.5,30.61.5,23.58-.5,30.85-.5c2.01,0,2.01,2.26,0,2.26h-7.03c-17.04,0-17.31,1.25-17.31,62.7v68.47Z"/><path class="alyse-max-header" d="m556.7,564.97v14.53c0,61.71,1.25,62.7,13.54,62.7h4.52c1.98,0,1.98,2.26,0,2.26-7.03,0-23.58-.76-27.35-.76-3.5,0-20.58.76-27.58.76-2.01,0-2.01-2.26,0-2.26h4.49c12.29,0,13.54-.99,13.54-62.7v-13.79l-27.08-48.9c-19.29-34.86-25.83-43.89-38.61-43.89h-2.01c-1.25,0-1.75-.51-1.75-1.01,0-.76.5-1.25,1.52-1.25,7.27,0,21.04.76,24.81.76s23.09-.76,30.35-.76c2.01,0,2.77,2.26.76,2.26h-5.28c-12.52,0-8.26,10.78,10.54,45.13l23.84,43.89,26.59-45.89c5.75-9.78,21.3-43.38-3.01-43.38-2.01,0-6.04.99-7.03.99-1.25,0-1.75-.74-1.75-1.5s.5-1.5,3.01-1.5c4.52,0,22.06.5,26.32.5,3.27,0,21.07-.5,27.35-.5,2.01,0,1.25,2.26-.5,2.26h-.5c-14.3,0-35.87,34.61-41.15,43.89l-27.58,48.15Z"/><path class="alyse-max-header" d="m807.8,474.68c1.75.5,2.51.76,2.74,2.76.5,5.02-1.49,21.57-1.49,61.2,0,3.25-2.51,3.25-2.51,0,.5-38.63-6.54-67.97-53.44-67.97-30.59,0-42.87,14.3-42.87,33.36,0,24.08,25.83,34.37,51.66,45.4,26.09,10.78,52.42,22.33,52.42,49.41,0,28.83-24.57,48.15-54.66,48.15-27.08,0-40.65-2.76-58.46-7.53-2.25-.5-2.51-1.01-2.51-2.51,0-11.53-.23-51.91-.23-64.21,0-3.5,2.74-3.5,2.74,0,0,46.65,16.81,71.74,58.46,71.74,27.58,0,39.6-14.05,39.6-33.85,0-24.59-25.07-34.61-50.64-45.4-26.85-11.03-54.2-22.82-54.2-49.41,0-29.86,26.85-47.66,58.69-47.66,25.1,0,40.39,3.27,54.69,6.52Z"/><path class="alyse-max-header" d="m942.52,552.93h20.81c31.34,0,38.12-11.54,38.12-28.85v-5.27c0-2,2.51-2,2.51,0,0,7.27-1.25,31.86-1.25,35.62,0,3.5,1.25,30.6,1.25,34.35,0,2.01-2.51,2.01-2.51,0v-3.75c0-17.31-6.77-29.1-38.12-29.1h-20.81v48.15c0,19.31-1.02,32.6-2.01,36.86,7.27,0,39.63.76,47.4.76,29.1,0,49.67-25.08,52.94-50.66l1.49-13.29c.26-1.5,3.01-1.5,2.77.25l-1.52,13.54c-4.52,40.89-6.01,50.42-7.76,51.92-1.02,1.01-16.05,1.01-33.36,1.01s-63.48-.76-63.48-.76l-35.34.76c-2.51,0-2.51-1.75,0-1.75,14.53,0,16.81-1.77,18.79-33.36,1.25-17.31,1.02-50.66,1.02-73.74,0-61.7-2.28-62.7-14.56-62.7h-4.49c-2.01,0-2.01-2.26,0-2.26,7,0,24.08.76,27.81.76,3.53,0,79.27-.76,88.28-.76,4.52,0,10.3.25,11.79,1.01,1.25.74,3.53,19.06,7.3,46.14l.99,9.03c.5,1.75-2.01,1.5-2.51,0l-1.25-9.03c-4.76-28.09-24.34-43.88-52.91-44.14h-31.87c-11.53,0-9.51.26-9.51,61.96v17.31Z"/><path class="alyse-max-header" d="m1407.84,474.68c1.75.5,2.51.76,2.77,2.76.5,5.02-1.52,21.57-1.52,61.2,0,3.25-2.51,3.25-2.51,0,.5-38.63-6.51-67.97-53.41-67.97-30.61,0-42.9,14.3-42.9,33.36,0,24.08,25.83,34.37,51.69,45.4,26.06,10.78,52.42,22.33,52.42,49.41,0,28.83-24.6,48.15-54.69,48.15-27.08,0-40.63-2.76-58.43-7.53-2.28-.5-2.51-1.01-2.51-2.51,0-11.53-.26-51.91-.26-64.21,0-3.5,2.77-3.5,2.77,0,0,46.65,16.81,71.74,58.43,71.74,27.58,0,39.63-14.05,39.63-33.85,0-24.59-25.07-34.61-50.66-45.4-26.82-11.03-54.17-22.82-54.17-49.41,0-29.86,26.82-47.66,58.69-47.66,25.07,0,40.36,3.27,54.66,6.52Z"/><path class="alyse-max-header" d="m1602.01,579.51c0,61.71,1.25,62.7,13.54,62.7h4.52c1.98,0,1.98,2.26,0,2.26-7.03,0-24.08-.76-27.61-.76-3.76,0-20.81.76-27.84.76-1.98,0-1.98-2.26,0-2.26h4.52c12.29,0,13.54-.99,13.54-62.7v-109.09c-7.03.25-14.8.25-20.58.25-26.82,0-36.36,18.56-41.38,51.16l-1.98,14.3c-.53,1.5-3.01,1.75-2.51,0l1.98-14.3c3.53-27.08,1.25-51.16,2.77-51.92,1.52-.74,13.28-1.75,30.59-1.75,6.27,0,29.59.51,40.65.51s15.03-.51,40.36-.51h.26c17.31,0,29.1,1.01,30.59,1.75s-.76,24.84,3.01,51.92l1.78,14.3c.5,1.75-1.78,1.5-2.28,0l-2.25-14.3c-5.02-32.6-14.56-51.16-41.65-51.41h-20.05v109.09Z"/><path class="alyse-max-header" d="m1819.76,583.02c-12.29,0-37.39-.5-44.89-.76l-4.26,10.54c-4.29,10.54-9.05,26.34-9.05,37.37,0,8.03,5.02,12.3,14.04,12.3,2.01,0,6.04-.76,7.03-.76,1.25,0,1.75.5,1.75,1.25s-.5,1.5-3.01,1.5c-4.52,0-24.34-.5-28.6-.5-3.24,0-14.53.5-20.81.5-.99,0-1.49-.5-1.49-1.25,0-.5.73-1.01,1.49-1.01h.99c7.03,0,12.81-5.27,18.07-15.04,6.27-10.78,12.55-25.08,16.55-35.62l48.42-120.88c.26-.5.5-.76,1.75-.76h2.51c1.52,0,2.25.26,2.51.76l45.64,108.84c24.84,58.69,28.6,62.7,40.63,62.7h2.01c1.25,0,1.75.51,1.75,1.01,0,.76-.5,1.25-1.49,1.25-7.3,0-21.57-.76-25.33-.76s-23.09.76-30.35.76c-2.01,0-2.77-2.26-.76-2.26h5.25c10.8,0,12.81-4.26-11.03-59.95l-29.33.76Zm-9.28-91.04l-34.88,88.04,42.64-.25h29.59v-.26l-37.36-87.53Z"/><path class="alyse-max-header" d="m1991.6,644.47c-1.98,0-1.98-2.26,0-2.26,6.27,0,10.04-.25,11.56-.5,3.5-3.52,4.49-9.03,5.02-22.57.5-13.79.73-38.63.73-50.15v-33.36c0-61.7-1.25-62.7-13.54-62.7h-4.49c-2.01,0-2.01-2.26,0-2.26,7,0,24.08.76,27.81.76,3.53,0,26.59-.76,30.85-.76,43.16,0,64.21,14.55,64.21,41.14,0,21.32-26.32,35.87-53.41,40.63,21.3.51,30.09,8.27,46.4,41.14,20.81,44.14,25.57,48.65,40.89,48.65h1.75c2.25,0,2.51,2.26,0,2.26h-9.05c-8.76,0-13.54,1.01-17.31,1.01-5.52,0-8.76-1.5-12.78-6.03-5.25-6.01-12.29-17.8-20.81-37.87-18.82-43.4-26.09-46.9-51.16-47.4h-10.3v25.32c0,61.71,1.25,62.7,13.54,62.7h5.02c2.01,0,2.01,2.26,0,2.26-7,0-23.81-.5-27.32-.5-3.76,0-25.6.5-27.61.5Zm36.36-92.79c4.79-.26,11.29-.26,21.07-.26,19.32,0,42.41-11.28,42.41-39.62,0-26.09-12.55-38.87-43.89-38.87h-9.78c-9.28,0-9.81,1.01-9.81,37.87v40.89Z"/><path class="alyse-max-header" d="m2256.51,643.98c-3.76,0-26.59.5-28.6.5s-1.98-2.26,0-2.26c6.27,0,10.04-.25,11.56-.5,3.5-3.52,4.49-9.03,5.02-22.57.5-13.79.73-38.63.73-50.15v-33.36c0-61.7-1.25-62.7-13.54-62.7h-4.49c-2.01,0-2.01-2.26,0-2.26,7,0,24.57.76,28.34.76,3.5,0,20.05-.76,27.08-.76,2.01,0,2.01,2.26,0,2.26h-4.52c-12.29,0-13.8,1.01-13.8,62.7v35.11l45.15-48.65c19.58-21.07,29.1-36.13,29.1-43.15-.23-4.01-3.5-6.26-9.78-6.26-2.01,0-4.76.99-5.78.99-1.25,0-2.25-.74-2.25-1.5s.76-1.5,2.77-1.5c4.26,0,23.32.5,27.32.5,3.27,0,20.31-.5,26.59-.5,1.75,0,1.52,2.26,0,2.26h-.5c-17.57,0-26.09,9.28-65.2,50.66l-24.08,25.83c4.76-3.01,10.54-5.27,17.54-5.27,8.29,0,11.29,1.01,15.56,3.25,15.56,8.03,19.06,23.83,28.6,46.16,16.05,40.38,22.33,48.65,35.34,48.65h3.04c3.24,0,3.01,2.26-.53,2.26h-8.52c-8.78,0-14.3,1.01-18.07,1.01-5.52,0-8.76-1.5-12.52-6.03-4.79-6.01-10.04-18.05-17.31-37.87-7.79-22.08-17.57-52.42-33.62-52.42-4.76,0-8.26.25-15.79,6.77l-17.07,18.3v5.27c0,61.71,1.25,62.7,13.54,62.7h5.55c1.98,0,1.98,2.26,0,2.26s-23.09-.5-26.85-.5Z"/><path class="alyse-max-header" d="m96.37,937.01c-.76,0-1.25-.5-2.01-1.75l-68.96-100.57-.26,90.28c-.26,61.71,14.04,62.7,26.32,62.7h3.53c1.75,0,1.75,2.26,0,2.26-7.27.25-29.36-.76-33.12-.76s-13.28.76-20.31.76c-1.75,0-1.98-2.26.26-2.26h1.49c11.29-.25,18.33-3.25,18.56-62.7,0-28.59.26-72.23.26-86.52,0-4.77-1.25-8.54-3.27-10.78-4.26-4.77-10.04-9.53-16.29-9.53h-1.25c-1.75,0-1.75-2.01,0-2.01,26.06,0,30.35-1.75,32.1-1.75,1.25,0,1.98.5,2.51,1.5,1.75,3.25,6.51,10.54,10.01,15.54l60.44,89.04,50.93-79.25c11.53-18.31,15.06-26.84,19.82-26.84,3.76,0,24.84,1.75,29.1,1.75,2.01,0,2.01,2.26,0,2.26h-3.76c-12.29,0-13.54,1.01-13.54,62.7v43.88c0,61.71,1.25,62.7,13.54,62.7h3.76c2.01,0,2.01,2.26,0,2.26-7.03,0-23.32-.76-26.85-.76-3.76,0-21.07.76-28.08.76-2.01,0-2.01-2.26,0-2.26h5.02c12.29,0,13.54-.99,13.54-62.7v-88.78c0-9.78-2.51-4.51-9.78,6.52l-59.22,92.54c-.73,1.25-1.25,1.75-2.25,1.75h-2.25Z"/><path class="alyse-max-header" d="m369.54,928.48c-12.29,0-37.36-.5-44.89-.76l-4.26,10.54c-4.26,10.54-9.02,26.34-9.02,37.37,0,8.03,5.02,12.3,14.04,12.3,2.01,0,6.01-.76,7.03-.76,1.23,0,1.75.5,1.75,1.25s-.53,1.5-3.01,1.5c-4.52,0-24.34-.5-28.6-.5-3.27,0-14.56.5-20.81.5-1.02,0-1.52-.5-1.52-1.25,0-.5.76-1.01,1.52-1.01h.99c7.03,0,12.78-5.27,18.07-15.04,6.27-10.78,12.52-25.08,16.55-35.62l48.39-120.88c.26-.5.53-.76,1.78-.76h2.51c1.49,0,2.25.26,2.51.76l45.64,108.84c24.81,58.69,28.57,62.7,40.63,62.7h2.01c1.23,0,1.75.51,1.75,1.01,0,.76-.53,1.25-1.52,1.25-7.27,0-21.57-.76-25.33-.76s-23.06.76-30.35.76c-1.98,0-2.74-2.26-.73-2.26h5.25c10.8,0,12.78-4.26-11.03-59.95l-29.36.76Zm-9.28-91.04l-34.85,88.04,42.64-.25h29.59v-.26l-37.39-87.53Z"/><path class="alyse-max-header" d="m627.94,889.86l17.31-23.83c14.27-19.55,20.05-31.84,20.05-40.38,0-4.51-3.27-7.27-10.54-7.27-2.01,0-7,.74-7.76.74-1.25,0-1.52-.5-1.25-1.25.23-.74.99-1.5,3.5-1.5,4.26,0,27.08.51,31.34.51,3.53,0,14.8-.51,21.07-.51,2.28,0,1.75,2.26,0,2.26h-.5c-7.03,0-16.31,4.01-24.08,13.29-9.78,10.29-21.57,25.33-29.1,35.36l-18.56,25.08,28.6,45.4c30.35,48.65,35.11,50.17,46.4,50.17h2.25c1.25,0,2.01.5,2.01.99,0,.76-.5,1.25-1.52,1.25-7.76,0-22.33-.74-26.06-.74-4.03,0-24.34.74-31.87.74-2.25,0-3.27-2.25-1.25-2.25h5.52c13.31,0,13.31-4.28-18.07-51.92l-19.06-30.35-24.31,33.61c-10.3,14.05-18.82,30.1-18.82,36.87s5.28,12.04,11.79,12.04c4.26,0,10.54-1.25,11.53-1.25,1.25,0,1.52,1.01,1.25,1.75-.23.76-.99,1.5-3.74,1.5-4.79,0-32.86-.5-37.12-.5-3.53,0-14.8.5-21.57.5-2.01,0-1.78-2.25.23-2.25h1.75c15.06,0,27.08-16.81,51.69-50.17l25.57-34.86-21.07-33.85c-30.85-48.91-32.83-50.42-46.14-50.42h-2.01c-1.49,0-2.25-.5-2.25-1.01,0-.74.5-1.25,1.75-1.25,7.53,0,21.83.76,25.83.76,3.76,0,24.08-.76,31.87-.76,1.98,0,3.01,2.26.99,2.26h-5.52c-10.8,0-14.3,2,13.54,45.4l16.31,25.83Z"/><path class="alyse-max-header" d="m1007.49,989.93c-1.98,0-1.98-2.26,0-2.26h3.27c12.29,0,13.54-.99,13.54-62.7v-43.88c0-61.7-2.25-62.7-14.53-62.7h-4.52c-2.01,0-2.01-2.26,0-2.26,7.03,0,16.55.25,34.35.25,62.22,0,79.27-.74,86.3-.74,5.25,0,10.54.25,13.28.74.99,1.25,1.52,16.05,6.54,57.19l1.98,16.55c.26,1.77-2.51,1.77-2.74.26l-2.01-16.31c-4.52-33.1-22.56-55.17-50.93-54.93h-39.11c-11.53,0-9.54.26-9.54,61.96v22.06h20.08c31.34,0,38.12-13.29,38.12-32.85v-3.52c0-2.01,2.51-2.01,2.51,0,0,7.27-1.25,34.37-1.25,37.87,0,3.76,1.25,34.37,1.25,38.13,0,2-2.51,2-2.51,0v-4.01c0-19.57-6.77-32.61-38.12-32.61h-20.08v18.81c0,61.45,1.25,62.7,13.31,62.7h9.28c1.98,0,1.98,2.26,0,2.26-7.03,0-28.34-.76-31.87-.76-3.76,0-19.55.76-26.59.76Z"/><path class="alyse-max-header" d="m1242.31,989.93c-2.01,0-2.01-2.26,0-2.26,6.27,0,10.04-.25,11.53-.5,3.5-3.52,4.52-9.03,5.02-22.57.5-13.79.76-38.63.76-50.15v-33.36c0-61.7-1.25-62.7-13.54-62.7h-4.52c-2.01,0-2.01-2.26,0-2.26,7.03,0,24.08.76,27.84.76,3.5,0,26.59-.76,30.85-.76,43.14,0,64.21,14.55,64.21,41.14,0,21.32-26.32,35.87-53.41,40.63,21.3.51,30.09,8.27,46.37,41.14,20.84,44.14,25.6,48.65,40.89,48.65h1.75c2.28,0,2.51,2.26,0,2.26h-9.02c-8.78,0-13.54,1.01-17.31,1.01-5.52,0-8.78-1.5-12.78-6.03-5.28-6.01-12.29-17.8-20.84-37.87-18.79-43.4-26.06-46.9-51.16-47.4h-10.27v25.32c0,61.71,1.25,62.7,13.54,62.7h5.02c2.01,0,2.01,2.26,0,2.26-7.03,0-23.84-.5-27.35-.5-3.76,0-25.57.5-27.58.5Zm36.36-92.79c4.76-.26,11.29-.26,21.07-.26,19.32,0,42.38-11.28,42.38-39.62,0-26.09-12.55-38.87-43.89-38.87h-9.78c-9.28,0-9.78,1.01-9.78,37.87v40.89Z"/><path class="alyse-max-header" d="m1561.62,813.61c47.16,0,88.28,37.88,88.28,89.54s-42.64,89.29-89.77,89.29-87.55-37.87-87.55-89.29,41.88-89.54,89.04-89.54Zm-2.51,176.32c40.89,0,68.47-35.36,68.47-86.78s-24.08-87.03-64.97-87.03-67.45,35.37-67.45,87.03,23.06,86.78,63.94,86.78Z"/><path class="alyse-max-header" d="m1736,818.14c-1.75,0-1.75-2.01,0-2.01,26.06,0,35.61-1.01,37.36-1.01,1.25,0,2.01.51,2.51,1.5,1.75,3.27,5.78,8.54,9.78,13.29l104.34,129.67v-78.49c0-61.7-16.55-62.7-28.57-62.7h-3.53c-2.01,0-2.01-2.26,0-2.26,7.27,0,29.86.76,33.62.76,3.5,0,12.29-.76,19.55-.76,2.01,0,2.01,2.26,0,2.26h-1.75c-12.29,0-16.05,1.01-16.05,62.7v107.09c0,1.5-.26,2.51-2.01,2.51-1.49,0-4.26-2.76-6.27-5.53l-120.88-150.72-.23,90.53c0,61.71,14.04,62.7,26.32,62.7h3.5c1.75,0,1.75,2.26,0,2.26-7.27.25-29.33-.76-33.1-.76s-13.31.76-20.31.76c-1.75,0-2.01-2.26.23-2.26h1.52c11.29-.25,18.3-3.25,18.56-62.7l.23-90.03c0-1.75-.99-4.76-4-7.78-5.78-5.76-11.29-9.02-19.82-9.02h-.99Z"/><path class="alyse-max-header" d="m2034,898.39h20.81c31.34,0,38.12-11.54,38.12-28.85v-5.27c0-2,2.51-2,2.51,0,0,7.27-1.25,31.86-1.25,35.62,0,3.5,1.25,30.6,1.25,34.35,0,2.01-2.51,2.01-2.51,0v-3.75c0-17.31-6.77-29.1-38.12-29.1h-20.81v48.15c0,19.31-1.02,32.6-2.01,36.86,7.27,0,39.63.76,47.4.76,29.1,0,49.67-25.08,52.94-50.66l1.49-13.29c.26-1.5,3.01-1.5,2.77.25l-1.52,13.54c-4.52,40.89-6.01,50.42-7.76,51.92-1.02,1.01-16.05,1.01-33.36,1.01s-63.48-.76-63.48-.76l-35.34.76c-2.51,0-2.51-1.75,0-1.75,14.53,0,16.81-1.77,18.79-33.36,1.25-17.31,1.02-50.66,1.02-73.74,0-61.7-2.28-62.7-14.56-62.7h-4.49c-2.01,0-2.01-2.26,0-2.26,7,0,24.08.76,27.81.76,3.53,0,79.27-.76,88.28-.76,4.52,0,10.3.25,11.79,1.01,1.25.74,3.53,19.06,7.3,46.14l.99,9.03c.5,1.75-2.01,1.5-2.51,0l-1.25-9.03c-4.76-28.09-24.34-43.88-52.91-44.14h-31.87c-11.53,0-9.51.26-9.51,61.96v17.31Z"/><path class="alyse-max-header" d="m2266.54,989.44c-3.76,0-26.59.5-28.6.5s-2.01-2.26,0-2.26c6.27,0,10.04-.25,11.53-.5,3.5-3.52,4.52-9.03,5.02-22.57.5-13.79.76-38.63.76-50.15v-33.36c0-61.7-1.25-62.7-13.54-62.7h-4.52c-2.01,0-2.01-2.26,0-2.26,7.03,0,24.57.76,28.34.76,3.5,0,20.08-.76,27.08-.76,2.01,0,2.01,2.26,0,2.26h-4.49c-12.32,0-13.8,1.01-13.8,62.7v35.11l45.15-48.65c19.55-21.07,29.1-36.13,29.1-43.15-.26-4.01-3.53-6.26-9.78-6.26-2.01,0-4.79.99-5.78.99-1.25,0-2.25-.74-2.25-1.5s.73-1.5,2.74-1.5c4.26,0,23.32.5,27.35.5,3.24,0,20.31-.5,26.59-.5,1.75,0,1.49,2.26,0,2.26h-.5c-17.57,0-26.09,9.28-65.23,50.66l-24.08,25.83c4.76-3.01,10.54-5.27,17.57-5.27,8.26,0,11.27,1.01,15.56,3.25,15.53,8.03,19.06,23.83,28.57,46.16,16.05,40.38,22.33,48.65,35.37,48.65h3.01c3.27,0,3.01,2.26-.5,2.26h-8.52c-8.78,0-14.3,1.01-18.07,1.01-5.52,0-8.78-1.5-12.55-6.03-4.76-6.01-10.04-18.05-17.31-37.87-7.76-22.08-17.54-52.42-33.59-52.42-4.79,0-8.29.25-15.82,6.77l-17.04,18.3v5.27c0,61.71,1.25,62.7,13.54,62.7h5.52c2.01,0,2.01,2.26,0,2.26s-23.09-.5-26.82-.5Z"/></svg>